<svg width="90" height="122" viewBox="0 0 90 122" fill="none" xmlns="http://www.w3.org/2000/svg">
<path d="M89.3832 24.9522C89.3832 12.31 79.0976 2.02441 66.4554 2.02441C54.8921 2.02441 45.3062 10.6307 43.7527 21.7736L43.6929 21.7229L18.9413 50.8168C18.8692 50.9016 18.8185 51.0025 18.7934 51.1109C18.7684 51.2194 18.7698 51.3323 18.7975 51.4401L21.2369 60.944L11.7281 74.5284L8.09369 78.1628L7.19534 77.2644L6.21292 78.2468L7.60248 79.6364L11.7712 83.8051L13.1607 85.1946L14.1432 84.2122L13.2448 83.3139L16.8792 79.6795L30.4636 70.1707L31.5519 70.45L39.9675 72.6101C40.1877 72.6643 40.4184 72.6121 40.5907 72.4662L69.6847 47.7146L69.634 47.6549C80.7769 46.1014 89.3832 36.5155 89.3832 24.9522ZM66.4554 3.41398C77.6115 3.41398 86.8125 11.9396 87.8873 22.8185C86.2789 20.9026 84.5211 19.1173 82.6306 17.4791C77.2384 12.8227 71.6454 10.3618 66.4554 10.3618C61.2653 10.3618 55.6724 12.8227 50.2802 17.4784C48.3899 19.1169 46.6322 20.9023 45.0234 22.8178C46.0983 11.9396 55.2993 3.41398 66.4554 3.41398ZM87.8185 24.9522C86.0725 27.2137 77.0765 38.1531 66.4554 38.1531C55.8447 38.1531 46.8389 27.2123 45.0922 24.9522C46.8382 22.6907 55.8342 11.7514 66.4554 11.7514C77.0661 11.7514 86.0718 22.6921 87.8185 24.9522ZM9.07611 79.1452L12.2624 75.9589L15.4487 79.1452L12.2624 82.3315L9.07611 79.1452ZM39.9647 71.174L30.4997 68.745C30.4027 68.7204 30.3014 68.7169 30.2029 68.7347C30.1044 68.7526 30.0108 68.7914 29.9286 68.8485L16.511 78.2413L13.167 74.8973L22.5597 61.4797C22.6172 61.3976 22.6561 61.304 22.674 61.2054C22.6919 61.1069 22.6882 61.0056 22.6633 60.9086L20.2343 51.4435L43.5512 24.0351C43.5387 24.3394 43.5276 24.6444 43.5276 24.9522C43.5276 37.5945 53.8131 47.88 66.4554 47.88C66.7632 47.88 67.0682 47.8689 67.3725 47.8564L39.9647 71.174ZM66.4554 46.4904C55.2993 46.4904 46.0983 37.9648 45.0234 27.0859C46.6318 29.0018 48.3896 30.7872 50.2802 32.4253C55.6724 37.0817 61.2653 39.5426 66.4554 39.5426C71.6454 39.5426 77.2384 37.0817 82.6306 32.426C84.5208 30.7875 86.2785 29.0021 87.8873 27.0866C86.8125 37.9648 77.6115 46.4904 66.4554 46.4904Z" fill="#4964BF"/>
<path fill-rule="evenodd" clip-rule="evenodd" d="M30.4636 70.1707L1.29395 120.794H54.7531L30.4636 70.1707ZM3.5304 119.479L30.8941 71.9589L52.6009 119.215L3.5304 119.479Z" fill="#4964BF"/>
<path d="M30.4636 70.1707L54.7531 120.794L31.5519 70.45L30.4636 70.1707Z" fill="#4964BF"/>
<path d="M30.4636 70.1707L16.8792 79.6795L13.2448 83.3139L14.1432 84.2122L13.1607 85.1946L11.7712 83.8051L7.60248 79.6364L6.21292 78.2468L7.19534 77.2644L8.09369 78.1628L11.7281 74.5284L21.2369 60.944L18.7975 51.4401C18.7698 51.3323 18.7684 51.2194 18.7934 51.1109C18.8185 51.0025 18.8692 50.9016 18.9413 50.8168L43.6929 21.7229L43.7527 21.7736C45.3062 10.6307 54.8921 2.02441 66.4554 2.02441C79.0976 2.02441 89.3832 12.31 89.3832 24.9522C89.3832 36.5155 80.7769 46.1014 69.634 47.6549L69.6847 47.7146L40.5907 72.4662C40.4184 72.6121 40.1877 72.6643 39.9675 72.6101L31.5519 70.45M30.4636 70.1707L1.29395 120.794H54.7531M30.4636 70.1707L54.7531 120.794M30.4636 70.1707L31.5519 70.45M54.7531 120.794L31.5519 70.45M66.4554 3.41398C77.6115 3.41398 86.8125 11.9396 87.8873 22.8185C86.2789 20.9026 84.5211 19.1173 82.6306 17.4791C77.2384 12.8227 71.6454 10.3618 66.4554 10.3618C61.2653 10.3618 55.6724 12.8227 50.2802 17.4784C48.3899 19.1169 46.6322 20.9023 45.0234 22.8178C46.0983 11.9396 55.2993 3.41398 66.4554 3.41398ZM87.8185 24.9522C86.0725 27.2137 77.0765 38.1531 66.4554 38.1531C55.8447 38.1531 46.8389 27.2123 45.0922 24.9522C46.8382 22.6907 55.8342 11.7514 66.4554 11.7514C77.0661 11.7514 86.0718 22.6921 87.8185 24.9522ZM9.07611 79.1452L12.2624 75.9589L15.4487 79.1452L12.2624 82.3315L9.07611 79.1452ZM39.9647 71.174L30.4997 68.745C30.4027 68.7204 30.3014 68.7169 30.2029 68.7347C30.1044 68.7526 30.0108 68.7914 29.9286 68.8485L16.511 78.2413L13.167 74.8973L22.5597 61.4797C22.6172 61.3976 22.6561 61.304 22.674 61.2054C22.6919 61.1069 22.6882 61.0056 22.6633 60.9085L20.2343 51.4435L43.5512 24.0351C43.5387 24.3394 43.5276 24.6444 43.5276 24.9522C43.5276 37.5945 53.8131 47.88 66.4554 47.88C66.7632 47.88 67.0682 47.8689 67.3725 47.8564L39.9647 71.174ZM66.4554 46.4904C55.2993 46.4904 46.0983 37.9648 45.0234 27.0859C46.6318 29.0018 48.3896 30.7872 50.2802 32.4253C55.6724 37.0817 61.2653 39.5426 66.4554 39.5426C71.6454 39.5426 77.2384 37.0817 82.6306 32.426C84.5208 30.7875 86.2785 29.0021 87.8873 27.0866C86.8125 37.9648 77.6115 46.4904 66.4554 46.4904ZM30.8941 71.9589L3.5304 119.479L52.6009 119.215L30.8941 71.9589Z" stroke="#4964BF" stroke-width="0.816327"/>
<path d="M65.7596 13.8359H67.1492V18.0046H65.7596V13.8359ZM65.7596 31.9003H67.1492V36.069H65.7596V31.9003ZM73.4022 24.2577H77.5709V25.6472H73.4022V24.2577ZM55.3379 24.2577H59.5066V25.6472H55.3379V24.2577Z" fill="#4964BF" stroke="#4964BF" stroke-width="0.816327"/>
<path d="M70.877 30.3564L71.8595 29.3739L74.8068 32.321L73.8242 33.3036L70.877 30.3564Z" fill="#4964BF" stroke="#4964BF" stroke-width="0.816327"/>
<path d="M58.1035 17.583L59.0861 16.6004L62.0333 19.5476L61.0508 20.5302L58.1035 17.583Z" fill="#4964BF" stroke="#4964BF" stroke-width="0.816327"/>
<path d="M58.1035 32.3223L61.0507 29.375L62.0333 30.3575L59.0861 33.3048L58.1035 32.3223Z" fill="#4964BF" stroke="#4964BF" stroke-width="0.816327"/>
<path d="M70.8789 19.5498L73.8261 16.6025L74.8087 17.5851L71.8615 20.5324L70.8789 19.5498Z" fill="#4964BF" stroke="#4964BF" stroke-width="0.816327"/>
<path d="M66.4552 21.4797C64.5397 21.4797 62.9813 23.0381 62.9813 24.9536C62.9813 26.8691 64.5397 28.4275 66.4552 28.4275C68.3707 28.4275 69.9291 26.8691 69.9291 24.9536C69.9291 23.0381 68.3707 21.4797 66.4552 21.4797ZM66.4552 27.038C65.306 27.038 64.3709 26.1028 64.3709 24.9536C64.3709 23.8045 65.306 22.8693 66.4552 22.8693C67.6044 22.8693 68.5395 23.8045 68.5395 24.9536C68.5395 26.1028 67.6044 27.038 66.4552 27.038ZM35.19 12.4476H36.5796V7.58409H41.4431V6.19453H36.5796V1.33105H35.19V6.19453H30.3266V7.58409H35.19V12.4476ZM24.0735 24.9536H25.4631V21.4797H28.937V20.0902H25.4631V16.6163H24.0735V20.0902H20.5996V21.4797H24.0735V24.9536Z" fill="#4964BF" stroke="#4964BF" stroke-width="0.816327"/>
</svg>
