<svg width="154" height="120" viewBox="0 0 154 120" fill="none" xmlns="http://www.w3.org/2000/svg">
<path d="M59.6404 93.5084C62.2852 93.5084 64.4293 91.3643 64.4293 88.7195C64.4293 86.0747 62.2852 83.9307 59.6404 83.9307C56.9956 83.9307 54.8516 86.0747 54.8516 88.7195C54.8516 91.3643 56.9956 93.5084 59.6404 93.5084Z" stroke="#4964BF" stroke-width="2.01088" stroke-miterlimit="10"/>
<path d="M3.96973 107.875H150.03M114.413 107.612L75.2518 30.0566L32.4479 107.875M145.241 107.612L119.393 59.0292L104.99 88.9503" stroke="#4964BF" stroke-width="2.01088" stroke-miterlimit="10"/>
<path d="M108.723 81.4964L119.346 73.36L124.182 77.8855L129.127 75.2516M87.921 55.4936L83.932 59.5801L78.2692 54.4561L55.3308 66.2414M36.2949 117.453H100.944" stroke="#4964BF" stroke-width="2.01088" stroke-miterlimit="10"/>
<path d="M114.112 117.453H108.126M8.52539 108.019L32.211 68.9062L43.3692 87.5636" stroke="#4964BF" stroke-width="2.01088" stroke-miterlimit="10"/>
<path d="M24.2275 80.878L30.6087 85.6669L38.5941 78.8787M75.2049 23.4717V1.32324M75.2049 1.32324H93.4264L89.2362 7.93186L93.3786 14.4926H75.2049M75.2049 1.32324V1.45582" stroke="#4964BF" stroke-width="2.01088" stroke-miterlimit="10"/>
</svg>
