<svg width="154" height="54" viewBox="0 0 154 54" fill="none" xmlns="http://www.w3.org/2000/svg">
<path d="M143.785 32.4119L140.933 31.6651L143.29 29.5394L146.138 30.302L143.785 32.4119ZM141.624 35.7275L140.65 32.6998L143.497 33.4871L144.471 36.4877L141.624 35.7275ZM137.937 34.7287L136.954 31.7011L139.806 32.5154L140.773 35.5228L137.937 34.7287ZM134.252 33.73L133.274 30.7023L136.126 31.4851L137.109 34.4925L134.252 33.73ZM135.926 27.5532L138.778 28.3248L136.414 30.4302L133.562 29.6789L135.926 27.5532ZM142.454 29.319L140.101 31.4199L137.233 30.6686L139.606 28.5429L142.454 29.319ZM130.026 38.0691L128.307 40.7211L127.106 38.0286L128.825 35.3563L130.026 38.0691ZM132.95 35.4238L134.144 38.1118L131.025 37.5967L129.814 34.9042L132.95 35.4238ZM135.714 41.6028L132.583 41.0877L131.373 38.3952L134.509 38.9103L135.714 41.6028ZM137.258 45.0871L134.133 44.572L132.907 41.8683L136.052 42.3834L137.258 45.0871ZM131.405 47.6964L130.206 45.0039L131.931 42.3429L133.114 45.0466L131.405 47.6964ZM128.64 41.5196L130.375 38.8518L131.569 41.5556L129.855 44.2076L128.64 41.5196ZM123.244 11.4342V8.48973L125.905 10.215V13.1707L123.244 11.4342ZM123.244 15.2581V12.3092L125.905 14.0345V16.9834L123.244 15.2581ZM123.244 19.0731V16.1286L125.905 17.8471V20.8073L123.244 19.0731ZM124.974 37.8756L123.635 40.5074L122.061 37.7631L123.395 35.1269L124.974 37.8756ZM121.885 43.9039L120.311 41.171L121.634 38.5257L123.244 41.2699L121.885 43.9039ZM120.151 47.3163L118.577 44.5675L119.904 41.9267L121.485 44.6755L120.151 47.3163ZM117.578 44.0637L114.433 44.3921L115.799 41.7828L118.966 41.4476L117.578 44.0637ZM117.499 38.3637L120.66 38.0286L119.31 40.6648L116.165 40.9932L117.499 38.3637ZM119.236 34.9604L122.396 34.632L121.037 37.2683L117.906 37.5922L119.236 34.9604ZM117.978 33.2869L115.09 33.8987L116.264 30.97L119.153 30.3469L117.978 33.2869ZM111.39 34.6882L112.524 31.7393L115.412 31.1162L114.278 34.0607L111.39 34.6882ZM107.652 35.48L108.79 32.5154L111.678 31.8878L110.535 34.8524L107.652 35.48ZM106.345 29.211L109.222 28.6037L111.467 30.8531L108.578 31.4491L106.345 29.211ZM112.96 27.8096L115.209 30.0635L112.31 30.6551L110.076 28.4215L112.96 27.8096ZM116.696 27.0224L118.941 29.2717L116.057 29.8678L113.813 27.6274L116.696 27.0224ZM120.898 23.1669L118.617 21.2932L118.941 18.1418L121.231 20.0066L120.898 23.1669ZM117.196 24.9844L114.906 23.1197L117.913 22.1457L120.219 24.0037L117.196 24.9844ZM111.934 20.7106L114.951 19.7434L117.247 21.5969L114.226 22.5708L111.934 20.7106ZM108.974 18.297L111.991 17.3343L114.292 19.1923L111.248 20.1595L108.974 18.297ZM113.021 13.3326L115.306 15.1861L114.967 18.342L112.686 16.4728L113.021 13.3326ZM115.985 15.7372L118.251 17.5862L117.915 20.7466L115.635 18.8684L115.985 15.7372ZM127.014 17.8471L129.666 16.1286V19.0686L126.998 20.8096L127.014 17.8471ZM127.014 14.0345L129.666 12.3092V15.2536L126.998 16.9834L127.014 14.0345ZM127.014 10.2128L129.666 8.48748V11.4319L126.998 13.1662L127.014 10.2128ZM133.978 18.45L134.266 21.5946L131.96 23.4369L131.668 20.2697L133.978 18.45ZM136.97 16.0881L137.269 19.2328L134.956 21.075L134.657 17.8876L136.97 16.0881ZM139.977 13.7195L140.265 16.8709L137.953 18.7087L137.649 15.528L139.977 13.7195ZM140.949 17.7302L143.94 18.7604L141.635 20.5936L138.623 19.5634L140.949 17.7302ZM138.627 22.9442L135.62 21.914L137.953 20.0965L140.949 21.1267L138.627 22.9442ZM135.622 25.3083L132.601 24.2781L134.938 22.4606L137.93 23.4908L135.622 25.3083ZM153.084 34.9244L144.847 32.72L145.522 32.1239L151.309 33.6693L151.593 32.6391L146.444 31.2647L147.164 30.6259L149.737 31.3322L150.029 30.302L135.856 26.3903L132.525 29.3977L127.583 28.0638L131.702 24.8675L135.881 26.4128L147.526 17.2241L146.862 16.3851L144.741 18.0428L143.835 17.7234L148 14.4596L147.341 13.6206L142.62 17.3118L141.754 17.0126L148.453 11.7558L147.782 10.8966L141.09 16.1331L141.014 15.2176L145.708 11.5579L145.045 10.7189L140.926 13.9512L140.834 13.0042L142.892 11.4139L142.222 10.5749L130.665 19.5387L131.02 24.0127L126.933 27.2203V21.9545L130.649 19.5409V4.72428H129.578V7.45277L128.759 7.96788V2.66609H127.689V8.70567L126.926 9.22078V0.60791H125.84V9.18479L125.084 8.66968V2.66609H124.013V7.98362L123.199 7.46851V4.72428H122.14V19.5252L125.831 21.9185V27.2203L121.712 23.8935L122.119 19.5432L110.639 10.2465L109.991 11.0653L112.087 12.7636L111.995 13.715L107.888 10.3837L107.244 11.198L111.914 14.9657L111.822 15.8722L105.195 10.4917L104.541 11.315L111.156 16.664L110.306 16.9429L105.672 13.1842L105.018 13.9872L109.096 17.2983L108.185 17.5817L106.127 15.9352L105.479 16.7585L116.903 25.9944L121.058 24.692L125.089 27.9559L120.019 29.0311L116.903 25.9944L102.438 29.0581L102.669 30.0883L105.315 29.5327L106.005 30.1962L100.784 31.3074L101.012 32.3376L106.896 31.0825L107.544 31.7101L99.1738 33.5006L99.4055 34.5308L107.739 32.7538L107.415 33.5883L101.567 34.83L101.794 35.8602L106.943 34.7692L106.619 35.6127L104.046 36.1683L104.278 37.1985L118.646 34.1102L120.248 30.0905L125.329 29.0086L122.976 33.6423L118.642 34.1574L111.919 47.305L112.857 47.7886L114.092 45.3638L115.034 45.2446L112.614 50.0268L113.545 50.5059L116.289 45.1164L117.184 45.0129L113.282 52.6675L114.224 53.1421L118.111 45.5123L118.554 46.295L115.826 51.6643L116.752 52.1389L119.173 47.3972L119.641 48.225L118.415 50.6251L119.341 51.0997L126.033 37.9611L123.881 34.1416L126.254 29.5079L128.359 34.2451L126.033 37.9611L132.037 51.4394L132.988 51.0165L131.886 48.5354L132.401 47.7211L134.579 52.6068L135.537 52.1794L133.08 46.6549L133.56 45.8992L137.055 53.745L138.022 53.3221L134.529 45.4785L135.42 45.6382L137.869 51.1425L138.828 50.7151L136.655 45.8452L137.602 46.0049L138.704 48.4769L139.655 48.0496L133.659 34.5758L129.344 33.8087L127.234 29.0783L132.239 30.4212L133.661 34.5758L147.798 38.3502L148.086 37.32L145.564 36.6362L145.256 35.7297L150.333 37.0951L150.632 36.0649L144.856 34.578L144.568 33.7278L152.805 35.9209L153.084 34.9244Z" fill="#99825B"/>
<path d="M2.06521 35.914C2.04272 35.9005 2.02247 35.8847 2.00448 35.8667C2.00448 35.8667 1.90776 35.7993 1.82903 35.7385L0.798828 37.2321L1.05076 37.3873C1.06875 37.3761 1.08675 37.3626 1.10249 37.3468L1.2577 37.2434L1.5861 37.4143C2.40036 37.9249 3.34284 38.2016 4.30331 38.2061C6.16802 38.2061 7.62335 37.2321 7.62335 35.977C7.62335 34.4631 6.23325 34.1752 4.89039 34.092L4.30331 34.0605C3.12016 34.0088 2.52183 33.948 2.52183 33.3339C2.52183 32.8661 3.18539 32.3712 4.40678 32.3712C5.43698 32.3712 6.39295 32.7986 6.4042 33.1338V33.1652V33.2057C6.40195 33.2237 6.40195 33.2395 6.4042 33.2575C6.42894 33.2822 6.44694 33.3114 6.46044 33.3452L6.64488 33.4576C6.77984 33.2147 7.38042 32.144 7.50414 31.9123L7.24771 31.7639C7.23646 31.7796 7.22072 31.7931 7.20722 31.8044L7.08801 31.9011L6.97554 31.9978L6.84732 31.9416L6.58415 31.8448C5.92284 31.5457 5.2098 31.3837 4.48326 31.3657C2.65004 31.341 1.31168 32.2452 1.31168 33.4869C1.31168 34.7285 2.13944 35.1694 4.40004 35.2369C5.94534 35.2729 6.45819 35.4731 6.45819 36.0512C6.45819 36.7103 5.63493 37.1466 4.40004 37.1466C3.51604 37.1669 2.65904 36.8385 2.01573 36.2311L1.98424 36.1704" fill="#141718"/>
<path d="M12.9357 32.6028V32.9065H12.9919L13.2348 32.983V33.1427V35.9634C13.2348 36.8497 12.7872 37.2298 11.6895 37.2298C10.5941 37.2298 10.1712 36.8497 10.1712 35.9634V33.1877V32.9762L10.3714 32.9245H10.4389V32.6096H8.74512V32.9133H8.8126L9.03978 32.9807V33.1404V35.9927C9.03978 37.538 9.83155 38.1813 11.7075 38.1813C13.5835 38.1813 14.3797 37.5267 14.3797 35.9927V32.9762L14.6631 32.9043V32.6006H12.9357V32.6028Z" fill="#141718"/>
<path d="M11.6564 16.7762V16.5693L11.8408 16.5221H11.9128V16.2229H10.291V16.5108H10.363L10.5699 16.5783V16.7268V16.81" fill="#141718"/>
<path d="M16.7965 19.8557V19.6443L17.0034 19.5881H17.0642V19.2957H15.4424V19.5836H15.4986L15.7258 19.6443V19.8805" fill="#141718"/>
<path d="M27.274 20.4182V20.2067L27.4585 20.155H27.5664V19.8513H25.9199V20.1595H25.9874L26.1876 20.227V20.3709V20.4586" fill="#141718"/>
<path d="M22.0503 19.856V19.6558L22.246 19.5995H22.3067V19.3071H20.7007V19.595H20.7682L20.9526 19.6558V19.8042V19.892" fill="#141718"/>
<path d="M40.7538 16.5155V16.304L40.9382 16.2523H41.0102V15.9531H39.4087V16.241H39.4604L39.6674 16.313V16.457V16.5402" fill="#141718"/>
<path d="M43.3017 16.5155V16.304L43.5019 16.2523H43.5626V15.9531H41.9453V16.241C41.9633 16.2433 41.9836 16.2433 42.0015 16.241L42.213 16.313V16.457V16.5402" fill="#141718"/>
<path d="M52.2399 18.614V18.4025L52.4356 18.3553H52.5031V18.0674H50.8926V18.3463H50.9533L51.1535 18.4025V18.551V18.6387" fill="#141718"/>
<path d="M31.0186 20.4833V20.2831L31.2097 20.2314H31.2705V19.939H29.6689V20.2179C29.6869 20.2201 29.7072 20.2201 29.7252 20.2179L29.9321 20.2741V20.4293V20.5171" fill="#141718"/>
<path d="M61.6365 25.3958H61.8367L61.8884 25.587V25.6545H62.1808V24.0439H61.8974C61.8952 24.0642 61.8952 24.0844 61.8974 24.1047L61.8367 24.3004H61.6882H61.605" fill="#141718"/>
<path d="M65.5152 27.5013H65.3038L65.2566 27.3056V27.2449H64.9731V28.8667H65.2521V28.7992L65.324 28.599H65.4658H65.549" fill="#141718"/>
<path d="M80.1821 21.9052V22.1121L79.9752 22.1638H79.9189V22.463H81.5407V22.1751H81.48L81.2731 22.1144V21.9704V21.8782" fill="#141718"/>
<path d="M34.7771 19.7995V19.5881L34.9773 19.5409H35.0448V19.2417H33.4072V19.5341H33.468L33.6749 19.6016V19.8333" fill="#141718"/>
<path d="M6.20002 18.6141V18.4072L6.39571 18.36H6.46319V18.0608H4.83691V18.3487H4.90439L5.11133 18.4049V18.7401" fill="#141718"/>
<path d="M20.5217 32.603V32.9067H20.5937L20.8051 32.9742V36.2335L17.6853 33.0304C17.6853 33.0304 18.0092 32.9224 18.0452 32.9179V32.6188H15.9038V32.9224H15.9713L16.203 32.9899V33.1609V37.4909V37.7114L15.9308 37.7834V38.0825H17.4289V37.7834C17.4064 37.7856 17.3839 37.7856 17.3614 37.7834L17.1409 37.7271V34.1236L20.56 37.6664L20.2091 37.7743V38.0735H22.0063V37.7743C21.9838 37.7766 21.9613 37.7766 21.9388 37.7743L21.7184 37.7181V33.1924V32.9809L21.9253 32.9292C21.9501 32.9359 21.977 32.9359 22.0018 32.9292V32.6255L20.5217 32.603Z" fill="#141718"/>
<path d="M24.6311 35.732H26.2776C27.3595 35.732 27.7959 35.9322 27.8229 36.4024C27.8476 36.8702 27.4473 37.0569 26.2416 37.0569H24.6356L24.6311 35.732ZM24.6311 33.6221H26.4126C27.3078 33.6221 27.6317 33.7661 27.6317 34.1732C27.6317 34.5804 27.3033 34.7243 26.6015 34.7243H24.6446L24.6311 33.6221ZM23.1982 32.5919V32.8956H23.259L23.4862 32.9631V33.134V33.1655V37.4641V37.6845L23.2185 37.7565V38.0556H26.5903C28.0523 38.0556 28.9228 37.4483 28.9228 36.4226C28.9206 35.948 28.6732 35.5094 28.2683 35.2642L28.0838 35.1517L28.2683 35.0077C28.5854 34.7626 28.7654 34.3802 28.7519 33.9775C28.7519 33.3342 28.212 32.5874 26.6937 32.5874L23.1982 32.5919Z" fill="#141718"/>
<path d="M33.98 32.603V32.9067H34.052L34.2836 32.9832V35.9636C34.2836 36.8499 33.8248 37.23 32.7383 37.23C31.6519 37.23 31.193 36.8499 31.193 35.9636V32.9787L31.4045 32.9269H31.472V32.6188H29.7939V32.9224H29.8614L30.0886 32.9899V36.0018C30.0886 37.5472 30.8871 38.1905 32.7563 38.1905C34.6255 38.1905 35.4241 37.5359 35.4241 36.0018V33.1901V32.9787L35.6243 32.9269H35.6805V32.6233L33.98 32.603Z" fill="#141718"/>
<path d="M36.7417 32.603V32.9067H36.8024L37.0341 32.9742V33.1451V37.4752V37.6956L36.7664 37.7676V38.0668H41.7397C41.7397 38.0668 41.8072 38.3142 41.8117 38.3457H42.1041V36.8004H41.7757C41.778 36.8229 41.778 36.8454 41.7757 36.8679L41.7083 37.0838H38.1723V33.1924V32.9809L38.3725 32.9292H38.44V32.6255L36.7417 32.603Z" fill="#141718"/>
<path d="M43.3081 24.793V25.0134C43.3081 25.0134 43.56 25.0741 43.5915 25.0741V25.3823H42.8447" fill="#141718"/>
<path d="M46.2554 33.8175L47.1574 35.7272H45.3917L46.2554 33.8175ZM45.3647 32.6028V32.8953L45.5559 32.9785L45.4524 33.2574L45.4209 33.3294C45.4209 33.3294 45.4209 33.3294 43.6349 37.313C43.5585 37.5267 43.3875 37.6954 43.1716 37.7652C43.1513 37.7674 43.1311 37.7674 43.1108 37.7652V38.0643H44.7574C44.7574 37.9406 44.7574 37.8641 44.7574 37.7809L44.5864 37.6932L44.6629 37.3783L44.7349 37.1938L44.9711 36.6787H47.5803L47.884 37.3378L47.9672 37.5222L48.0144 37.6662L47.8862 37.7337C47.8727 37.7494 47.857 37.7607 47.839 37.7697C47.8412 37.7922 47.8412 37.8147 47.839 37.8371V38.0576H49.6092V37.7697H49.5485C49.3123 37.6594 49.1256 37.4637 49.0334 37.2186C49.0086 37.1713 47.2002 33.3002 47.2002 33.3002L47.1282 33.1292L47.0719 32.9852L47.2631 32.893V32.6006H45.3647V32.6028Z" fill="#141718"/>
<path d="M54.7857 32.603V32.9067H54.8464L55.0669 32.9742V34.7759H51.8638V32.9787L52.0707 32.9269H52.1382C52.1382 32.8235 52.1382 32.747 52.1382 32.6233H50.4287V32.9269H50.5007L50.7211 32.9944V37.4932V37.7091C50.7211 37.7091 50.4849 37.7811 50.4422 37.7856V38.0848H52.1562C52.1607 37.9858 52.1607 37.8846 52.1562 37.7856C52.1382 37.7879 52.118 37.7879 52.1 37.7856L51.8728 37.7294V35.7634H55.0691V37.4887V37.7091L54.7969 37.7811V38.0803H56.5064V37.7811H56.439L56.187 37.6619V37.5022V33.1879V32.9877L56.331 32.9404H56.3917H56.4637V32.6368L54.7857 32.603Z" fill="#141718"/>
<path d="M60.043 34.7557C60.043 36.7419 61.6445 38.1905 63.8534 38.1905C65.1422 38.177 66.3861 37.7091 67.3646 36.8679V36.5799C67.2881 36.5799 67.0924 36.4877 67.0924 36.4877V34.9649L67.2476 34.9334L67.3713 34.9019V34.578H64.1233L64.076 34.3711C64.0805 34.3463 64.0805 34.3238 64.076 34.2991H63.7836V35.8961H64.0873C64.0895 35.8759 64.0895 35.8556 64.0873 35.8354L64.1593 35.6082H64.3145H65.9723V36.4472L65.8958 36.4945C65.2952 36.8768 64.6001 37.0883 63.8871 37.1063C62.3418 37.1063 61.2711 36.1548 61.2711 34.7422C61.2711 33.3296 62.3013 32.3579 63.9118 32.3579C64.5394 32.3691 65.1557 32.5355 65.7023 32.8415C66.0015 33.0012 66.1095 33.0844 66.1095 33.2126V33.2689L66.069 33.4038L66.1365 33.4556L66.3321 33.5748C66.4604 33.3273 67.0587 32.2409 67.1869 32.0294C67.0834 31.9732 67.0159 31.926 66.9395 31.89C66.8675 31.9417 66.7078 32.0744 66.7078 32.0744L66.3884 31.9395C65.5854 31.5481 64.7059 31.3389 63.8151 31.3276C61.6468 31.3276 60.0677 32.765 60.0677 34.7467" fill="#141718"/>
<path d="M69.8075 33.6018H71.8409C72.4842 33.6018 72.7879 33.7929 72.7879 34.2046C72.7879 34.497 72.6799 34.8164 71.8409 34.8164H69.8278L69.8075 33.6018ZM68.3882 32.603V32.9067H68.4489L68.6694 32.9742V37.4729V37.7001L68.5209 37.7316L68.4017 37.7676V38.0668H70.0999V37.7676H70.0437L69.8233 37.7114V35.7904H71.4608L72.7429 37.7834H72.536V38.0825H74.2612V37.7834H74.1735C74.0385 37.7834 73.9261 37.6799 73.7304 37.3717L72.6552 35.6734L72.8554 35.5902C73.4582 35.4125 73.8653 34.8547 73.8541 34.2248C73.8541 32.81 72.4033 32.603 71.5373 32.603H68.3882Z" fill="#141718"/>
<path d="M76.0902 35.3271C76.0699 34.2271 76.9449 33.3184 78.0471 33.2981C79.147 33.2779 80.0558 34.1529 80.076 35.2551C80.0963 36.3551 79.2213 37.2638 78.1191 37.284C78.1078 37.284 78.0943 37.284 78.0831 37.284C77.0574 37.356 76.1644 36.5822 76.0924 35.5565C76.0857 35.4778 76.0857 35.4013 76.0902 35.3271ZM74.916 35.3271C74.916 36.9736 76.2431 38.1793 78.0719 38.1793C79.8983 38.1793 81.2434 36.9736 81.2434 35.3271C81.2434 33.6805 79.9096 32.4636 78.0764 32.4636C76.2431 32.4636 74.9318 33.6783 74.9318 35.3406" fill="#141718"/>
<path d="M86.4475 32.603V32.9067H86.515L86.7511 32.9832V35.9636C86.7511 36.8499 86.2923 37.23 85.2328 37.23C84.1734 37.23 83.6875 36.8499 83.6875 35.9636V33.1879V32.9764L83.8945 32.9247H83.9664V32.6165H82.2524V32.9202H82.3132L82.5336 32.9877V35.9996C82.5336 37.5449 83.3321 38.1882 85.2148 38.1882C87.0998 38.1882 87.8668 37.5337 87.8668 35.9996V33.1879V32.9719L88.0108 32.9359H88.0715H88.1187H88.1435V32.6323L86.4475 32.603Z" fill="#141718"/>
<path d="M90.7402 33.6018H92.6251C93.4596 33.6018 93.5563 33.9459 93.5563 34.2046C93.5563 34.4633 93.4484 34.8164 92.6251 34.8164H90.7402V33.6018ZM89.3096 32.603V32.9067H89.3703L89.5907 32.9742V37.4729V37.7001L89.4423 37.7316L89.3186 37.7676V38.0668H91.0236V37.7676H90.9673L90.7402 37.7114V37.5359V35.8061H92.182C93.8915 35.8061 94.654 35.291 94.654 34.2248C94.654 33.1946 93.779 32.603 92.3327 32.603H89.3096Z" fill="#141718"/>
<path d="M2.27979 16.7722C2.27979 17.1614 2.59469 17.4785 2.98608 17.4785C3.37522 17.4785 3.69238 17.1636 3.69238 16.7722C3.69238 16.3853 3.37972 16.0704 2.99283 16.0659C2.60369 16.0637 2.28428 16.3763 2.28203 16.7655C2.27978 16.77 2.27979 16.77 2.27979 16.7722Z" fill="#141718"/>
<path d="M4.58711 16.772C4.57811 17.1611 4.88627 17.485 5.27765 17.4918C5.2889 17.4918 5.2979 17.4918 5.30915 17.4918C5.68929 17.4985 6.00419 17.1926 6.00869 16.8125C6.00869 16.808 6.00869 16.8012 6.00869 16.7967C6.02219 16.4076 5.71853 16.0814 5.32939 16.0657C5.32264 16.0657 5.3159 16.0657 5.30915 16.0657C4.91551 16.0702 4.59835 16.3806 4.58711 16.772Z" fill="#141718"/>
<path d="M15.5084 27.4587C15.4927 27.8388 15.7896 28.1605 16.1697 28.1762C16.1945 28.1762 16.2192 28.1762 16.2439 28.1762C16.6218 28.1673 16.9277 27.8658 16.939 27.4857C16.9053 27.0943 16.5611 26.8041 16.1697 26.8379C15.8256 26.8671 15.5512 27.1415 15.5219 27.4857" fill="#141718"/>
<path d="M20.5156 17.1388C20.5179 17.528 20.835 17.8429 21.2264 17.8384C21.2332 17.8384 21.2399 17.8384 21.2467 17.8384C21.6268 17.8474 21.944 17.546 21.9507 17.1636C21.9507 17.1591 21.9507 17.1523 21.9507 17.1478C21.9507 16.7587 21.6358 16.4415 21.2444 16.4415C20.853 16.4348 20.5269 16.7452 20.5156 17.1388Z" fill="#141718"/>
<path d="M2.15674 22.1614C2.13649 21.6058 2.34793 21.0682 2.73932 20.6746C3.11496 20.2989 3.62331 20.083 4.15416 20.0717L5.11238 20.0357V20.2112V23.9856L4.98417 24.0261C4.55679 24.1454 4.11592 24.2061 3.67055 24.2016C2.9755 24.2016 2.15674 23.8462 2.12525 22.1434M39.6624 16.2635C39.6939 16.5312 39.6624 18.4679 39.6624 18.4679V23.1016C39.6624 24.2241 38.9988 24.4603 38.432 24.4603H35.9869C35.4358 24.4603 34.7723 24.2331 34.7723 23.1579V19.6758C34.4731 19.7433 33.8973 19.5319 33.6701 19.5791V21.7003V23.1421C33.6701 24.2241 33.0268 24.4603 32.4712 24.4603C31.9493 24.4625 31.45 24.2466 31.0923 23.8687L31.0451 23.8282V20.2247C30.7729 20.2967 30.1341 20.2247 29.9429 20.2247V23.1129C29.9429 24.1948 29.2884 24.431 28.7328 24.431C28.2222 24.4355 27.7296 24.2421 27.3584 23.8912L27.3022 23.8394V20.2359C27.0233 20.3079 26.38 20.1887 26.2 20.2359V23.1354C26.2 24.2263 25.5297 24.4535 24.9741 24.4535H23.2961C22.7293 24.4535 22.05 24.2263 22.05 23.1354V19.6871C21.7621 19.7546 21.1795 19.6196 20.9545 19.6623C21.0018 19.93 20.9545 21.7205 20.9545 21.7205V23.1466C20.9545 24.2376 20.2797 24.4648 19.7129 24.4648H18.0551C17.4793 24.4648 16.8 24.2376 16.8 23.1466V19.6983C16.5121 19.7658 15.9295 19.5701 15.6978 19.6151C15.7293 19.8715 15.7293 21.7115 15.7293 21.7115V23.1376C15.7293 24.2286 15.05 24.4558 14.4832 24.4558H12.9019C12.3508 24.4558 11.676 24.2196 11.676 23.0971V16.493C11.3881 16.5649 10.7965 16.6729 10.5693 16.7247C10.594 17.0036 10.5693 18.5781 10.5693 18.5781V23.0927C10.5693 24.2151 9.90574 24.4513 9.3434 24.4513H7.4382C6.87137 24.4513 6.19656 24.2151 6.19656 23.1016V18.4679L5.10563 18.7311V19.4779H4.24638C3.38713 19.4374 2.54587 19.7298 1.89356 20.2922C1.29749 20.8365 0.97808 21.6171 1.01857 22.4246C1.01857 24.0621 1.90931 25.0811 3.34439 25.0811C3.96746 25.0901 4.58378 24.9529 5.14612 24.6852L5.25859 24.6245L5.35081 24.7167C5.79843 25.1868 6.43275 25.4343 7.08056 25.396H9.73254C10.1892 25.414 10.6368 25.2723 10.9989 24.9934L11.1069 24.8899L11.2149 24.9866C11.6017 25.2723 12.0764 25.4163 12.5577 25.3938H14.8476C15.3087 25.4095 15.763 25.2723 16.1387 25.0024L16.2579 24.9146L16.3614 25.0024C16.7415 25.279 17.2049 25.4163 17.675 25.3938H20.0998C20.5586 25.4095 21.0108 25.2723 21.3864 25.0069L21.4989 24.9191L21.6023 25.0069C21.9847 25.2813 22.4459 25.4185 22.916 25.3983H25.2935C25.8199 25.4253 26.3372 25.2408 26.7241 24.8832L26.9918 24.6155L27.1155 24.476L27.2595 24.5885C27.7408 25.0991 28.4066 25.3893 29.1084 25.396C29.7427 25.441 30.3546 25.1598 30.7347 24.6492L30.8539 24.4738L30.9979 24.6335C31.4747 25.1283 32.1383 25.405 32.8243 25.396C33.281 25.4163 33.7286 25.2768 34.0952 25.0046L34.2032 24.9169L34.3157 25.0046C34.7115 25.2768 35.1839 25.414 35.6653 25.396H38.7536C39.7613 25.4927 40.6566 24.7549 40.7555 23.7495C40.7668 23.6392 40.7668 23.5268 40.7578 23.4143V16.403C40.4541 16.4795 39.867 16.223 39.6511 16.268" fill="#141718"/>
<path d="M48.3149 16.7717C48.3486 17.1631 48.6928 17.4533 49.0842 17.4195C49.4283 17.3903 49.7027 17.1159 49.732 16.7717C49.7657 16.3803 49.4756 16.0362 49.0842 16.0024C48.6928 15.9687 48.3486 16.2589 48.3149 16.6502C48.3104 16.6907 48.3104 16.7312 48.3149 16.7717Z" fill="#141718"/>
<path d="M50.6321 16.7722C50.6209 17.1591 50.9246 17.4808 51.3114 17.492C51.3249 17.492 51.3384 17.492 51.3542 17.492C51.7343 17.4943 52.047 17.1884 52.0492 16.8082C52.0492 16.8037 52.0492 16.8015 52.0492 16.797C52.0627 16.4078 51.7591 16.0817 51.3699 16.0659C51.3654 16.0659 51.3587 16.0659 51.3542 16.0659C50.9605 16.0682 50.6411 16.3808 50.6321 16.7722Z" fill="#141718"/>
<path d="M48.1904 22.1612C48.1702 21.6033 48.3861 21.0635 48.782 20.6743C49.1666 20.3009 49.6817 20.0918 50.2193 20.0918L51.1775 20.0513V20.2312V24.0057L51.0493 24.0462C50.622 24.1654 50.1811 24.2261 49.7357 24.2216C49.0452 24.2216 48.1904 23.8662 48.1904 22.1612ZM51.1461 18.2855V19.4754H50.2913C49.4298 19.4372 48.5863 19.7296 47.934 20.2942C47.3424 20.8386 47.023 21.6168 47.0635 22.4199C47.0635 24.0777 47.934 25.0764 49.3893 25.0764C50.0079 25.0899 50.6197 24.9527 51.1708 24.6737L51.2945 24.613L51.398 24.7097C51.8456 25.1753 52.4732 25.4228 53.1165 25.389H61.6887C61.6573 25.1326 61.9924 24.5095 61.9677 24.2823C61.6752 24.3138 59.8218 24.4421 59.8218 24.4421H59.0503C58.6026 24.4511 58.1685 24.2778 57.8514 23.9629C57.4712 23.594 57.271 23.0767 57.3003 22.5481C57.3003 20.7306 58.3665 20.3549 59.2505 20.3549C59.8375 20.3707 60.4066 20.5484 60.897 20.87C60.9847 20.7733 61.1084 20.6136 61.2366 20.4741C60.5776 19.95 59.7723 19.6419 58.931 19.5879C58.1978 19.5519 57.4847 19.8376 56.9809 20.3707C56.459 20.9263 56.1823 21.6686 56.2093 22.4289C56.1756 23.0452 56.3578 23.657 56.7244 24.1541L56.9404 24.4421H53.4696C52.8983 24.4421 52.219 24.2059 52.219 23.0924V18.4587C51.9356 18.5262 51.344 18.2225 51.1281 18.2675" fill="#141718"/>
<path d="M82.9231 27.4587C82.9051 27.8545 83.2133 28.1875 83.6069 28.2055C84.0028 28.2234 84.3357 27.9153 84.3537 27.5216C84.3717 27.1257 84.0635 26.7928 83.6699 26.7749C83.6631 26.7749 83.6564 26.7749 83.6496 26.7749C83.2628 26.7614 82.9389 27.0628 82.9231 27.4497C82.9231 27.4519 82.9231 27.4564 82.9231 27.4587Z" fill="#141718"/>
<path d="M90.9505 22.4446C90.9505 20.8273 91.6253 20.004 92.9592 20.004C93.2359 19.995 93.5103 20.0333 93.7735 20.1165L93.8859 20.1525L94.0096 21.0905C94.0749 21.4999 94.1086 21.9115 94.1131 22.3254C94.1131 24.0709 93.1706 24.4421 92.3834 24.4421C91.7221 24.4421 90.9505 24.0934 90.9505 22.4446ZM73.5698 23.2476C73.5698 21.2299 74.6608 20.8026 75.5627 20.8026C75.8147 20.7981 76.0688 20.8341 76.3095 20.9105L76.5727 20.9938V21.8598V24.6085L76.521 24.6558C76.1273 25.0966 75.5672 25.3508 74.9757 25.3553C74.1322 25.3531 73.5698 24.505 73.5698 23.2476ZM64.5927 22.5436C64.5927 20.9375 65.3709 19.9388 66.6058 19.9388H67.5213V24.4331H66.1267C65.4204 24.4331 64.5814 24.1047 64.5814 22.5436M80.1492 22.1162C80.4281 22.0847 81.0084 22.1477 81.2558 22.1162C81.2536 21.7496 81.2761 21.3829 81.3233 21.0208C81.3998 20.4089 81.7664 20.1457 82.0701 20.1457C82.7494 20.1457 83.3522 20.5889 84.1755 21.6911C84.7626 22.4559 85.2574 23.2836 85.6533 24.1631L85.7613 24.4106H78.8895C78.3294 24.4106 77.6546 24.1789 77.6546 23.0924V21.8305C77.6546 21.5426 77.6546 20.5956 77.6546 20.4607C77.0811 20.2717 76.4827 20.1727 75.8776 20.1682C73.7768 20.1682 72.4856 21.3514 72.4137 23.3241C72.4721 23.891 72.0605 24.3948 71.4937 24.4533C71.4082 24.4623 71.3205 24.4601 71.235 24.4466H68.6617V19.4687H66.6958C65.8163 19.4259 64.9593 19.7611 64.343 20.3909C63.7334 21.0455 63.414 21.9205 63.4635 22.8158C63.4275 23.5333 63.7042 24.2306 64.2193 24.73C64.6984 25.1911 65.3462 25.4318 66.0098 25.3935H67.5551V25.5847C67.5551 27.7621 66.6756 27.5057 65.4294 27.5057C65.4294 27.6339 65.173 28.5922 65.4294 28.5809C67.1434 28.5809 68.646 28.7721 68.6325 25.5443V25.3958H71.6331C71.9818 25.4025 72.3259 25.3216 72.6363 25.1641L72.7915 25.0809L72.868 25.2248C73.2122 25.8457 73.8735 26.2236 74.582 26.2078C75.538 26.2101 76.44 25.7692 77.0271 25.0134L77.1463 24.8852L77.2812 24.9887C77.6411 25.2698 78.0865 25.4138 78.5431 25.3958H91.974C94.0321 25.3958 95.0623 24.6243 95.0623 23.0317V21.023C95.0623 21.023 95.0623 20.0288 95.0623 19.6531C94.482 19.4664 93.8792 19.3675 93.2719 19.3607C92.3429 19.3067 91.4319 19.6374 90.7548 20.2762C90.134 20.9398 89.8124 21.8305 89.8641 22.737C89.8686 23.2499 90.0103 23.7538 90.2757 24.1946L90.4354 24.4578H87.0951L87.0547 24.3386C86.625 23.1892 86.0222 22.114 85.2687 21.1467C84.306 19.9321 83.3432 19.3135 82.4008 19.3135C81.2378 19.3135 80.2594 20.5124 80.1672 22.1409" fill="#141718"/>
<path d="M42.2163 16.3447H43.3072V25.3962H42.2163V16.3447Z" fill="#141718"/>
</svg>
