<svg width="153" height="65" viewBox="0 0 153 65" fill="none" xmlns="http://www.w3.org/2000/svg">
<path d="M30.9028 7.67958C33.9694 7.67958 36.2855 10.06 36.2855 13.1695C36.2855 16.279 33.9694 18.6594 30.9028 18.6594C27.8361 18.6594 25.5201 16.279 25.5201 13.1695C25.5201 10.06 27.8361 7.67958 30.9028 7.67958ZM30.4095 22.9484C32.4897 22.9484 34.3554 22.3051 35.8995 21.0613L36.886 20.2678V22.348H41.4323V4.07681H36.9932V6.3071L35.9638 5.47074C34.4412 4.18404 32.5112 3.4978 30.3881 3.4978C27.6646 3.4978 25.1984 4.48427 23.4613 6.22132C21.7243 8.00126 20.7378 10.4674 20.7378 13.2338C20.7378 16.0003 21.6814 18.5093 23.4613 20.2893C25.2627 21.962 27.686 22.9484 30.4095 22.9484Z" fill="black"/>
<path d="M81.1545 25.5645C79.4174 25.5645 78.0449 26.9584 78.0449 28.674C78.0449 30.411 79.4389 31.7835 81.1545 31.7835C82.8915 31.7835 84.264 30.3896 84.264 28.674C84.264 26.9584 82.8701 25.5645 81.1545 25.5645Z" fill="black"/>
<path d="M44.1403 31.7835C45.8774 31.7835 47.2498 30.3896 47.2498 28.674C47.2498 26.9369 45.8559 25.5645 44.1403 25.5645C42.4247 25.5645 41.0308 26.9584 41.0308 28.674C41.0308 30.411 42.4247 31.7835 44.1403 31.7835Z" fill="black"/>
<path d="M78.3827 41.7127C78.3827 44.6292 76.0023 46.9882 73.1072 46.9882H62.7278C59.9185 46.9882 57.6453 44.715 57.6453 41.9057C57.6453 38.9892 60.0686 36.6302 62.9851 36.6302C65.7086 36.6302 67.9818 38.8605 67.9818 41.5626H73.5147C73.5147 35.7724 68.6252 31.0974 62.835 31.0974C57.0448 31.0974 52.1553 35.7939 52.1553 41.5626V41.8628C52.1553 43.75 52.6486 45.5085 53.5493 47.0525H51.3833C48.8099 47.0525 46.7297 44.9723 46.7297 42.3989V40.1686V40.1258V34.0568H41.2398V42.163C41.2398 44.8866 38.9237 47.0525 36.2002 47.0525C33.3265 47.0525 30.8603 44.7364 30.8603 41.8628V25.3716H24.9844V41.777C24.9844 47.6959 30.1312 52.4567 36.0072 52.4567C39.7601 52.4567 42.3335 51.0198 44.0062 48.8539C45.5288 51.0842 48.0164 52.4567 51.126 52.4567H56.8089V50.6338C58.4816 51.8133 60.5618 52.4567 62.7921 52.4567H73.2144C79.1333 52.4567 83.8941 47.6744 83.8941 41.777V34.0783H78.4042L78.3827 41.7127Z" fill="black"/>
<path d="M13.275 34.9577C15.9342 34.9577 18.1216 36.9306 18.4218 39.504H23.9118C23.6116 33.9283 19.1295 29.4678 13.4466 29.4678C7.57061 29.4678 2.5739 34.25 2.5739 40.1474V40.2975C2.5739 43.1068 3.6676 45.6373 5.44754 47.503C2.14499 49.09 0.901177 51.6634 0.665281 54.3655C0.322159 57.9253 2.29511 61.4852 6.0909 63.1579C9.6079 64.6805 15.9771 65.5383 22.7966 62.1715L21.7029 56.7459C15.634 60.1556 5.14731 59.8125 5.89789 54.2368C6.24101 51.5776 9.35055 50.8699 12.6102 50.8699C14.5832 50.8699 17.6069 50.827 17.6069 50.827H22.8395V45.2513H12.9104C10.1869 45.2513 8.02096 43.0854 8.02096 40.3618V40.1688C8.08529 37.2738 10.4014 34.9577 13.275 34.9577Z" fill="black"/>
<path d="M1.41798 28.6743H1.997V26.2081H2.79047V25.7148H0.624512V26.2081H1.41798V28.6743Z" fill="black"/>
<path d="M5.96279 28.6743V25.7148H5.36233L4.56885 27.3018L3.83972 25.7148H3.23926V28.6743H3.83972V26.9587L4.37585 28.0952H4.76186L5.36233 26.9587V28.6743H5.96279Z" fill="black"/>
<path d="M6.80294 11.5827C6.80294 9.60979 8.38988 8.02286 10.3628 8.02286C12.3358 8.02286 13.9227 9.60979 13.9227 11.5827V22.3053H19.2626V11.0466C19.2626 6.45737 16.6462 3.58374 12.4859 3.58374C7.93953 3.58374 5.70924 7.03639 5.70924 7.03639V4.16276H1.31299V22.2838H6.80294V11.5827Z" fill="black"/>
<path d="M49.6297 11.5827C49.6297 9.60979 51.2166 8.02286 53.1896 8.02286C55.1625 8.02286 56.7495 9.60979 56.7495 11.5827V22.3053H62.1322V11.0466C62.1322 6.45737 59.5159 3.58374 55.3555 3.58374C50.8092 3.58374 48.5789 7.03639 48.5789 7.03639V4.16276H44.1826V22.2838H49.6726L49.6297 11.5827Z" fill="black"/>
<path d="M73.3891 7.72247C76.4558 7.72247 78.7718 10.1029 78.7718 13.2124C78.7718 16.3219 76.4558 18.7023 73.3891 18.7023C70.3225 18.7023 68.0064 16.3219 68.0064 13.2124C68.0064 10.06 70.3225 7.72247 73.3891 7.72247ZM72.8959 22.9484C74.976 22.9484 76.8418 22.3051 78.3858 21.0613L79.3723 20.2678V22.348H83.9187V4.07681H79.4795V6.3071L78.4502 5.47074C76.9276 4.18404 74.9975 3.4978 72.8744 3.4978C70.1509 3.4978 67.6847 4.48427 65.9477 6.22132C64.2106 8.00126 63.2241 10.4674 63.2241 13.2338C63.2241 16.0003 64.1677 18.5093 65.9477 20.2893C67.7062 21.962 70.1723 22.9484 72.8959 22.9484Z" fill="black"/>
<path d="M140.725 0.559814H108.901C102.124 0.559814 96.6982 6.04974 96.6982 12.762V44.5865C96.6982 48.8326 98.8642 52.5426 102.124 54.7729L102.167 54.8158C104.097 56.1025 106.413 56.8316 108.879 56.8316H140.704C147.48 56.8316 152.906 51.3417 152.906 44.6294V12.8264C152.97 6.04975 147.502 0.559814 140.725 0.559814Z" fill="black"/>
<path d="M140.681 43.1069C139.202 43.2141 137.658 43.2141 136.092 43.064C135.942 43.4071 135.706 43.7073 135.449 44.0076H135.492C136.521 44.1148 137.572 44.1577 138.601 44.1577C139.352 44.1577 140.124 44.1148 140.874 44.0504C140.831 43.7502 140.724 43.4071 140.681 43.1069Z" fill="#ABFF01"/>
<path d="M130.194 45.2297C129.743 47.0097 129.164 48.7467 128.414 50.4194C127.427 52.7355 126.248 54.9229 124.854 56.9816H108.706C106.197 56.9816 103.859 56.231 101.929 54.9658L101.886 54.9229C103.859 54.5798 105.682 53.8935 107.569 52.6497C114.046 48.4465 117.048 40.7906 117.198 39.7612C117.799 41.005 118.871 41.9272 120.308 42.3346C120.35 42.3346 120.35 42.3346 120.415 42.3775C121.208 44.0073 122.645 45.3369 124.511 45.8945C126.398 46.4306 128.307 46.1518 129.851 45.1439H129.894C130.001 45.1868 130.108 45.1868 130.194 45.2297Z" fill="#ABFF01"/>
<path d="M140.766 26.2082C140.423 26.7444 139.779 27.0446 139.093 26.8516C138.407 26.6586 137.957 25.9723 138.064 25.2647L135.834 24.4712C135.297 26.4441 136.477 28.5243 138.45 29.1248C138.943 29.2749 139.479 29.3178 139.972 29.232C140.809 29.1248 141.645 28.7388 142.246 28.0954C142.546 27.7952 142.782 27.4092 142.996 26.9588L140.766 26.2082Z" fill="#ABFF01"/>
<path d="M122.539 24.4709C124.512 25.0714 126.593 23.9348 127.236 22.0047L124.855 21.5115C124.555 22.112 123.826 22.3907 123.183 22.1977C122.582 22.0476 122.196 21.5115 122.153 20.9539L119.773 20.4607C119.773 20.718 119.773 20.911 119.773 21.1469C119.88 22.0905 120.266 22.9698 120.952 23.5702C121.403 23.9777 121.96 24.2779 122.539 24.4709Z" fill="#ABFF01"/>
<path d="M135.342 37.5741C136.478 38.2603 136.972 39.2468 137.079 39.4612C138.902 37.3811 140.531 34.4645 141.518 31.4622C139.631 31.7625 137.465 31.0119 136.178 29.6394C136.371 27.2161 133.669 25.8436 134.655 23.5061L145.528 26.5728C146.064 24.5569 145.571 22.5197 144.349 20.9971C143.855 20.3966 142.762 19.3243 141.196 18.9169C141.196 18.9169 142.44 18.5738 143.855 19.067C146.472 18.2306 148.509 14.3276 149.131 11.5183C149.131 11.5183 144.241 10.489 139.995 14.778C137.422 11.0251 132.575 9.73841 128.436 11.7114C126.807 5.49229 122.646 5.14917 122.646 5.14917C121.51 7.91558 121.767 10.682 122.539 13.1482C124.426 13.1911 125.305 14.3276 125.305 14.3276C124.169 14.0274 123.225 14.0274 122.089 14.3705C120.566 14.8638 118.379 16.5365 117.8 18.6167L128.672 21.7691C128.222 24.1924 125.112 23.8921 124.019 26.0581C122.196 26.5084 120.008 25.9509 118.593 24.6642C117.907 27.6236 117.499 30.7331 118.143 33.3065C118.143 33.3065 119.129 32.6631 120.459 32.706H120.502C118.872 33.3923 117.692 35.0221 117.692 36.9093C117.692 39.4183 119.708 41.4556 122.239 41.4556H122.282C124.104 41.4556 125.691 40.319 126.378 38.7321C126.485 38.5391 126.528 38.2818 126.635 38.0887C127.514 35.5153 128.565 31.4622 128.651 31.2692C129.101 29.8753 128.908 28.7602 126.421 27.6236L126.807 26.7443C128.436 27.5378 129.38 28.417 129.68 29.5107C130.517 28.7602 131.76 28.6315 133.583 28.9103L133.433 29.8967C130.71 29.4464 129.98 30.197 129.53 31.6767C129.423 31.9769 127.514 37.8528 127.3 38.8822C127.193 39.2682 127.107 39.7186 127.107 40.126C127.107 42.6351 129.123 44.6724 131.653 44.6724C134.162 44.6724 136.2 42.6565 136.2 40.126C136.178 39.2039 135.878 38.3032 135.342 37.5741Z" fill="#ABFF01"/>
<path d="M117.35 34.7003C116.171 33.821 115.463 33.1777 115.227 33.0276C119.516 27.2374 106.735 24.5353 104.612 21.6188L104.569 21.5759C104.569 21.5759 104.569 21.6188 104.612 21.6832C106.091 25.2859 104.505 30.5828 107.764 33.3492C109.587 34.8718 112.01 35.2364 113.833 34.2285C111.174 32.2984 107.807 27.9022 106.713 25.3931C106.713 25.3931 111.56 31.312 114.519 33.7353C114.712 33.9283 115.613 34.6788 116.943 35.6653C117.071 35.3436 117.2 35.0005 117.35 34.7003Z" fill="#ABFF01"/>
</svg>
