<svg width="144" height="144" viewBox="0 0 144 144" fill="none" xmlns="http://www.w3.org/2000/svg">
<path d="M16.9937 78.3362C16.1297 78.3362 15.5537 77.7602 15.5537 76.8962V64.2242C15.5537 63.3602 16.1297 62.7842 16.9937 62.7842C17.8577 62.7842 18.4337 63.3602 18.4337 64.2242V76.8962C18.4337 77.7602 17.8577 78.3362 16.9937 78.3362Z" fill="#94D4FF"/>
<path d="M105.984 119.52H81.5045C80.6405 119.52 80.0645 118.944 80.0645 118.08C80.0645 117.216 80.6405 116.64 81.2165 116.64C101.088 114.336 116.64 97.0556 116.64 77.1836V21.0236H111.456C110.88 21.0236 110.304 20.7356 110.304 20.1596C110.016 19.5836 110.016 19.0076 110.304 18.7196L121.536 3.45562C122.112 2.59162 123.264 2.59162 123.84 3.45562L134.784 18.4316C135.072 18.7196 135.36 19.0076 135.36 19.5836C135.36 20.4476 134.784 21.0236 133.92 21.0236H128.736L128.448 77.1836C128.448 93.8876 120.384 109.728 106.848 119.232C106.56 119.52 106.272 119.52 105.984 119.52ZM93.0245 116.64H105.696C118.368 107.712 125.856 93.0236 125.856 77.1836L126.144 19.5836C126.144 18.7196 126.72 18.1436 127.584 18.1436H131.328L122.976 6.62362L114.624 18.1436H118.08C118.944 18.1436 119.52 18.7196 119.52 19.5836V77.1836C119.52 94.7516 108.576 110.304 93.0245 116.64Z" fill="#94D4FF"/>
<path d="M124.415 135.36C124.127 135.36 123.839 135.36 123.839 135.072C123.263 134.784 122.975 134.208 122.975 133.92V128.736L67.1026 128.448C50.1106 128.448 34.5586 120.384 25.0546 106.56C24.7666 106.272 24.7666 105.984 24.7666 105.696V79.7759C24.7666 78.9119 25.3426 78.3359 26.2066 78.3359C27.0706 78.3359 27.6466 78.9119 27.6466 79.7759C29.3746 100.8 46.3666 116.64 67.1026 116.64H122.975V111.456C122.975 110.88 123.263 110.304 123.839 110.304C124.415 110.016 124.991 110.016 125.279 110.304L140.543 121.536C140.831 121.824 141.119 122.112 141.119 122.688C141.119 123.264 140.831 123.552 140.543 123.84L125.279 135.072C124.991 135.36 124.703 135.36 124.415 135.36ZM27.6466 105.12C36.5746 117.792 51.2626 125.568 67.1026 125.568L124.415 125.856C125.279 125.856 125.855 126.432 125.855 127.296V131.04L137.375 122.688L125.855 114.336V118.08C125.855 118.944 125.279 119.52 124.415 119.52H67.1026C49.2466 119.52 33.9826 108.576 27.6466 92.4479V105.12Z" fill="#94D4FF"/>
<path d="M21.6 141.407C21.024 141.407 20.736 141.119 20.448 140.831L9.216 125.567C8.928 124.991 8.928 124.415 9.216 124.127C9.504 123.839 10.08 123.263 10.368 123.263H15.552L15.84 67.1035C15.84 50.3995 23.904 34.5595 37.728 24.7675C38.016 24.4795 38.304 24.4795 38.592 24.4795H65.376C66.24 24.4795 66.816 25.0555 66.816 25.9195C66.816 26.7835 66.24 27.3595 65.376 27.3595C44.352 28.2235 27.648 45.7915 27.648 67.1035V123.263H32.832C33.408 123.263 33.984 123.551 33.984 124.127C33.984 124.703 34.272 125.279 33.984 125.567L22.752 140.831C22.464 141.119 22.176 141.407 21.6 141.407ZM13.248 126.143L21.6 137.663L29.952 126.143H26.208C25.344 126.143 24.768 125.567 24.768 124.703V67.1035C24.768 48.9595 35.712 33.6955 51.552 27.3595H39.168C26.496 36.5755 18.72 51.5515 18.72 67.1035L18.432 124.703C18.432 125.567 17.856 126.143 16.992 126.143H13.248Z" fill="#94D4FF"/>
<path d="M118.08 66.2408C117.216 66.2408 116.64 65.6648 116.64 64.8008C115.488 43.7768 97.9199 27.3608 76.8959 27.3608H21.0239V32.5448C21.0239 33.1208 20.7359 33.6968 20.1599 33.6968C19.5839 33.9848 19.0079 33.9848 18.7199 33.6968L3.45588 22.1768C3.16788 21.8888 2.87988 21.6008 2.87988 21.0248C2.87988 20.4488 3.16788 20.1608 3.45588 19.8728L18.7199 8.6408C19.2959 8.3528 19.8719 8.3528 20.1599 8.6408C20.7359 8.6408 21.0239 9.2168 21.0239 9.7928V14.9768L76.8959 15.2648C93.5999 15.2648 109.44 23.3288 119.232 37.1528C119.52 37.4408 119.52 37.7288 119.52 38.0168V64.8008C119.52 65.6648 118.944 66.2408 118.08 66.2408ZM19.5839 24.4808H76.8959C95.0399 24.4808 110.304 35.7128 116.64 51.5528V38.5928C107.424 25.9208 92.4479 18.1448 76.8959 18.1448L19.5839 17.8568C18.7199 17.8568 18.1439 17.2808 18.1439 16.4168V12.6728L6.62388 21.0248L18.1439 29.6648V25.9208C18.1439 25.0568 18.7199 24.4808 19.5839 24.4808Z" fill="#94D4FF"/>
<path d="M80.064 106.848C79.488 106.848 78.912 106.56 78.624 105.984C77.184 102.816 74.88 100.8 72.288 100.8C69.696 100.8 67.392 102.816 65.952 105.984C65.664 106.56 65.088 106.848 64.224 106.848C60.192 105.984 56.736 104.256 53.568 102.24C52.992 101.952 52.704 101.088 52.992 100.512C54.144 97.3437 53.856 94.1757 52.128 92.1597C50.4 90.4317 47.232 90.1437 44.064 91.2957C43.488 91.5837 42.624 91.2957 42.336 90.7197C40.32 87.5517 38.592 83.8077 37.728 79.7757C37.44 79.1997 38.016 78.3357 38.592 78.0477C41.76 76.6077 43.776 74.0157 43.776 71.7117C43.776 69.1197 41.76 66.8157 38.592 65.3757C38.016 65.0877 37.728 64.5117 37.728 63.6477C38.592 59.6157 40.032 56.1597 42.336 52.7037C42.624 52.1277 43.488 51.8397 44.064 52.1277C47.232 53.2797 50.4 52.9917 52.416 51.2637C54.144 49.5357 54.432 46.3677 53.28 43.1997C52.992 42.6237 53.28 41.7597 53.856 41.4717C57.024 39.4557 60.48 38.0157 64.224 36.8637C64.8 36.5757 65.664 37.1517 65.952 37.7277C67.392 40.8957 69.984 42.9117 72.288 42.9117C74.88 42.9117 77.184 40.8957 78.624 37.7277C78.912 37.1517 79.488 36.8637 80.352 36.8637C84.384 37.7277 87.84 39.4557 91.008 41.4717C91.584 41.7597 91.872 42.6237 91.584 43.1997C90.432 46.3677 90.72 49.5357 92.448 51.5517C94.176 53.2797 97.344 53.5677 100.512 52.4157C101.088 52.1277 101.952 52.4157 102.24 52.9917C104.256 56.1597 105.984 59.9037 106.848 63.9357C107.136 64.5117 106.56 65.3757 105.984 65.6637C102.816 67.1037 100.8 69.6957 100.8 71.9997C100.8 74.5917 102.528 76.8957 105.696 78.6237C106.272 78.9117 106.56 79.4877 106.56 80.3517C105.696 84.0957 104.256 87.8397 101.952 91.2957C101.664 91.8717 100.8 92.1597 100.224 91.8717C97.344 90.7197 93.888 91.0077 92.16 92.7357C90.432 94.4637 90.144 97.6317 91.296 101.088C91.584 101.664 91.296 102.528 90.72 102.816C87.552 104.832 84.096 106.272 80.352 107.424C80.352 106.848 80.064 106.848 80.064 106.848ZM56.16 100.512C58.464 101.952 61.056 103.104 63.648 103.68C65.664 99.9357 68.832 97.9197 72.288 97.9197C75.744 97.9197 78.912 99.9357 80.928 103.68C83.52 102.816 86.112 101.664 88.416 100.512C87.264 96.4797 87.84 92.7357 90.144 90.4317C92.448 88.1277 96.192 87.5517 99.936 88.7037C101.376 86.1117 102.528 83.5197 103.104 80.9277C99.648 78.9117 97.632 75.7437 97.632 72.2877C97.632 69.1197 99.648 65.9517 103.392 63.6477C102.528 60.7677 101.664 58.1757 100.224 55.8717C96.192 57.0237 92.448 56.4477 90.144 54.1437C87.84 51.5517 87.264 47.8077 88.416 44.0637C86.112 42.6237 83.808 41.4717 80.928 40.8957C78.912 44.6397 75.744 46.6557 72.288 46.6557C68.832 46.6557 65.664 44.6397 63.648 40.8957C61.056 41.7597 58.464 42.6237 56.16 44.0637C57.312 48.0957 56.736 51.8397 54.432 54.1437C51.84 56.4477 48.096 57.0237 44.352 55.8717C42.912 58.1757 41.76 61.0557 41.184 63.6477C44.928 65.6637 46.944 68.8317 46.944 72.2877C46.944 75.7437 44.928 78.9117 41.184 80.9277C42.048 83.8077 42.912 86.3997 44.352 88.7037C48.384 87.5517 52.128 88.1277 54.432 90.4317C56.736 93.0237 57.312 96.7677 56.16 100.512Z" fill="#94D4FF"/>
<path d="M71.9999 88.7034C62.7839 88.7034 55.2959 81.2154 55.2959 71.9994C55.2959 62.7834 62.7839 55.2954 71.9999 55.2954C81.2159 55.2954 88.7039 62.7834 88.7039 71.9994C88.7039 81.2154 81.2159 88.7034 71.9999 88.7034ZM71.9999 58.1754C64.5119 58.1754 58.1759 64.5114 58.1759 71.9994C58.1759 79.4874 64.5119 85.8234 71.9999 85.8234C79.4879 85.8234 85.8239 79.4874 85.8239 71.9994C85.8239 64.5114 79.4879 58.1754 71.9999 58.1754Z" fill="#94D4FF"/>
</svg>
