<svg width="148" height="147" viewBox="0 0 148 147" fill="none" xmlns="http://www.w3.org/2000/svg">
<path d="M146.23 69.4362L136.584 50.0504C136.389 49.6466 136.083 49.307 135.703 49.071C135.323 48.835 134.884 48.7125 134.438 48.7176H132.605L130.194 46.2944H134.438C135.077 46.2944 135.691 46.0391 136.143 45.5846C136.595 45.1302 136.849 44.5138 136.849 43.8712V34.1783C136.849 33.5356 136.595 32.9193 136.143 32.4648C135.691 32.0104 135.077 31.7551 134.438 31.7551H130.194L133.208 28.7503C133.66 28.2927 133.913 27.6743 133.913 27.0298C133.913 26.3852 133.66 25.7668 133.208 25.3093L126.383 18.4516C125.928 17.9976 125.313 17.7428 124.671 17.7428C124.03 17.7428 123.414 17.9976 122.959 18.4516L119.969 21.4806V17.2157C119.969 16.5731 119.715 15.9567 119.263 15.5023C118.81 15.0478 118.197 14.7925 117.557 14.7925H107.912C107.272 14.7925 106.659 15.0478 106.206 15.5023C105.754 15.9567 105.5 16.5731 105.5 17.2157V21.4806L102.51 18.4516C102.054 17.9976 101.439 17.7428 100.798 17.7428C100.156 17.7428 99.5408 17.9976 99.0855 18.4516L92.261 25.3093C91.8092 25.7668 91.5557 26.3852 91.5557 27.0298C91.5557 27.6743 91.8092 28.2927 92.261 28.7503L95.2754 31.7551H91.0312C90.3916 31.7551 89.7783 32.0104 89.326 32.4648C88.8738 32.9193 88.6197 33.5356 88.6197 34.1783V43.8712C88.6197 44.5138 88.8738 45.1302 89.326 45.5846C89.7783 46.0391 90.3916 46.2944 91.0312 46.2944H95.2754L92.8639 48.7176H78.9738V43.7015C78.9704 42.692 79.1791 41.6932 79.5863 40.7703C79.9936 39.8474 80.5902 39.0214 81.3371 38.3462C84.0971 35.882 86.1858 32.7509 87.4058 29.2493C88.6258 25.7476 88.9366 21.9911 88.3089 18.3351C87.6812 14.679 86.1357 11.2443 83.8186 8.35588C81.5015 5.46743 78.4894 3.22072 75.0672 1.82827C74.7 1.67667 74.3012 1.61852 73.9063 1.65898C73.5113 1.69944 73.1324 1.83726 72.8032 2.06021C72.474 2.28316 72.2046 2.58434 72.019 2.93701C71.8335 3.28968 71.7374 3.68294 71.7394 4.08187V20.7536L66.9164 24.0008L62.0935 20.7536V4.08187C62.0955 3.68294 61.9994 3.28968 61.8139 2.93701C61.6283 2.58434 61.3589 2.28316 61.0297 2.06021C60.7005 1.83726 60.3216 1.69944 59.9266 1.65898C59.5317 1.61852 59.1329 1.67667 58.7657 1.82827C55.3435 3.22072 52.3314 5.46743 50.0143 8.35588C47.6972 11.2443 46.1517 14.679 45.524 18.3351C44.8963 21.9911 45.2071 25.7476 46.4271 29.2493C47.6471 32.7509 49.7358 35.882 52.4958 38.3462C53.2427 39.0214 53.8393 39.8474 54.2465 40.7703C54.6538 41.6932 54.8625 42.692 54.8591 43.7015V48.7176H52.4476C52.0009 48.7125 51.562 48.835 51.182 49.071C50.802 49.307 50.4966 49.6466 50.3014 50.0504L40.6555 69.4362C40.4705 69.805 40.3824 70.2153 40.3996 70.628C40.4168 71.0407 40.5387 71.4422 40.7538 71.7942C40.9688 72.1463 41.2699 72.4373 41.6283 72.6395C41.9867 72.8418 42.3906 72.9486 42.8017 72.9498H50.0361V102.562L45.2132 103.773V99.6053C45.2132 98.9626 44.9591 98.3462 44.5069 97.8918C44.0546 97.4373 43.4413 97.1821 42.8017 97.1821H23.5099C22.8703 97.1821 22.257 97.4373 21.8047 97.8918C21.3525 98.3462 21.0984 98.9626 21.0984 99.6053V102.028H4.21811C3.57855 102.028 2.96518 102.284 2.51294 102.738C2.06071 103.193 1.80664 103.809 1.80664 104.452V138.377C1.80664 139.02 2.06071 139.636 2.51294 140.09C2.96518 140.545 3.57855 140.8 4.21811 140.8H21.0984V143.223C21.0984 143.866 21.3525 144.482 21.8047 144.937C22.257 145.391 22.8703 145.646 23.5099 145.646H42.8017C43.4413 145.646 44.0546 145.391 44.5069 144.937C44.9591 144.482 45.2132 143.866 45.2132 143.223V139.879L48.324 141.43C50.6692 142.603 53.2522 143.217 55.8719 143.223H91.9717C94.9363 143.23 97.8493 142.444 100.412 140.945L140.925 117.44C142.706 116.407 144.112 114.828 144.936 112.934C145.76 111.04 145.958 108.931 145.503 106.916C145.047 104.9 143.961 103.084 142.404 101.734C140.847 100.383 138.9 99.5695 136.849 99.4114V72.9498H144.084C144.495 72.9486 144.899 72.8418 145.257 72.6395C145.615 72.4373 145.916 72.1463 146.132 71.7942C146.347 71.4422 146.468 71.0407 146.486 70.628C146.503 70.2153 146.415 69.805 146.23 69.4362ZM21.0984 135.954H6.62959V106.875H21.0984V135.954ZM40.3902 140.8H25.9214V102.028H40.3902V140.8ZM93.4427 41.4479V36.6015H99.1096C99.6276 36.6 100.131 36.4323 100.548 36.1228C100.964 35.8133 101.272 35.3782 101.425 34.881C101.53 34.5377 101.667 34.2051 101.835 33.8875C102.072 33.43 102.158 32.9084 102.08 32.3984C102.002 31.8885 101.764 31.4169 101.401 31.0523L97.3734 27.0298L100.798 23.5888L104.801 27.6356C105.164 28.0006 105.633 28.2398 106.14 28.3183C106.648 28.3967 107.167 28.3104 107.622 28.0718C107.938 27.9037 108.269 27.7658 108.611 27.6598C109.106 27.506 109.539 27.1973 109.847 26.7788C110.155 26.3604 110.321 25.854 110.323 25.3335V19.639H115.146V25.3335C115.147 25.854 115.314 26.3604 115.622 26.7788C115.93 27.1973 116.363 27.506 116.858 27.6598C117.2 27.7658 117.531 27.9037 117.847 28.0718C118.302 28.3104 118.821 28.3967 119.329 28.3183C119.836 28.2398 120.305 28.0006 120.668 27.6356L124.671 23.5888L128.096 27.0298L124.068 31.0523C123.705 31.4169 123.467 31.8885 123.389 32.3984C123.311 32.9084 123.397 33.43 123.634 33.8875C123.802 34.2051 123.939 34.5377 124.044 34.881C124.197 35.3782 124.505 35.8133 124.921 36.1228C125.337 36.4323 125.841 36.6 126.359 36.6015H132.026V41.4479H126.359C125.841 41.4495 125.337 41.6172 124.921 41.9267C124.505 42.2362 124.197 42.6712 124.044 43.1684C123.939 43.5117 123.802 43.8444 123.634 44.162C123.397 44.6194 123.311 45.1411 123.389 45.651C123.467 46.1609 123.705 46.6325 124.068 46.9971L125.805 48.7176H99.6643L101.401 46.9971C101.764 46.6325 102.002 46.1609 102.08 45.651C102.158 45.1411 102.072 44.6194 101.835 44.162C101.667 43.8444 101.53 43.5117 101.425 43.1684C101.272 42.6712 100.964 42.2362 100.548 41.9267C100.131 41.6172 99.6276 41.4495 99.1096 41.4479H93.4427ZM95.8541 61.4153L100.942 71.6171C101.138 72.0208 101.443 72.3605 101.823 72.5965C102.203 72.8324 102.642 72.955 103.089 72.9498H132.026V100.284C131.785 100.405 131.52 100.526 131.279 100.647L107.767 114.29C106.483 112.357 104.548 110.954 102.317 110.34L95.8541 108.62V61.4153ZM50.0361 22.0622C50.0301 19.3248 50.6853 16.6269 51.9454 14.2C53.2054 11.773 55.0328 9.68966 57.2705 8.12865V22.0622C57.2726 22.4613 57.3727 22.8537 57.562 23.2046C57.7514 23.5555 58.024 23.8539 58.3557 24.0734L65.5901 28.9199C65.9794 29.192 66.4422 29.3379 66.9164 29.3379C67.3907 29.3379 67.8535 29.192 68.2428 28.9199L75.4772 24.0734C75.8089 23.8539 76.0815 23.5555 76.2708 23.2046C76.4602 22.8537 76.5603 22.4613 76.5623 22.0622V8.12865C78.6557 9.59267 80.3916 11.5143 81.6399 13.7492C82.8881 15.9841 83.6161 18.4742 83.7693 21.0324C83.9225 23.5906 83.4968 26.1505 82.5242 28.5196C81.5516 30.8888 80.0575 33.0057 78.1539 34.7114C76.8877 35.8368 75.8755 37.2211 75.1852 38.7716C74.4948 40.3221 74.1421 42.0029 74.1509 43.7015V48.7176H69.3279V41.4479C69.3279 40.8053 69.0739 40.1889 68.6216 39.7345C68.1694 39.28 67.556 39.0247 66.9164 39.0247C66.2769 39.0247 65.6635 39.28 65.2113 39.7345C64.759 40.1889 64.505 40.8053 64.505 41.4479V48.7176H59.682V43.7015C59.6898 42.0054 59.3391 40.327 58.6532 38.7772C57.9672 37.2274 56.9617 35.8416 55.7031 34.7114C53.9196 33.1276 52.4919 31.1805 51.5149 28.9996C50.5378 26.8187 50.0337 24.4539 50.0361 22.0622ZM46.7083 68.1034L53.9427 53.5641H89.5361L82.3017 68.1034H46.7083ZM91.0312 61.4153V107.311L66.3377 100.671C63.5688 99.9208 60.6547 99.8957 57.8734 100.599L54.8591 101.35V72.9498H83.7968C84.2434 72.955 84.6824 72.8324 85.0624 72.5965C85.4424 72.3605 85.7478 72.0208 85.943 71.6171L91.0312 61.4153ZM140.249 106.633C140.89 107.742 141.067 109.061 140.741 110.301C140.416 111.541 139.615 112.6 138.513 113.248L98.0003 136.753C96.1682 137.819 94.0885 138.379 91.9717 138.377H55.8719C53.996 138.381 52.1455 137.941 50.4702 137.093L45.2132 134.451V108.765L59.0309 105.3C61.0193 104.795 63.1036 104.811 65.0837 105.348L101.063 115.041C101.989 115.283 102.821 115.797 103.455 116.517C104.088 117.237 104.492 118.131 104.617 119.084C104.741 120.036 104.579 121.005 104.153 121.865C103.726 122.725 103.053 123.437 102.22 123.91C101.677 124.232 101.074 124.441 100.449 124.525C99.8232 124.608 99.1874 124.564 98.5791 124.395L69.8102 116.641C69.1898 116.473 68.5288 116.561 67.9726 116.883C67.4163 117.206 67.0104 117.738 66.8441 118.361C66.6778 118.984 66.7648 119.649 67.0859 120.208C67.407 120.767 67.9359 121.174 68.5563 121.342L97.3251 129.072C98.1431 129.293 98.986 129.407 99.8331 129.411C101.52 129.413 103.177 128.961 104.632 128.102C105.734 127.47 106.7 126.623 107.474 125.613C108.249 124.602 108.815 123.447 109.141 122.214C109.409 121.146 109.498 120.04 109.407 118.943L133.69 104.864C134.798 104.246 136.102 104.085 137.326 104.415C138.55 104.745 139.598 105.54 140.249 106.633ZM104.584 68.1034L97.3492 53.5641H132.943L140.177 68.1034H104.584Z" fill="#94D4FF" stroke="#60A1E2" stroke-width="2"/>
<path d="M119.992 35.2762C120.921 36.6741 121.418 38.3178 121.418 39.9995C121.418 42.2546 120.526 44.4169 118.94 46.0108C117.354 47.6046 115.203 48.4995 112.961 48.4995C111.289 48.4995 109.655 48.0013 108.264 47.0676C106.873 46.1339 105.789 44.8066 105.149 43.2531C104.509 41.6996 104.341 39.9901 104.667 38.3408C104.994 36.6915 105.8 35.1768 106.983 33.9882C108.165 32.7997 109.672 31.9905 111.312 31.6627C112.952 31.335 114.652 31.5032 116.197 32.1462C117.741 32.7893 119.062 33.8784 119.992 35.2762ZM110.195 44.1562C111.013 44.706 111.976 44.9995 112.961 44.9995C114.282 44.9995 115.549 44.4721 116.482 43.5342C117.416 42.5963 117.939 41.3248 117.939 39.9995C117.939 39.0112 117.648 38.0448 117.101 37.2226C116.554 36.4004 115.777 35.7592 114.867 35.3804C113.957 35.0017 112.956 34.9026 111.99 35.0957C111.023 35.2888 110.136 35.7654 109.44 36.4648C108.744 37.1643 108.271 38.0551 108.079 39.0245C107.887 39.9939 107.985 40.9988 108.362 41.9121C108.738 42.8255 109.376 43.6065 110.195 44.1562Z" fill="#94D4FF" stroke="#60A1E2"/>
</svg>
