<svg width="148" height="145" viewBox="0 0 148 145" fill="none" xmlns="http://www.w3.org/2000/svg">
<path fill-rule="evenodd" clip-rule="evenodd" d="M73.6404 3.49809C62.8606 3.49809 52.9689 7.39963 45.3045 13.8638C45.2079 13.9717 45.0969 14.0666 44.974 14.1453C35.5792 22.2272 29.6172 34.1956 29.6172 47.5212C29.6172 71.2491 48.5129 90.6779 72.0407 91.511V81.1135C54.2449 80.2803 40.0148 65.5504 40.0148 47.5212C40.0148 28.9922 55.078 13.8957 73.6404 13.8957C92.1694 13.8957 107.266 28.9922 107.266 47.5212C107.266 52.7867 106.066 57.9855 103.767 62.5511C103.367 63.3509 102.4 63.6508 101.634 63.2509L96.0685 60.4516L100.567 80.5136L119.33 72.0822L113.764 69.2829C113.398 69.0829 113.098 68.7496 112.965 68.3497C112.831 67.9498 112.865 67.5166 113.065 67.1167C116.164 60.9515 117.73 54.3197 117.73 47.4546C117.698 39.5858 115.589 32.1858 111.923 25.782C111.818 25.6538 111.733 25.5084 111.672 25.3498C109.168 21.0873 105.97 17.2778 102.233 14.0803C102.179 14.0401 102.128 13.9965 102.08 13.9499C94.3988 7.43667 84.4712 3.49809 73.6404 3.49809ZM73.6404 0.298828C62.1989 0.298828 51.6912 4.39465 43.5073 11.1963H8.82201C4.18975 11.1963 0.390625 14.9621 0.390625 19.6277V112.306C0.390625 116.938 4.15642 120.738 8.82201 120.738H63.8418V130.102H49.4459C48.8127 130.102 48.2462 130.502 47.9796 131.068L43.1807 142.066C42.9808 142.533 43.0141 143.099 43.314 143.566C43.614 144.032 44.1138 144.299 44.647 144.299H102.634C103.167 144.299 103.667 144.032 103.967 143.599C104.267 143.132 104.3 142.566 104.1 142.066L99.3011 131.068C99.0345 130.469 98.4679 130.102 97.8347 130.102H83.4385V120.738H138.459C143.091 120.738 146.89 116.972 146.923 112.306V19.6277C146.923 14.9954 143.158 11.1963 138.492 11.1963H103.773C95.5895 4.39465 85.0819 0.298828 73.6404 0.298828ZM8.82201 14.3955H40.0249C37.4251 17.0334 35.1322 19.9745 33.205 23.1602H13.9541C13.0543 23.1602 12.3545 23.86 12.3545 24.7598V107.141C12.3545 108.04 13.0543 108.74 13.9541 108.74H133.293C134.193 108.74 134.893 108.04 134.893 107.141V24.7598C134.893 23.8933 134.193 23.1602 133.293 23.1602H114.076C112.149 19.9745 109.856 17.0334 107.256 14.3955H138.459C141.325 14.3955 143.691 16.7283 143.691 19.6277V112.306C143.691 115.172 141.358 117.538 138.459 117.538H8.82201C5.956 117.538 3.58988 115.206 3.58988 112.306V19.6277C3.58988 16.7617 5.92268 14.3955 8.82201 14.3955ZM15.5538 26.3594H31.4348C28.2262 32.7293 26.418 39.9191 26.418 47.5212C26.418 73.5485 47.6131 94.7436 73.6404 94.7436C74.5068 94.7436 75.24 94.0105 75.2067 93.1773V79.5805C75.2067 78.6807 74.5068 77.9808 73.607 77.9808C56.8109 77.9808 43.1808 64.3173 43.1808 47.5546C43.1808 30.7584 56.8443 17.1283 73.607 17.1283C90.4032 17.1283 104.033 30.7918 104.033 47.5546C104.033 51.7869 103.167 55.9526 101.534 59.7184L94.4356 56.1526C93.869 55.886 93.2358 55.9526 92.7359 56.3192C92.2694 56.6858 92.0361 57.319 92.1694 57.9188L97.8348 83.1796C97.9347 83.6462 98.2347 84.0461 98.6679 84.2461C99.1011 84.4793 99.601 84.4793 100.034 84.2794L123.662 73.6818C124.229 73.4152 124.595 72.882 124.595 72.2488C124.629 71.6157 124.295 71.0491 123.729 70.7825L116.564 67.1833C119.43 60.9515 120.863 54.353 120.863 47.5212C120.863 39.9191 119.055 32.7293 115.846 26.3594H131.694V105.541H15.5538V26.3594ZM80.2393 120.738H67.0411V130.102H80.2393V120.738ZM81.8148 133.301L81.8389 133.301L81.8616 133.301H96.7683L100.168 141.1H47.0798L50.479 133.301H65.4173L65.4414 133.301L65.4641 133.301H81.8148ZM53.5786 57.7856H70.3747C71.2412 57.7856 71.9743 57.0858 71.9743 56.1194C71.9743 55.2529 71.2745 54.5197 70.3747 54.5197H55.3115C55.9114 51.5871 58.7107 50.1541 62.9431 48.3212C67.2088 46.4883 72.041 44.3554 71.9743 38.79C71.8744 33.2913 67.4087 28.8257 61.9767 28.8257C56.4779 28.8257 51.979 33.3246 51.979 38.8234C51.979 39.7232 52.6788 40.423 53.5786 40.423C54.4451 40.423 55.1782 39.6898 55.1782 38.8234C55.1782 35.0576 58.2442 32.0249 61.9767 32.0249C65.7424 32.0249 68.7084 35.0242 68.7751 38.8567C68.8417 42.1226 66.109 43.489 61.6767 45.4218C57.2444 47.3547 51.779 49.7542 51.979 56.2193C52.0123 57.0858 52.7121 57.7856 53.5786 57.7856ZM86.1045 47.9545H74.607C74.0738 47.9545 73.5739 47.6879 73.274 47.2547C72.9741 46.8215 72.9407 46.2549 73.1407 45.755L79.8725 29.892C80.2057 29.0922 81.1388 28.6923 81.972 29.0256C82.7718 29.3588 83.1717 30.2919 82.8051 31.1251L77.0398 44.7886H86.1045V36.4903C86.1045 35.5905 86.8043 34.8906 87.7041 34.8906C88.6039 34.8906 89.3037 35.6238 89.3037 36.4903V44.7886H91.4364C92.3362 44.7886 93.0361 45.4884 93.0361 46.3882C93.0361 47.2214 92.3029 47.9545 91.4364 47.9545H89.3037V56.1857C89.3037 57.0855 88.6039 57.7853 87.7041 57.7853C86.8043 57.7853 86.1045 57.0855 86.1045 56.1857V47.9545Z" fill="#94D4FF"/>
<path d="M45.3045 13.8638L45.1433 13.6727L45.1298 13.684L45.1181 13.6971L45.3045 13.8638ZM44.974 14.1453L44.8392 13.9347L44.8244 13.9443L44.811 13.9558L44.974 14.1453ZM72.0407 91.511L72.0319 91.7609L72.2907 91.7701V91.511H72.0407ZM72.0407 81.1135H72.2907V80.8749L72.0524 80.8637L72.0407 81.1135ZM103.767 62.5511L103.543 62.4386L103.543 62.4393L103.767 62.5511ZM101.634 63.2509L101.75 63.0293L101.746 63.0276L101.634 63.2509ZM96.0685 60.4516L96.1808 60.2282L95.709 59.9909L95.8246 60.5063L96.0685 60.4516ZM100.567 80.5136L100.324 80.5683L100.391 80.8672L100.67 80.7416L100.567 80.5136ZM119.33 72.0822L119.432 72.3102L119.911 72.0949L119.442 71.8589L119.33 72.0822ZM113.764 69.2829L113.645 69.5025L113.652 69.5062L113.764 69.2829ZM113.065 67.1167L112.841 67.0044L112.841 67.0049L113.065 67.1167ZM117.73 47.4546H117.98V47.4535L117.73 47.4546ZM111.923 25.782L112.14 25.6578L112.13 25.6398L112.117 25.6237L111.923 25.782ZM111.672 25.3498L111.906 25.2602L111.899 25.2409L111.888 25.2231L111.672 25.3498ZM102.233 14.0803L102.396 13.8903L102.389 13.8849L102.382 13.8799L102.233 14.0803ZM102.08 13.9499L102.254 13.7704L102.248 13.7646L102.242 13.7592L102.08 13.9499ZM43.5073 11.1963V11.4463H43.5977L43.6671 11.3886L43.5073 11.1963ZM63.8418 120.738H64.0918V120.488H63.8418V120.738ZM63.8418 130.102V130.352H64.0918V130.102H63.8418ZM47.9796 131.068L47.7533 130.962L47.7505 130.969L47.9796 131.068ZM43.1807 142.066L42.9516 141.966L42.9509 141.967L43.1807 142.066ZM103.967 143.599L104.172 143.741L104.177 143.734L103.967 143.599ZM104.1 142.066L104.332 141.973L104.329 141.966L104.1 142.066ZM99.3011 131.068L99.5302 130.969L99.5295 130.967L99.3011 131.068ZM83.4385 130.102H83.1885V130.352H83.4385V130.102ZM83.4385 120.738V120.488H83.1885V120.738H83.4385ZM146.923 112.306L147.173 112.308V112.306H146.923ZM103.773 11.1963L103.614 11.3886L103.683 11.4463H103.773V11.1963ZM40.0249 14.3955L40.203 14.571L40.6224 14.1455H40.0249V14.3955ZM33.205 23.1602V23.4102H33.3459L33.4189 23.2896L33.205 23.1602ZM114.076 23.1602L113.862 23.2896L113.935 23.4102H114.076V23.1602ZM107.256 14.3955V14.1455H106.658L107.078 14.571L107.256 14.3955ZM31.4348 26.3594L31.6581 26.4719L31.8407 26.1094H31.4348V26.3594ZM15.5538 26.3594V26.1094H15.3038V26.3594H15.5538ZM75.2067 93.1773H74.9565L74.9569 93.1873L75.2067 93.1773ZM101.534 59.7184L101.422 59.9418L101.658 60.0605L101.763 59.8179L101.534 59.7184ZM94.4356 56.1526L94.5478 55.9291L94.542 55.9264L94.4356 56.1526ZM92.7359 56.3192L92.588 56.1175L92.5815 56.1226L92.7359 56.3192ZM92.1694 57.9188L91.9254 57.9731L91.9255 57.9735L92.1694 57.9188ZM97.8348 83.1796L98.0792 83.1273L98.0787 83.1249L97.8348 83.1796ZM98.6679 84.2461L98.7864 84.0259L98.7797 84.0223L98.7727 84.0191L98.6679 84.2461ZM100.034 84.2794L99.9319 84.0513L99.9295 84.0524L100.034 84.2794ZM123.662 73.6818L123.764 73.91L123.769 73.908L123.662 73.6818ZM124.595 72.2488L124.345 72.2357V72.2488H124.595ZM123.729 70.7825L123.617 71.006L123.622 71.0087L123.729 70.7825ZM116.564 67.1833L116.337 67.0789L116.236 67.2983L116.452 67.4067L116.564 67.1833ZM115.846 26.3594V26.1094H115.44L115.623 26.4719L115.846 26.3594ZM131.694 26.3594H131.944V26.1094H131.694V26.3594ZM131.694 105.541V105.791H131.944V105.541H131.694ZM15.5538 105.541H15.3038V105.791H15.5538V105.541ZM67.0411 120.738V120.488H66.7911V120.738H67.0411ZM80.2393 120.738H80.4893V120.488H80.2393V120.738ZM67.0411 130.102H66.7911V130.352H67.0411V130.102ZM80.2393 130.102V130.352H80.4893V130.102H80.2393ZM81.8389 133.301L81.8371 133.551L81.8407 133.551L81.8389 133.301ZM81.8148 133.301L81.8165 133.051H81.8148V133.301ZM81.8616 133.301V133.051H81.8597L81.8616 133.301ZM96.7683 133.301L96.9975 133.201L96.9321 133.051H96.7683V133.301ZM100.168 141.1V141.35H100.549L100.397 141L100.168 141.1ZM47.0798 141.1L46.8506 141L46.6981 141.35H47.0798V141.1ZM50.479 133.301V133.051H50.3153L50.2499 133.201L50.479 133.301ZM65.4173 133.301L65.4191 133.051H65.4173V133.301ZM65.4414 133.301L65.4397 133.551L65.4433 133.551L65.4414 133.301ZM65.4641 133.301V133.051H65.4623L65.4641 133.301ZM55.3115 54.5197L55.0666 54.4696L55.0052 54.7697H55.3115V54.5197ZM62.9431 48.3212L62.8444 48.0915L62.8437 48.0918L62.9431 48.3212ZM71.9743 38.79L72.2243 38.787L72.2243 38.7855L71.9743 38.79ZM68.7751 38.8567L68.5251 38.861L68.5251 38.8618L68.7751 38.8567ZM61.6767 45.4218L61.7766 45.651L61.6767 45.4218ZM51.979 56.2193L51.7291 56.2271L51.7291 56.229L51.979 56.2193ZM86.1045 47.9545H86.3545V47.7045H86.1045V47.9545ZM73.274 47.2547L73.0684 47.397H73.0684L73.274 47.2547ZM73.1407 45.755L72.9105 45.6574L72.9086 45.6622L73.1407 45.755ZM79.8725 29.892L80.1026 29.9897L80.1032 29.9882L79.8725 29.892ZM81.972 29.0256L82.0681 28.7948L82.0648 28.7935L81.972 29.0256ZM82.8051 31.1251L82.5762 31.0244L82.5748 31.0279L82.8051 31.1251ZM77.0398 44.7886L76.8094 44.6914L76.6629 45.0386H77.0398V44.7886ZM86.1045 44.7886V45.0386H86.3545V44.7886H86.1045ZM89.3037 44.7886H89.0537V45.0386H89.3037V44.7886ZM89.3037 47.9545V47.7045H89.0537V47.9545H89.3037ZM45.4656 14.0549C53.0869 7.62718 62.922 3.74809 73.6404 3.74809V3.24809C62.7991 3.24809 52.851 7.17208 45.1433 13.6727L45.4656 14.0549ZM45.1088 14.3558C45.251 14.2648 45.3793 14.1551 45.4908 14.0305L45.1181 13.6971C45.0366 13.7883 44.9428 13.8684 44.8392 13.9347L45.1088 14.3558ZM29.8672 47.5212C29.8672 34.2718 35.7949 22.3715 45.137 14.3348L44.811 13.9558C35.3636 22.0829 29.3672 34.1194 29.3672 47.5212H29.8672ZM72.0496 91.2612C48.6558 90.4328 29.8672 71.114 29.8672 47.5212H29.3672C29.3672 71.3841 48.3699 90.923 72.0319 91.7609L72.0496 91.2612ZM71.7907 81.1135V91.511H72.2907V81.1135H71.7907ZM39.7648 47.5212C39.7648 65.6846 54.1005 80.5238 72.0291 81.3632L72.0524 80.8637C54.3892 80.0368 40.2648 65.4161 40.2648 47.5212H39.7648ZM73.6404 13.6457C54.9398 13.6457 39.7648 28.8543 39.7648 47.5212H40.2648C40.2648 29.1301 55.2162 14.1457 73.6404 14.1457V13.6457ZM107.516 47.5212C107.516 28.8541 92.3075 13.6457 73.6404 13.6457V14.1457C92.0313 14.1457 107.016 29.1303 107.016 47.5212H107.516ZM103.99 62.6635C106.308 58.0615 107.516 52.824 107.516 47.5212H107.016C107.016 52.7494 105.825 57.9094 103.543 62.4386L103.99 62.6635ZM101.518 63.4726C102.408 63.9369 103.528 63.5882 103.99 62.6629L103.543 62.4393C103.206 63.1136 102.393 63.3648 101.75 63.0293L101.518 63.4726ZM95.9562 60.6749L101.522 63.4743L101.746 63.0276L96.1808 60.2282L95.9562 60.6749ZM100.811 80.4589L96.3125 60.3969L95.8246 60.5063L100.324 80.5683L100.811 80.4589ZM119.227 71.8542L100.465 80.2856L100.67 80.7416L119.432 72.3102L119.227 71.8542ZM113.652 69.5062L119.217 72.3055L119.442 71.8589L113.877 69.0595L113.652 69.5062ZM112.727 68.4288C112.883 68.8948 113.229 69.2754 113.645 69.5023L113.884 69.0634C113.567 68.8904 113.313 68.6045 113.202 68.2707L112.727 68.4288ZM112.841 67.0049C112.613 67.4612 112.572 67.963 112.727 68.4288L113.202 68.2707C113.09 67.9367 113.116 67.572 113.288 67.2285L112.841 67.0049ZM117.48 47.4546C117.48 54.2807 115.923 60.8741 112.841 67.0044L113.288 67.229C116.405 61.0288 117.98 54.3586 117.98 47.4546H117.48ZM111.706 25.9062C115.351 32.2736 117.448 39.6313 117.48 47.4556L117.98 47.4535C117.947 39.5402 115.827 32.098 112.14 25.6578L111.706 25.9062ZM111.439 25.4393C111.509 25.6229 111.608 25.7916 111.73 25.9404L112.117 25.6237C112.029 25.5161 111.957 25.3939 111.906 25.2602L111.439 25.4393ZM102.07 14.2702C105.786 17.4499 108.967 21.2379 111.457 25.4764L111.888 25.2231C109.37 20.9366 106.153 17.1058 102.396 13.8903L102.07 14.2702ZM101.906 14.1293C101.962 14.1835 102.021 14.234 102.083 14.2806L102.382 13.8799C102.337 13.8462 102.294 13.8096 102.254 13.7704L101.906 14.1293ZM73.6404 3.74809C84.4095 3.74809 94.2803 7.66398 101.918 14.1406L102.242 13.7592C94.5173 7.20935 84.533 3.24809 73.6404 3.24809V3.74809ZM43.6671 11.3886C51.808 4.62269 62.2596 0.548828 73.6404 0.548828V0.0488281C62.1382 0.0488281 51.5745 4.16661 43.3475 11.004L43.6671 11.3886ZM8.82201 11.4463H43.5073V10.9463H8.82201V11.4463ZM0.640625 19.6277C0.640625 15.1008 4.32717 11.4463 8.82201 11.4463V10.9463C4.05232 10.9463 0.140625 14.8234 0.140625 19.6277H0.640625ZM0.640625 112.306V19.6277H0.140625V112.306H0.640625ZM8.82201 120.488C4.29513 120.488 0.640625 116.801 0.640625 112.306H0.140625C0.140625 117.076 4.01771 120.988 8.82201 120.988V120.488ZM63.8418 120.488H8.82201V120.988H63.8418V120.488ZM64.0918 130.102V120.738H63.5918V130.102H64.0918ZM49.4459 130.352H63.8418V129.852H49.4459V130.352ZM48.2058 131.175C48.4357 130.686 48.9198 130.352 49.4459 130.352V129.852C48.7057 129.852 48.0567 130.317 47.7534 130.962L48.2058 131.175ZM43.4099 142.166L48.2087 131.168L47.7505 130.969L42.9516 141.966L43.4099 142.166ZM43.5243 143.43C43.2698 143.035 43.2428 142.556 43.4105 142.164L42.9509 141.967C42.7187 142.509 42.7584 143.164 43.1037 143.701L43.5243 143.43ZM44.647 144.049C44.1988 144.049 43.7782 143.825 43.5243 143.43L43.1037 143.701C43.4497 144.239 44.0289 144.549 44.647 144.549V144.049ZM102.634 144.049H44.647V144.549H102.634V144.049ZM103.761 143.457C103.507 143.823 103.084 144.049 102.634 144.049V144.549C103.25 144.549 103.826 144.241 104.172 143.741L103.761 143.457ZM103.868 142.159C104.04 142.589 104.009 143.07 103.756 143.464L104.177 143.734C104.524 143.195 104.56 142.542 104.332 141.973L103.868 142.159ZM99.0719 131.168L103.871 142.166L104.329 141.966L99.5302 130.969L99.0719 131.168ZM97.8347 130.352C98.3675 130.352 98.8455 130.659 99.0726 131.17L99.5295 130.967C99.2234 130.278 98.5683 129.852 97.8347 129.852V130.352ZM83.4385 130.352H97.8347V129.852H83.4385V130.352ZM83.1885 120.738V130.102H83.6885V120.738H83.1885ZM138.459 120.488H83.4385V120.988H138.459V120.488ZM146.673 112.304C146.641 116.833 142.953 120.488 138.459 120.488V120.988C143.229 120.988 147.139 117.111 147.173 112.308L146.673 112.304ZM146.673 19.6277V112.306H147.173V19.6277H146.673ZM138.492 11.4463C143.019 11.4463 146.673 15.1328 146.673 19.6277H147.173C147.173 14.858 143.296 10.9463 138.492 10.9463V11.4463ZM103.773 11.4463H138.492V10.9463H103.773V11.4463ZM73.6404 0.548828C85.0211 0.548828 95.4728 4.62269 103.614 11.3886L103.933 11.004C95.7063 4.16661 85.1426 0.0488281 73.6404 0.0488281V0.548828ZM40.0249 14.1455H8.82201V14.6455H40.0249V14.1455ZM33.4189 23.2896C35.3359 20.1207 37.6168 17.1951 40.203 14.571L39.8469 14.2201C37.2335 16.8717 34.9285 19.8283 32.9911 23.0307L33.4189 23.2896ZM13.9541 23.4102H33.205V22.9102H13.9541V23.4102ZM12.6045 24.7598C12.6045 23.9981 13.1924 23.4102 13.9541 23.4102V22.9102C12.9163 22.9102 12.1045 23.7219 12.1045 24.7598H12.6045ZM12.6045 107.141V24.7598H12.1045V107.141H12.6045ZM13.9541 108.49C13.1924 108.49 12.6045 107.902 12.6045 107.141H12.1045C12.1045 108.179 12.9163 108.99 13.9541 108.99V108.49ZM133.293 108.49H13.9541V108.99H133.293V108.49ZM134.643 107.141C134.643 107.902 134.055 108.49 133.293 108.49V108.99C134.331 108.99 135.143 108.179 135.143 107.141H134.643ZM134.643 24.7598V107.141H135.143V24.7598H134.643ZM133.293 23.4102C134.051 23.4102 134.643 24.028 134.643 24.7598H135.143C135.143 23.7586 134.334 22.9102 133.293 22.9102V23.4102ZM114.076 23.4102H133.293V22.9102H114.076V23.4102ZM107.078 14.571C109.664 17.1951 111.945 20.1207 113.862 23.2896L114.29 23.0308C112.352 19.8283 110.047 16.8717 107.434 14.2201L107.078 14.571ZM138.459 14.1455H107.256V14.6455H138.459V14.1455ZM143.941 19.6277C143.941 16.5892 141.462 14.1455 138.459 14.1455V14.6455C141.188 14.6455 143.441 16.8674 143.441 19.6277H143.941ZM143.941 112.306V19.6277H143.441V112.306H143.941ZM138.459 117.788C141.497 117.788 143.941 115.309 143.941 112.306H143.441C143.441 115.035 141.219 117.288 138.459 117.288V117.788ZM8.82201 117.788H138.459V117.288H8.82201V117.788ZM3.33988 112.306C3.33988 115.345 5.81897 117.788 8.82201 117.788V117.288C6.09304 117.288 3.83988 115.066 3.83988 112.306H3.33988ZM3.33988 19.6277V112.306H3.83988V19.6277H3.33988ZM8.82201 14.1455C5.78357 14.1455 3.33988 16.6246 3.33988 19.6277H3.83988C3.83988 16.8987 6.06178 14.6455 8.82201 14.6455V14.1455ZM31.4348 26.1094H15.5538V26.6094H31.4348V26.1094ZM26.668 47.5212C26.668 39.9592 28.4665 32.8078 31.6581 26.4719L31.2115 26.2469C27.9858 32.6508 26.168 39.8791 26.168 47.5212H26.668ZM73.6404 94.4936C47.7511 94.4936 26.668 73.4105 26.668 47.5212H26.168C26.168 73.6866 47.475 94.9936 73.6404 94.9936V94.4936ZM74.9569 93.1873C74.9841 93.8691 74.3746 94.4936 73.6404 94.4936V94.9936C74.6391 94.9936 75.4959 94.1519 75.4565 93.1673L74.9569 93.1873ZM74.9567 79.5805V93.1773H75.4567V79.5805H74.9567ZM73.607 78.2308C74.3688 78.2308 74.9567 78.8188 74.9567 79.5805H75.4567C75.4567 78.5426 74.6449 77.7308 73.607 77.7308V78.2308ZM42.9308 47.5546C42.9308 64.4552 56.6727 78.2308 73.607 78.2308V77.7308C56.9492 77.7308 43.4308 64.1795 43.4308 47.5546H42.9308ZM73.607 16.8783C56.7064 16.8783 42.9308 30.6202 42.9308 47.5546H43.4308C43.4308 30.8967 56.9822 17.3783 73.607 17.3783V16.8783ZM104.283 47.5546C104.283 30.6539 90.5414 16.8783 73.607 16.8783V17.3783C90.2649 17.3783 103.783 30.9297 103.783 47.5546H104.283ZM101.763 59.8179C103.41 56.0203 104.283 51.8207 104.283 47.5546H103.783C103.783 51.7531 102.924 55.885 101.305 59.6189L101.763 59.8179ZM94.3233 56.376L101.422 59.9418L101.646 59.495L94.5478 55.9292L94.3233 56.376ZM92.8838 56.5208C93.3108 56.2076 93.8466 56.1517 94.3291 56.3788L94.542 55.9264C93.8915 55.6202 93.1608 55.6976 92.5881 56.1176L92.8838 56.5208ZM92.4135 57.8646C92.3011 57.359 92.4992 56.8232 92.8904 56.5158L92.5815 56.1226C92.0396 56.5484 91.7711 57.279 91.9254 57.9731L92.4135 57.8646ZM98.0787 83.1249L92.4134 57.8641L91.9255 57.9735L97.5908 83.2344L98.0787 83.1249ZM98.7727 84.0191C98.4165 83.8547 98.164 83.5231 98.0792 83.1273L97.5903 83.232C97.7054 83.7693 98.0529 84.2375 98.5631 84.4731L98.7727 84.0191ZM99.9295 84.0524C99.5632 84.2215 99.1463 84.2197 98.7864 84.0259L98.5494 84.4662C99.056 84.739 99.6388 84.7372 100.139 84.5064L99.9295 84.0524ZM123.56 73.4537L99.9319 84.0513L100.137 84.5075L123.764 73.9099L123.56 73.4537ZM124.345 72.2488C124.345 72.7779 124.041 73.2271 123.556 73.4556L123.769 73.908C124.416 73.6034 124.845 72.9861 124.845 72.2488H124.345ZM123.622 71.0087C124.095 71.231 124.374 71.7016 124.346 72.2357L124.845 72.262C124.883 71.5298 124.496 70.8672 123.835 70.5563L123.622 71.0087ZM116.452 67.4067L123.617 71.0059L123.841 70.5591L116.676 66.9599L116.452 67.4067ZM120.613 47.5212C120.613 54.3171 119.187 60.88 116.337 67.0789L116.791 67.2878C119.672 61.023 121.113 54.3888 121.113 47.5212H120.613ZM115.623 26.4719C118.814 32.8078 120.613 39.9592 120.613 47.5212H121.113C121.113 39.8791 119.295 32.6508 116.069 26.2469L115.623 26.4719ZM131.694 26.1094H115.846V26.6094H131.694V26.1094ZM131.944 105.541V26.3594H131.444V105.541H131.944ZM15.5538 105.791H131.694V105.291H15.5538V105.791ZM15.3038 26.3594V105.541H15.8038V26.3594H15.3038ZM67.0411 120.988H80.2393V120.488H67.0411V120.988ZM67.2911 130.102V120.738H66.7911V130.102H67.2911ZM80.2393 129.852H67.0411V130.352H80.2393V129.852ZM79.9893 120.738V130.102H80.4893V120.738H79.9893ZM81.8406 133.051L81.8165 133.051L81.813 133.551L81.8371 133.551L81.8406 133.051ZM81.8597 133.051L81.837 133.051L81.8407 133.551L81.8634 133.551L81.8597 133.051ZM96.7683 133.051H81.8616V133.551H96.7683V133.051ZM100.397 141L96.9975 133.201L96.5391 133.401L99.9384 141.199L100.397 141ZM47.0798 141.35H100.168V140.85H47.0798V141.35ZM50.2499 133.201L46.8506 141L47.309 141.199L50.7082 133.401L50.2499 133.201ZM65.4173 133.051H50.479V133.551H65.4173V133.051ZM65.4432 133.051L65.4191 133.051L65.4156 133.551L65.4397 133.551L65.4432 133.051ZM65.4623 133.051L65.4396 133.051L65.4433 133.551L65.466 133.551L65.4623 133.051ZM81.8148 133.051H65.4641V133.551H81.8148V133.051ZM70.3747 57.5356H53.5786V58.0356H70.3747V57.5356ZM71.7243 56.1194C71.7243 56.9511 71.0998 57.5356 70.3747 57.5356V58.0356C71.3826 58.0356 72.2243 57.2205 72.2243 56.1194H71.7243ZM70.3747 54.7697C71.133 54.7697 71.7243 55.3876 71.7243 56.1194H72.2243C72.2243 55.1182 71.4159 54.2697 70.3747 54.2697V54.7697ZM55.3115 54.7697H70.3747V54.2697H55.3115V54.7697ZM62.8437 48.0918C60.7304 49.007 58.9472 49.8334 57.6175 50.8063C56.2795 51.7852 55.3825 52.9254 55.0666 54.4696L55.5565 54.5698C55.8405 53.1814 56.643 52.1388 57.9127 51.2098C59.1907 50.2748 60.9234 49.4683 63.0424 48.5506L62.8437 48.0918ZM71.7243 38.793C71.7566 41.4876 70.6091 43.3449 68.9224 44.764C67.2226 46.1941 64.9837 47.1722 62.8444 48.0915L63.0418 48.5509C65.1681 47.6372 67.4782 46.6325 69.2443 45.1466C71.0234 43.6497 72.2587 41.6579 72.2243 38.787L71.7243 38.793ZM61.9767 29.0757C67.2687 29.0757 71.6268 33.4284 71.7244 38.7946L72.2243 38.7855C72.1219 33.1542 67.5487 28.5757 61.9767 28.5757V29.0757ZM52.229 38.8234C52.229 33.4627 56.616 29.0757 61.9767 29.0757V28.5757C56.3398 28.5757 51.729 33.1866 51.729 38.8234H52.229ZM53.5786 40.173C52.8169 40.173 52.229 39.5851 52.229 38.8234H51.729C51.729 39.8612 52.5407 40.673 53.5786 40.673V40.173ZM54.9282 38.8234C54.9282 39.5518 54.307 40.173 53.5786 40.173V40.673C54.5831 40.673 55.4282 39.8279 55.4282 38.8234H54.9282ZM61.9767 31.7749C58.1069 31.7749 54.9282 34.9187 54.9282 38.8234H55.4282C55.4282 35.1964 58.3815 32.2749 61.9767 32.2749V31.7749ZM69.025 38.8523C68.9561 34.8892 65.8844 31.7749 61.9767 31.7749V32.2749C65.6004 32.2749 68.4607 35.1593 68.5251 38.861L69.025 38.8523ZM61.7766 45.651C63.9857 44.6876 65.8101 43.8502 67.07 42.8337C68.3479 41.8027 69.0602 40.5752 69.025 38.8516L68.5251 38.8618C68.5566 40.4041 67.9359 41.4927 66.756 42.4446C65.5582 43.411 63.8 44.2232 61.5768 45.1927L61.7766 45.651ZM52.2288 56.2116C52.1315 53.0654 53.4069 50.9179 55.2549 49.3096C57.1163 47.6895 59.5536 46.6204 61.7766 45.651L61.5768 45.1927C59.3675 46.1561 56.856 47.2532 54.9266 48.9324C52.9838 50.6233 51.6264 52.9081 51.7291 56.2271L52.2288 56.2116ZM53.5786 57.5356C52.8519 57.5356 52.2572 56.9475 52.2288 56.2097L51.7291 56.229C51.7674 57.2241 52.5723 58.0356 53.5786 58.0356V57.5356ZM74.607 48.2045H86.1045V47.7045H74.607V48.2045ZM73.0684 47.397C73.4145 47.8969 73.9908 48.2045 74.607 48.2045V47.7045C74.1568 47.7045 73.7333 47.479 73.4795 47.1124L73.0684 47.397ZM72.9086 45.6622C72.6821 46.2284 72.7141 46.8851 73.0684 47.397L73.4795 47.1124C73.234 46.7578 73.1994 46.2815 73.3728 45.8479L72.9086 45.6622ZM79.6423 29.7944L72.9105 45.6574L73.3708 45.8527L80.1026 29.9897L79.6423 29.7944ZM82.0648 28.7935C81.1057 28.4098 80.0279 28.869 79.6417 29.7959L80.1032 29.9882C80.3835 29.3155 81.1719 28.9748 81.8791 29.2577L82.0648 28.7935ZM83.0339 31.2258C83.4579 30.2621 82.9948 29.1809 82.0681 28.7948L81.8758 29.2563C82.5488 29.5368 82.8854 30.3218 82.5763 31.0244L83.0339 31.2258ZM77.2701 44.8858L83.0354 31.2223L82.5748 31.0279L76.8094 44.6914L77.2701 44.8858ZM86.1045 44.5386H77.0398V45.0386H86.1045V44.5386ZM86.3545 44.7886V36.4903H85.8545V44.7886H86.3545ZM86.3545 36.4903C86.3545 35.7285 86.9424 35.1406 87.7041 35.1406V34.6406C86.6663 34.6406 85.8545 35.4524 85.8545 36.4903H86.3545ZM87.7041 35.1406C88.4625 35.1406 89.0537 35.7585 89.0537 36.4903H89.5537C89.5537 35.4891 88.7454 34.6406 87.7041 34.6406V35.1406ZM89.0537 36.4903V44.7886H89.5537V36.4903H89.0537ZM91.4364 44.5386H89.3037V45.0386H91.4364V44.5386ZM93.2861 46.3882C93.2861 45.3504 92.4743 44.5386 91.4364 44.5386V45.0386C92.1982 45.0386 92.7861 45.6265 92.7861 46.3882H93.2861ZM91.4364 48.2045C92.4376 48.2045 93.2861 47.3628 93.2861 46.3882H92.7861C92.7861 47.0799 92.1683 47.7045 91.4364 47.7045V48.2045ZM89.3037 48.2045H91.4364V47.7045H89.3037V48.2045ZM89.0537 47.9545V56.1857H89.5537V47.9545H89.0537ZM89.0537 56.1857C89.0537 56.9474 88.4658 57.5353 87.7041 57.5353V58.0353C88.742 58.0353 89.5537 57.2236 89.5537 56.1857H89.0537ZM87.7041 57.5353C86.9424 57.5353 86.3545 56.9474 86.3545 56.1857H85.8545C85.8545 57.2236 86.6663 58.0353 87.7041 58.0353V57.5353ZM86.3545 56.1857V47.9545H85.8545V56.1857H86.3545Z" fill="#60A1E2"/>
</svg>
