<svg width="156" height="145" viewBox="0 0 156 145" fill="none" xmlns="http://www.w3.org/2000/svg">
<path d="M138.388 131.933C138.388 133.022 137.505 133.904 136.416 133.904C135.327 133.904 134.445 133.022 134.445 131.933C134.445 130.844 135.327 129.961 136.416 129.961C137.505 129.961 138.388 130.844 138.388 131.933Z" fill="#94D4FF" stroke="#60A1E2" stroke-width="1.2"/>
<path d="M92.1015 131.933C92.1015 133.022 91.2188 133.904 90.13 133.904C89.0412 133.904 88.1586 133.022 88.1586 131.933C88.1586 130.844 89.0412 129.961 90.13 129.961C91.2188 129.961 92.1015 130.844 92.1015 131.933Z" fill="#94D4FF" stroke="#60A1E2" stroke-width="1.2"/>
<mask id="path-3-inside-1_4168_2697" fill="white">
<path d="M153.291 137.075C153.629 137.075 153.963 137.009 154.275 136.88C154.587 136.75 154.871 136.561 155.11 136.322C155.348 136.083 155.538 135.8 155.667 135.488C155.796 135.176 155.863 134.841 155.862 134.504V126.789C155.863 126.452 155.796 126.117 155.667 125.805C155.538 125.493 155.348 125.21 155.11 124.971C154.871 124.732 154.587 124.543 154.275 124.414C153.963 124.284 153.629 124.218 153.291 124.218H150.72V103.646C150.714 103.34 150.652 103.038 150.539 102.753C150.504 102.667 150.464 102.582 150.42 102.5C150.382 102.404 150.337 102.31 150.288 102.22L140.002 86.7911C139.767 86.4389 139.449 86.15 139.076 85.9503C138.702 85.7506 138.286 85.6461 137.862 85.6462H109.576V80.5033C109.576 80.1656 109.51 79.8311 109.381 79.5191C109.252 79.2071 109.062 78.9236 108.823 78.6848C108.585 78.446 108.301 78.2566 107.989 78.1274C107.677 77.9982 107.343 77.9317 107.005 77.9318H60.7188C60.3811 77.9317 60.0467 77.9982 59.7346 78.1274C59.4226 78.2566 59.1391 78.446 58.9003 78.6848C58.6615 78.9236 58.4721 79.2071 58.3429 79.5191C58.2137 79.8311 58.1473 80.1656 58.1473 80.5033V124.218H55.5759C55.2382 124.218 54.9038 124.284 54.5917 124.414C54.2797 124.543 53.9962 124.732 53.7574 124.971C53.5186 125.21 62.1685 125.493 62.0393 125.805C61.9101 126.117 61.8436 126.452 61.8437 126.789V134.504C61.8436 134.841 61.9101 135.176 62.0393 135.488C62.1685 135.8 53.5186 136.083 53.7574 136.322C53.9962 136.561 54.2797 136.75 54.5917 136.88C54.9038 137.009 55.2382 137.075 55.5759 137.075H69.523C69.9362 137.99 70.4556 138.853 71.0704 139.647H51.5579V80.5033C51.558 80.1656 51.4916 79.8311 51.3624 79.5191C51.2332 79.2071 51.0438 78.9236 50.805 78.6848C50.5662 78.446 50.2827 78.2566 49.9706 78.1274C49.6586 77.9982 49.3242 77.9317 48.9865 77.9318H15.5576V65.0746H102.987V70.2175C102.987 70.8995 103.258 71.5535 103.74 72.0358C104.222 72.518 104.876 72.7889 105.558 72.7889C106.24 72.7889 106.894 72.518 107.377 72.0358C107.859 71.5535 108.13 70.8995 108.13 70.2175V41.9315C108.13 41.5938 108.063 41.2594 107.934 40.9474C107.805 40.6353 107.616 40.3518 107.377 40.113C107.138 39.8742 106.855 39.6848 106.543 39.5556C106.231 39.4264 105.896 39.36 105.558 39.3601H12.9862C12.6484 39.36 12.314 39.4264 12.002 39.5556C11.69 39.6848 11.4065 39.8742 11.1677 40.113C10.9289 40.3518 10.7395 40.6353 10.6103 40.9474C10.4811 41.2594 10.4146 41.5938 10.4147 41.9315V139.647H5.27181V30.7291L59.2723 6.18483L113.273 30.7291V70.2175C113.273 70.8995 113.544 71.5535 114.026 72.0358C114.508 72.518 115.162 72.7889 115.844 72.7889C116.526 72.7889 117.18 72.518 117.662 72.0358C118.145 71.5535 118.416 70.8995 118.416 70.2175V29.0743C118.416 28.5805 118.274 28.097 118.006 27.6819C117.739 27.2668 117.357 26.9376 116.908 26.7338L60.3358 1.01932C60.0017 0.867889 59.6391 0.789551 59.2723 0.789551C58.9055 0.789551 58.5429 0.867889 58.2088 1.01932L1.63688 26.7338C1.18709 26.9376 0.805612 27.2668 0.538153 27.6819C0.270694 28.097 0.128602 28.5805 0.128907 29.0743V142.218C0.128819 142.556 0.195271 142.89 0.324468 143.202C0.453664 143.514 0.643073 143.798 0.881871 144.037C1.12067 144.275 1.40418 144.465 1.7162 144.594C2.02822 144.723 2.36265 144.79 2.70036 144.79H153.291C153.973 144.79 154.627 144.519 155.109 144.036C155.592 143.554 155.862 142.9 155.862 142.218C155.862 141.536 155.592 140.882 155.109 140.4C154.627 139.918 153.973 139.647 153.291 139.647H137.797C138.411 138.853 138.931 137.99 139.344 137.075H153.291ZM150.72 131.932H140.434C140.434 131.069 140.347 130.207 140.174 129.361H150.72V131.932ZM143.343 101.075H119.862V90.7891H136.486L143.343 101.075ZM114.719 90.7891V103.646C114.719 103.984 114.786 104.318 114.915 104.63C115.044 104.943 115.233 105.226 115.472 105.465C115.711 105.704 115.995 105.893 116.307 106.022C116.619 106.151 116.953 106.218 117.291 106.218H145.577V111.361H137.862V116.504H145.577V124.218H137.797C136.613 122.622 135.072 121.326 133.297 120.433C131.522 119.54 129.563 119.075 127.577 119.075C125.59 119.075 123.631 119.54 121.856 120.433C120.081 121.326 118.54 122.622 117.356 124.218H109.576V90.7891H114.719ZM114.979 129.361C114.806 130.207 114.719 131.069 114.719 131.932H94.1477C94.1476 131.069 94.0605 130.207 93.8878 129.361H114.979ZM93.0578 137.075H115.809C116.222 137.99 116.742 138.853 117.356 139.647H91.5105C92.1253 138.853 92.6446 137.99 93.0578 137.075ZM89.0048 83.0747V95.932H78.719V83.0747H89.0048ZM63.2902 83.0747H73.576V98.5034C73.576 98.8411 73.6424 99.1756 73.7716 99.4876C73.9008 99.7996 74.0902 100.083 74.329 100.322C74.5678 100.561 74.8513 100.75 75.1634 100.879C75.4754 101.009 75.8098 101.075 76.1475 101.075H91.5762C91.9139 101.075 92.2483 101.009 92.5604 100.879C92.8724 100.75 93.1559 100.561 93.3947 100.322C93.6335 100.083 93.8229 99.7996 93.9521 99.4876C94.0813 99.1756 94.1477 98.8411 94.1477 98.5034V83.0747H104.433V124.218H91.5105C90.3266 122.622 88.7857 121.326 87.011 120.433C85.2363 119.54 83.2771 119.075 81.2904 119.075C79.3037 119.075 77.3445 119.54 75.5698 120.433C73.7952 121.326 72.2542 122.622 71.0704 124.218H63.2902V83.0747ZM58.1473 131.932V129.361H68.6931C68.5203 130.207 68.4332 131.069 68.4332 131.932H58.1473ZM73.576 131.932C73.576 130.407 74.0285 128.915 74.8762 127.646C75.7238 126.378 76.9286 125.389 78.3383 124.805C79.7479 124.221 81.299 124.069 82.7954 124.366C84.2918 124.664 85.6664 125.399 86.7453 126.477C87.8241 127.556 88.5589 128.931 88.8565 130.427C89.1542 131.924 89.0014 133.475 88.4175 134.884C87.8336 136.294 86.8449 137.499 85.5763 138.347C84.3076 139.194 82.8162 139.647 81.2904 139.647C79.2451 139.644 77.2842 138.831 75.838 137.385C74.3918 135.938 73.5783 133.978 73.576 131.932ZM28.4149 83.0747H33.5578V90.7891H28.4149V83.0747ZM23.272 83.0747V93.3605C23.2719 93.6982 23.3383 94.0327 23.4675 94.3447C23.5967 94.6567 23.7861 94.9402 24.0249 95.179C24.2637 95.4178 24.5472 95.6072 24.8593 95.7364C25.1713 95.8656 25.5057 95.9321 25.8434 95.932H36.1292C36.4669 95.9321 36.8013 95.8656 37.1134 95.7364C37.4254 95.6072 37.7089 95.4178 37.9477 95.179C38.1865 94.9402 38.3759 94.6567 38.5051 94.3447C38.6343 94.0327 38.7008 93.6982 38.7007 93.3605V83.0747H46.415V108.789H15.5576V83.0747H23.272ZM28.4149 113.932H33.5578V121.646H28.4149V113.932ZM15.5576 59.9317V54.7888H102.987V59.9317H15.5576ZM102.987 44.503V49.6459H15.5576V44.503H102.987ZM15.5576 139.647V113.932H23.272V124.218C23.2719 124.556 23.3383 124.89 23.4675 125.202C23.5967 125.514 23.7861 125.798 24.0249 126.036C24.2637 126.275 24.5472 126.465 24.8593 126.594C25.1713 126.723 25.5057 126.789 25.8434 126.789H36.1292C36.4669 126.789 36.8013 126.723 37.1134 126.594C37.4254 126.465 37.7089 126.275 37.9477 126.036C38.1865 125.798 38.3759 125.514 38.5051 125.202C38.6343 124.89 38.7008 124.556 38.7007 124.218V113.932H46.415V139.647H15.5576ZM119.862 131.932C119.862 130.407 120.315 128.915 121.162 127.646C122.01 126.378 123.215 125.389 124.624 124.805C126.034 124.221 127.585 124.069 129.082 124.366C130.578 124.664 131.953 125.399 133.031 126.477C134.11 127.556 134.845 128.931 135.143 130.427C135.44 131.924 135.288 133.475 134.704 134.884C134.12 136.294 133.131 137.499 131.862 138.347C130.594 139.194 129.102 139.647 127.577 139.647C125.531 139.644 123.57 138.831 122.124 137.385C120.678 135.938 119.864 133.978 119.862 131.932Z"/>
</mask>
<path d="M153.291 137.075C153.629 137.075 153.963 137.009 154.275 136.88C154.587 136.75 154.871 136.561 155.11 136.322C155.348 136.083 155.538 135.8 155.667 135.488C155.796 135.176 155.863 134.841 155.862 134.504V126.789C155.863 126.452 155.796 126.117 155.667 125.805C155.538 125.493 155.348 125.21 155.11 124.971C154.871 124.732 154.587 124.543 154.275 124.414C153.963 124.284 153.629 124.218 153.291 124.218H150.72V103.646C150.714 103.34 150.652 103.038 150.539 102.753C150.504 102.667 150.464 102.582 150.42 102.5C150.382 102.404 150.337 102.31 150.288 102.22L140.002 86.7911C139.767 86.4389 139.449 86.15 139.076 85.9503C138.702 85.7506 138.286 85.6461 137.862 85.6462H109.576V80.5033C109.576 80.1656 109.51 79.8311 109.381 79.5191C109.252 79.2071 109.062 78.9236 108.823 78.6848C108.585 78.446 108.301 78.2566 107.989 78.1274C107.677 77.9982 107.343 77.9317 107.005 77.9318H60.7188C60.3811 77.9317 60.0467 77.9982 59.7346 78.1274C59.4226 78.2566 59.1391 78.446 58.9003 78.6848C58.6615 78.9236 58.4721 79.2071 58.3429 79.5191C58.2137 79.8311 58.1473 80.1656 58.1473 80.5033V124.218H55.5759C55.2382 124.218 54.9038 124.284 54.5917 124.414C54.2797 124.543 53.9962 124.732 53.7574 124.971C53.5186 125.21 62.1685 125.493 62.0393 125.805C61.9101 126.117 61.8436 126.452 61.8437 126.789V134.504C61.8436 134.841 61.9101 135.176 62.0393 135.488C62.1685 135.8 53.5186 136.083 53.7574 136.322C53.9962 136.561 54.2797 136.75 54.5917 136.88C54.9038 137.009 55.2382 137.075 55.5759 137.075H69.523C69.9362 137.99 70.4556 138.853 71.0704 139.647H51.5579V80.5033C51.558 80.1656 51.4916 79.8311 51.3624 79.5191C51.2332 79.2071 51.0438 78.9236 50.805 78.6848C50.5662 78.446 50.2827 78.2566 49.9706 78.1274C49.6586 77.9982 49.3242 77.9317 48.9865 77.9318H15.5576V65.0746H102.987V70.2175C102.987 70.8995 103.258 71.5535 103.74 72.0358C104.222 72.518 104.876 72.7889 105.558 72.7889C106.24 72.7889 106.894 72.518 107.377 72.0358C107.859 71.5535 108.13 70.8995 108.13 70.2175V41.9315C108.13 41.5938 108.063 41.2594 107.934 40.9474C107.805 40.6353 107.616 40.3518 107.377 40.113C107.138 39.8742 106.855 39.6848 106.543 39.5556C106.231 39.4264 105.896 39.36 105.558 39.3601H12.9862C12.6484 39.36 12.314 39.4264 12.002 39.5556C11.69 39.6848 11.4065 39.8742 11.1677 40.113C10.9289 40.3518 10.7395 40.6353 10.6103 40.9474C10.4811 41.2594 10.4146 41.5938 10.4147 41.9315V139.647H5.27181V30.7291L59.2723 6.18483L113.273 30.7291V70.2175C113.273 70.8995 113.544 71.5535 114.026 72.0358C114.508 72.518 115.162 72.7889 115.844 72.7889C116.526 72.7889 117.18 72.518 117.662 72.0358C118.145 71.5535 118.416 70.8995 118.416 70.2175V29.0743C118.416 28.5805 118.274 28.097 118.006 27.6819C117.739 27.2668 117.357 26.9376 116.908 26.7338L60.3358 1.01932C60.0017 0.867889 59.6391 0.789551 59.2723 0.789551C58.9055 0.789551 58.5429 0.867889 58.2088 1.01932L1.63688 26.7338C1.18709 26.9376 0.805612 27.2668 0.538153 27.6819C0.270694 28.097 0.128602 28.5805 0.128907 29.0743V142.218C0.128819 142.556 0.195271 142.89 0.324468 143.202C0.453664 143.514 0.643073 143.798 0.881871 144.037C1.12067 144.275 1.40418 144.465 1.7162 144.594C2.02822 144.723 2.36265 144.79 2.70036 144.79H153.291C153.973 144.79 154.627 144.519 155.109 144.036C155.592 143.554 155.862 142.9 155.862 142.218C155.862 141.536 155.592 140.882 155.109 140.4C154.627 139.918 153.973 139.647 153.291 139.647H137.797C138.411 138.853 138.931 137.99 139.344 137.075H153.291ZM150.72 131.932H140.434C140.434 131.069 140.347 130.207 140.174 129.361H150.72V131.932ZM143.343 101.075H119.862V90.7891H136.486L143.343 101.075ZM114.719 90.7891V103.646C114.719 103.984 114.786 104.318 114.915 104.63C115.044 104.943 115.233 105.226 115.472 105.465C115.711 105.704 115.995 105.893 116.307 106.022C116.619 106.151 116.953 106.218 117.291 106.218H145.577V111.361H137.862V116.504H145.577V124.218H137.797C136.613 122.622 135.072 121.326 133.297 120.433C131.522 119.54 129.563 119.075 127.577 119.075C125.59 119.075 123.631 119.54 121.856 120.433C120.081 121.326 118.54 122.622 117.356 124.218H109.576V90.7891H114.719ZM114.979 129.361C114.806 130.207 114.719 131.069 114.719 131.932H94.1477C94.1476 131.069 94.0605 130.207 93.8878 129.361H114.979ZM93.0578 137.075H115.809C116.222 137.99 116.742 138.853 117.356 139.647H91.5105C92.1253 138.853 92.6446 137.99 93.0578 137.075ZM89.0048 83.0747V95.932H78.719V83.0747H89.0048ZM63.2902 83.0747H73.576V98.5034C73.576 98.8411 73.6424 99.1756 73.7716 99.4876C73.9008 99.7996 74.0902 100.083 74.329 100.322C74.5678 100.561 74.8513 100.75 75.1634 100.879C75.4754 101.009 75.8098 101.075 76.1475 101.075H91.5762C91.9139 101.075 92.2483 101.009 92.5604 100.879C92.8724 100.75 93.1559 100.561 93.3947 100.322C93.6335 100.083 93.8229 99.7996 93.9521 99.4876C94.0813 99.1756 94.1477 98.8411 94.1477 98.5034V83.0747H104.433V124.218H91.5105C90.3266 122.622 88.7857 121.326 87.011 120.433C85.2363 119.54 83.2771 119.075 81.2904 119.075C79.3037 119.075 77.3445 119.54 75.5698 120.433C73.7952 121.326 72.2542 122.622 71.0704 124.218H63.2902V83.0747ZM58.1473 131.932V129.361H68.6931C68.5203 130.207 68.4332 131.069 68.4332 131.932H58.1473ZM73.576 131.932C73.576 130.407 74.0285 128.915 74.8762 127.646C75.7238 126.378 76.9286 125.389 78.3383 124.805C79.7479 124.221 81.299 124.069 82.7954 124.366C84.2918 124.664 85.6664 125.399 86.7453 126.477C87.8241 127.556 88.5589 128.931 88.8565 130.427C89.1542 131.924 89.0014 133.475 88.4175 134.884C87.8336 136.294 86.8449 137.499 85.5763 138.347C84.3076 139.194 82.8162 139.647 81.2904 139.647C79.2451 139.644 77.2842 138.831 75.838 137.385C74.3918 135.938 73.5783 133.978 73.576 131.932ZM28.4149 83.0747H33.5578V90.7891H28.4149V83.0747ZM23.272 83.0747V93.3605C23.2719 93.6982 23.3383 94.0327 23.4675 94.3447C23.5967 94.6567 23.7861 94.9402 24.0249 95.179C24.2637 95.4178 24.5472 95.6072 24.8593 95.7364C25.1713 95.8656 25.5057 95.9321 25.8434 95.932H36.1292C36.4669 95.9321 36.8013 95.8656 37.1134 95.7364C37.4254 95.6072 37.7089 95.4178 37.9477 95.179C38.1865 94.9402 38.3759 94.6567 38.5051 94.3447C38.6343 94.0327 38.7008 93.6982 38.7007 93.3605V83.0747H46.415V108.789H15.5576V83.0747H23.272ZM28.4149 113.932H33.5578V121.646H28.4149V113.932ZM15.5576 59.9317V54.7888H102.987V59.9317H15.5576ZM102.987 44.503V49.6459H15.5576V44.503H102.987ZM15.5576 139.647V113.932H23.272V124.218C23.2719 124.556 23.3383 124.89 23.4675 125.202C23.5967 125.514 23.7861 125.798 24.0249 126.036C24.2637 126.275 24.5472 126.465 24.8593 126.594C25.1713 126.723 25.5057 126.789 25.8434 126.789H36.1292C36.4669 126.789 36.8013 126.723 37.1134 126.594C37.4254 126.465 37.7089 126.275 37.9477 126.036C38.1865 125.798 38.3759 125.514 38.5051 125.202C38.6343 124.89 38.7008 124.556 38.7007 124.218V113.932H46.415V139.647H15.5576ZM119.862 131.932C119.862 130.407 120.315 128.915 121.162 127.646C122.01 126.378 123.215 125.389 124.624 124.805C126.034 124.221 127.585 124.069 129.082 124.366C130.578 124.664 131.953 125.399 133.031 126.477C134.11 127.556 134.845 128.931 135.143 130.427C135.44 131.924 135.288 133.475 134.704 134.884C134.12 136.294 133.131 137.499 131.862 138.347C130.594 139.194 129.102 139.647 127.577 139.647C125.531 139.644 123.57 138.831 122.124 137.385C120.678 135.938 119.864 133.978 119.862 131.932Z" fill="#94D4FF" stroke="#60A1E2" stroke-width="2.4" mask="url(#path-3-inside-1_4168_2697)"/>
<path d="M128.701 113.332H126.13C125.607 113.332 125.106 113.124 124.736 112.755C124.366 112.385 124.159 111.883 124.159 111.361C124.159 110.838 124.366 110.336 124.736 109.966C125.106 109.597 125.607 109.389 126.13 109.389H128.701C129.224 109.389 129.726 109.597 130.096 109.966C130.465 110.336 130.673 110.838 130.673 111.361C130.673 111.883 130.465 112.385 130.096 112.755C129.726 113.124 129.224 113.332 128.701 113.332Z" fill="#94D4FF" stroke="#60A1E2" stroke-width="1.2"/>
</svg>
