<svg width="154" height="144" viewBox="0 0 154 144" fill="none" xmlns="http://www.w3.org/2000/svg">
<path d="M46.42 144C30.244 144 17.0841 131.774 17.0841 116.746C17.0841 111.243 18.8481 106.116 21.88 101.827C8.53792 99.5583 0.638672 95.159 0.638672 89.9249V54.8918C0.638672 49.9694 7.47018 45.8356 19.4687 43.4371C18.2272 40.8071 17.5382 37.9035 17.5382 34.8528C17.5382 23.0279 27.8932 13.4075 40.6214 13.4075C51.5207 13.4075 60.6803 20.4623 63.087 29.9149C66.54 28.1433 71.2554 26.6912 76.941 25.6528C76.2175 23.6877 75.8246 21.5806 75.8246 19.3905C75.8243 8.69878 85.1875 0 96.6963 0C108.205 0 117.568 8.69878 117.568 19.3908C117.568 21.5809 117.175 23.688 116.452 25.6531C129.159 27.974 136.679 32.3058 136.679 37.3753V73.4043C138.217 73.7615 139.682 74.1558 141.064 74.5861C149.11 77.0934 153.363 80.4856 153.363 84.3955V119.429C153.363 123.339 149.11 126.731 141.064 129.238C133.647 131.549 123.815 132.822 113.381 132.822C102.946 132.822 93.1146 131.549 85.6976 129.238C80.4328 127.598 76.7918 125.578 74.9039 123.283C71.7434 135.164 60.1714 144 46.42 144ZM46.42 92.304C31.9132 92.304 20.1115 103.269 20.1115 116.746C20.1115 130.223 31.9132 141.188 46.42 141.188C60.9267 141.188 72.7288 130.223 72.7288 116.746C72.7288 103.269 60.9267 92.304 46.42 92.304ZM76.4252 119.027C76.434 119.104 76.4358 119.183 76.4306 119.263C76.427 119.318 76.4252 119.373 76.4252 119.428C76.4252 124.433 91.6022 130.009 113.381 130.009C135.159 130.009 150.336 124.433 150.336 119.428L150.335 119.371C150.335 119.346 150.335 119.32 150.336 119.295V107.17C143.896 112.422 128.214 115.206 113.381 115.206C98.5599 115.206 82.8677 112.421 76.4252 107.167V119.027ZM76.4252 101.897C76.4267 101.913 76.4279 101.929 76.4288 101.946C76.6907 106.887 91.9309 112.394 113.381 112.394C134.88 112.394 150.111 106.877 150.334 101.926C150.334 101.912 150.335 101.898 150.336 101.884V89.7415C148.267 91.4257 145.156 92.9295 141.064 94.2047C133.647 96.5157 123.816 97.7884 113.381 97.7884C102.946 97.7884 93.1149 96.5157 85.6979 94.2047C81.6059 92.9295 78.495 91.4257 76.4255 89.7415V95.258C76.4309 95.3263 76.4309 95.3947 76.4255 95.4627L76.4252 101.897ZM69.1014 99.479C70.847 101.454 72.2992 103.659 73.3975 106.039V97.792C72.1197 98.3936 70.6847 98.9573 69.1014 99.479ZM3.66602 89.5233C3.67479 89.5995 3.67661 89.6777 3.67146 89.757C3.66783 89.8127 3.66602 89.8687 3.66602 89.9249C3.66602 93.6278 11.9679 97.4661 23.8999 99.2984C29.2855 93.3089 37.3825 89.4918 46.4203 89.4918C54.3604 89.4918 61.5746 92.4384 66.8615 97.2152C69.4662 96.433 71.6583 95.5513 73.3979 94.5858V84.3955C73.3979 82.134 74.8204 80.046 77.5771 78.2021V77.67C71.1401 82.9195 55.4666 85.7031 40.6217 85.7031C25.8292 85.7031 10.1155 82.9145 3.66632 77.6573L3.66602 89.5233ZM79.7583 80.2218C77.5974 81.569 76.4249 83.0042 76.4249 84.3952C76.4249 89.3998 91.6019 94.9759 113.38 94.9759C135.159 94.9759 150.336 89.3998 150.336 84.3952C150.336 79.3907 135.159 73.8146 113.38 73.8146C97.9369 73.8146 85.8136 76.6181 80.0671 80.0336C79.9732 80.1076 79.87 80.1709 79.7583 80.2218ZM3.66602 72.4196C3.66844 72.441 3.67056 72.4627 3.67237 72.4843C3.84433 74.945 7.77049 77.5814 14.1745 79.5364C21.2585 81.6989 30.6512 82.89 40.6214 82.89C62.1652 82.89 77.3876 77.3637 77.575 72.4039C77.5756 72.3926 77.5762 72.3814 77.5768 72.3698V65.7579C77.5338 65.5822 77.5268 65.3957 77.562 65.2073C77.5665 65.1842 77.571 65.1611 77.5768 65.1386V60.2378C75.5073 61.9222 72.3964 63.4261 68.3043 64.7013C60.8873 67.0123 51.056 68.2853 40.6214 68.2853C30.1868 68.2853 20.3555 67.0126 12.9385 64.7013C8.84641 63.4261 5.73551 61.9225 3.66602 60.2378V72.4196ZM80.6041 67.1068V76.5211C82.083 75.8292 83.7829 75.1823 85.6973 74.5858C93.1143 72.2748 102.946 71.0021 113.38 71.0021C120.631 71.0021 127.591 71.6167 133.652 72.767V60.1388C131.582 61.8232 128.471 63.3271 124.379 64.6023C116.962 66.9133 107.131 68.1862 96.696 68.1862C91.0672 68.186 85.6634 67.8234 80.6041 67.1068ZM20.9261 46.0277C10.5566 48.0023 3.66571 51.5197 3.66571 54.8918C3.66571 59.8964 18.8427 65.4728 40.6211 65.4728C62.3995 65.4728 77.5765 59.8964 77.5765 54.8918C77.5765 51.5199 70.6856 48.0023 60.3161 46.0277C56.2546 52.1826 48.9448 56.2981 40.6208 56.2981C32.2968 56.2981 24.9876 52.1828 20.9261 46.0277ZM80.6041 64.2603C85.6011 64.9898 91.1338 65.3735 96.696 65.3735C118.474 65.3735 133.652 59.7971 133.652 54.7926C133.652 54.7073 133.647 54.6193 133.638 54.531C133.625 54.405 133.63 54.2815 133.652 54.1626V42.7207C131.582 44.4052 128.471 45.909 124.379 47.1842C116.962 49.4952 107.131 50.7682 96.696 50.7682C89.6132 50.7682 82.878 50.1778 77.0267 49.113C79.3687 50.848 80.6038 52.7985 80.6038 54.8913V64.2603H80.6041ZM40.6214 16.2203C29.5625 16.2203 20.5656 24.5787 20.5656 34.8531C20.5656 45.1274 29.5625 53.4859 40.6214 53.4859C51.6803 53.4859 60.6772 45.1274 60.6772 34.8531C60.6772 34.0678 60.6246 33.2944 60.5229 32.5347C60.4959 32.4343 60.4814 32.3319 60.479 32.2301C59.1024 23.1936 50.7218 16.2203 40.6214 16.2203ZM62.6511 41.2647C68.604 45.2917 82.0312 47.9559 96.6963 47.9559C118.475 47.9559 133.652 42.3796 133.652 37.375C133.652 34.4194 127.945 30.5167 115.232 28.2988C111.754 34.5212 104.751 38.7813 96.6963 38.7813C88.6423 38.7813 81.6392 34.5215 78.1605 28.2994C71.9916 29.3799 66.8994 30.9873 63.6089 32.8905C63.6722 33.5365 63.7046 34.1916 63.7046 34.8528C63.7046 37.0851 63.3353 39.2394 62.6511 41.2647ZM80.5509 26.4482C83.4093 32.0701 89.572 35.9691 96.6963 35.9691C103.899 35.9691 110.118 31.9846 112.935 26.2634C112.964 26.1844 113.001 26.109 113.044 26.0376C114.006 24.0019 114.541 21.753 114.541 19.3908C114.541 10.2496 106.536 2.8125 96.6963 2.8125C86.8568 2.8125 78.8519 10.2493 78.8519 19.3908C78.8519 21.6866 79.3572 23.8756 80.2693 25.8657C80.4058 26.0322 80.5045 26.2294 80.5509 26.4482ZM46.42 132.382C45.5838 132.382 44.9063 131.752 44.9063 130.976V128.168H42.5961C41.2469 128.168 39.9415 127.803 38.8207 127.112C38.1241 126.683 37.9343 125.81 38.3969 125.162C38.8595 124.515 39.7986 124.339 40.4955 124.769C41.1182 125.153 41.8448 125.356 42.5961 125.356H50.2441C52.3421 125.356 54.0486 123.77 54.0486 121.821C54.0486 119.873 52.3418 118.287 50.2441 118.287H42.5961C38.8292 118.287 35.7643 115.44 35.7643 111.94C35.7643 108.44 38.8292 105.593 42.5961 105.593H44.9063V102.516C44.9063 101.74 45.5838 101.11 46.42 101.11C47.2561 101.11 47.9336 101.74 47.9336 102.516V105.593H50.2441C51.1932 105.593 52.1126 105.771 52.9766 106.122C53.7425 106.432 54.0928 107.261 53.758 107.973C53.4237 108.684 52.5313 109.009 51.7651 108.699C51.2852 108.504 50.7736 108.406 50.2441 108.406H42.5961C40.4982 108.406 38.7917 109.991 38.7917 111.94C38.7917 113.889 40.4985 115.474 42.5961 115.474H50.2441C54.011 115.474 57.0759 118.322 57.0759 121.821C57.0759 125.321 54.011 128.168 50.2441 128.168H47.9336V130.976C47.9336 131.752 47.2561 132.382 46.42 132.382ZM40.6214 47.2911C39.7853 47.2911 39.1077 46.6613 39.1077 45.8848V44.0243H37.657C36.5433 44.0243 35.4661 43.7228 34.5416 43.1522C33.8453 42.7224 33.6558 41.8497 34.1184 41.2026C34.5809 40.556 35.5206 40.3796 36.2169 40.8094C36.6435 41.0726 37.1415 41.2118 37.6573 41.2118H43.5861C45.025 41.2118 46.1956 40.1242 46.1956 38.7875C46.1956 37.451 45.025 36.3634 43.5861 36.3634H37.6573C34.5489 36.3634 32.0204 34.0141 32.0204 31.1268C32.0204 28.2392 34.5492 25.8899 37.6573 25.8899H39.108V23.8207C39.108 23.0442 39.7856 22.4145 40.6217 22.4145C41.4579 22.4145 42.1354 23.0442 42.1354 23.8207V25.8899H43.5861C44.3693 25.8899 45.1282 26.0367 45.8412 26.3264C46.6074 26.6375 46.957 27.4666 46.6219 28.1782C46.2877 28.8894 45.3946 29.2148 44.629 28.9035C44.3002 28.7702 43.9494 28.7024 43.5861 28.7024H37.6573C36.2184 28.7024 35.0478 29.79 35.0478 31.1268C35.0478 32.4633 36.2184 33.5509 37.6573 33.5509H43.5861C46.6946 33.5509 49.223 35.9002 49.223 38.7875C49.223 41.6751 46.6943 44.0243 43.5861 44.0243H42.1354V45.8848C42.1351 46.6613 41.4576 47.2911 40.6214 47.2911ZM96.6963 30.6979C95.8601 30.6979 95.1826 30.0682 95.1826 29.2916V27.7661H94.0359C93.0059 27.7661 92.0097 27.4871 91.1541 26.9595C90.4575 26.53 90.268 25.6573 90.7306 25.0102C91.1926 24.3633 92.1326 24.1867 92.8288 24.6167C93.1864 24.8372 93.6038 24.9536 94.0359 24.9536H99.357C100.562 24.9536 101.544 24.0424 101.544 22.9222C101.544 21.8019 100.563 20.8907 99.357 20.8907H94.0359C91.1608 20.8907 88.8219 18.7178 88.8219 16.0467C88.8219 13.3757 91.1608 11.2028 94.0359 11.2028H95.1826V9.48994C95.1826 8.71341 95.8601 8.08369 96.6963 8.08369C97.5324 8.08369 98.21 8.71341 98.21 9.48994V11.2028H99.357C100.081 11.2028 100.783 11.3383 101.443 11.6063C102.209 11.9171 102.559 12.7462 102.224 13.4578C101.89 14.1694 100.997 14.4948 100.231 14.1837C99.9558 14.0721 99.6619 14.0153 99.357 14.0153H94.0359C92.8304 14.0153 91.8492 14.9265 91.8492 16.0467C91.8492 17.1667 92.8301 18.0782 94.0359 18.0782H99.357C102.232 18.0782 104.571 20.2511 104.571 22.9222C104.571 25.5932 102.232 27.7661 99.357 27.7661H98.21V29.2916C98.21 30.0684 97.5321 30.6979 96.6963 30.6979Z" fill="#94D4FF"/>
</svg>
