<svg width="176" height="73" viewBox="0 0 176 73" fill="none" xmlns="http://www.w3.org/2000/svg">
<g clip-path="url(#clip0_4588_4458)">
<path d="M73.8781 275.299C70.0645 278.911 64.4668 280.979 58.5842 280.936L34.6857 280.699H9.98043V141.504H33.2371C38.9034 141.504 44.2937 139.544 48.0631 136.119L84.2037 92.8564C87.516 89.8547 92.2592 88.1423 97.2365 88.1683L128.505 88.3116L1472.25 88.3116V271.119L129.351 228.881C124.287 228.881 119.465 230.678 116.179 233.799L73.8781 275.299Z" fill="#4964BF" fill-opacity="0.1"/>
<path d="M73.8781 5.63722C70.0645 2.02568 64.4668 -0.0427381 58.5842 0.000669795L26.2381 0.237262L1.53288 0.237262L9.98043 4.27205L33.2371 4.27205C38.9034 4.27205 44.2937 6.23189 48.0631 9.65678L84.2037 52.9128C87.516 55.9209 92.2592 57.6334 97.2365 57.6095L128.505 57.4641L1472.25 57.4641V52.0555L129.351 52.0555C124.287 52.0555 119.465 50.2584 116.179 47.1374L73.8781 5.63722Z" fill="#4964BF" fill-opacity="0.1"/>
</g>
<defs>
<clipPath id="clip0_4588_4458">
<rect width="176" height="73" fill="white"/>
</clipPath>
</defs>
</svg>
