<svg width="47" height="47" viewBox="0 0 47 47" fill="none" xmlns="http://www.w3.org/2000/svg">
<path d="M13.4375 38.5938C14.582 38.5921 15.7001 38.2494 16.6489 37.6093C17.5977 36.9691 18.3342 36.0607 18.7642 35H28.9546C29.3832 36.0617 30.1192 36.9711 31.0684 37.6115C32.0175 38.2519 33.1363 38.5941 34.2812 38.5941C35.4262 38.5941 36.545 38.2519 37.4941 37.6115C38.4433 36.9711 39.1793 36.0617 39.6079 35H45.0625V20.3785L39.664 13.4375H27.8125V12.7188C27.8125 12.5281 27.7368 12.3453 27.602 12.2105C27.4672 12.0757 27.2844 12 27.0938 12H2.65625C2.46563 12 2.28281 12.0757 2.14802 12.2105C2.01323 12.3453 1.9375 12.5281 1.9375 12.7188V35H8.11084C8.54085 36.0607 9.27729 36.9691 10.2261 37.6093C11.1749 38.2494 12.293 38.5921 13.4375 38.5938ZM13.4375 37.1562C12.5846 37.1562 11.7508 36.9033 11.0416 36.4295C10.3324 35.9556 9.77967 35.2821 9.45327 34.4941C9.12687 33.7061 9.04146 32.839 9.20786 32.0024C9.37426 31.1659 9.78499 30.3975 10.3881 29.7944C10.9912 29.1912 11.7596 28.7805 12.5962 28.6141C13.4327 28.4477 14.2998 28.5331 15.0878 28.8595C15.8758 29.1859 16.5493 29.7387 17.0232 30.4479C17.4971 31.157 17.75 31.9908 17.75 32.8438C17.7489 33.9871 17.2941 35.0834 16.4856 35.8919C15.6771 36.7004 14.5809 37.1551 13.4375 37.1562ZM19.1379 33.5625C19.204 33.0856 19.204 32.6019 19.1379 32.125H28.5808C28.5147 32.6019 28.5147 33.0856 28.5808 33.5625H19.1379ZM3.375 18.4688H9.67412L15.2725 21.2719C15.3726 21.3204 15.4825 21.345 15.5938 21.3438H26.375V24.2188H14.3474L9.48438 21.4386C9.37497 21.376 9.25104 21.3433 9.125 21.3438H3.375V18.4688ZM27.8125 27.0938H40.75V30.6875H39.6079C39.1793 29.6258 38.4433 28.7164 37.4941 28.076C36.545 27.4356 35.4262 27.0934 34.2812 27.0934C33.1363 27.0934 32.0175 27.4356 31.0684 28.076C30.1192 28.7164 29.3832 29.6258 28.9546 30.6875H27.8125V27.0938ZM34.2812 37.1562C33.4283 37.1562 32.5945 36.9033 31.8854 36.4295C31.1762 35.9556 30.6234 35.2821 30.297 34.4941C29.9706 33.7061 29.8852 32.839 30.0516 32.0024C30.218 31.1659 30.6287 30.3975 31.2319 29.7944C31.835 29.1912 32.6034 28.7805 33.4399 28.6141C34.2765 28.4477 35.1436 28.5331 35.9316 28.8595C36.7196 29.1859 37.3931 29.7387 37.867 30.4479C38.3408 31.157 38.5938 31.9908 38.5938 32.8438C38.5926 33.9871 38.1379 35.0834 37.3294 35.8919C36.5209 36.7004 35.4246 37.1551 34.2812 37.1562ZM43.625 33.5625H39.9817C40.0478 33.0856 40.0478 32.6019 39.9817 32.125H43.625V33.5625ZM38.961 14.875L43.625 20.8715V30.6875H42.1875V25.6562H27.8125V14.875H38.961ZM26.375 13.4375V17.0312H18.4688V18.4688H26.375V19.9062H15.7634L10.165 17.1067C10.0652 17.057 9.95525 17.0311 9.84375 17.0312H3.375V13.4375H26.375ZM3.375 26.375H10.5625V24.9375H3.375V22.7812H8.93381L13.7997 25.5614C13.9083 25.6235 14.0312 25.6562 14.1562 25.6562H26.375V30.6875H18.7642C18.3356 29.6258 17.5995 28.7164 16.6504 28.076C15.7013 27.4356 14.5825 27.0934 13.4375 27.0934C12.2925 27.0934 11.1737 27.4356 10.2246 28.076C9.27549 28.7164 8.53942 29.6258 8.11084 30.6875H3.375V26.375ZM3.375 33.5625V32.125H7.73709C7.67097 32.6019 7.67097 33.0856 7.73709 33.5625H3.375Z" fill="#002B87" stroke="#EFF9FF" stroke-width="0.359375"/>
<path d="M13.4375 29.9688C12.8689 29.9688 12.313 30.1374 11.8402 30.4533C11.3674 30.7692 10.9989 31.2182 10.7813 31.7435C10.5637 32.2689 10.5068 32.8469 10.6177 33.4046C10.7287 33.9623 11.0025 34.4746 11.4046 34.8767C11.8066 35.2788 12.3189 35.5526 12.8766 35.6635C13.4343 35.7744 14.0124 35.7175 14.5377 35.4999C15.0631 35.2823 15.5121 34.9138 15.828 34.441C16.1439 33.9682 16.3125 33.4124 16.3125 32.8438C16.3125 32.0813 16.0096 31.35 15.4704 30.8108C14.9313 30.2717 14.2 29.9688 13.4375 29.9688ZM13.4375 34.2812C13.1532 34.2812 12.8753 34.1969 12.6389 34.039C12.4025 33.881 12.2182 33.6565 12.1094 33.3939C12.0006 33.1312 11.9722 32.8422 12.0276 32.5633C12.0831 32.2845 12.22 32.0283 12.421 31.8273C12.6221 31.6262 12.8782 31.4893 13.1571 31.4339C13.4359 31.3784 13.7249 31.4069 13.9876 31.5157C14.2503 31.6245 14.4748 31.8087 14.6327 32.0451C14.7907 32.2815 14.875 32.5594 14.875 32.8438C14.875 33.225 14.7236 33.5906 14.454 33.8602C14.1844 34.1298 13.8188 34.2812 13.4375 34.2812ZM34.2813 29.9688C33.7126 29.9688 33.1568 30.1374 32.684 30.4533C32.2112 30.7692 31.8427 31.2182 31.6251 31.7435C31.4075 32.2689 31.3506 32.8469 31.4615 33.4046C31.5724 33.9623 31.8462 34.4746 32.2483 34.8767C32.6504 35.2788 33.1627 35.5526 33.7204 35.6635C34.2781 35.7744 34.8561 35.7175 35.3815 35.4999C35.9068 35.2823 36.3558 34.9138 36.6717 34.441C36.9876 33.9682 37.1563 33.4124 37.1563 32.8438C37.1563 32.0813 36.8534 31.35 36.3142 30.8108C35.775 30.2717 35.0438 29.9688 34.2813 29.9688ZM34.2813 34.2812C33.9969 34.2812 33.719 34.1969 33.4826 34.039C33.2462 33.881 33.062 33.6565 32.9532 33.3939C32.8444 33.1312 32.8159 32.8422 32.8714 32.5633C32.9268 32.2845 33.0637 32.0283 33.2648 31.8273C33.4658 31.6262 33.722 31.4893 34.0008 31.4339C34.2797 31.3784 34.5687 31.4069 34.8314 31.5157C35.094 31.6245 35.3185 31.8087 35.4765 32.0451C35.6344 32.2815 35.7188 32.5594 35.7188 32.8438C35.7188 33.225 35.5673 33.5906 35.2977 33.8602C35.0281 34.1298 34.6625 34.2812 34.2813 34.2812ZM29.9688 24.2188H41.4688C41.6594 24.2188 41.8422 24.143 41.977 24.0082C42.1118 23.8734 42.1875 23.6906 42.1875 23.5V21.3438C42.1876 21.1754 42.1286 21.0123 42.0208 20.883L38.427 16.5705C38.3595 16.4897 38.2751 16.4247 38.1797 16.3801C38.0843 16.3355 37.9803 16.3125 37.875 16.3125H29.9688C29.7781 16.3125 29.5953 16.3882 29.4605 16.523C29.3257 16.6578 29.25 16.8406 29.25 17.0313V23.5C29.25 23.6906 29.3257 23.8734 29.4605 24.0082C29.5953 24.143 29.7781 24.2188 29.9688 24.2188ZM36.1399 17.75L35.2106 18.6793L36.2269 19.6957L37.8268 18.0957L40.75 21.6039V22.7812H36.0163L36.9457 21.8519L35.9293 20.8356L33.9837 22.7812H31.7038L34.0707 20.4144L33.0543 19.3981L30.6875 21.7649V17.75H36.1399Z" fill="#002B87" stroke="#EFF9FF" stroke-width="0.359375"/>
<path d="M17.0312 17.0312H15.5938V18.4688H17.0312V17.0312Z" fill="#002B87" stroke="#EFF9FF" stroke-width="0.359375"/>
<path d="M24.9375 27.8125H23.5V29.25H24.9375V27.8125Z" fill="#002B87" stroke="#EFF9FF" stroke-width="0.359375"/>
<path d="M22.0625 27.8125H20.625V29.25H22.0625V27.8125Z" fill="#002B87" stroke="#EFF9FF" stroke-width="0.359375"/>
</svg>
