<svg width="47" height="47" viewBox="0 0 47 47" fill="none" xmlns="http://www.w3.org/2000/svg">
<path fill-rule="evenodd" clip-rule="evenodd" d="M7.2912 8.25752C7.10296 8.02099 7.20444 7.66926 7.48975 7.56949L11.785 6.06624C11.863 6.03878 11.947 6.03415 12.0274 6.05251L14.3898 6.5893C14.4324 6.59886 14.4733 6.61505 14.5111 6.63661L17.7862 8.51584L17.8524 8.56217L22.7945 12.7685L28.0805 13.2918C28.2452 13.3082 28.3867 13.4156 28.4467 13.5697L28.7136 14.2561H29.97C30.1259 14.2561 30.2703 14.3387 30.349 14.4732L32.1162 17.4881L33.3055 18.1817C33.3942 18.2335 33.4618 18.3146 33.4969 18.4109L33.9266 19.5921C33.955 19.6708 33.9606 19.7561 33.9425 19.8377L33.7653 20.6353L35.2271 23.1202L36.1951 23.6528C36.2532 23.6847 36.3029 23.729 36.3414 23.783L38.2157 26.4171L43.2851 27.0377C43.4108 27.0532 43.5238 27.1221 43.5949 27.2267L44.5077 28.569C44.5837 28.6807 44.604 28.8214 44.5626 28.9501L43.2204 33.138C43.1787 33.2682 43.0787 33.3714 42.95 33.4174L37.0978 35.5114L37.0115 35.5327L31.3885 36.3284L29.7752 37.1108L27.9599 39.5481C27.8307 39.7214 27.5944 39.7751 27.4032 39.6744L26.4674 39.1819L20.925 38.8653C20.8885 38.8631 20.8525 38.8566 20.8179 38.8453L20.3179 38.6875L20.2064 39.916C20.1951 40.0397 20.1318 40.153 20.0323 40.2278L19.1734 40.8719C18.9526 41.0374 18.6357 40.9609 18.5148 40.7128L17.518 38.6665L15.4578 36.1838C15.4259 36.1456 15.401 36.1022 15.3838 36.0556L14.5196 33.7173L12.2731 32.1856C12.2043 32.1388 12.1503 32.0733 12.1173 31.9969L10.9361 29.2585C10.8949 29.1631 10.889 29.056 10.9192 28.9565L11.2457 27.8839L9.97822 25.2029L8.15753 24.0904C8.05826 24.0296 7.98719 23.9323 7.95973 23.8193L7.49427 21.9057L3.82742 16.2766L2.78104 16.0947C2.52956 16.0508 2.36828 15.803 2.43029 15.5554L3.12811 12.7634C3.18277 12.545 3.39356 12.4034 3.61636 12.4352L5.63188 12.723L6.70989 11.4577C6.77166 11.3849 6.85573 11.3344 6.94887 11.3136L8.19454 11.0369L8.4769 10.4721C8.51931 10.3873 8.58818 10.3182 8.67323 10.2758L8.83305 10.1959L7.2912 8.25752ZM9.85771 10.0731C10.0315 10.2915 9.96017 10.6145 9.7104 10.7393L9.19714 10.9959L8.88684 11.6167C8.82777 11.7349 8.71845 11.8204 8.58928 11.8491L7.28337 12.1393L6.14387 13.4768C6.04607 13.5916 5.89655 13.6482 5.74728 13.6268L3.88443 13.3607L3.39715 15.31L4.16657 15.4438C4.28668 15.4646 4.3928 15.5345 4.45947 15.6367L8.2714 21.4892C8.2986 21.5309 8.31846 21.5767 8.33023 21.625L8.77044 23.4351L10.5485 24.5217C10.6215 24.5665 10.6801 24.6315 10.7166 24.7089L12.1125 27.6618C12.1591 27.7606 12.1674 27.8731 12.1355 27.9775L11.8066 29.0584L12.8736 31.5316L15.1305 33.0706C15.206 33.1218 15.2636 33.1956 15.2952 33.2811L16.1818 35.6805L18.228 38.146C18.2503 38.1728 18.2694 38.2027 18.2846 38.2343L19.0719 39.85L19.3493 39.6419L19.4927 38.0647C19.518 37.7855 19.7949 37.6012 20.0624 37.6857L21.0301 37.9911L26.6127 38.3103C26.6754 38.3137 26.7367 38.3309 26.7923 38.36L27.4799 38.7221L29.1348 36.4999C29.1767 36.4433 29.2319 36.3977 29.2954 36.3671L31.0672 35.5079C31.1082 35.4881 31.152 35.4746 31.1971 35.4682L36.8442 34.6692L42.4501 32.6632L43.6609 28.8859L42.9805 27.8856L37.9168 27.2655C37.7943 27.2505 37.6837 27.1846 37.6121 27.0841L35.6839 24.374L34.6981 23.8318C34.629 23.7938 34.5713 23.7379 34.5312 23.6698L32.9205 20.9314C32.8642 20.8356 32.8463 20.7221 32.8703 20.6135L33.0573 19.772L32.7257 18.8605L31.5744 18.1889C31.5092 18.1509 31.455 18.0967 31.4168 18.0316L29.7187 15.1346H28.4132C28.2321 15.1346 28.0696 15.0236 28.0039 14.8547L27.7257 14.1395L22.5713 13.6292C22.4823 13.6204 22.398 13.5846 22.3298 13.5267L17.3139 9.25769L14.1309 7.43142L11.9561 6.93728L8.36351 8.19468L9.85771 10.0731Z" fill="#002B87" stroke="#002B87" stroke-width="0.5"/>
</svg>
