<svg width="138" height="78" viewBox="0 0 138 78" fill="none" xmlns="http://www.w3.org/2000/svg">
<g clip-path="url(#clip0_3470_11292)">
<path d="M20.2594 48.7603H15.9245V50.757H20.3105C22.4609 50.757 23.5361 52.1564 23.5361 54.9041V58.5563H14.3203V60.553H48.4015V54.6822C48.4015 50.9789 46.4218 48.7603 43.111 48.7603H37.3597V50.757H43.1622C45.2613 50.757 46.3536 52.0882 46.4048 54.7334V58.5563H25.5499V54.6822C25.5499 50.9789 23.5702 48.7603 20.2594 48.7603Z" fill="white"/>
<path d="M9.49209 44.1523H7.30762V46.3198H9.49209V44.1523Z" fill="white"/>
<path d="M43.7606 62.6348H41.5762V64.8022H43.7606V62.6348Z" fill="white"/>
<path d="M6.09561 44.1523H3.91113V46.3198H6.09561V44.1523Z" fill="white"/>
<path d="M1.31738 54.6652C1.31738 59.5461 4.2357 60.5701 6.69324 60.5701C9.15077 60.5701 12.0862 59.5461 12.0862 54.6652C12.0862 49.7842 9.15077 48.7603 6.69324 48.7603C4.2357 48.7603 1.31738 49.7842 1.31738 54.6652ZM6.69324 50.757C9.09957 50.757 10.0723 51.8834 10.0723 54.6481C10.0723 57.4128 9.09957 58.5392 6.69324 58.5392C4.3381 58.5392 3.33119 57.3787 3.33119 54.6481C3.33119 51.9175 4.3381 50.757 6.69324 50.757Z" fill="white"/>
<path d="M48.096 15.7714C48.4886 15.7714 48.8811 15.8396 49.2565 15.9591L49.6149 16.0956V14.9181L49.4443 14.8669C49.0006 14.7133 48.5398 14.6279 48.079 14.6279C46.7308 14.6279 45.9628 15.3788 45.9628 16.6759V17.9558C45.9628 18.1777 45.8262 18.1777 45.775 18.1777H44.8193V19.3211H49.6149V18.1777H47.0891V16.5052C47.1233 16.0615 47.2939 15.7714 48.096 15.7714Z" fill="white"/>
<path d="M16.9501 22.2051H14.7656V24.3725H16.9501V22.2051Z" fill="white"/>
<path d="M8.8085 22.2051H6.62402V24.3725H8.8085V22.2051Z" fill="white"/>
<path d="M5.41201 22.2051H3.22754V24.3725H5.41201V22.2051Z" fill="white"/>
<path d="M48.4206 21.5054H46.4238V38.6228H48.4206V21.5054Z" fill="white"/>
<path d="M24.4062 21.5054V34.6805C24.4062 37.2916 25.8057 38.6228 28.5704 38.6228H31.0962C32.3079 38.6228 33.2295 38.3668 33.9121 37.8548L35.0214 38.1961C35.9601 38.4862 36.9328 38.6228 37.9227 38.6398C40.329 38.6398 43.1279 37.1209 43.1279 32.8203C43.1279 28.4172 40.5509 26.8471 38.1275 26.8471C33.4343 26.8471 33.1953 30.0214 33.1953 30.6529V34.5098C33.1953 35.8922 32.854 36.609 30.9426 36.6431H28.5704C26.7102 36.609 26.403 35.9434 26.403 34.5098V21.5395L24.4062 21.5054ZM35.2092 34.6805V30.687C35.2433 29.4241 36.199 28.8097 38.1275 28.8097C39.5781 28.8097 41.1141 29.8507 41.1141 32.7861C41.1141 35.3631 40.056 36.609 37.9056 36.609C36.9328 36.609 35.9771 36.4212 35.0897 36.0458L35.0385 36.0287C35.158 35.585 35.2092 35.1242 35.2092 34.6805Z" fill="white"/>
<path d="M0.976562 32.4111C0.976562 35.6196 2.97331 37.531 6.30122 37.531C7.30812 37.531 8.31503 37.3774 9.2878 37.0873L9.61206 36.9849C10.2606 38.0771 11.4723 38.6232 13.2301 38.6232H16.9505C19.7153 38.6232 21.1147 37.2921 21.1147 34.6809V26.8134H19.1179V34.4761C19.1179 35.8926 18.8107 36.5412 17.07 36.6094H13.196C11.3699 36.5582 11.0627 35.9097 11.0627 34.4761V30.2267C11.0627 29.3392 10.7043 26.4209 6.18175 26.4209C4.97005 26.4209 0.976562 26.8646 0.976562 32.4111ZM6.18175 28.4347C8.09317 28.4347 9.04888 29.0662 9.04888 30.2949V35.0052C8.26383 35.3465 7.41052 35.5172 6.55721 35.5172C3.34876 35.5172 2.97331 33.657 2.97331 32.2746C2.99037 28.8955 4.5946 28.4347 6.18175 28.4347Z" fill="white"/>
<path d="M69.3425 65.8439H127.095C132.846 65.8439 137.505 61.1678 137.505 55.4165V37.3093C137.505 23.4003 127.743 16.9493 126.634 16.2666L125.456 15.5499C123.681 14.4064 121.394 14.3894 119.602 15.5157L118.357 16.2666C117.828 16.5909 115.302 18.2463 112.827 21.4206C110.967 10.7372 103.304 5.73679 102.314 5.13947L100.966 4.3203C100.13 3.84244 99.1913 3.60352 98.2356 3.60352C97.2116 3.60352 96.1877 3.87657 95.3173 4.42269L94.1227 5.13947C93.1499 5.73679 85.4872 10.7372 83.6269 21.4036C81.1353 18.2292 78.5753 16.5738 78.0463 16.2496L76.8687 15.5328C75.0938 14.4064 72.824 14.4064 71.0492 15.5328L69.8375 16.2666C68.7282 16.9493 58.9492 23.3832 58.9492 37.3263V55.4165C58.9492 61.1507 63.6083 65.8269 69.3425 65.8439ZM102.707 54.0683V26.1992C102.707 25.8734 102.691 25.5321 102.675 25.1752C102.674 25.1582 102.674 25.1411 102.673 25.124V25.0899C102.673 25.0728 102.673 25.0387 102.673 25.0216C102.656 24.7144 102.639 24.4072 102.587 24.1C102.212 20.738 100.659 17.5978 98.2356 15.2427C95.7951 17.5978 94.2592 20.7209 93.8837 24.1C93.8496 24.4072 93.8155 24.7144 93.7984 25.0216C93.7984 25.0557 93.7984 25.0899 93.7984 25.124C93.7813 25.4312 93.7643 25.7725 93.7643 26.1992V32.2577C93.7643 35.0736 91.5115 37.3775 88.6956 37.4287C88.5932 37.4287 88.5079 37.3605 88.4908 37.2581C88.4908 37.2581 88.4908 37.2581 88.4908 37.241V26.1821C88.4908 14.8331 96.529 9.79855 96.8703 9.61082L98.1503 8.84284C98.2015 8.80871 98.2868 8.80871 98.338 8.82577L99.6009 9.59375C99.9422 9.79855 107.98 14.7989 107.98 26.165V53.8464C107.98 54.6144 108.595 55.2288 109.363 55.2458H125.593C126.361 55.2458 126.975 54.6144 126.975 53.8464V37.2751C126.975 36.9167 126.958 36.5583 126.941 36.2C126.941 36.1829 126.941 36.1488 126.941 36.1317V36.0976C126.924 35.7562 126.89 35.449 126.856 35.176C126.292 30.534 123.903 27.6498 122.487 26.3186C121.104 27.6157 118.698 30.5169 118.135 35.176C118.101 35.449 118.084 35.7562 118.049 36.0976V36.1317C118.049 36.1488 118.049 36.1829 118.049 36.2C118.032 36.5413 118.015 36.8997 118.015 37.2751V48.334C118.015 48.4364 117.93 48.5218 117.828 48.5218C115.012 48.4706 112.759 46.1666 112.759 43.3507L112.742 37.2751C112.742 26.1992 120.285 21.2329 121.138 20.7038L122.401 19.9359C122.435 19.9188 122.47 19.9017 122.504 19.9017C122.555 19.9017 122.589 19.9188 122.623 19.9359L123.869 20.6868C124.21 20.8916 132.249 25.9432 132.249 37.2581V55.3482C132.249 58.1983 129.945 60.5022 127.095 60.5193H88.6785C88.5761 60.5193 88.4908 60.434 88.4908 60.3316C88.5249 57.5156 90.8118 55.2458 93.6277 55.2288H103.134C102.758 55.0069 102.724 54.6315 102.707 54.0683ZM64.2227 37.3263C64.2227 26.0285 72.2609 20.9598 72.6022 20.755L73.8651 19.9871C73.8992 19.97 73.9333 19.9529 73.9675 19.9529C74.0016 19.9529 74.0357 19.97 74.0699 19.9871L75.3157 20.738C75.657 20.9428 83.6952 25.9261 83.6952 37.3093V60.3828C83.6952 60.4852 83.6099 60.5705 83.5075 60.5705H69.3425C66.4925 60.5534 64.2056 58.2495 64.2056 55.3994L64.2227 37.3263Z" fill="white"/>
<path d="M64.2227 37.3263C64.2227 26.0285 72.2609 20.9598 72.6022 20.755L73.8651 19.9871C73.8992 19.97 73.9333 19.9529 73.9675 19.9529C74.0016 19.9529 74.0357 19.97 74.0699 19.9871L75.3157 20.738C75.657 20.9428 83.6952 25.9261 83.6952 37.3093V60.3828C83.6952 60.4852 83.6099 60.5705 83.5075 60.5705H69.3425C66.4925 60.5534 64.2056 58.2495 64.2056 55.3994L64.2227 37.3263Z" fill="white"/>
<path d="M88.4902 60.3821C88.4902 60.4845 88.5756 60.5698 88.678 60.5698H127.094C129.944 60.5528 132.248 58.2488 132.248 55.3988V37.3086C132.248 25.9767 124.21 20.9421 123.868 20.7373L122.623 19.9864C122.589 19.9694 122.537 19.9523 122.503 19.9523C122.469 19.9523 122.435 19.9694 122.401 19.9864L121.138 20.7544C120.285 21.2835 112.741 26.2668 112.741 37.3257L112.758 43.4013C112.758 46.2172 115.011 48.5211 117.827 48.5723C117.929 48.5723 118.015 48.487 118.015 48.3846V37.3257C118.015 36.9332 118.032 36.5918 118.049 36.2505C118.049 36.2334 118.049 36.2164 118.049 36.1822V36.1481C118.066 35.8068 118.1 35.4996 118.134 35.2265C118.697 30.5675 121.104 27.6833 122.486 26.3692C123.886 27.7003 126.275 30.5845 126.855 35.2265C126.889 35.4996 126.906 35.8068 126.94 36.1481V36.1822C126.94 36.1993 126.94 36.2334 126.94 36.2505C126.957 36.6089 126.975 36.9673 126.975 37.3257V53.897C126.975 54.6649 126.36 55.2793 125.592 55.2964H109.379C108.611 55.2964 107.997 54.6649 107.997 53.897V26.2156C107.997 14.8324 99.9587 9.83203 99.6174 9.64431L98.3545 8.87633C98.2862 8.84219 98.218 8.8422 98.1668 8.89339L96.8868 9.66137C96.5455 9.86617 88.5073 14.8836 88.5073 26.2327V37.2916C88.5073 37.3939 88.5926 37.4793 88.695 37.4793C91.511 37.4281 93.7637 35.1241 93.7637 32.3082V26.2497C93.7637 25.8231 93.7808 25.4817 93.7978 25.1745C93.7978 25.1404 93.7978 25.1063 93.7978 25.0721C93.8149 24.765 93.849 24.4578 93.8832 24.1506C94.2586 20.7885 95.7946 17.6484 98.235 15.2932C100.675 17.6484 102.211 20.7715 102.587 24.1506C102.638 24.4578 102.655 24.765 102.672 25.0721C102.672 25.0892 102.672 25.1234 102.672 25.1404V25.1745C102.689 25.55 102.706 25.9084 102.706 26.2497V54.1188C102.706 54.6649 102.741 55.0404 103.116 55.3305H93.6442C90.8112 55.3135 88.5244 57.5833 88.4902 60.3821Z" fill="#4964BF"/>
<path d="M69.3416 60.5697H83.5066C83.609 60.5697 83.6943 60.4844 83.6943 60.382V37.3256C83.6943 25.9424 75.6561 20.9591 75.3148 20.7543L74.069 20.0034C74.0348 19.9863 74.0007 19.9692 73.9666 19.9692C73.9324 19.9692 73.8983 19.9692 73.8642 20.0034L72.6013 20.7714C72.26 20.9761 64.2218 26.0448 64.2218 37.3426V55.4328C64.2047 58.2487 66.5086 60.5697 69.3416 60.5697ZM69.4611 37.3256C69.4611 36.9672 69.4611 36.6088 69.4952 36.2333V36.148C69.5123 35.8408 69.5464 35.5336 69.5806 35.2264C70.1437 30.5673 72.5501 27.6832 73.9324 26.3691C75.3319 27.7002 77.7211 30.5844 78.2843 35.2264C78.3185 35.4824 78.3355 35.7725 78.3697 36.1309C78.3697 36.1651 78.3697 36.1821 78.3697 36.2163V36.2504C78.3867 36.6258 78.4038 36.9842 78.4038 37.3256V55.2963H70.8264C70.0584 55.2963 69.444 54.6648 69.444 53.8968V37.3256H69.4611Z" fill="#4964BF"/>
<path d="M66.6807 6.55546C66.6807 8.19381 68.0118 9.52498 69.6502 9.52498C71.2885 9.52498 72.6197 8.19381 72.6197 6.55546C72.6197 4.9171 71.2885 3.58594 69.6502 3.58594C68.0118 3.58594 66.6807 4.9171 66.6807 6.55546Z" fill="white"/>
<path d="M75.2988 6.55545C75.2988 8.19381 76.63 9.52498 78.2683 9.50791C79.9067 9.50791 81.2379 8.17675 81.2208 6.53839C81.2208 4.90004 79.8896 3.58594 78.2513 3.58594C76.63 3.58594 75.2988 4.90003 75.2988 6.55545Z" fill="white"/>
<path d="M119.534 74.053C119.534 75.6914 120.848 77.0226 122.487 77.0226C124.125 77.0226 125.456 75.7085 125.456 74.0701C125.456 72.4318 124.142 71.1006 122.504 71.1006C122.504 71.1006 122.504 71.1006 122.487 71.1006C120.865 71.1006 119.534 72.4317 119.534 74.053Z" fill="white"/>
</g>
<defs>
<clipPath id="clip0_3470_11292">
<rect width="136.53" height="76.7979" fill="white" transform="translate(0.942383 0.958008)"/>
</clipPath>
</defs>
</svg>
