<svg width="123" height="111" viewBox="0 0 123 111" fill="none" xmlns="http://www.w3.org/2000/svg">
<g clip-path="url(#clip0_3470_11316)">
<path d="M122.087 76.3799C121.951 76.4475 121.816 76.5151 121.664 76.5827L121.58 76.6334C118.014 78.3065 114.651 79.2866 111.338 79.5908C111.271 79.5908 111.22 79.6077 111.153 79.6077C110.713 79.6077 110.426 79.4218 110.172 78.9824C109.243 77.3263 108.55 75.4505 108.06 73.2197C107.891 72.4424 107.739 71.665 107.57 70.8538L107.367 69.8398L107.181 70.1778C104.596 74.8252 100.912 80.7738 95.1319 85.438L95.0812 85.4887L95.0305 85.438C94.5066 84.7621 93.2054 83.0045 92.8336 82.4468L92.7491 82.3116L92.1238 82.9031L92.1914 82.9876C92.5632 83.4439 92.9857 83.9678 93.4082 84.4917C93.78 84.9311 94.1179 85.3704 94.439 85.776L94.4897 85.8436C95.2164 86.7562 95.9769 87.7195 96.6529 88.5982C97.0754 89.1559 97.5147 89.7136 97.9541 90.2544L97.971 90.2713C99.0019 91.6063 100.083 92.9752 101.165 94.2934C101.3 94.4624 101.419 94.6482 101.402 94.8341C101.368 95.0369 101.199 95.189 101.03 95.3073C95.8586 99.3294 90.2987 102.574 84.536 104.906C77.5903 107.712 70.4249 109.283 63.2426 109.554C62.4146 109.587 61.6034 109.604 60.7922 109.604C55.9083 109.604 51.1088 109.047 46.546 107.897C38.3835 105.869 30.7619 102.287 23.9683 97.2508C23.4106 96.8621 22.8529 96.4227 22.3121 96.0171L21.5686 95.4256C22.0924 94.7665 24.7795 91.2515 26.0976 89.5108C27.5679 87.5843 29.224 85.3873 30.6605 83.5284L30.7281 83.427L30.2211 83.0214L30.1535 83.1397C29.6465 83.8326 28.9198 84.779 28.3283 85.5394L28.0749 85.8774L28.0242 85.8267C23.512 82.1426 19.811 77.4446 16.0424 70.6003L15.8396 70.2285L15.772 70.6172C15.7213 70.8707 15.7044 71.1073 15.6706 71.327C15.2144 74.6393 14.4032 77.2249 13.1019 79.4556C12.916 79.7767 12.7808 80.0133 12.7301 80.1485C11.919 80.0809 5.95346 79.4894 2.92846 77.6305C2.62427 77.4277 2.26938 77.3094 1.93139 77.1742C1.76239 77.1066 1.5934 77.0559 1.4244 76.9545L0.782227 76.6841L0.98502 77.0559C4.29731 83.0721 7.7617 88.0575 11.5641 92.333C15.7382 97.0311 20.6053 101.104 25.9962 104.518L26.0976 104.585L26.6891 103.723C27.0947 103.115 27.5172 102.523 27.9059 101.932C28.2439 101.442 28.379 101.256 28.5987 101.256C28.7846 101.256 28.9874 101.374 29.3592 101.611C34.3615 104.534 39.6172 106.765 45.0081 108.151C50.2638 109.52 55.5027 110.213 60.6401 110.213C61.8231 110.213 63.006 110.162 64.1721 110.111C68.8871 109.824 73.4837 109.047 77.8438 107.813C81.663 106.731 85.4485 105.278 89.1326 103.47C91.076 102.506 92.8505 101.526 94.5911 100.445L94.6418 100.411L97.3119 104.196L97.4134 104.129C107.401 97.9098 115.479 88.8855 122.137 76.5489L122.34 76.1771L122.087 76.3799ZM98.2752 102.861C98.5794 102.304 99.0695 101.442 99.1371 101.273C99.3906 100.766 99.661 100.259 99.9483 99.7519C100.117 99.4477 100.269 99.1435 100.438 98.8393C101.03 97.7239 101.655 96.5579 102.297 95.4425C102.517 95.0538 102.5 94.8003 102.196 94.4286C100.472 92.2654 98.7653 90.0178 97.0923 87.8716L96.2304 86.7393C96.1121 86.5872 95.9938 86.4013 95.8755 86.2154C95.8079 86.1478 95.7572 86.0295 95.6727 85.945L95.6389 85.8943L95.6896 85.8605C99.9821 82.3454 103.615 77.9009 106.826 72.2903L107.097 71.8171C107.164 72.2903 107.249 73 107.3 73.1859C107.435 73.7605 107.587 74.3689 107.773 74.9435C108.33 76.8024 109.04 78.4248 109.97 79.9119C110.189 80.2837 110.358 80.3513 110.781 80.3175C113.873 80.0978 117 79.3373 120.042 78.1037C120.109 78.0699 120.633 77.7826 121.056 77.5629L120.65 78.222C116.882 85.0325 112.64 90.6431 107.705 95.4087C104.95 98.0281 101.131 101.036 98.2752 102.861ZM101.25 95.9833L97.4302 103.098L95.3178 100.056L95.3854 100.022C97.1599 98.9238 99.7624 97.048 101.25 95.9833ZM3.30025 78.5093C6.03796 79.6077 8.58978 80.2668 11.3951 80.571C11.6317 80.6048 13.0005 80.7062 13.0512 80.7062H13.1188L13.1695 80.6386C13.4061 80.2837 13.4061 80.2837 13.4061 80.2837C14.6736 78.3065 15.5524 76.0419 16.1269 73.4056C16.1438 73.3549 16.1438 73.338 16.1438 73.2704C16.1607 73.1521 16.2114 72.5776 16.2959 72.1551L16.5325 72.679V72.6958C16.7015 72.9493 16.8536 73.2197 17.0057 73.4901C17.3437 74.0478 17.6648 74.6055 18.0028 75.1294C20.825 79.557 23.8331 83.0721 27.213 85.8605C27.2299 85.8605 27.5172 86.0971 27.7707 86.2999C27.3144 86.9083 25.0161 89.9164 24.0697 91.167C23.1402 92.3668 22.1938 93.6174 21.2306 94.8341C20.9602 95.2059 20.8588 95.4594 21.1292 95.9157C21.9741 97.4198 22.7853 98.9745 23.5965 100.462C23.8669 100.986 24.1373 101.476 24.4246 102C24.4753 102.067 24.695 102.523 24.9147 102.861L24.3063 102.422C20.0476 99.6674 16.0424 96.2706 12.088 91.995C9.01226 88.6489 3.48614 79.9457 2.21868 77.884C3.28335 78.4924 3.30025 78.5093 3.30025 78.5093ZM27.9735 100.698L28.0242 100.732L25.8779 103.504L22.0586 96.4565L22.7853 97.1325L22.9205 97.217C24.6105 98.5013 26.3511 99.6336 27.9735 100.698Z" fill="white"/>
<path d="M61.1989 1.09295C67.4855 1.09295 73.5862 2.32661 79.332 4.76013C84.892 7.09226 89.8604 10.4721 94.136 14.7477C98.4115 19.0233 101.791 24.0086 104.124 29.5516C106.557 35.3143 107.791 41.3982 107.791 47.6848C107.791 53.9714 106.557 60.0721 104.124 65.8179C101.791 71.3778 98.4115 76.3462 94.136 80.6218C89.8604 84.8974 84.8751 88.2772 79.332 90.6094C73.5693 93.0429 67.4855 94.2766 61.1989 94.2766C54.9123 94.2766 48.8116 93.0429 43.0658 90.6094C37.5059 88.2772 32.5374 84.8974 28.2619 80.6218C23.9863 76.3462 20.6064 71.3609 18.2743 65.8179C15.8239 60.089 14.6071 53.9883 14.6071 47.7017C14.6071 41.4151 15.8408 35.3143 18.2743 29.5685C20.6064 24.0086 23.9863 19.0402 28.2619 14.7646C32.5374 10.489 37.5228 7.10915 43.0658 4.77703C48.8116 2.30971 54.8954 1.09295 61.1989 1.09295ZM61.1989 0.501465C35.1399 0.501465 14.0156 21.6258 14.0156 47.7017C14.0156 73.7606 35.1399 94.9018 61.2158 94.9018C87.2917 94.9018 108.416 73.7775 108.416 47.7017C108.382 21.6258 87.2579 0.501465 61.1989 0.501465Z" fill="white"/>
<path d="M61.7891 10.2017C61.7891 10.2017 61.806 13.8181 61.806 15.3391C61.806 17.6881 63.0565 18.1613 63.7156 18.4148C63.8846 18.4824 63.8508 18.7021 63.6818 18.7528H58.3754C58.2064 18.719 58.1726 18.4993 58.3416 18.4148C59.0176 18.1782 60.2512 17.705 60.2512 15.3391C60.2512 13.8181 60.2681 10.2017 60.2681 10.2017H61.7891Z" fill="white"/>
<path d="M63.6978 18.8542H58.3576C58.2393 18.8373 58.1379 18.7528 58.1379 18.6345C58.121 18.5162 58.2055 18.3979 58.3069 18.3472C58.9153 18.1275 60.1658 17.6881 60.1658 15.356C60.1658 13.852 60.1827 10.2524 60.1827 10.2186V10.1172H61.9065V10.2017C61.9065 10.2355 61.9234 13.8351 61.9234 15.3391C61.9234 17.6374 63.1233 18.0768 63.7823 18.3134C63.8837 18.3472 63.9682 18.4486 63.9682 18.5669C63.9175 18.7021 63.8161 18.8035 63.6978 18.8542ZM58.3745 18.6514H63.6809C63.7147 18.6345 63.7485 18.6007 63.7485 18.5838C63.7485 18.55 63.7485 18.5331 63.6978 18.5162C63.0049 18.2627 61.7206 17.7726 61.7206 15.3391C61.7206 13.9703 61.7037 10.8946 61.7037 10.3031H60.3855C60.3855 10.8946 60.3686 13.9703 60.3686 15.3391C60.3686 17.8064 59.0336 18.2796 58.3914 18.5162C58.3407 18.5331 58.3407 18.5838 58.3407 18.5838C58.3238 18.6007 58.3238 18.6345 58.3745 18.6514Z" fill="white"/>
<path d="M58.8326 13.2602C58.5622 12.3983 58.596 11.283 58.934 10.1676L58.9847 10.0155L58.8326 10.0831C58.1059 10.3704 57.6496 11.0464 57.1933 11.6885C57.075 11.8913 56.9398 12.0603 56.8046 12.2462C56.9398 11.4182 57.4806 10.5901 57.92 9.931C58.0383 9.7451 58.1566 9.55921 58.258 9.40712L58.3256 9.28882L58.1735 9.30572C57.1426 9.37332 56.3315 10.3197 55.9766 10.8605C56.1287 9.7451 57.3454 9.01843 58.1059 8.56214C58.3256 8.44385 58.4777 8.34245 58.596 8.25795L58.7819 8.12276H58.5453C57.8355 8.12276 56.8215 8.51144 56.0442 8.86633C56.5342 8.10586 58.1735 7.48058 58.8157 7.22708L59.0692 7.14259L58.8326 7.07499C58.8157 7.07499 58.3256 6.99049 57.7679 6.99049C57.3623 6.99049 57.0074 7.04119 56.7201 7.12569C57.3116 6.55111 57.9876 6.41591 58.8833 6.41591C59.0523 6.41591 59.2382 6.41591 59.4578 6.43281L59.6606 6.44971L59.5423 6.31451C59.0692 5.79063 58.4439 5.43574 57.8862 5.13155C57.8186 5.08085 57.7341 5.06395 57.6496 4.99636C57.7679 4.96256 57.8862 4.96256 58.0214 4.96256C58.8833 4.96256 59.6606 5.52024 60.3704 6.07792L60.4718 6.14552L60.4887 6.01032C60.5901 5.26675 60.7084 4.57387 61.0464 3.7627C61.3337 4.23588 61.5027 4.84426 61.6548 5.41884C61.7224 5.65544 61.79 5.94273 61.8745 6.17932L61.9421 6.33141L62.0266 6.19622C62.6687 5.23295 63.7334 4.91186 64.477 4.91186C64.5108 4.91186 64.5446 4.91186 64.5446 4.91186C63.97 5.14845 63.1757 5.67233 62.7194 6.33141L62.6518 6.44971H62.8039C62.8715 6.44971 62.9729 6.44971 63.0405 6.43281C63.2433 6.41591 63.4292 6.41591 63.632 6.41591C64.3418 6.41591 65.0516 6.50041 65.6093 7.14259C65.2375 7.07499 64.7474 7.04119 64.2742 7.04119C63.8179 7.04119 63.5137 7.10879 63.3278 7.19329L63.1588 7.27778L63.3616 7.32848C64.8657 7.66647 65.8289 8.10586 66.2852 8.62974C65.7107 8.37625 64.7812 8.07206 64.139 8.07206C64.0714 8.07206 64.0545 8.07206 63.9869 8.07206L63.7672 8.08896L63.9362 8.20725C64.0038 8.25795 64.0714 8.29175 64.1559 8.37625C64.7305 8.76494 66.0317 9.69441 66.3697 10.6408C65.6938 10.1676 64.2911 9.28882 64.1052 9.25502L63.97 9.22122L64.0376 9.33952C64.1559 9.66061 64.4094 10.0155 64.6291 10.3535C65.0178 10.9281 65.4234 11.5364 65.4572 12.1279C65.2206 11.9082 65.0178 11.6547 64.7812 11.4013C64.4094 10.9619 64.0038 10.4887 63.4968 10.1845L63.3616 10.1169L63.3954 10.2859C63.5813 11.3168 63.6996 12.3307 63.4292 13.2264C63.2095 12.0265 62.3139 10.2183 61.1309 10.2183C59.9648 10.2183 59.5423 11.3844 59.3903 11.8237C59.3058 12.0772 59.2213 12.3476 59.1537 12.618C58.9847 12.8208 58.9171 13.0405 58.8326 13.2602Z" fill="white"/>
<path d="M60.9957 3.89805C61.2323 4.33743 61.3844 4.87822 61.5196 5.419C61.5872 5.65559 61.6548 5.94288 61.7393 6.17947L61.8238 6.50056L62.0097 6.23017C62.5336 5.419 63.3955 5.06411 64.0714 4.97961C63.5476 5.2669 62.9392 5.70629 62.5674 6.24707L62.3815 6.50056L62.7026 6.48367C62.7702 6.48367 62.8716 6.48366 62.9392 6.46676C63.142 6.44987 63.3279 6.44987 63.5307 6.44987C64.1559 6.44987 64.7981 6.51746 65.2882 6.99065C64.9502 6.93995 64.5615 6.92305 64.1728 6.92305C63.6997 6.92305 63.3786 6.99065 63.1927 7.09204L62.8378 7.31174L63.2265 7.37934C64.4432 7.64973 65.322 7.98772 65.829 8.3933C65.2713 8.17361 64.5446 8.00462 64.0377 8.00462C63.9701 8.00462 63.9363 8.00462 63.8856 8.00462L63.4969 8.05532L63.818 8.29191C63.8856 8.34261 63.9532 8.3764 64.0546 8.4609C64.5784 8.83269 65.6769 9.61006 66.1332 10.4381C65.4234 9.96495 64.2573 9.23828 64.0714 9.18758L63.8011 9.13688L63.8856 9.39037C64.0039 9.72836 64.2573 10.0664 64.4939 10.4212C64.8319 10.9282 65.1699 11.4352 65.2713 11.9422C65.1023 11.7563 64.9333 11.5704 64.7643 11.3845C64.3756 10.9282 63.987 10.455 63.4631 10.1508L63.1758 9.98185L63.2434 10.3198C63.3955 11.2324 63.5138 12.1281 63.3448 12.9224C63.0406 11.7225 62.1618 10.1677 61.0464 10.1677C59.8297 10.1677 59.3903 11.3676 59.2213 11.8239C59.1368 12.0774 59.0523 12.3478 58.9847 12.6182C58.934 12.7365 58.9171 12.8717 58.8833 13.0069C58.6805 12.1957 58.765 11.1986 59.0692 10.2015L59.1537 9.89736L58.8495 10.0157C58.089 10.3198 57.6328 10.9958 57.1765 11.6549C57.1089 11.7225 57.0751 11.8239 57.0075 11.8915C57.2272 11.1986 57.6666 10.5395 58.0214 9.96495C58.1397 9.77906 58.258 9.59317 58.3594 9.44107L58.5115 9.20448L58.2242 9.22138C57.3455 9.27208 56.6357 9.93115 56.1963 10.4888C56.5343 9.62696 57.5314 9.03548 58.1735 8.6468C58.3932 8.5285 58.5453 8.4271 58.6636 8.34261L59.0354 8.07221H58.596H58.5791C57.9369 8.07221 57.092 8.3933 56.3484 8.69749C56.9906 8.07221 58.3594 7.54833 58.8664 7.34554L59.3903 7.14274L58.8495 7.04135C58.8326 7.04135 58.3425 6.95685 57.768 6.95685C57.4976 6.95685 57.2441 6.99065 57.0244 7.02445C57.5483 6.63576 58.1397 6.53436 58.8833 6.53436C59.0523 6.53436 59.2382 6.53436 59.4579 6.55126L59.8297 6.56816L59.5931 6.29777C59.103 5.75699 58.4777 5.4021 57.9369 5.09791C57.92 5.09791 57.92 5.08101 57.9031 5.08101C57.9538 5.08101 57.9707 5.08101 58.0214 5.08101C58.8664 5.08101 59.61 5.63869 60.3198 6.17947L60.5395 6.34847L60.5902 6.09498C60.5902 5.2838 60.6747 4.64162 60.9957 3.89805ZM60.962 3.56006C60.5564 4.40503 60.4381 5.11481 60.3198 5.94288C59.5424 5.3683 58.7988 4.82752 57.92 4.82752C57.7342 4.82752 57.5483 4.86132 57.3455 4.89511C57.9876 5.2838 58.7819 5.65559 59.3734 6.31467C59.1537 6.29777 58.9847 6.29777 58.7988 6.29777C57.7849 6.29777 57.0075 6.46676 56.3315 7.31174C56.7033 7.09205 57.2103 7.04135 57.6835 7.04135C58.2411 7.04135 58.7312 7.12585 58.7312 7.12585C57.92 7.43004 56.1287 8.13981 55.8076 9.00168C56.4329 8.71439 57.6666 8.17361 58.4777 8.17361H58.4946C57.9707 8.5792 55.7907 9.44107 55.8583 11.0972C56.2808 10.3874 57.1258 9.37347 58.1566 9.32278C57.6328 10.1508 56.7371 11.3 56.6695 12.4661C57.3793 11.6211 57.8525 10.4888 58.8326 10.117C58.4946 11.2155 58.4101 12.483 58.7988 13.48C59.0185 12.9393 59.1199 12.3647 59.3227 11.8408C59.4917 11.3845 59.8973 10.286 60.9957 10.286C62.2125 10.286 63.1589 12.3478 63.2603 13.5307C63.6828 12.5337 63.5307 11.3507 63.3279 10.2353C64.1897 10.7423 64.6967 11.7056 65.3896 12.2633C65.4741 11.2493 64.3418 10.1508 63.9701 9.27208C64.139 9.30588 65.7952 10.3367 66.3867 10.7592C66.1501 9.57627 64.2573 8.4102 63.8518 8.08911C63.9025 8.08911 63.9362 8.08911 63.9869 8.08911C64.6967 8.08911 65.8459 8.4778 66.3191 8.76509C65.8797 7.83562 64.0546 7.39624 63.2265 7.19344C63.4124 7.10894 63.7504 7.05825 64.1222 7.05825C64.646 7.05825 65.2375 7.12584 65.6262 7.19344C65.0685 6.39917 64.2911 6.28087 63.48 6.28087C63.2096 6.28087 62.9223 6.29777 62.635 6.31467C63.1589 5.58799 64.1728 4.97961 64.7305 4.82752C64.6291 4.79372 64.4939 4.77682 64.3418 4.77682C63.6321 4.77682 62.5167 5.09791 61.8576 6.11188C61.6041 5.2669 61.452 4.23604 60.962 3.56006Z" fill="white"/>
<path d="M62.3135 24.3631C62.567 24.7011 62.8205 25.0053 62.2459 25.2926C61.9755 25.4278 62.0262 25.6813 62.1952 25.8672C62.4149 26.1376 62.6008 25.9517 62.7529 25.7996C62.905 25.5968 63.0233 25.394 63.1923 25.1405C63.5472 25.394 63.8513 25.6644 64.1893 25.8841C64.7132 26.2052 65.3047 26.3573 65.9131 26.1207C66.4201 25.9179 66.7074 25.3602 66.5553 24.887C66.3525 24.2786 65.93 24.5152 65.5413 24.6166C64.916 24.7518 64.3076 24.8363 63.8175 24.2279C64.0541 23.873 64.6456 23.6702 64.3414 23.0957C64.2738 22.9774 64.1724 22.8422 64.0203 22.876C63.5134 23.045 63.5134 23.5519 63.3275 24.0082C62.8543 23.4506 62.4487 22.9267 61.9755 22.4535C60.049 20.4762 57.7506 18.6342 55.0129 18.0427C52.8498 17.5526 50.6698 18.2793 50.1797 18.8032C50.6529 18.8032 51.4978 18.7187 51.9541 18.7187C54.2525 18.6849 56.2466 19.3778 58.1731 20.6621C59.2547 21.4057 61.8403 23.8054 62.3135 24.3631Z" fill="#4964BF" fill-opacity="0.4"/>
<path d="M65.3379 26.324C64.9661 26.324 64.5605 26.2057 64.1718 25.9522C63.9352 25.8001 63.6986 25.6142 63.4789 25.4283C63.4113 25.3607 63.3268 25.31 63.2423 25.2424C63.1916 25.31 63.1578 25.3776 63.1071 25.4621C63.0226 25.5973 62.9382 25.7156 62.8537 25.8339C62.7692 25.9522 62.634 26.0874 62.4819 26.0874C62.3805 26.0874 62.2622 26.0198 62.1777 25.9184C62.0594 25.7663 61.9918 25.6142 62.0256 25.479C62.0425 25.4114 62.0932 25.2931 62.2453 25.2255C62.4312 25.1411 62.5157 25.0397 62.5495 24.9383C62.5833 24.7862 62.4312 24.6003 62.296 24.4144C61.8228 23.8567 59.2203 21.457 58.1218 20.7303C56.1615 19.4121 54.1504 18.7869 51.9535 18.8038C51.7338 18.8038 51.4127 18.8375 51.0916 18.8544C50.7536 18.8882 50.4157 18.9051 50.1791 18.9051H49.9932L50.1284 18.77C50.6353 18.2461 52.8154 17.5025 55.0292 17.9757C57.3613 18.4996 59.5921 19.9022 62.0425 22.4033C62.4143 22.7751 62.7185 23.1469 63.0733 23.5694C63.1409 23.6539 63.2423 23.7722 63.3099 23.8567C63.3437 23.7891 63.3606 23.7046 63.3775 23.637C63.4789 23.2652 63.5972 22.9441 64.0028 22.8089C64.2225 22.7244 64.3746 22.961 64.4084 23.0455C64.645 23.5187 64.3577 23.7891 64.138 24.0257C64.0704 24.0933 63.9859 24.1609 63.9352 24.2285C64.4084 24.7524 64.9661 24.6848 65.5407 24.5496C65.6083 24.5327 65.6759 24.5158 65.7435 24.4989C66.0815 24.4144 66.487 24.2961 66.6729 24.8707C66.8419 25.3945 66.5208 25.986 65.997 26.2057C65.7435 26.2902 65.5576 26.324 65.3379 26.324ZM63.1916 25.0397L63.2592 25.0903C63.3606 25.1579 63.4789 25.2593 63.5634 25.3269C63.7831 25.5128 64.0028 25.6818 64.2394 25.8339C64.814 26.1888 65.3548 26.2564 65.8787 26.0705C66.3349 25.8846 66.6053 25.3776 66.4701 24.9552C66.3349 24.5158 66.0984 24.5834 65.7435 24.6848C65.6759 24.7017 65.6083 24.7186 65.5238 24.7355C64.8985 24.8707 64.2563 24.9552 63.7155 24.313L63.6648 24.2623L63.6986 24.2116C63.7662 24.1102 63.8676 24.0088 63.9521 23.9243C64.1718 23.7046 64.3915 23.5187 64.1887 23.1469C64.1042 22.9779 64.0366 22.9441 63.969 22.9779C63.631 23.0793 63.5634 23.3497 63.4451 23.7046C63.4113 23.8229 63.3775 23.9412 63.3268 24.0764L63.2761 24.1947L63.1916 24.0933C63.0902 23.9581 62.9719 23.8398 62.8537 23.7046C62.4988 23.299 62.1777 22.9103 61.8397 22.5554C59.4231 20.0712 57.2261 18.6686 54.9109 18.1447C53.0182 17.7222 51.0409 18.2461 50.3312 18.7362C50.5339 18.7193 50.7705 18.7024 51.0071 18.6855C51.3282 18.6517 51.6662 18.6348 51.8859 18.6348C54.0997 18.601 56.1446 19.2431 58.1387 20.5951C59.271 21.3556 61.8735 23.7384 62.3467 24.313C62.5157 24.5327 62.6847 24.7355 62.634 24.9721C62.6002 25.1242 62.4819 25.2593 62.2622 25.3607C62.1946 25.4114 62.1439 25.4452 62.127 25.5128C62.1101 25.5804 62.1608 25.7156 62.2453 25.817C62.3129 25.8846 62.3636 25.9353 62.4143 25.9353C62.4819 25.9353 62.5664 25.8677 62.6678 25.7325C62.7523 25.6311 62.8368 25.5128 62.9044 25.3607C62.972 25.2762 63.0226 25.1748 63.1071 25.0734L63.1916 25.0397Z" fill="white"/>
<path d="M63.1916 25.0397L63.2592 25.0903C63.3606 25.1579 63.4789 25.2593 63.5634 25.3269C63.7831 25.5128 64.0028 25.6818 64.2394 25.8339C64.814 26.1888 65.3548 26.2564 65.8787 26.0705C66.3349 25.8846 66.6053 25.3776 66.4701 24.9552C66.3349 24.5158 66.0984 24.5834 65.7435 24.6848C65.6759 24.7017 65.6083 24.7186 65.5238 24.7355C64.8985 24.8707 64.2563 24.9552 63.7155 24.313L63.6648 24.2623L63.6986 24.2116C63.7662 24.1102 63.8676 24.0088 63.9521 23.9243C64.1718 23.7046 64.3915 23.5187 64.1887 23.1469C64.1042 22.9779 64.0366 22.9441 63.969 22.9779C63.631 23.0793 63.5634 23.3497 63.4451 23.7046C63.4113 23.8229 63.3775 23.9412 63.3268 24.0764L63.2761 24.1947L63.1916 24.0933C63.0902 23.9581 62.9719 23.8398 62.8537 23.7046C62.4988 23.299 62.1777 22.9103 61.8397 22.5554C59.4231 20.0712 57.2261 18.6686 54.9109 18.1447C53.0182 17.7222 51.0409 18.2461 50.3312 18.7362C50.5339 18.7193 50.7705 18.7024 51.0071 18.6855C51.3282 18.6517 51.6662 18.6348 51.8859 18.6348C54.0997 18.601 56.1446 19.2431 58.1387 20.5951C59.271 21.3556 61.8735 23.7384 62.3467 24.313C62.5157 24.5327 62.6847 24.7355 62.634 24.9721C62.6002 25.1242 62.4819 25.2593 62.2622 25.3607C62.1946 25.4114 62.1439 25.4452 62.127 25.5128C62.1101 25.5804 62.1608 25.7156 62.2453 25.817C62.3129 25.8846 62.3636 25.9353 62.4143 25.9353C62.4819 25.9353 62.5664 25.8677 62.6678 25.7325C62.7523 25.6311 62.8368 25.5128 62.9044 25.3607C62.972 25.2762 63.0226 25.1748 63.1071 25.0734L63.1916 25.0397Z" fill="white"/>
<path d="M60.0491 24.4144C59.7956 24.7524 59.5421 25.0566 60.1167 25.3439C60.3871 25.4791 60.3364 25.7325 60.1674 25.9184C59.9477 26.1888 59.7618 26.0029 59.6097 25.8508C59.4576 25.6481 59.3393 25.4453 59.1703 25.1918C58.8154 25.4453 58.5112 25.7157 58.1732 25.9353C57.6493 26.2564 57.0579 26.4085 56.4495 26.1719C55.9425 25.9691 55.6552 25.4115 55.8073 24.9383C56.0101 24.3299 56.4326 24.5665 56.8213 24.6679C57.4466 24.8031 58.0549 24.8876 58.545 24.2792C58.3084 23.9243 57.7169 23.7215 58.0211 23.1469C58.0887 23.0286 58.1901 22.8934 58.3422 22.9272C58.8492 23.0962 58.8492 23.6032 59.0351 24.0595C59.5083 23.5018 59.9139 22.9779 60.3871 22.5048C62.3136 20.5275 64.6119 18.6855 67.3496 18.094C69.5128 17.6039 71.6928 18.3306 72.1829 18.8545C71.7097 18.8545 70.8647 18.77 70.4084 18.77C68.1101 18.7362 66.116 19.4291 64.1894 20.7134C63.1248 21.457 60.5223 23.8567 60.0491 24.4144Z" fill="#4964BF" fill-opacity="0.4"/>
<path d="M57.0235 26.3747C56.8038 26.3747 56.6179 26.3409 56.4151 26.2733C55.8743 26.0536 55.5701 25.4452 55.7391 24.9382C55.925 24.3636 56.3306 24.465 56.6686 24.5664C56.7362 24.5833 56.8038 24.6002 56.8714 24.6171C57.4459 24.7523 58.0036 24.8199 58.4768 24.296C58.4092 24.2284 58.3585 24.1608 58.274 24.0932C58.0374 23.8735 57.7501 23.6032 58.0036 23.1131C58.0543 23.0286 58.1895 22.7751 58.4261 22.8765C58.8317 23.0117 58.95 23.3497 59.0514 23.7046C59.0683 23.7722 59.1021 23.8566 59.119 23.9242C59.1866 23.8398 59.288 23.7215 59.3556 23.637C59.7105 23.2314 60.0316 22.8258 60.3864 22.4709C62.8369 19.9698 65.0507 18.5502 67.3828 18.0432C69.6136 17.5363 71.7936 18.2967 72.2837 18.8375L72.4189 18.9727H72.233C71.9964 18.9727 71.6584 18.9389 71.3204 18.922C70.9993 18.8882 70.6782 18.8713 70.4585 18.8713C68.2785 18.8375 66.2506 19.4797 64.2902 20.7978C63.1918 21.5414 60.623 23.9073 60.1161 24.4819C59.9809 24.6678 59.8288 24.8537 59.8626 25.0058C59.8795 25.0903 59.9809 25.2086 60.1668 25.2931C60.3189 25.3607 60.3864 25.479 60.3864 25.5466C60.4202 25.6818 60.3526 25.8339 60.2344 25.986C60.1499 26.1043 60.0316 26.155 59.9302 26.155C59.7612 26.155 59.6429 26.0198 59.5584 25.9015C59.4739 25.7832 59.3894 25.6649 59.3049 25.5297C59.2542 25.4621 59.2204 25.3945 59.1697 25.31C59.1021 25.3776 59.0007 25.4283 58.9331 25.4959C58.7134 25.6818 58.4768 25.8508 58.2402 26.0198C57.8008 26.2395 57.3952 26.3747 57.0235 26.3747ZM56.2461 24.634C56.0771 24.634 55.9588 24.7016 55.8743 24.9889C55.7391 25.4283 56.0095 25.9522 56.4658 26.1212C56.9897 26.3071 57.5304 26.2226 58.105 25.8846C58.3416 25.7325 58.5613 25.5635 58.781 25.3776C58.8824 25.31 58.9838 25.2086 59.0852 25.141L59.1528 25.0903L59.2035 25.1579C59.2711 25.2593 59.3387 25.3607 59.4063 25.4452C59.4739 25.5635 59.5753 25.6818 59.6429 25.817C59.7443 25.9522 59.8288 26.0198 59.8964 26.0198C59.964 26.0198 59.9978 25.986 60.0654 25.9184C60.1499 25.817 60.2006 25.6987 60.1837 25.6142C60.1668 25.5466 60.1161 25.5128 60.0485 25.4621C59.8288 25.3438 59.6936 25.2255 59.6767 25.0734C59.626 24.8537 59.795 24.634 59.964 24.4143C60.4709 23.8228 63.0566 21.44 64.1719 20.6964C66.1661 19.3614 68.2109 18.7192 70.4247 18.7361C70.6444 18.7361 70.9824 18.7699 71.3035 18.7868C71.5232 18.8037 71.7598 18.8206 71.9795 18.8375C71.2697 18.3474 69.2925 17.8235 67.3997 18.246C65.0845 18.7699 62.8876 20.1557 60.4709 22.6568C60.1161 23.0117 59.795 23.4004 59.457 23.8059C59.3556 23.9411 59.2373 24.0594 59.119 24.1946L59.0345 24.296L58.9838 24.1777C58.9331 24.0594 58.8993 23.9411 58.8655 23.8059C58.7641 23.4511 58.6796 23.1807 58.3416 23.0793C58.274 23.0455 58.2233 23.0793 58.1219 23.2483C57.936 23.6201 58.1388 23.7891 58.3585 24.0256C58.443 24.1101 58.5613 24.2115 58.612 24.3129L58.6458 24.3636L58.5951 24.4143C58.0712 25.0734 57.4121 24.9889 56.7869 24.8368C56.7193 24.8199 56.6517 24.803 56.5672 24.7861C56.4658 24.6678 56.3475 24.634 56.2461 24.634Z" fill="white"/>
<path d="M56.2461 24.634C56.0771 24.634 55.9588 24.7016 55.8743 24.9889C55.7391 25.4283 56.0095 25.9522 56.4658 26.1212C56.9897 26.3071 57.5304 26.2226 58.105 25.8846C58.3416 25.7325 58.5613 25.5635 58.781 25.3776C58.8824 25.31 58.9838 25.2086 59.0852 25.141L59.1528 25.0903L59.2035 25.1579C59.2711 25.2593 59.3387 25.3607 59.4063 25.4452C59.4739 25.5635 59.5753 25.6818 59.6429 25.817C59.7443 25.9522 59.8288 26.0198 59.8964 26.0198C59.964 26.0198 59.9978 25.986 60.0654 25.9184C60.1499 25.817 60.2006 25.6987 60.1837 25.6142C60.1668 25.5466 60.1161 25.5128 60.0485 25.4621C59.8288 25.3438 59.6936 25.2255 59.6767 25.0734C59.626 24.8537 59.795 24.634 59.964 24.4143C60.4709 23.8228 63.0566 21.44 64.1719 20.6964C66.1661 19.3614 68.2109 18.7192 70.4247 18.7361C70.6444 18.7361 70.9824 18.7699 71.3035 18.7868C71.5232 18.8037 71.7598 18.8206 71.9795 18.8375C71.2697 18.3474 69.2925 17.8235 67.3997 18.246C65.0845 18.7699 62.8876 20.1557 60.4709 22.6568C60.1161 23.0117 59.795 23.4004 59.457 23.8059C59.3556 23.9411 59.2373 24.0594 59.119 24.1946L59.0345 24.296L58.9838 24.1777C58.9331 24.0594 58.8993 23.9411 58.8655 23.8059C58.7641 23.4511 58.6796 23.1807 58.3416 23.0793C58.274 23.0455 58.2233 23.0793 58.1219 23.2483C57.936 23.6201 58.1388 23.7891 58.3585 24.0256C58.443 24.1101 58.5613 24.2115 58.612 24.3129L58.6458 24.3636L58.5951 24.4143C58.0712 25.0734 57.4121 24.9889 56.7869 24.8368C56.7193 24.8199 56.6517 24.803 56.5672 24.7861C56.4658 24.6678 56.3475 24.634 56.2461 24.634Z" fill="white"/>
<path d="M61.2482 72.4773C73.8575 72.4773 84.0793 62.2554 84.0793 49.6461C84.0793 37.0368 73.8575 26.8149 61.2482 26.8149C48.6389 26.8149 38.417 37.0368 38.417 49.6461C38.417 62.2554 48.6389 72.4773 61.2482 72.4773Z" fill="#4964BF" fill-opacity="0.4"/>
<path d="M61.2486 72.6114C48.5909 72.6114 38.2822 62.3197 38.2822 49.6451C38.2822 36.9705 48.574 26.6787 61.2486 26.6787C73.9232 26.6787 84.215 36.9705 84.215 49.6451C84.1981 62.3197 73.9063 72.6114 61.2486 72.6114ZM61.2486 26.9322C48.7261 26.9322 38.5188 37.1226 38.5188 49.662C38.5188 62.2014 48.7092 72.3917 61.2486 72.3917C73.7711 72.3917 83.9784 62.2014 83.9784 49.662C83.9784 37.1226 73.788 26.9322 61.2486 26.9322Z" fill="white"/>
<path d="M84.0796 49.5435H38.4004V49.7631H84.0796V49.5435Z" fill="white"/>
<path d="M82.3075 58.4336H40.2109V58.6533H82.3075V58.4336Z" fill="white"/>
<path d="M74.3118 68.2847H48.2021V68.5044H74.3118V68.2847Z" fill="white"/>
<path d="M84.0796 49.5435H38.4004V49.7631H84.0796V49.5435Z" fill="white"/>
<path d="M82.3075 40.6206H40.2109V40.8403H82.3075V40.6206Z" fill="white"/>
<path d="M74.3118 30.7847H48.2021V31.0044H74.3118V30.7847Z" fill="white"/>
<path d="M61.3506 26.7969H61.1309V72.493H61.3506V26.7969Z" fill="white"/>
<path d="M61.3324 72.5434L61.1465 72.4082C70.2722 60.6462 69.7821 48.8842 67.7711 41.0935C65.591 32.6438 61.1972 26.9149 61.1465 26.8642L61.3324 26.729C61.3831 26.7966 65.7938 32.5593 67.9908 41.0428C69.2751 46.0451 69.5624 50.9797 68.8188 55.7285C67.9063 61.6602 65.3882 67.3215 61.3324 72.5434Z" fill="white"/>
<path d="M61.2977 72.5776L61.1963 72.3749C61.2301 72.358 64.3734 70.7018 67.4829 67.0853C70.3558 63.7561 73.7695 58.0272 73.7695 49.6451C73.7695 41.2798 70.3558 35.5171 67.4829 32.1879C64.3734 28.5546 61.2301 26.8984 61.1963 26.8815L61.2977 26.6787C61.3315 26.6956 64.5086 28.3856 67.6519 32.0358C70.5586 35.3988 74.0061 41.2122 74.0061 49.6451C74.0061 58.0779 70.5586 63.8744 67.6519 67.2374C64.5086 70.8877 61.3315 72.5607 61.2977 72.5776Z" fill="white"/>
<path d="M61.2655 72.6111L61.2148 72.3914C61.2655 72.3745 65.6256 71.3437 69.935 68.0314C73.9063 64.9726 78.6382 59.3113 78.6382 49.6786C78.6382 40.029 73.9063 34.3508 69.935 31.292C65.6425 27.9797 61.2824 26.9319 61.2317 26.915L61.2824 26.6953C61.3331 26.7122 65.727 27.76 70.0702 31.1061C72.622 33.0833 74.6499 35.4323 76.1202 38.1193C77.9453 41.4823 78.8748 45.3692 78.8748 49.6786C78.8748 53.971 77.9453 57.8579 76.1202 61.2209C74.6668 63.9079 72.622 66.2569 70.0702 68.2173C65.727 71.5465 61.3162 72.5942 61.2655 72.6111Z" fill="white"/>
<path d="M61.148 72.5447C56.9907 67.3228 54.4051 61.6615 53.4587 55.7129C52.6982 50.9641 52.9855 46.0295 54.3037 41.0272C56.5513 32.5437 61.0973 26.7641 61.1311 26.7134L61.317 26.8486C61.2663 26.9162 56.7541 32.6451 54.5234 41.0948C52.4617 48.8855 51.9716 60.6306 61.317 72.3926L61.148 72.5447Z" fill="white"/>
<path d="M61.1972 72.5778C61.1634 72.5609 57.9018 70.8879 54.6909 67.2545C51.7335 63.8915 48.1846 58.1119 48.1846 49.6622C48.1846 41.2124 51.7166 35.4159 54.6909 32.0529C57.9018 28.3857 61.1634 26.7127 61.1972 26.6958L61.2986 26.8986C61.2648 26.9155 58.037 28.5885 54.8599 32.205C51.9363 35.5511 48.4212 41.28 48.4212 49.6622C48.4212 58.0274 51.9363 63.7732 54.8599 67.1024C58.0539 70.7189 61.2648 72.3581 61.2986 72.3919L61.1972 72.5778Z" fill="white"/>
<path d="M61.2336 72.5945C61.1829 72.5776 56.6707 71.5468 52.2262 68.2007C49.6067 66.2403 47.5281 63.8913 46.0241 61.2043C44.1482 57.8413 43.2188 53.9544 43.2188 49.662C43.2188 45.3695 44.1651 41.4826 46.0241 38.1027C47.5112 35.4157 49.6067 33.0498 52.2262 31.0895C56.6707 27.7434 61.1829 26.6787 61.2336 26.6787L61.2843 26.8984C61.2336 26.9153 56.7721 27.9631 52.3614 31.2754C48.2886 34.3342 43.4553 40.0124 43.4553 49.662C43.4553 59.3116 48.3055 64.9729 52.3614 68.0148C56.7721 71.3102 61.2336 72.341 61.2674 72.3579L61.2336 72.5945Z" fill="white"/>
<path d="M53.0671 34.1818C53.3882 34.6381 53.912 34.7733 54.3683 35.0437C56.4808 36.2436 58.2045 37.9673 60.1479 39.3869C60.6549 39.7587 61.1281 39.9277 61.7196 39.9615C63.0039 40.0291 64.3052 40.1643 65.5727 40.215C65.9445 40.2488 66.181 40.3502 66.2486 40.7557C66.3162 41.1106 66.519 41.381 66.9246 41.2796C67.9048 41.0261 68.3442 41.6683 68.547 42.3781C68.7667 43.1217 69.3243 43.4934 69.7806 43.9497C70.389 44.5243 71.1495 44.9637 71.3523 45.9608C70.9805 46.2312 71.1326 46.6368 71.3523 47.0254C71.7748 47.769 72.2142 48.5126 72.6535 49.2731C72.738 49.4252 72.8563 49.6449 73.0422 49.6449C73.7182 49.6956 73.8703 50.2532 74.1745 50.6757C74.7491 51.4531 75.3574 52.2136 75.9658 52.974C76.1179 53.1768 76.3545 53.1937 76.5911 53.2106C77.96 53.3796 79.3457 53.5486 80.7146 53.7176C81.5426 53.8021 82.1003 54.6471 81.8468 55.4414C81.5426 56.4384 81.2216 57.4186 80.9343 58.4157C80.8329 58.7875 80.647 58.9734 80.2583 59.1086C78.8218 59.5986 77.3685 60.1056 75.9489 60.6126C74.1914 61.2548 72.3324 61.3055 70.4904 61.559C68.4625 61.8294 67.026 62.7926 66.0965 64.584C65.7924 65.1754 65.4882 65.243 65.0488 64.753C64.846 64.5333 64.6601 64.4995 64.3728 64.5164C63.494 64.584 62.6322 64.4657 61.7703 64.246C61.0605 64.0432 60.3 64.1953 59.5903 64.2798C59.2861 64.3136 59.0157 64.3305 58.7284 64.1784C58.1707 63.8911 57.8327 64.1108 57.613 64.7023C57.4609 65.1417 57.7313 65.6317 57.4102 66.0373C57.3764 66.0711 57.3426 66.1049 57.3257 66.1218C57.2581 66.088 57.1398 66.0542 57.0722 66.0373C56.5991 65.1755 56.2949 64.1784 55.4499 63.5531C54.7401 63.0292 54.4359 62.2011 54.1148 61.4069C53.5572 60.0211 52.8474 58.9227 51.394 58.2129C50.718 57.8749 50.1773 57.0637 50.0421 56.1173C49.8055 54.5288 49.9745 52.8219 48.7746 51.4362C48.369 50.9461 47.9803 50.456 47.4057 50.2025C46.696 49.8983 46.3242 49.4252 46.358 48.6309C46.3749 48.2084 46.1045 47.8366 45.851 47.5155C44.7525 45.8763 43.6372 44.2877 42.6401 42.5809C42.5556 42.4288 42.4204 42.2091 42.2683 42.1922C41.1529 41.9387 41.5754 41.0937 41.5923 40.4515C41.6261 39.7418 41.8458 39.539 42.5556 39.7418C43.7386 40.1136 44.5666 39.708 45.1581 38.694C45.2933 38.4574 45.5468 38.3898 45.8172 38.356C46.4256 38.2884 47.0002 38.1363 47.2199 37.4434C47.2874 37.19 47.6761 37.2068 47.7606 36.9027C47.3212 36.176 46.5946 35.6352 46.0369 34.9085C46.8481 34.5198 47.7268 34.5029 48.4873 34.148C50.0928 33.3876 51.5799 33.6242 53.0671 34.1818Z" fill="#4964BF" fill-opacity="0.4"/>
<path d="M57.4113 66.2238L57.3437 66.19C57.293 66.1731 57.2592 66.1562 57.2085 66.1394C57.1578 66.1225 57.124 66.1056 57.0902 66.0887L57.0395 66.0718L57.0226 66.0211C56.9212 65.8014 56.8029 65.5986 56.7015 65.3789C56.3635 64.686 56.0424 64.0269 55.434 63.5537C54.7243 63.0299 54.4032 62.2356 54.099 61.4582L54.0652 61.3737C53.4061 59.7514 52.6456 58.8388 51.412 58.2473C50.6853 57.8924 50.1445 57.0305 49.9924 56.0842C49.9248 55.7124 49.9079 55.3068 49.8572 54.935C49.7558 53.7351 49.6375 52.4846 48.7418 51.4537C48.6911 51.3861 48.6574 51.3523 48.6067 51.2847C48.2349 50.8622 47.9138 50.4567 47.4237 50.2539C46.6294 49.899 46.2745 49.3751 46.3083 48.5808C46.3252 48.209 46.0886 47.9048 45.8689 47.6006L45.8182 47.533C45.5817 47.1613 45.3282 46.8233 45.1085 46.4684C44.2635 45.2178 43.3847 43.9166 42.5904 42.5984C42.5735 42.5815 42.5566 42.5477 42.5397 42.5308C42.4722 42.4294 42.3877 42.2773 42.3032 42.2604C41.3061 42.0238 41.4075 41.3309 41.492 40.7902C41.5089 40.655 41.5427 40.5198 41.5427 40.4015C41.5596 39.9959 41.6441 39.7255 41.83 39.6072C42.0159 39.4889 42.2694 39.472 42.658 39.5903C43.7565 39.9283 44.5339 39.6072 45.1254 38.5932C45.2944 38.3059 45.5816 38.2214 45.8689 38.2045C46.5449 38.1369 46.9843 37.968 47.1702 37.3765C47.2378 37.2075 47.3561 37.1399 47.4744 37.0723C47.5758 37.0047 47.6603 36.9709 47.6941 36.8864C47.4575 36.5146 47.1364 36.1766 46.7984 35.8217C46.528 35.5513 46.2576 35.264 46.0041 34.943L45.9365 34.8416L46.0548 34.774C46.4773 34.5543 46.9336 34.4529 47.373 34.3684C47.7617 34.2839 48.1504 34.1825 48.5053 34.0135C50.2628 33.2023 51.902 33.6248 53.1357 34.0811L53.1019 34.1656L53.1695 34.098L53.5244 34.4529C53.6934 34.5712 53.8793 34.6726 54.0652 34.7571C54.2004 34.8247 54.3187 34.8754 54.4539 34.9598C55.7889 35.7372 57.0057 36.7174 58.1717 37.6807C58.8477 38.2214 59.5406 38.796 60.2504 39.3199C60.7405 39.6748 61.2136 39.8438 61.7713 39.8776C62.2952 39.9114 62.8191 39.9452 63.343 39.979C64.0866 40.0466 64.8639 40.0804 65.6244 40.1311C65.9624 40.1649 66.3173 40.2494 66.4187 40.7733C66.4525 40.9592 66.537 41.1113 66.6384 41.162C66.706 41.2126 66.8243 41.2296 66.9426 41.1958C67.8044 40.9761 68.4297 41.3816 68.7001 42.3618C68.8522 42.9364 69.2409 43.2913 69.6296 43.6293C69.7141 43.7138 69.8155 43.7983 69.9 43.8828C70.0183 44.0011 70.1535 44.1194 70.2887 44.2377C70.8125 44.677 71.3364 45.1333 71.4885 45.9614L71.5054 46.029L71.4378 46.0797C71.2012 46.2656 71.2012 46.5191 71.4716 47.0092C71.8941 47.7358 72.3166 48.4963 72.7729 49.2568C72.7898 49.2737 72.8067 49.3075 72.8236 49.3244C72.8912 49.4427 72.9757 49.561 73.0771 49.5779C73.6517 49.6117 73.9051 50.0173 74.1248 50.3891C74.1924 50.4736 74.2431 50.5918 74.3107 50.6763C74.8515 51.3861 75.4261 52.1128 75.9669 52.8057L76.0852 52.9578C76.1866 53.093 76.3556 53.1268 76.5415 53.1606C76.5753 53.1606 76.6091 53.1775 76.626 53.1775L80.7325 53.6845C81.1719 53.7351 81.5606 53.9717 81.7972 54.3435C82.0338 54.7153 82.1014 55.1547 81.9662 55.5603C81.8648 55.9321 81.7465 56.2701 81.6282 56.6419C81.4254 57.2671 81.2395 57.9093 81.0536 58.5346C80.9353 58.9402 80.7156 59.1768 80.31 59.312C78.8567 59.8021 77.3864 60.3259 76.0007 60.816C74.6656 61.3061 73.263 61.4582 71.8941 61.6103C71.4378 61.661 70.9815 61.7117 70.5252 61.7793C68.5142 62.0497 67.1116 63.0299 66.2159 64.7367C66.03 65.0916 65.8441 65.2606 65.6582 65.2775C65.4385 65.3113 65.2357 65.193 64.9822 64.9057C64.8132 64.7029 64.6273 64.686 64.3907 64.686C63.5458 64.7536 62.667 64.6522 61.7713 64.3987C61.2136 64.2466 60.6222 64.3311 60.0476 64.3818C59.9124 64.3987 59.7772 64.4156 59.642 64.4325C59.304 64.4663 59.0167 64.4832 58.7125 64.3142C58.4928 64.2128 58.3238 64.179 58.1717 64.2297C58.0028 64.2973 57.8676 64.4663 57.7662 64.7705C57.6986 64.9395 57.7155 65.1085 57.7324 65.2944C57.7493 65.5648 57.7662 65.8521 57.5465 66.1225L57.5296 66.1394C57.5127 66.1562 57.4958 66.1562 57.4958 66.1731C57.4789 66.1901 57.462 66.2069 57.4451 66.2238H57.4113ZM57.1916 65.9028C57.2254 65.9197 57.2592 65.9366 57.2761 65.9366C57.293 65.9366 57.3099 65.9535 57.3437 65.9535C57.3606 65.9366 57.3606 65.9366 57.3775 65.9197L57.3944 65.9028C57.5465 65.7 57.5296 65.4803 57.5127 65.2268C57.4958 65.024 57.4789 64.8212 57.5634 64.6015C57.6986 64.2297 57.8676 64.01 58.0873 63.9255C58.3069 63.8579 58.5435 63.8748 58.8139 64.01C59.0505 64.1452 59.3209 64.1283 59.6082 64.0945C59.7434 64.0776 59.8786 64.0607 60.0138 64.0438C60.6053 63.9762 61.2305 63.9086 61.8389 64.0607C62.7346 64.2973 63.5627 64.3987 64.3907 64.3311C64.6442 64.3142 64.9146 64.348 65.1681 64.6184C65.354 64.8381 65.523 64.9226 65.6413 64.9057C65.7596 64.8888 65.8948 64.7367 66.03 64.4832C66.9595 62.6919 68.4297 61.6948 70.5084 61.4075C70.9646 61.3399 71.4378 61.3061 71.8941 61.2385C73.2461 61.0864 74.6318 60.9343 75.9331 60.4611C77.3188 59.9542 78.7891 59.4472 80.2424 58.9571C80.5804 58.8557 80.7325 58.6867 80.8339 58.3318C81.0198 57.6896 81.2057 57.0643 81.4085 56.4391C81.5099 56.0673 81.6282 55.7293 81.7465 55.3575C81.8479 55.0026 81.8141 54.6308 81.6113 54.3266C81.4085 54.0224 81.0874 53.8027 80.7156 53.7689L76.5922 53.262C76.5584 53.262 76.5246 53.2451 76.4908 53.2451C76.2711 53.2113 76.0514 53.1775 75.8993 52.9747L75.781 52.8226C75.2402 52.1297 74.6656 51.403 74.1079 50.6763C74.0403 50.5918 73.9727 50.4736 73.922 50.3722C73.7024 50.0004 73.5334 49.6962 73.0602 49.6793C72.8405 49.6624 72.7053 49.4596 72.6208 49.3075C72.6039 49.2906 72.587 49.2568 72.587 49.2399C72.1476 48.4794 71.7082 47.7189 71.2857 46.9923C71.1505 46.7388 70.8463 46.198 71.2519 45.8262C71.0829 45.1164 70.6266 44.7108 70.1366 44.3053C70.0014 44.187 69.8662 44.0856 69.731 43.9335C69.6465 43.849 69.5451 43.7645 69.4606 43.68C69.0719 43.3082 68.6325 42.9533 68.4804 42.3111C68.2438 41.4492 67.7368 41.0944 66.9933 41.2971C66.8074 41.3478 66.6384 41.3309 66.5032 41.2464C66.3342 41.1451 66.2328 40.9592 66.1652 40.7057C66.1145 40.4015 65.9624 40.2832 65.5906 40.2494C64.8301 40.1987 64.0528 40.1649 63.3092 40.0973C62.7853 40.0635 62.2614 40.0297 61.7375 39.9959C61.1123 39.9452 60.6222 39.7762 60.0983 39.3875C59.3885 38.8636 58.6787 38.289 58.0028 37.7314C56.8367 36.7681 55.6368 35.8048 54.3187 35.0443C54.2004 34.9767 54.0652 34.9092 53.9469 34.8416C53.6089 34.6726 53.254 34.5036 53.0005 34.1656C51.8176 33.7262 50.2459 33.3375 48.5898 34.098C48.218 34.267 47.7955 34.3684 47.4237 34.4698C47.0519 34.5543 46.6463 34.6557 46.2914 34.8247C46.5111 35.095 46.7477 35.3485 46.9674 35.5682C47.3392 35.94 47.6603 36.278 47.9307 36.7005L47.9645 36.7512L47.9476 36.8019C47.88 37.0047 47.7279 37.0892 47.6096 37.1737C47.5082 37.2413 47.4237 37.2751 47.4068 37.3596C47.1702 38.1031 46.5449 38.289 45.9196 38.3397C45.6493 38.3735 45.4634 38.4242 45.362 38.6101C44.7198 39.7255 43.8241 40.0804 42.6242 39.7255C42.3201 39.641 42.1173 39.641 41.999 39.7086C41.8807 39.7762 41.8131 39.979 41.7962 40.3339C41.7962 40.4691 41.7624 40.6212 41.7455 40.7564C41.661 41.2971 41.5934 41.7703 42.3708 41.9731C42.5397 42.0069 42.658 42.1928 42.7425 42.3449C42.7594 42.3787 42.7763 42.3956 42.7932 42.4125C43.5875 43.7307 44.4663 45.0319 45.2944 46.2825C45.531 46.6374 45.7675 46.9923 46.0041 47.3472L46.0548 47.4148C46.2745 47.7358 46.5449 48.0907 46.528 48.547C46.4942 49.2399 46.7984 49.6962 47.5082 50.0004C48.049 50.2201 48.4208 50.6763 48.7756 51.0988C48.8263 51.1664 48.8601 51.2002 48.9108 51.2678C49.8403 52.3494 49.9586 53.6338 50.06 54.8674C50.0938 55.2392 50.1276 55.6279 50.1952 55.9997C50.3304 56.8953 50.8374 57.6896 51.4796 58.0107C53.085 58.7881 53.7948 60.0893 54.2511 61.2554L54.2849 61.3399C54.5722 62.0835 54.8764 62.844 55.5523 63.334C56.2283 63.841 56.5494 64.5508 56.8874 65.2268C56.9888 65.5141 57.0733 65.7169 57.1916 65.9028Z" fill="white"/>
<path d="M94.5061 58.9572C96.2636 58.2474 97.8691 57.2335 99.2887 55.966C99.9815 55.3407 100.641 54.6817 101.148 53.8536C101.046 53.8029 100.995 53.786 100.945 53.786C100.843 53.8198 100.725 53.8536 100.624 53.8705C98.6803 54.5634 97.1931 55.8984 95.7398 57.2673C95.3004 57.6729 94.8779 58.0953 94.2357 58.2812C94.3202 56.7265 94.4723 56.4561 95.6553 55.6787C95.875 55.5266 96.0778 55.3238 96.3143 55.1548C98.4606 53.5494 100.32 51.6905 101.536 49.2569C101.502 49.2231 101.469 49.1893 101.452 49.1724C101.215 49.2062 101.063 49.3752 100.86 49.5104C98.9845 50.8455 97.3959 52.4678 95.9594 54.2592C95.7229 54.5465 95.5201 54.8844 95.0469 55.1717C95.3342 53.9381 95.0976 52.772 96.1791 51.8594C98.3592 50.0343 99.9308 47.7022 101.148 45.1335C101.215 44.9476 101.469 44.7617 101.215 44.4575C98.9338 46.2826 97.2438 48.5472 95.7567 51.0314C95.6891 50.2878 95.706 49.5949 95.6891 48.8851C95.6553 48.3951 95.7905 48.0571 96.1284 47.7191C97.548 46.2826 98.7479 44.6772 99.6604 42.8689C100.184 41.8212 100.624 40.7227 100.759 39.5228C100.37 39.8439 99.9815 40.1988 99.6604 40.5537C98.3254 42.1423 97.3621 43.9843 96.4495 45.8601C96.2805 46.215 96.1622 46.6206 95.6553 46.891C95.6046 45.7756 95.3004 44.8462 96.0271 43.866C97.9705 41.2466 98.7817 38.1878 99.1197 34.791C97.041 37.309 96.365 40.2495 95.5539 43.1055C95.2666 43.021 95.2497 42.8689 95.2159 42.7337C95.0976 42.1423 95.0131 41.517 94.8272 40.9593C94.7258 40.672 94.7596 40.5537 94.8948 40.3002C96.5678 37.5456 97.0579 34.5375 96.9903 31.2252C95.5201 33.777 95.0807 36.4471 94.5737 39.1511C94.2188 38.2723 93.4752 37.5456 93.8977 36.4809C94.7596 34.3516 95.1483 32.1378 95.0807 29.8564C95.0638 29.0621 94.9624 28.2847 94.8948 27.5073C94.4554 28.1495 94.2357 28.7917 94.0836 29.4846C93.678 31.3266 93.6949 33.2024 93.5597 35.0614C93.5428 35.3487 93.6442 35.7205 93.2048 35.9233C92.7655 34.7234 91.9205 33.6587 92.5289 32.2561C92.7824 31.6308 92.8331 30.921 92.9007 30.2281C93.1034 28.2509 93.0696 26.2737 92.5289 24.3133C92.343 24.3809 92.3092 24.533 92.2923 24.6682C91.7346 26.7637 91.4135 28.8424 91.7515 31.0224C91.8191 31.428 91.9881 31.9181 91.5318 32.3744C90.9234 31.2083 90.0108 30.2619 90.1967 28.8255C90.3319 27.8284 90.2643 26.7975 90.1629 25.7667C90.0108 24.195 89.7405 22.6403 88.9631 21.0517C88.5913 23.7556 89.0983 26.2568 89.487 28.7917C88.6758 27.8115 87.6449 27.0679 87.6449 25.5977C87.6449 23.7725 87.2562 21.9812 86.6647 20.2575C86.4113 19.4632 86.124 18.6858 85.6001 17.9253C85.2283 20.6292 86.2761 22.9952 86.8168 25.4456C85.8367 24.8541 85.1269 24.0767 84.3495 23.367C84.1298 23.1642 84.1467 22.9107 84.1298 22.6572C83.927 20.494 83.4032 18.4492 82.4568 16.4889C82.2033 15.9312 81.8991 15.3735 81.3921 14.8496C81.4428 17.5873 82.423 19.9364 83.5722 22.3699C83.099 22.2516 82.8962 22.0995 82.7103 21.9643C82.592 21.8967 82.0174 21.4404 81.578 21.2545C81.6118 21.2714 81.6456 21.2714 81.6625 21.2883C80.6823 20.8996 80.6654 20.004 80.3951 19.2435C80.1754 18.6013 79.9726 17.976 79.7191 17.3677C79.0262 15.6777 77.9446 14.2412 76.7279 12.8893C76.9645 15.4918 78.5023 17.5028 79.7022 19.6829C78.3671 19.1421 77.3701 18.1281 76.035 17.7056C74.7506 17.317 73.4325 16.9452 71.9115 16.9283C73.5001 18.145 74.683 18.6182 77.1335 18.9731C78.046 19.1083 78.6206 19.7505 79.4994 20.3082C78.384 20.511 77.4883 20.6461 76.5927 20.832C75.697 21.0348 74.7675 21.1362 73.9057 21.8291C75.2069 22.0657 76.373 22.0319 77.5728 21.8967C78.7389 21.7953 79.8205 21.1024 81.0372 21.1869C81.4428 21.5587 82.9638 22.4882 83.1835 23.1304C80.8851 22.8938 78.6544 22.6403 76.4237 23.0966C76.4913 23.3501 76.6941 23.3501 76.8631 23.4346C78.6882 24.0936 80.5303 24.2795 82.4568 24.0091C82.9976 23.9415 83.606 23.6373 84.0622 23.9077C84.9579 24.3978 85.6677 25.1583 86.3606 26.1892C83.9777 25.7498 81.747 25.2259 79.4656 25.6653C79.6177 25.8174 79.7698 25.9019 79.9388 25.9695C81.8484 26.7975 83.8425 27.0848 85.8874 26.8651C86.8168 26.7806 87.4252 26.9834 87.8646 27.7946C88.0843 28.1833 88.5237 28.4875 88.473 29.0959C86.1578 28.4537 83.9101 27.8791 81.4597 27.9467C81.6963 28.3185 82.0005 28.3692 82.2709 28.5044C84.3495 29.4846 86.5634 29.8395 88.8279 29.9239C89.1321 29.9408 89.4532 29.907 89.6222 30.2281C90.0108 31.0055 90.5009 31.7153 90.8389 32.6955C88.5913 32.0364 86.5972 30.9379 84.2988 30.8703C84.3326 30.9379 84.3326 30.9886 84.3664 31.0224C84.434 31.09 84.5354 31.1745 84.6199 31.2421C86.5127 32.4251 88.5406 33.2362 90.822 33.3207C91.0417 33.3376 91.2783 33.3038 91.3797 33.5235C91.8529 34.5037 92.3261 35.5008 92.5965 36.7344C90.3826 35.7543 88.3547 34.622 85.9043 34.3685C87.8646 36.1091 90.0446 36.8865 92.343 37.4442C92.5627 37.5118 92.8669 37.3935 92.9852 37.647C93.3062 38.3906 93.6273 39.1342 93.5935 40.1143C91.5487 38.8469 89.5377 37.7653 87.2224 37.3428C87.2562 37.4442 87.2562 37.5118 87.2731 37.5456C87.3407 37.6132 87.3914 37.6808 87.4759 37.7484C89.1321 39.0666 90.9234 40.1481 92.9345 40.7734C93.6442 40.9931 94.0667 41.3142 94.0836 42.0578C94.1005 42.7844 94.4385 43.5111 94.185 44.373C92.2078 42.6154 90.2474 41.01 87.7294 39.8777C87.8984 40.1143 87.9491 40.2157 87.9829 40.2664C89.6222 42.3113 91.6501 43.866 93.9822 45.0659C94.1512 45.1335 94.3709 45.1842 94.3878 45.387C94.523 46.3671 94.6075 47.3304 94.4047 48.4627C92.6303 46.6206 90.9234 44.9476 88.642 43.7308C89.7743 45.8432 91.8698 47.8543 93.8808 48.8175C94.1005 48.9189 94.4216 48.9865 94.4047 49.2907C94.3709 50.1188 94.3033 50.9469 94.2357 51.7749C94.1681 51.7918 94.1174 51.8257 94.0498 51.8426C92.6134 50.1019 91.1262 48.3782 89.2504 47.0431C89.2335 47.1276 89.1997 47.1952 89.2166 47.229C90.1629 49.4259 91.5318 51.2511 93.5935 52.5185C93.7794 52.6199 93.9991 52.7044 93.9822 52.941C93.8808 53.6508 93.7456 54.3606 93.6104 55.0365C93.3062 55.0534 93.2386 54.9183 93.188 54.8C92.3599 53.5325 91.4642 52.3326 90.3995 51.2849C90.0277 50.9131 89.7236 50.4568 89.149 50.3723C89.0983 50.592 89.2166 50.761 89.3011 50.9469C90.146 52.8565 91.3459 54.4958 93.019 55.7632C93.1541 55.8646 93.4076 55.9322 93.34 56.1519C93.1034 56.8955 92.8669 57.656 92.4782 58.3995C92.1233 58.1291 92.0726 57.7912 91.9205 57.5208C91.2107 56.1688 90.4164 54.8844 89.3856 53.7353C89.2166 53.5494 89.0645 53.2452 88.6758 53.4818C89.4363 55.4759 90.3826 57.3518 91.836 58.9403C91.9881 59.1093 92.2416 59.2445 92.1233 59.498C91.8529 60.174 91.5318 60.8162 91.1431 61.6442C90.2474 59.2952 89.3687 57.149 87.6787 55.3745C87.6111 55.5604 87.5773 55.5942 87.5942 55.6111C88.2533 57.8588 89.0645 60.0219 90.5178 61.8808C90.6192 62.0329 90.7713 62.185 90.6868 62.3878C90.2812 63.1314 89.825 63.875 89.3011 64.7706C88.9293 63.4187 88.6589 62.2695 88.2026 61.1541C87.6449 59.7346 86.9351 58.4164 86.462 58.0784C86.5972 60.1064 87.459 62.7089 88.642 64.703C88.7772 64.9396 89.0645 65.2269 88.9293 65.4297C88.4899 66.1395 87.966 66.8493 87.2562 67.5759C86.783 65.1424 86.3606 62.9286 85.0931 60.8838C84.9072 61.2049 85.0255 61.4245 85.0255 61.6442C85.2452 63.7567 85.8705 65.7508 86.7324 67.6773C86.7999 67.897 87.0196 68.0829 86.8337 68.3195C86.2761 68.9955 85.7184 69.6715 84.8903 70.2799C84.603 67.9646 84.3326 65.7846 83.4708 63.6722C83.2342 63.8919 83.3187 64.0609 83.3018 64.2299C83.2342 66.2916 83.5384 68.3195 84.0622 70.2968C84.1298 70.5334 84.2819 70.8037 84.1298 71.0234C83.4539 71.9698 82.592 72.6796 81.4597 73.3049C81.8315 70.7868 81.916 68.404 81.1555 66.055C80.902 66.1902 80.9358 66.4268 80.9189 66.6127C80.4626 68.7251 80.5471 70.8375 80.8513 72.95C80.9189 73.6259 80.7837 73.9639 80.2599 74.3188C79.3473 74.8934 78.4516 75.5356 77.3025 75.975C77.9615 73.4401 78.5192 71.0403 78.3164 68.5392C78.0798 68.5561 78.0798 68.6913 78.0629 68.7758C77.2011 71.0741 76.6941 73.457 76.4068 75.8905C76.373 76.1271 76.4406 76.4482 76.1871 76.6003C75.1393 77.2762 74.0071 77.7156 72.6213 77.986C73.686 75.6877 74.5816 73.4908 74.7506 71.0741C74.4802 71.091 74.4464 71.2938 74.3619 71.3952C72.9762 73.3894 72.0805 75.6032 71.5735 77.9522C71.5059 78.1719 71.5059 78.4423 71.2693 78.5268C70.4244 78.8648 69.5456 79.0845 68.4809 79.1859C69.8329 76.8031 71.1341 74.5385 71.2524 71.8684C69.6301 73.8963 68.4133 76.1271 67.7712 78.6282C67.6022 79.2704 67.2642 79.4563 66.6896 79.5408C64.0026 79.9295 61.2987 79.8112 58.5948 79.7774C57.6822 79.7605 56.7527 79.7098 55.8232 79.507C55.4176 79.4394 55.1304 79.2873 54.9952 78.7803C54.2854 76.1609 53.0179 73.778 51.3449 71.6318L51.3618 71.6149C51.2266 71.7501 51.2942 71.9191 51.3111 72.0712C51.666 74.3864 52.6123 76.482 53.7953 78.4592C53.8967 78.662 54.1671 78.831 54.015 79.1521C53.1869 79.1183 52.4433 78.831 51.666 78.6282C51.2773 78.5437 51.1252 78.3071 51.0914 77.9522C50.9562 77.0058 50.6351 76.1271 50.314 75.2314C49.7563 73.6935 49.0128 72.2571 47.9143 70.8037C48.0157 73.4063 48.9959 75.5863 49.9591 77.8677C48.7931 77.7494 47.9312 77.2931 47.0355 76.8876C46.4947 76.6679 46.275 76.3299 46.2243 75.7553C46.1398 74.4709 45.9202 73.1866 45.5991 71.936C45.2949 70.753 45.0076 69.5532 44.4161 68.4547C44.0781 70.9389 44.7372 73.3218 45.2949 75.8398C44.0612 75.4173 43.1486 74.7244 42.2192 74.0822C41.8474 73.8456 41.7122 73.5415 41.7967 73.1021C41.9995 71.6994 42.0671 70.3137 42.0333 68.8941C41.9995 67.7449 41.7967 66.4944 41.4756 65.9198C40.6982 68.2857 40.8672 70.6685 41.1038 73.1359C40.3602 72.8148 39.9039 72.3923 39.397 71.9698C38.6365 71.3276 38.1464 70.6686 38.6703 69.6208C38.89 69.1645 38.9069 68.6068 39.0083 68.066C39.2618 66.5789 39.3801 65.0917 39.1942 63.5708C38.3154 65.6325 38.0619 67.8294 37.7239 70.1447C36.9634 69.5194 36.4227 68.8941 35.8819 68.2688C35.6791 68.0491 35.8143 67.8294 35.8988 67.6097C36.4058 66.4944 36.8282 65.3452 37.1324 64.1792C37.4197 63.0807 37.6225 61.9653 37.6056 60.8162C36.8958 61.7794 36.4734 62.861 36.1692 63.9933C35.865 65.1255 35.6284 66.2578 35.3411 67.5252C34.8172 66.8662 34.4285 66.2916 33.9722 65.7508C33.7018 65.4128 33.668 65.1593 33.9046 64.7706C34.6144 63.6046 35.1552 62.354 35.5777 61.0528C36.034 59.7177 36.2537 58.5178 36.1354 57.8757C34.7327 59.8867 33.9891 62.1343 33.3639 64.4326C32.9076 63.8412 32.5696 63.2328 32.1978 62.6582C31.9612 62.2864 31.9612 62.0498 32.2316 61.678C33.4146 60.0726 34.2595 58.2812 34.8003 56.3547C34.8848 55.9998 35.1045 55.6618 34.9862 55.1717C33.3639 57.0138 32.4006 59.1431 31.5387 61.509C31.2514 60.8838 31.0993 60.4275 30.8458 60.0219C30.5247 59.4642 30.5248 59.0417 31.0317 58.5685C31.4204 58.1967 31.7415 57.7067 32.0457 57.2673C32.9583 55.966 33.6342 54.5465 34.0229 52.9917C33.1442 53.6846 32.4682 54.5634 31.8767 55.4928C31.319 56.4054 30.7951 57.3518 30.2037 58.3657C29.8995 57.5715 29.6629 56.9462 29.4094 56.304C29.308 56.0167 29.3587 55.8477 29.6291 55.6618C30.3389 55.1548 30.9641 54.5296 31.5387 53.8536C32.502 52.7551 33.178 51.4877 33.7187 49.9498C32.671 50.6934 31.8936 51.4877 31.2007 52.3495C30.5248 53.1945 29.8995 54.0733 29.139 55.1041C28.9869 54.3099 28.8855 53.7015 28.7503 53.11C28.6827 52.772 28.7672 52.5692 29.0883 52.3833C29.7981 51.9777 30.4572 51.4708 31.0486 50.8624C32.0795 49.747 32.9414 48.5472 33.3977 47.0431C31.5218 48.2768 30.0854 50.0005 28.5813 51.6567C28.4292 50.8286 28.3616 50.0512 28.3109 49.2738C28.2771 48.9696 28.4968 48.8682 28.6996 48.7668C29.9164 48.2261 30.9303 47.3811 31.9105 46.5023C32.7724 45.7249 33.4822 44.7955 34.1243 43.5787C31.8091 44.8124 30.1023 46.5023 28.294 48.3444C28.2264 47.2459 28.2095 46.3671 28.294 45.4715C28.3278 45.1504 28.5306 44.9983 28.801 44.88C29.8826 44.3561 30.8965 43.7139 31.8598 42.9872C33.0259 42.1085 34.0398 41.0607 34.8848 39.8608C32.4851 40.8748 30.5078 42.4802 28.5306 44.2547C28.4123 43.5618 28.5813 43.0717 28.5982 42.5816C28.6489 41.5001 28.97 40.672 30.2037 40.503C30.4403 40.4692 30.6937 40.334 30.9134 40.2495C32.6372 39.5059 34.2257 38.5934 35.5608 37.2583C33.2456 37.6301 31.2176 38.7455 29.139 40.0129C29.139 39.4552 29.139 39.0328 29.2911 38.6441C29.5784 37.8498 29.9164 37.2414 30.9472 37.1569C32.0795 37.0724 33.1611 36.5823 34.175 36.0585C35.1214 35.6022 36.0171 35.0783 36.8451 34.1826C34.3947 34.5713 32.3499 35.6022 30.153 36.633C30.3558 35.5853 30.7951 34.7572 31.1162 33.9122C31.319 33.4052 31.5894 33.2193 32.1302 33.2024C34.1581 33.0841 36.0509 32.4758 37.7408 31.3435C37.9774 31.1745 38.383 31.1238 38.4337 30.7858C36.1354 30.8196 34.1074 31.9181 31.8429 32.6448C32.1471 31.7153 32.6203 31.0731 32.9414 30.3802C33.1611 29.9408 33.4653 29.8057 33.9215 29.8057C35.5777 29.7888 37.1831 29.5691 38.7548 29.0621C39.5829 28.8086 40.4109 28.5044 41.1038 27.9467C38.7379 27.7777 36.5072 28.4537 34.175 28.9945C34.3609 28.234 34.8341 27.8284 35.1383 27.3383C35.4594 26.8313 35.8481 26.7299 36.4227 26.7806C37.9098 26.9496 39.4139 26.8651 40.8841 26.5272C41.7122 26.3075 42.5403 26.0878 43.419 25.547C40.9686 25.1583 38.7717 25.6653 36.4227 26.0878C36.862 25.209 37.538 24.6851 38.1633 24.1105C38.5013 23.8063 38.8562 23.7387 39.2956 23.8232C40.8841 24.1105 42.5065 24.2119 44.095 23.8739C44.8217 23.7049 45.5822 23.5698 46.3933 23.1135C43.9767 22.5727 41.7291 22.8938 39.4308 23.0797C39.4984 22.86 39.5491 22.7755 39.5998 22.6741C40.2926 22.0488 40.9855 21.4235 41.8812 21.0517C44.095 21.7615 46.3257 22.2854 48.6748 21.7277C47.0186 20.7475 45.1597 20.6799 43.1655 20.2913C44.1457 19.5815 44.8893 18.9393 46.0047 18.8717C46.8158 18.821 47.5932 18.5844 48.3368 18.314C49.1649 18.0098 49.9422 17.6042 50.7027 16.9114C47.7453 16.979 45.2611 18.0267 42.9796 19.6829C44.1626 17.469 45.6498 15.4918 45.954 12.771C45.0583 13.8864 44.2133 14.8327 43.6218 15.965C42.7938 17.469 42.3037 19.1083 41.7967 20.7306C40.9855 21.1362 40.2926 21.7108 39.6167 22.3023C39.4984 22.2854 39.3801 22.4544 39.1435 22.2347C40.2757 19.9533 41.2897 17.6042 41.3066 14.782C39.7012 17.0128 38.8731 19.4125 38.6872 21.9136C38.5351 23.857 36.9634 24.3809 35.9157 25.4794C36.4396 22.9952 37.4873 20.6123 37.0648 17.8915C36.9127 18.1957 36.8282 18.3647 36.71 18.5675C35.5946 20.8827 35.1383 23.3839 34.9862 25.9188C34.9186 27.2538 33.9215 27.896 33.178 28.8255C33.5498 26.2906 34.0398 23.8063 33.7018 21.0855C33.5836 21.3221 33.5329 21.3897 33.4991 21.4573C32.4851 23.9922 32.2654 26.6286 32.4682 29.3325C32.5358 30.583 31.5894 31.3435 31.0655 32.3237C30.7275 30.9379 31.1669 29.6029 31.0317 28.2509C30.8965 26.9158 30.7106 25.6146 30.1699 24.2288C29.477 26.8313 29.477 30.1267 30.2544 32.7969C30.6261 34.0643 29.7474 34.8248 29.3249 35.8219C28.8686 33.0334 29.1728 30.1098 27.8546 27.3721C27.2125 30.5492 27.6349 33.4728 28.7165 36.295C29.1728 37.478 28.4123 38.2047 28.1081 39.168C27.6349 36.464 27.1956 33.7939 25.7929 31.3435C25.4549 33.9798 26.2999 37.816 27.6856 40.0974C27.8039 40.3002 27.956 40.4861 27.9053 40.7396C27.7194 41.5677 27.5335 42.362 27.3476 43.19C26.3337 40.3678 25.6915 37.4273 23.6805 35.0614C23.9171 38.2385 24.7451 41.2466 26.6379 43.8153C27.3646 44.8293 27.0942 45.7756 27.0097 46.891C26.5703 46.5868 26.452 46.1981 26.283 45.877C25.4718 44.2716 24.6944 42.6661 23.5622 41.2297C23.1059 40.6551 22.7003 39.9791 21.9905 39.6411C21.8553 40.0129 22.0581 40.3509 22.1426 40.672C22.92 43.021 24.1875 45.0828 25.8436 46.9248C26.2323 47.3642 26.8576 47.736 26.959 48.3106C27.128 49.1893 27.128 50.1357 27.0266 51.2342C26.1647 49.8146 25.3873 48.5641 24.4747 47.4149C23.5453 46.2826 22.5482 45.2349 21.3145 44.2716C21.3314 44.4406 21.3145 44.5082 21.3483 44.5589C22.5651 47.3304 24.2382 49.747 26.4689 51.7919C27.3139 52.5523 27.787 53.9381 27.5673 55.1717C25.6577 52.8396 23.7481 50.592 21.078 48.9696C21.0611 49.3583 21.3145 49.4428 21.4159 49.6118C22.8017 52.1805 24.8465 54.124 27.2463 55.6787C28.2602 56.3378 28.294 57.2335 28.463 58.2305C26.1478 56.7265 24.4071 54.3437 21.5511 53.6339C21.5511 53.7015 21.5511 53.7353 21.568 53.7691C21.6356 53.9043 21.7539 54.0226 21.8384 54.1578C23.4777 56.2533 25.5901 57.6729 27.9729 58.7544C28.9531 59.1938 29.5446 60.174 29.5277 61.3907C27.1449 59.6163 24.6775 58.1292 21.7201 57.2335C23.934 59.6163 26.4689 61.188 29.3925 62.1174C30.2713 62.4047 30.9641 63.3849 31.0148 64.4157C29.5784 63.6553 28.1757 62.861 26.6886 62.2526C24.4409 61.2893 22.8186 60.8331 22.1595 60.9852C26.5196 63.9257 26.5196 63.9257 31.319 65.21C31.826 65.3452 32.4006 66.1902 32.3668 66.7648C28.5306 65.4128 24.8803 64.5002 23.9509 64.7199C26.5872 66.4944 29.4939 67.4915 32.6203 67.8632C33.5498 67.9646 34.4116 68.8265 34.5975 69.8743C31.826 69.0124 29.0545 68.4547 26.1647 68.5223C26.2323 68.6575 26.3337 68.7251 26.4013 68.7589C29.0038 70.2799 31.8598 70.8882 34.8172 70.8544C36.0847 70.8375 36.4058 71.6656 36.9972 72.3754C34.1919 71.9191 31.4035 71.3614 28.5475 71.6825C28.7334 71.9698 29.0038 72.0374 29.2573 72.1219C31.8598 73.2542 34.6313 73.6766 37.4197 73.5415C38.721 73.4739 39.2618 74.2681 39.9884 75.0286C37.0648 74.8089 34.1243 74.4878 31.0317 75.0793C31.3359 75.2314 31.4373 75.299 31.5725 75.3497C34.4792 76.5665 37.4873 76.7017 40.5123 76.1947C42.253 75.9074 43.0303 77.1748 44.2133 77.8508C41.0869 78.2395 37.9098 78.0367 34.7158 79.0676C34.9524 79.1352 35.0538 79.169 35.1214 79.1859C38.5182 80.0984 41.9319 79.997 45.278 78.9831C46.7989 78.5437 47.7622 79.6084 49.0128 79.9632C47.5087 80.3857 46.0047 80.673 44.5175 81.0279C43.0303 81.3997 41.5263 81.7715 39.9884 82.5489C41.6615 82.8531 43.1317 82.87 44.602 82.6334C46.6975 82.3123 48.6917 81.7039 50.6013 80.8251C51.4632 80.4364 52.1223 80.9096 52.8996 81.0955C51.2942 82.025 49.7394 82.9545 48.3368 84.1205C46.9341 85.2866 45.7005 86.5878 44.6189 88.1764C45.5822 88.4806 46.4778 88.7003 47.3059 89.0383C47.8298 89.2579 47.9988 89.089 48.2523 88.7172C48.9959 87.6525 49.8915 86.723 50.821 85.8274C55.8908 80.9603 64.3237 80.8251 69.4273 83.9515C71.4045 85.1514 73.0438 86.723 74.3957 88.582C74.5985 88.8355 74.7168 89.258 75.19 89.1059C76.1533 88.8017 77.0828 88.4806 78.1136 88.1257C75.9674 84.9824 73.1283 82.8193 69.7653 81.1124C70.9483 80.5209 71.8777 80.673 72.8917 81.0786C75.2069 82.0419 77.6235 82.7686 80.1923 82.7348C81.0034 82.7179 81.8146 82.7517 82.6934 82.4475C79.7529 81.1124 76.6772 80.6561 73.6691 79.9464C74.4295 79.5577 75.2069 79.2704 75.9674 78.9324C76.3392 78.7634 76.6772 78.7465 77.0828 78.8648C79.6346 79.6084 82.2202 79.9126 84.8903 79.6591C85.3973 79.5915 85.9043 79.5408 86.3944 79.4394C86.8844 79.3549 87.3914 79.2873 88.0167 79C84.8227 78.0198 81.6625 78.1719 78.3671 77.9184C79.0769 77.2255 79.8374 76.9382 80.4289 76.4482C80.8513 76.0933 81.2907 76.0426 81.8484 76.1102C84.1974 76.482 86.5634 76.5496 88.9293 76.0426C89.8756 75.8229 90.822 75.6032 91.7008 75.0455C88.7265 74.4202 85.786 74.8089 82.7103 75.0624C83.5553 74.116 84.1636 73.4401 85.4142 73.4908C87.9998 73.6091 90.5347 73.2542 92.9513 72.3078C93.3907 72.1388 93.8977 72.0374 94.2695 71.6318C91.3459 71.2769 88.5744 71.8684 85.617 72.443C86.3606 71.429 86.9182 70.7361 88.2364 70.7868C90.5516 70.8544 92.8162 70.3813 94.9624 69.4349C95.5539 69.1814 96.1453 68.911 96.7875 68.404C95.199 68.3364 93.7963 68.5561 92.3937 68.7758C90.9741 68.9955 89.6053 69.418 88.1519 69.8067C88.4561 68.6068 89.2335 67.897 90.2981 67.7956C91.5149 67.6942 92.6979 67.407 93.847 67.0521C95.6215 66.5113 97.2776 65.717 98.7986 64.6016C95.875 64.872 93.1203 65.8522 90.3319 66.6803C90.7037 65.9198 90.9741 65.21 92.0388 65.0579C93.9822 64.7875 95.8243 64.0778 97.5311 63.0976C98.6465 62.4554 99.6773 61.7287 100.776 60.7317C98.6803 61.188 96.8889 61.847 95.1145 62.6413C93.9991 63.1483 93.002 63.8581 91.8698 64.2637C91.8191 64.2806 91.7853 64.2806 91.7346 64.2975C91.7515 64.2468 91.7684 64.213 91.7853 64.1623C91.9036 63.6046 92.2585 63.1145 92.4613 62.5906C92.5458 62.354 92.7486 62.2695 92.9852 62.2019C95.0976 61.6273 97.0241 60.6641 98.7479 59.329C99.4576 58.7882 100.184 58.2305 100.658 57.4194C97.9029 58.1967 95.537 59.7008 93.188 61.3907C93.188 60.7824 93.4583 60.4106 93.5597 59.9881C93.6273 59.5487 93.9315 59.1938 94.5061 58.9572Z" fill="white"/>
<path d="M61.3329 42.1079L52.4775 57.4526H70.2051L61.3329 42.1079L52.4775 57.4526H70.2051L61.3329 42.1079Z" fill="white"/>
<path d="M52.123 57.6725L61.3333 41.7363L70.5435 57.6725H52.123Z" fill="white"/>
<path d="M61.3329 42.1079L52.4775 57.4526H70.2051L61.3329 42.1079L52.4775 57.4526H70.2051L61.3329 42.1079Z" fill="white"/>
<path d="M52.9509 102.726C53.0354 101.661 53.3396 100.343 53.1875 99.312C53.1368 99.0416 53.0185 98.9909 52.9171 98.7205C52.6129 97.9093 52.6636 97.6052 53.3396 96.9968C53.7959 97.5545 54.3198 98.0783 55.0464 98.5853C54.5902 98.805 54.2184 99.2782 53.8635 99.3965C53.7283 99.7852 53.8466 100.698 53.7959 101.154C53.61 102.354 54.4043 103.131 54.8943 103.976C54.2015 105.058 54.0325 105.024 52.8326 103.638C50.6357 104.162 48.4895 103.672 46.3432 103.233C44.0449 102.759 41.848 101.965 39.6679 101.086C38.6709 100.681 37.6062 100.225 37.7414 98.7543C36.1866 99.4303 34.5305 98.8219 34.3784 98.0614C34.277 97.4869 34.4629 97.0475 34.9361 96.6419C34.9361 97.9093 36.0515 98.3318 37.2175 98.0445C37.7245 97.9262 37.9104 97.4868 37.9611 97.0644C38.0287 96.6081 38.0625 96.118 38.0794 95.6617C38.0963 95.273 38.316 95.1378 38.6878 95.0195C38.7554 95.9321 38.6033 96.8109 38.4512 97.6389C38.3329 98.3656 38.5864 98.8388 39.1103 99.2444C40.2763 100.174 41.6959 100.546 43.0816 100.968C45.4475 101.712 47.8642 102.354 50.3315 102.692C51.1258 102.776 52.0383 102.726 52.9509 102.726Z" fill="white"/>
<path d="M82.3075 99.093C82.1216 99.262 81.9526 99.431 81.7837 99.583C81.1753 100.107 80.5331 100.006 80.0937 99.3465C79.5191 98.4846 79.6881 97.0819 80.4486 96.4228C80.7866 96.1356 81.1246 96.0511 81.5302 96.2707C82.5103 96.7946 83.5074 99.0254 83.3384 100.107C83.1863 101.087 82.4934 101.493 81.7329 101.831C79.2825 102.895 76.7814 103.825 74.1113 104.146C73.5198 104.214 72.9283 104.23 72.303 104.197C70.3596 104.028 69.5315 103.25 69.0583 101.307C68.7542 100.073 68.5683 98.8226 68.0613 97.6396C67.9261 97.3354 67.943 97.0819 68.2472 96.9467C68.6021 96.8115 68.6866 97.1495 68.7711 97.3523C69.1091 98.4508 69.4301 99.5492 69.7005 100.665C70.0385 101.983 70.6807 102.642 72.472 102.693C75.666 102.794 78.5558 101.729 81.4626 100.563C81.8681 100.394 82.1892 100.09 82.4596 99.7351C82.561 99.5323 82.5948 99.3465 82.3075 99.093ZM81.5471 97.6227C81.0401 97.3692 80.719 97.4199 80.4317 97.7579C80.3303 97.8762 80.3641 98.0452 80.4993 98.1128C80.9556 98.2987 81.2091 98.0114 81.5471 97.6227Z" fill="white"/>
<path d="M63.6814 101.07C62.7181 100.647 62.3632 99.9543 62.5153 99.0417C62.6843 98.0954 63.0392 97.2673 64.0701 96.9631C64.7461 96.7603 65.2023 97.0645 65.591 97.5546C65.4389 97.8926 65.2023 97.7743 64.9827 97.7743C64.4588 97.825 63.9687 97.8757 63.6983 98.4334C63.5462 98.7375 63.6476 99.0079 63.9011 99.2614C64.3236 99.6501 64.763 99.7515 65.3544 99.5487C66.0135 99.329 66.5036 98.9065 67.112 98.5685C67.281 99.16 67.0782 99.5487 66.6219 99.836C65.8614 100.309 65.0841 100.782 64.4588 101.425C63.749 102.185 63.2927 103.098 63.4448 104.179C63.6138 105.396 64.5433 105.869 66.0811 106.004C67.5176 106.106 68.9033 105.717 70.2553 105.295C70.4919 105.227 70.7285 105.092 71.151 105.126C70.306 105.971 69.5117 106.596 68.447 106.832C67.3655 107.069 66.2839 107.221 65.1854 107.001C63.0054 106.579 62.2956 105.041 62.7857 102.929C62.9547 102.253 63.3265 101.695 63.6814 101.07Z" fill="white"/>
<path d="M87.7636 90.2373C88.2368 90.5922 88.7438 90.6429 89.2845 90.6598C90.1464 90.6936 90.2309 90.7781 90.0957 91.64C90.0281 92.0286 90.2816 92.2483 90.4675 92.5018C90.7886 92.9581 91.1435 93.3637 91.4815 93.82C92.0561 94.5636 92.1913 95.3916 91.9378 96.2873C91.904 96.3549 91.904 96.4901 91.8702 96.5239C90.9576 97.3689 89.9774 98.1293 88.7945 98.5518C88.4227 98.6701 88.0847 98.349 87.6791 98.3997C87.5946 99.4813 86.6144 99.8024 85.8709 100.276C85.4484 100.563 84.9076 100.445 84.671 99.8869C84.5358 99.5827 84.4513 99.2447 84.333 98.8729C85.1611 99.2278 86.7158 98.5011 86.9186 97.7576C87.02 97.3013 86.6989 97.0647 86.3609 96.8112C85.6512 96.2873 85.6512 96.2535 85.9554 95.3747C86.4116 95.7972 86.9355 96.2366 87.3749 96.7098C87.8988 97.2675 88.4903 97.3858 89.1325 96.9464C89.8253 96.4901 90.4844 96.0169 91.0928 95.4254C91.397 95.1212 91.4308 94.9016 91.1604 94.5636C90.552 93.7693 89.9098 93.0257 89.2677 92.2821C89.0818 92.0624 88.879 92.0793 88.6593 92.0455C87.5608 91.7582 87.3073 91.2344 87.7636 90.2373Z" fill="white"/>
<path d="M31.6243 94.5636C31.8778 93.9384 32.1313 93.6173 32.8411 93.8539C33.7029 94.1242 34.2944 93.4821 34.1592 92.5695C34.1085 92.3329 34.024 92.0456 34.362 91.9273C34.6324 91.8428 34.9535 91.6738 35.207 91.8766C35.4267 92.0794 35.5788 92.3329 35.4605 92.6878C35.2408 93.3638 34.8352 93.8708 34.2775 94.2425C34.1085 94.3439 33.9226 94.4622 33.8043 94.6143C34.3113 95.6114 33.6522 96.693 32.3848 96.9465C30.8638 97.2844 29.4612 96.9296 28.143 96.186C26.4869 95.2396 26.3179 93.6511 27.636 92.1132C28.1768 91.4879 28.8866 91.0485 29.6302 90.6768C29.7992 90.9978 29.5626 91.0654 29.3936 91.1837C28.8866 91.5555 28.3965 91.9442 28.0585 92.4681C27.5008 93.33 27.6867 94.2932 28.5993 95.0199C29.5795 95.8142 30.7624 96.1353 31.9961 96.186C32.2158 96.2029 32.4862 96.2536 32.5876 95.9663C32.6721 95.7297 32.6045 95.4931 32.4186 95.3241C32.182 95.0368 31.8947 94.8002 31.6243 94.5636Z" fill="white"/>
<path d="M57.8014 97.2681C57.9028 98.1299 58.038 98.8397 58.0887 99.5664C58.1563 100.851 58.2239 102.135 58.2915 103.419C58.3253 104.146 58.1056 104.602 57.5817 105.025C57.3789 104.957 57.4465 104.755 57.4296 104.619C57.3113 102.642 57.193 100.682 57.0747 98.7045C57.0409 98.1806 57.193 97.7244 57.8014 97.2681Z" fill="white"/>
<path d="M91.1444 88.4121C92.7329 90.3893 95.1495 91.6061 95.234 94.479C94.9975 94.1579 94.7271 93.8368 94.4736 93.5327C93.4765 92.4004 92.4963 91.2343 91.4317 90.1528C90.9416 89.6796 90.9078 89.1895 91.1444 88.4121Z" fill="white"/>
<path d="M42.2714 97.8766C42.2038 96.5416 46.1582 97.3527 48.0679 96.981C48.0679 97.0148 47.8313 97.471 47.2229 97.5555C45.9554 97.7752 43.4881 97.4203 42.2714 97.8766Z" fill="white"/>
<path d="M32.3319 99.3124C31.4193 100.174 31.4193 100.174 30.6082 99.38C30.2026 99.7517 29.7463 99.8024 29.4759 99.211C29.1886 98.535 29.8646 98.4674 30.1519 98.1294C30.5406 98.2646 30.6251 98.704 31.0306 98.8392C31.6897 98.2308 31.9432 98.8899 32.3319 99.3124Z" fill="white"/>
<path d="M83.6914 93.1946C83.8604 92.8735 83.5394 92.5693 83.6408 92.2483C83.9787 92.1638 84.0125 92.7721 84.3505 92.6369C84.6716 92.3327 84.0801 91.792 84.266 91.6568C84.4519 91.5216 84.942 92.2652 84.9082 92.7721C84.8744 93.1777 83.9111 94.0058 83.4887 94.0396C82.9141 94.0903 82.7789 92.8059 82.9648 92.7721C83.1845 92.7045 83.269 93.3129 83.6914 93.1946Z" fill="white"/>
<path d="M76.7461 96.8115C77.1348 96.9467 77.6925 96.8115 77.5404 97.4199C77.4559 97.8086 77.5911 98.5015 76.7968 98.4001C76.4251 98.3494 75.9688 98.3325 76.1209 97.7748C76.1885 97.403 76.1378 96.8115 76.7461 96.8115Z" fill="white"/>
<path d="M34.2111 90.5582L33.3999 91.0145C33.3323 91.0652 33.214 91.0483 33.1633 90.9638L32.7577 90.4906C32.6901 90.423 32.6901 90.2709 32.7746 90.2202L33.4168 89.6625C33.4844 89.5949 33.6196 89.5949 33.6703 89.6794L34.2449 90.254C34.3463 90.3385 34.3125 90.4906 34.2111 90.5582Z" fill="white"/>
</g>
<defs>
<clipPath id="clip0_3470_11316">
<rect width="121.558" height="109.711" fill="white" transform="translate(0.78418 0.501465)"/>
</clipPath>
</defs>
</svg>
