<svg width="359" height="52" viewBox="0 0 359 52" fill="none" xmlns="http://www.w3.org/2000/svg">
<path d="M332.039 32.304C332.342 32.2927 332.643 32.3586 332.914 32.4957C333.185 32.6328 333.417 32.8364 333.587 33.0876L332.888 33.4234C332.793 33.2717 332.662 33.1465 332.505 33.0596C332.333 32.9873 332.146 32.9564 331.96 32.9693C331.774 32.9823 331.593 33.0388 331.432 33.1342C331.359 33.1753 331.299 33.2348 331.256 33.3069C331.213 33.379 331.191 33.461 331.19 33.5447C331.19 33.7686 331.395 33.9552 331.815 34.0951L332.393 34.291C332.773 34.3918 333.122 34.584 333.41 34.8507C333.515 34.9578 333.598 35.0846 333.654 35.2239C333.71 35.3632 333.738 35.5122 333.737 35.6623C333.739 35.8705 333.692 36.0762 333.6 36.2627C333.507 36.4492 333.372 36.6111 333.205 36.7351C332.833 36.9972 332.392 37.1432 331.937 37.1549C331.482 37.1665 331.034 37.0432 330.649 36.8004C330.326 36.5508 330.113 36.1867 330.052 35.7836L330.929 35.625C330.943 35.8301 331.014 36.0273 331.134 36.1941C331.235 36.2977 331.358 36.3781 331.493 36.4296C331.628 36.4812 331.773 36.5026 331.918 36.4926C332.159 36.5003 332.397 36.4245 332.589 36.278C332.708 36.1844 332.794 36.0551 332.835 35.9091C332.875 35.763 332.867 35.6079 332.813 35.4664C332.782 35.3858 332.735 35.3126 332.673 35.2519C332.592 35.1842 332.505 35.1248 332.412 35.0746C332.291 35.0134 332.167 34.9604 332.039 34.916L331.488 34.7295C330.705 34.4589 330.304 34.0671 330.304 33.5447C330.307 33.3666 330.354 33.1921 330.442 33.0373C330.53 32.8824 330.656 32.7522 330.807 32.6585C331.17 32.4131 331.601 32.289 332.039 32.304Z" fill="white"/>
<path d="M337.515 33.05H335.509V34.1788H337.44V34.8411H335.509V37.0707H334.642V32.397H337.515V33.05Z" fill="white"/>
<path d="M339.502 36.4079H339.894C340.208 36.4098 340.521 36.3754 340.827 36.3053C341.078 36.2424 341.313 36.1281 341.517 35.9695C341.719 35.8321 341.883 35.6468 341.996 35.4303C342.108 35.2137 342.165 34.9727 342.161 34.7288C342.164 34.4847 342.108 34.2434 341.998 34.0257C341.887 33.808 341.726 33.6203 341.527 33.4787C341.029 33.1635 340.445 33.0133 339.857 33.0496H339.465L339.502 36.4079ZM338.635 37.0703V32.4059H339.838C340.299 32.393 340.76 32.44 341.21 32.5458C341.548 32.6351 341.865 32.7905 342.142 33.0029C342.425 33.1965 342.657 33.4561 342.816 33.7593C342.976 34.0625 343.06 34.4 343.06 34.7428C343.06 35.0855 342.976 35.4231 342.816 35.7262C342.657 36.0294 342.425 36.289 342.142 36.4826C341.863 36.6951 341.547 36.8534 341.21 36.949C340.766 37.0481 340.311 37.0919 339.857 37.0796L338.635 37.0703Z" fill="white"/>
<path d="M346.592 35.2704L345.734 33.6845L344.801 35.2704H346.592ZM346.947 35.9327H344.484L343.84 37.0709H342.907L345.752 32.0986L348.495 37.0709H347.562L346.947 35.9327Z" fill="white"/>
<path d="M327.85 10.5395C317.047 3.45904 296.487 26.9022 296.487 26.9022V27.7604L302.839 21.6034C315.275 10.7355 321.105 16.9391 321.105 16.9391C330.079 26.6316 293.865 50.0748 293.865 50.0748L293.996 50.4013C301.851 47.3228 318.092 33.8987 318.092 33.8987C336.749 16.8085 327.85 10.5769 327.85 10.5769" fill="white"/>
<path d="M358.169 14.141V13.8052C350.221 16.5624 342.456 19.8216 334.922 23.5631C334.922 23.5631 334.073 16.8184 346.182 13.3014L346.116 12.6484C346.116 12.6484 329.418 16.2493 328.961 27.3132C328.961 27.3132 311.022 40.6067 317.44 49.0585C317.44 49.0585 322.608 55.5327 337.608 46.8942C337.608 46.8942 347.693 40.7373 351.228 37.7894L351.163 37.0711C351.163 37.0711 331.825 53.1632 325.099 43.4706C318.373 33.778 354.102 15.2512 358.169 14.141Z" fill="white"/>
<path d="M334.623 1.5C333.701 1.5 332.799 1.77356 332.032 2.28609C331.265 2.79862 330.667 3.52709 330.314 4.37939C329.961 5.2317 329.869 6.16955 330.049 7.07434C330.229 7.97914 330.673 8.81026 331.325 9.46258C331.977 10.1149 332.809 10.5591 333.713 10.7391C334.618 10.9191 335.556 10.8267 336.408 10.4737C337.261 10.1207 337.989 9.52281 338.502 8.75576C339.014 7.98871 339.288 7.0869 339.288 6.16437C339.288 4.9273 338.796 3.7409 337.922 2.86616C337.047 1.99142 335.86 1.5 334.623 1.5Z" fill="white"/>
<path d="M1.12073 17.7039C0.878187 17.452 0.682283 17.2374 0.682283 16.2766C0.750626 15.3741 1.158 14.531 1.82254 13.9167C2.48708 13.3023 3.35952 12.9623 4.26452 12.9649C4.95018 13.0277 5.62117 13.201 6.25154 13.4779L5.81309 14.4108C5.3396 14.146 4.807 14.0049 4.26452 14.0003C3.06111 13.9724 1.68046 15.0079 1.68046 15.9407C1.68046 16.6497 1.68046 16.9669 2.00696 17.2654C2.37079 17.7598 3.10776 17.6852 4.18989 17.6852H6.55006L5.98101 18.7393H0.654297V17.7039H1.12073Z" fill="white"/>
<path d="M10.8506 1.22021H8.63965V18.7023H10.8506V1.22021Z" fill="white"/>
<path d="M28.1835 15.6146C28.1835 22.7325 25.2823 23.4694 20.1795 23.5721C19.5358 23.5721 17.726 23.5721 17.726 23.5721C17.726 23.5721 17.129 22.7418 16.2987 21.3611C20.2727 21.3611 23.8083 21.7343 24.8438 20.2137C25.3103 19.5234 25.9726 18.4879 25.9726 15.8385C25.9726 11.7152 24.4054 8.19829 20.7205 8.27292C18.2577 8.27292 15.4125 9.4017 15.4125 14.0194C15.4125 16.0344 16.4666 16.5289 18.2857 16.5289H24.2281L22.7075 18.7398H19.3865C14.8248 18.7398 13.2016 18.1987 13.2016 14.0194C13.1513 11.9693 13.9134 9.98242 15.3218 8.49184C16.7303 7.00127 18.6708 6.12787 20.7205 6.06201C26.1685 6.06201 28.1835 11.2208 28.1835 15.6426" fill="white"/>
<path d="M31.2811 18.7397L30.1523 16.5008H38.6415C40.9737 16.5008 42.373 16.6687 43.2126 15.5679C43.7536 14.8776 43.9496 14.2433 43.9496 12.6201C43.9496 10.5584 41.1509 8.34749 38.5016 8.34749C34.7701 8.34749 33.7812 10.5584 32.7551 13.357H30.4135C30.4135 13.357 30.7401 12.1816 30.9826 11.4913C31.4722 9.89944 32.4759 8.5149 33.8365 7.5544C35.197 6.59391 36.8377 6.11168 38.5016 6.18322C42.9141 6.18322 46.3097 10.0173 46.3097 13.4037C46.2744 14.4782 46.0138 15.5334 45.5448 16.5008H47.9796V18.7397H31.2811Z" fill="white"/>
<path d="M50.2826 16.5007V1.22021H52.4935V18.7023H46.8496V16.5007H50.2826Z" fill="white"/>
<path d="M57.6992 1.22021H55.4883V18.7023H57.6992V1.22021Z" fill="white"/>
<path d="M75.0412 15.6146C75.0412 22.7325 72.1399 23.4694 67.0278 23.5721C66.3934 23.5721 64.5743 23.5721 64.5743 23.5721C64.5743 23.5721 63.9866 22.7418 63.1564 21.3611C67.1304 21.3611 70.6194 21.7343 71.7015 20.2137C72.1679 19.5234 72.8303 18.4879 72.8303 15.8385C72.8303 11.7152 71.2537 8.19829 67.5689 8.27292C65.1154 8.27292 62.2701 9.4017 62.2701 14.0194C62.2701 16.0344 63.3243 16.5289 65.1434 16.5289H71.0858L69.5652 18.7398H66.2442C61.6824 18.7398 60.0592 18.1987 60.0592 14.0194C60.0064 11.9702 60.7665 9.98327 62.1734 8.49242C63.5804 7.00157 65.52 6.12786 67.5689 6.06201C73.0262 6.06201 75.0319 11.2208 75.0319 15.6426" fill="white"/>
<path d="M84.2213 17.7042C83.9788 17.4523 83.7829 17.2377 83.7829 16.2769C83.8539 15.3672 84.2685 14.5186 84.9425 13.9035C85.6165 13.2884 86.4994 12.9529 87.4117 12.9652C88.1002 13.0294 88.774 13.2026 89.4081 13.4782L88.9603 14.4111C88.4894 14.1366 87.9567 13.9857 87.4117 13.9727C86.2083 13.9727 84.837 14.9988 84.837 15.9597C84.837 16.6687 84.837 16.9859 85.1542 17.2844C85.5273 17.7788 86.255 17.7042 87.3371 17.7042H89.6506L89.0816 18.7397H83.7549V17.7042H84.2213Z" fill="white"/>
<path d="M93.9502 1.22021H91.7393V18.7023H93.9502V1.22021Z" fill="white"/>
<path d="M105.136 3.0207C105.169 3.21769 105.162 3.41931 105.116 3.61362C105.069 3.80793 104.984 3.99097 104.866 4.15191C104.748 4.31284 104.598 4.44839 104.427 4.55053C104.255 4.65267 104.065 4.71931 103.867 4.74652C103.465 4.80095 103.058 4.69344 102.735 4.44764C102.412 4.20184 102.2 3.83788 102.146 3.43583C102.091 3.03378 102.199 2.62658 102.445 2.3038C102.69 1.98102 103.054 1.76911 103.456 1.71468C103.653 1.68859 103.852 1.7018 104.043 1.75354C104.234 1.80529 104.413 1.89453 104.569 2.01607C104.726 2.13762 104.856 2.28903 104.953 2.46151C105.051 2.63398 105.113 2.82407 105.136 3.0207ZM97.0942 18.7396L95.9561 16.5287H104.455C106.787 16.5287 108.186 16.6966 109.026 15.5958C109.567 14.9055 109.763 14.2712 109.763 12.648C109.763 10.5863 106.964 8.3754 104.315 8.3754C100.583 8.3754 99.5943 10.5863 98.5681 13.3849H96.2359C96.2359 13.3849 96.5531 12.2095 96.7956 11.5192C97.2853 9.92735 98.2889 8.54281 99.6495 7.58231C101.01 6.62182 102.651 6.13959 104.315 6.21113C108.727 6.21113 112.123 10.0452 112.123 13.4316C112.087 14.5061 111.827 15.5613 111.358 16.5287H113.793V18.7396H97.0942Z" fill="white"/>
<path d="M122.609 2.7222C122.647 3.01839 122.597 3.31918 122.464 3.58661C122.331 3.85405 122.122 4.07613 121.863 4.22483C121.604 4.37354 121.307 4.44219 121.009 4.42214C120.711 4.40209 120.426 4.29422 120.189 4.11215C119.952 3.93009 119.775 3.68199 119.679 3.39916C119.583 3.11634 119.573 2.81148 119.651 2.52305C119.728 2.23462 119.889 1.97556 120.113 1.77856C120.338 1.58157 120.616 1.45546 120.912 1.41618C121.109 1.38871 121.31 1.40084 121.503 1.45185C121.696 1.50287 121.876 1.59175 122.034 1.71332C122.192 1.83489 122.325 1.98671 122.423 2.15992C122.522 2.33313 122.585 2.52428 122.609 2.7222ZM128.897 12.6666C128.897 10.605 126.266 8.39408 122.507 8.39408C119.857 8.39408 116.173 10.605 116.173 12.6666C116.173 14.2898 116.173 14.9242 116.76 15.6145C117.6 16.6687 120.156 16.5474 122.488 16.5474C124.82 16.5474 127.47 16.7153 128.309 15.6145C128.841 14.9242 128.897 14.2898 128.897 12.6666ZM112.665 16.5008H114.895C114.354 15.9783 113.962 15.5119 113.962 13.4036C113.984 12.4428 114.214 11.4981 114.634 10.6338C115.054 9.76937 115.655 9.00552 116.397 8.39408H114.111L116.098 6.18316H123.29C127.712 6.18316 131.108 10.0173 131.108 13.4036C131.108 15.5119 130.707 15.9783 130.175 16.5008H132.405V18.7397H112.665V16.5008Z" fill="white"/>
<path d="M135.053 16.5004V1.27588H137.264V16.5004H140.063V18.73L131.62 18.702V16.5004H135.053Z" fill="white"/>
<path d="M142.722 16.5007V1.22021H144.933V18.7023H139.279V16.5007H142.722Z" fill="white"/>
<path d="M164.383 2.33016C164.419 2.62623 164.367 2.92637 164.233 3.19276C164.098 3.45916 163.888 3.67991 163.629 3.8272C163.37 3.97449 163.073 4.04175 162.775 4.0205C162.478 3.99924 162.193 3.89043 161.957 3.70776C161.721 3.52509 161.545 3.27674 161.45 2.99398C161.355 2.71122 161.346 2.40669 161.424 2.11876C161.502 1.83083 161.663 1.57236 161.887 1.37592C162.112 1.17947 162.389 1.05383 162.685 1.01481C162.883 0.987341 163.084 0.999468 163.276 1.05048C163.469 1.1015 163.65 1.19038 163.808 1.31195C163.966 1.43352 164.098 1.58534 164.197 1.75855C164.296 1.93177 164.359 2.12291 164.383 2.32083M161.137 2.32083C161.164 2.51571 161.153 2.71412 161.104 2.90464C161.054 3.09517 160.968 3.27405 160.849 3.43098C160.73 3.58792 160.581 3.71981 160.411 3.81907C160.241 3.91832 160.054 3.98299 159.858 4.00934C159.561 4.05909 159.256 4.01876 158.981 3.89352C158.707 3.76828 158.477 3.56386 158.319 3.30655C158.162 3.04923 158.086 2.75079 158.099 2.44959C158.113 2.1484 158.217 1.85822 158.397 1.61636C158.577 1.37451 158.825 1.19204 159.11 1.09242C159.394 0.992795 159.702 0.980575 159.994 1.05733C160.285 1.13408 160.547 1.2963 160.746 1.52312C160.945 1.74995 161.071 2.03101 161.109 2.33016M155.875 12.6664C155.875 14.2896 155.735 14.9706 156.276 15.6609C157.107 16.7151 159 16.5005 161.332 16.5005H166.361C168.226 16.5005 167.2 12.909 167.2 12.909C166.165 10.1103 165.167 8.39384 161.482 8.39384C158.823 8.39384 155.884 10.6048 155.884 12.6664M169.504 6.18293V16.5005H171.277V18.7394H157.162C156.029 18.4299 155.039 17.7336 154.364 16.7711C153.776 15.6889 153.729 15.5397 153.729 13.4314C153.729 10.045 157.116 6.21092 161.538 6.21092C162.593 6.20424 163.64 6.40692 164.616 6.80723C165.593 7.20754 166.481 7.79754 167.228 8.5431V6.21092L169.504 6.18293Z" fill="white"/>
<path d="M180.699 11.9766C181.356 12.6893 181.824 13.5554 182.061 14.4957C182.297 15.436 182.294 16.4205 182.052 17.3593C181.934 17.9325 181.67 18.4657 181.287 18.9078C180.531 19.962 179.421 21.1374 178.273 20.4751C176.473 19.4209 174.486 18.3108 174.486 18.3108L174.812 15.8573C174.952 15.8573 177.779 17.919 178.74 18.1149C178.74 18.1149 179.962 18.0496 179.962 15.7827C179.981 15.3642 179.91 14.9466 179.754 14.5576C179.599 14.1686 179.363 13.8171 179.061 13.5267C178.759 13.2363 178.398 13.0136 178.004 12.8734C177.609 12.7331 177.189 12.6787 176.771 12.7135C174.859 12.7135 174.318 13.6464 173.973 15.195C173.656 16.5756 173.88 17.7977 172.499 18.488C172.028 18.6857 171.515 18.7627 171.006 18.7119H170.391V16.501H171.006C171.426 16.501 171.865 16.501 171.865 16.1558C171.865 13.8423 172.797 10.6239 177.191 10.6239C178.491 10.6082 179.746 11.0925 180.699 11.9766Z" fill="white"/>
<path d="M189.72 18.7023H184.076V1.22021H186.287V16.5007H189.72V18.7023Z" fill="white"/>
<path d="M205.019 12.6666C205.019 10.6049 202.398 8.39402 198.638 8.39402C195.989 8.39402 192.304 10.6049 192.304 12.6666C192.304 14.2898 192.351 14.9241 192.892 15.6145C193.722 16.6686 196.278 16.5473 198.61 16.5473C200.942 16.5473 203.601 16.7153 204.431 15.6145C204.972 14.9241 205.019 14.2898 205.019 12.6666ZM188.787 16.5007H191.026C190.485 15.9783 190.093 15.5118 190.093 13.4036C190.116 12.4438 190.345 11.5002 190.763 10.6361C191.182 9.77206 191.78 9.00756 192.519 8.39402H190.242L192.229 6.18311H199.422C203.844 6.18311 207.23 10.0172 207.23 13.4036C207.23 15.5118 206.838 15.9783 206.297 16.5007H208.536V18.7396H188.787V16.5007Z" fill="white"/>
<path d="M211.185 16.5007V1.22021H213.396V18.7023H207.743V16.5007H211.185Z" fill="white"/>
<path d="M218.602 1.22021H216.391V18.7023H218.602V1.22021Z" fill="white"/>
<path d="M237.464 2.33042C237.499 2.7191 237.382 3.10624 237.138 3.41079C236.894 3.71535 236.542 3.9137 236.155 3.96433C235.768 4.01496 235.376 3.91394 235.062 3.68242C234.748 3.45089 234.536 3.10682 234.469 2.72223C234.435 2.52158 234.441 2.31603 234.488 2.1179C234.535 1.91978 234.621 1.73316 234.742 1.56927C234.863 1.40537 235.016 1.26757 235.191 1.16414C235.366 1.06071 235.561 0.993776 235.763 0.967362C235.965 0.940948 236.17 0.955598 236.366 1.01043C236.562 1.06526 236.745 1.15915 236.904 1.28645C237.063 1.41376 237.194 1.57185 237.29 1.75125C237.387 1.93065 237.446 2.12764 237.464 2.33042ZM234.218 2.33042C234.245 2.5253 234.234 2.72371 234.185 2.91423C234.135 3.10476 234.049 3.28364 233.93 3.44057C233.811 3.5975 233.662 3.7294 233.492 3.82865C233.323 3.92791 233.135 3.99258 232.94 4.01892C232.541 4.07335 232.138 3.96732 231.817 3.72414C231.497 3.48096 231.287 3.12056 231.232 2.72223C231.178 2.32389 231.284 1.92025 231.527 1.60009C231.77 1.27994 232.131 1.0695 232.529 1.01507C232.726 0.988934 232.926 1.00206 233.118 1.0537C233.309 1.10534 233.489 1.19446 233.646 1.3159C233.803 1.43735 233.934 1.58872 234.032 1.76125C234.13 1.93379 234.193 2.12407 234.218 2.32109M228.993 12.6573C228.993 14.2805 228.844 14.9615 229.385 15.6519C230.216 16.706 232.109 16.4915 234.441 16.4915H239.47C241.335 16.4915 240.3 12.8999 240.3 12.8999C239.274 10.1013 238.266 8.38477 234.581 8.38477C231.932 8.38477 228.984 10.5957 228.984 12.6573M242.557 6.17386V16.5008H244.33V18.7397H230.244C229.11 18.4302 228.12 17.7338 227.445 16.7713C226.857 15.6892 226.811 15.5399 226.811 13.4316C226.811 10.0453 230.197 6.21118 234.619 6.21118C236.734 6.19039 238.772 7.00499 240.291 8.47806V6.14588L242.557 6.17386Z" fill="white"/>
<path d="M246.252 6.8733C246.084 6.69606 245.935 6.52814 245.935 5.83781C245.989 5.19105 246.283 4.58793 246.76 4.14752C247.236 3.70711 247.861 3.46143 248.51 3.45898C249.011 3.50437 249.502 3.62709 249.965 3.82281L249.638 4.48515C249.295 4.28464 248.907 4.17543 248.51 4.16797C247.651 4.16797 246.644 4.93293 246.644 5.61392C246.644 6.10835 246.644 6.35089 246.868 6.5468C247.138 6.91062 247.67 6.86398 248.435 6.86398H250.133L249.732 7.54497H245.898V6.8733H246.252ZM246.933 16.5006V9.62528H249.135V16.5006H251.933V18.7395H243.481V16.5006H246.933Z" fill="white"/>
<path d="M258.016 21.3895C258.043 21.5844 258.032 21.7828 257.983 21.9733C257.933 22.1639 257.847 22.3427 257.728 22.4997C257.609 22.6566 257.461 22.7885 257.291 22.8878C257.121 22.987 256.933 23.0517 256.738 23.078C256.441 23.1219 256.138 23.0763 255.867 22.9472C255.596 22.8182 255.37 22.6113 255.217 22.3532C255.064 22.095 254.991 21.7971 255.008 21.4975C255.025 21.1979 255.131 20.9102 255.312 20.6709C255.493 20.4316 255.741 20.2517 256.025 20.154C256.309 20.0564 256.615 20.0454 256.905 20.1224C257.195 20.1995 257.456 20.3612 257.653 20.5868C257.851 20.8125 257.977 21.0919 258.016 21.3895ZM254.779 21.3895C254.817 21.6857 254.766 21.9865 254.633 22.2539C254.5 22.5214 254.291 22.7434 254.032 22.8922C253.773 23.0409 253.476 23.1095 253.178 23.0895C252.88 23.0694 252.595 22.9615 252.358 22.7795C252.121 22.5974 251.944 22.3493 251.848 22.0665C251.752 21.7837 251.743 21.4788 251.82 21.1904C251.897 20.9019 252.058 20.6429 252.283 20.4459C252.507 20.2489 252.785 20.1228 253.081 20.0835C253.278 20.056 253.479 20.0682 253.672 20.1192C253.865 20.1702 254.045 20.2591 254.203 20.3806C254.361 20.5022 254.494 20.654 254.592 20.8272C254.691 21.0005 254.755 21.1916 254.779 21.3895ZM254.256 16.5013V9.62598H256.467V16.5013H259.266V18.7402H250.823V16.5013H254.256Z" fill="white"/>
<path d="M274.425 12.6669C274.425 10.7266 271.3 8.42236 268.828 8.42236V16.5011C271.281 16.5011 273.054 16.5757 273.809 15.5682C274.35 14.8779 274.406 14.2435 274.406 12.6203M266.617 8.51565C264.089 8.51565 261.682 10.9038 261.682 12.6203C261.682 14.3368 261.757 14.8592 262.27 15.5682C262.979 16.5011 266.617 16.5011 266.617 16.5011V8.51565ZM266.617 5.35321L268.828 4.3457V6.18347C273.222 6.18347 276.617 10.0176 276.617 13.4039C276.617 15.5122 276.216 15.9786 275.684 16.5011H277.914V18.74H258.184V16.5011H260.422C259.881 15.9786 259.49 15.5122 259.49 13.4039C259.49 10.5027 262.139 7.16298 266.635 6.35138L266.617 5.35321Z" fill="white"/>
<path d="M280.489 16.5007V1.22021H282.7V18.7023H277.047V16.5007H280.489Z" fill="white"/>
<path d="M287.904 1.22021H285.693V18.7023H287.904V1.22021Z" fill="white"/>
<path d="M10.2627 34.3374L8.49021 35.3916C8.27069 34.9483 7.95137 34.5619 7.55733 34.2628C7.18902 34.0517 6.76882 33.9483 6.3446 33.9643C5.79067 33.945 5.24915 34.1311 4.82401 34.4867C4.63317 34.6397 4.48008 34.8345 4.37655 35.0561C4.27303 35.2777 4.22185 35.5202 4.22697 35.7647C4.22697 36.4737 4.74938 37.0428 5.80353 37.4719L7.24949 38.0689C8.24942 38.418 9.14257 39.0188 9.84288 39.8134C10.3959 40.5378 10.6825 41.4305 10.6545 42.3415C10.6728 42.9557 10.5638 43.567 10.3342 44.137C10.1046 44.707 9.75943 45.2232 9.32047 45.6532C8.87713 46.0832 8.3528 46.421 7.77789 46.6468C7.20299 46.8726 6.58896 46.9819 5.97145 46.9685C4.82564 47.0114 3.70814 46.6066 2.85565 45.8398C1.9931 44.9947 1.44929 43.8775 1.31641 42.6773L3.53665 42.1922C3.5684 42.8055 3.75105 43.4016 4.06839 43.9274C4.29262 44.237 4.59153 44.4849 4.93731 44.648C5.28309 44.8111 5.66451 44.8841 6.04608 44.8602C6.36079 44.8703 6.67417 44.815 6.96642 44.6978C7.25866 44.5806 7.5234 44.404 7.74391 44.1792C7.96823 43.9487 8.14407 43.6756 8.26103 43.376C8.378 43.0763 8.43372 42.7563 8.42491 42.4348C8.42483 42.172 8.38391 41.9107 8.30363 41.6605C8.22651 41.4238 8.10281 41.2049 7.93981 41.0168C7.75096 40.8026 7.53451 40.6144 7.29613 40.4571C6.9975 40.27 6.68573 40.1047 6.36326 39.9627L4.94529 39.4216C2.96137 38.582 1.96942 37.3382 1.96942 35.6901C1.96204 35.1694 2.07132 34.6536 2.28924 34.1807C2.50717 33.7077 2.8282 33.2895 3.2288 32.9568C4.09745 32.2244 5.20943 31.8448 6.3446 31.8933C7.1611 31.8926 7.96136 32.1214 8.65412 32.5535C9.34688 32.9857 9.90425 33.6038 10.2627 34.3374Z" fill="white"/>
<path d="M15.3658 42.0615C15.3303 42.8367 15.5829 43.5976 16.0747 44.1978C16.2943 44.4667 16.5722 44.6821 16.8874 44.8275C17.2026 44.973 17.5468 45.0448 17.8938 45.0374C18.244 45.044 18.5915 44.9759 18.9133 44.8375C19.235 44.6992 19.5235 44.4938 19.7596 44.2351C20.2316 43.6266 20.4878 42.8783 20.4878 42.1082C20.4878 41.338 20.2316 40.5897 19.7596 39.9812C19.5272 39.7167 19.2398 39.5062 18.9175 39.3644C18.5952 39.2225 18.2459 39.1529 17.8938 39.1603C17.548 39.1551 17.2054 39.227 16.8908 39.3705C16.5762 39.5141 16.2974 39.7259 16.0747 39.9905C15.5903 40.5694 15.3377 41.3072 15.3658 42.0615ZM20.4033 37.5277H22.5209V46.7259H20.4033V45.793C20.0109 46.1926 19.5405 46.5073 19.0214 46.7175C18.5023 46.9277 17.9455 47.029 17.3857 47.015C16.8258 47.001 16.2748 46.8721 15.7668 46.6362C15.2588 46.4003 14.8048 46.0625 14.4329 45.6437C13.578 44.6519 13.1371 43.3694 13.2015 42.0615C13.1585 40.8019 13.5991 39.5736 14.4329 38.6285C14.8139 38.1849 15.2883 37.8311 15.8222 37.5924C16.356 37.3537 16.936 37.2361 17.5207 37.2479C18.0678 37.2561 18.607 37.3791 19.1036 37.6089C19.6001 37.8387 20.0429 38.1702 20.4033 38.5819V37.5277Z" fill="white"/>
<path d="M28.8456 37.5557V42.7984C28.8456 44.3097 29.4426 45.0653 30.646 45.0653C31.8494 45.0653 32.4558 44.3097 32.4558 42.7984V37.5557H34.5734V42.8544C34.5818 43.4867 34.4905 44.1163 34.3029 44.7201C34.1034 45.2199 33.7829 45.6623 33.37 46.0075C32.6035 46.6485 31.6257 46.981 30.6274 46.9404C29.6349 46.979 28.6637 46.6464 27.9034 46.0075C27.4893 45.6634 27.1685 45.2207 26.9705 44.7201C26.7694 44.1196 26.6809 43.4871 26.7093 42.8544V37.5557H28.8456Z" fill="white"/>
<path d="M40.1153 42.0612C40.0808 42.8347 40.3296 43.5942 40.815 44.1974C41.0408 44.4711 41.3265 44.6891 41.65 44.8347C41.9735 44.9803 42.3262 45.0495 42.6807 45.037C43.0312 45.0461 43.3795 44.9791 43.7016 44.8406C44.0237 44.7021 44.312 44.4954 44.5465 44.2348C45.0185 43.6262 45.2747 42.878 45.2747 42.1078C45.2747 41.3377 45.0185 40.5894 44.5465 39.9809C44.3128 39.7166 44.0256 39.505 43.7039 39.3601C43.3823 39.2152 43.0335 39.1402 42.6807 39.1402C42.328 39.1402 41.9792 39.2152 41.6576 39.3601C41.3359 39.505 41.0487 39.7166 40.815 39.9809C40.3349 40.5652 40.0859 41.3054 40.1153 42.0612ZM45.1435 30.7827H47.2985V46.7255H45.1435V45.7927C44.781 46.1712 44.347 46.4742 43.8666 46.684C43.3862 46.8937 42.869 47.0061 42.3449 47.0147C41.7554 47.0287 41.17 46.9131 40.63 46.6762C40.09 46.4393 39.6086 46.0867 39.2198 45.6434C38.3548 44.6564 37.9066 43.3721 37.9697 42.0612C37.9269 40.8027 38.3714 39.5763 39.2105 38.6375C39.5762 38.2065 40.0302 37.8591 40.5419 37.6188C41.0535 37.3785 41.6109 37.251 42.1761 37.2448C42.7413 37.2386 43.3013 37.3539 43.8181 37.5829C44.3349 37.8119 44.7964 38.1493 45.1715 38.5722L45.1435 30.7827Z" fill="white"/>
<path d="M53.3342 46.726H51.2166V37.5558H53.3342V46.726ZM50.8994 33.759C50.8994 33.3953 51.0439 33.0465 51.3011 32.7893C51.5582 32.5322 51.907 32.3877 52.2707 32.3877C52.6344 32.3877 52.9832 32.5322 53.2404 32.7893C53.4976 33.0465 53.6421 33.3953 53.6421 33.759C53.6366 34.1107 53.4924 34.446 53.2409 34.6919C53.1211 34.8189 52.9765 34.9201 52.816 34.9891C52.6556 35.0581 52.4827 35.0935 52.3081 35.093C52.1256 35.0943 51.9447 35.0591 51.7761 34.9896C51.6074 34.9201 51.4542 34.8176 51.3257 34.6881C51.1971 34.5587 51.0956 34.4049 51.0272 34.2357C50.9589 34.0666 50.9249 33.8855 50.9274 33.703" fill="white"/>
<path d="M72.0374 34.2536H66.9719V37.7239H71.8508V39.7949H66.9719V46.7075H64.8076V32.1826H72.0374V34.2536Z" fill="white"/>
<path d="M77.4208 42.0616C77.378 42.8539 77.6419 43.6323 78.1577 44.2352C78.6899 44.7488 79.4005 45.0358 80.1401 45.0358C80.8796 45.0358 81.5903 44.7488 82.1224 44.2352C82.6061 43.63 82.8696 42.8783 82.8696 42.1036C82.8696 41.3289 82.6061 40.5772 82.1224 39.972C81.8687 39.7022 81.56 39.4901 81.2172 39.3501C80.8744 39.2101 80.5054 39.1454 80.1354 39.1604C79.7698 39.1476 79.4057 39.2134 79.0678 39.3535C78.7298 39.4935 78.4258 39.7044 78.1764 39.972C77.6607 40.5428 77.3894 41.293 77.4208 42.0616ZM75.2845 42.0616C75.2724 41.431 75.3923 40.8048 75.6365 40.2232C75.8807 39.6417 76.2437 39.1176 76.7024 38.6846C77.6348 37.7835 78.8807 37.2798 80.1774 37.2798C81.4741 37.2798 82.72 37.7835 83.6524 38.6846C84.5587 39.6029 85.067 40.8413 85.067 42.1316C85.067 43.4219 84.5587 44.6602 83.6524 45.5786C83.1877 46.0314 82.6372 46.3868 82.0332 46.6239C81.4293 46.861 80.784 46.975 80.1354 46.9592C79.4941 46.9744 78.8566 46.8571 78.2627 46.6147C77.6689 46.3723 77.1313 46.0101 76.6838 45.5506C76.2267 45.0939 75.867 44.5492 75.6265 43.9495C75.3859 43.3498 75.2696 42.7076 75.2845 42.0616Z" fill="white"/>
<path d="M90.1538 42.0616C90.1111 42.8539 90.375 43.6323 90.8908 44.2352C91.4229 44.7488 92.1336 45.0358 92.8731 45.0358C93.6127 45.0358 94.3234 44.7488 94.8555 44.2352C95.3392 43.63 95.6027 42.8783 95.6027 42.1036C95.6027 41.3289 95.3392 40.5772 94.8555 39.972C94.6018 39.7022 94.2931 39.4901 93.9502 39.3501C93.6074 39.2101 93.2385 39.1454 92.8685 39.1604C92.5029 39.1476 92.1388 39.2134 91.8008 39.3535C91.4629 39.4935 91.1589 39.7044 90.9094 39.972C90.3938 40.5428 90.1225 41.293 90.1538 42.0616ZM87.9895 42.0616C87.9797 41.4313 88.1007 40.8058 88.3447 40.2246C88.5888 39.6433 88.9507 39.119 89.4075 38.6846C90.3399 37.7835 91.5858 37.2798 92.8825 37.2798C94.1791 37.2798 95.4251 37.7835 96.3574 38.6846C97.2638 39.6029 97.772 40.8413 97.772 42.1316C97.772 43.4219 97.2638 44.6602 96.3574 45.5786C95.8927 46.0314 95.3423 46.3868 94.7383 46.6239C94.1344 46.861 93.4891 46.975 92.8405 46.9592C92.1992 46.9744 91.5617 46.8571 90.9678 46.6147C90.3739 46.3723 89.8364 46.0101 89.3889 45.5506C88.9318 45.0939 88.5721 44.5492 88.3315 43.9495C88.091 43.3498 87.9747 42.7076 87.9895 42.0616Z" fill="white"/>
<path d="M103.271 42.0612C103.236 42.8347 103.485 43.5942 103.97 44.1974C104.196 44.4711 104.482 44.6891 104.805 44.8347C105.129 44.9803 105.481 45.0495 105.836 45.037C106.186 45.0437 106.534 44.9755 106.855 44.8372C107.177 44.6988 107.466 44.4935 107.702 44.2348C108.168 43.6236 108.42 42.8764 108.42 42.1078C108.42 41.3393 108.168 40.592 107.702 39.9809C107.469 39.7163 107.182 39.5058 106.86 39.364C106.537 39.2222 106.188 39.1525 105.836 39.1599C105.483 39.1498 105.132 39.2191 104.809 39.3628C104.486 39.5065 104.199 39.7209 103.97 39.9902C103.488 40.5699 103.239 41.308 103.271 42.0612ZM108.299 30.7827H110.416V46.7255H108.308V45.7927C107.946 46.1713 107.512 46.4742 107.031 46.684C106.551 46.8937 106.034 47.0061 105.509 47.0147C104.909 47.0299 104.312 46.9104 103.763 46.6651C103.214 46.4197 102.727 46.0547 102.338 45.5968C101.491 44.6187 101.05 43.3537 101.106 42.0612C101.071 40.8168 101.511 39.6056 102.338 38.6748C102.703 38.2438 103.158 37.8964 103.669 37.6561C104.181 37.4158 104.738 37.2883 105.303 37.2821C105.869 37.2759 106.429 37.3912 106.945 37.6202C107.462 37.8492 107.924 38.1866 108.299 38.6095V30.7827Z" fill="white"/>
<path d="M125.808 37.0704L125.995 36.9398C126.302 36.7066 126.554 36.5013 126.75 36.3334C126.908 36.2024 127.052 36.0555 127.179 35.895C127.377 35.6534 127.479 35.3484 127.469 35.0367C127.474 34.8622 127.442 34.6885 127.375 34.5275C127.307 34.3665 127.205 34.222 127.077 34.1039C126.793 33.8578 126.426 33.7307 126.051 33.7494C125.683 33.7377 125.326 33.868 125.052 34.1132C124.917 34.2265 124.811 34.37 124.741 34.532C124.671 34.694 124.641 34.87 124.651 35.0461C124.666 35.5121 124.844 35.9582 125.155 36.3054L125.696 36.9678L125.808 37.1077M125.351 39.9063L125.23 39.9903C124.553 40.4185 123.927 40.9224 123.364 41.4922C123.069 41.8213 122.9 42.2445 122.888 42.6863C122.916 43.3084 123.175 43.8977 123.615 44.338C124.056 44.7783 124.645 45.0377 125.267 45.0651C126.116 45.0651 127.086 44.5054 128.196 43.4046L125.351 39.9063ZM127.086 38.6656L129.707 41.8281L129.791 41.7348C130.071 41.4269 130.342 41.1284 130.594 40.8019C130.846 40.4754 131.088 40.2142 131.312 39.869L132.749 41.3336C132.571 41.5855 132.338 41.8747 132.049 42.2105C131.76 42.5464 131.424 42.9195 131.032 43.358L133.728 46.7256H130.995L129.549 44.9439C129.036 45.5572 128.401 46.0577 127.685 46.4141C126.969 46.7705 126.187 46.975 125.388 47.0148C124.18 47.0472 123.006 46.6091 122.114 45.7928C121.69 45.4034 121.353 44.9285 121.127 44.3994C120.9 43.8703 120.788 43.2991 120.799 42.7236C120.799 41.9896 120.989 41.2681 121.35 40.6291C121.712 39.9901 122.232 39.4551 122.86 39.0761L123.793 38.4324H123.849L123.989 38.3204C123.134 37.538 122.616 36.4546 122.543 35.2979C122.524 34.8569 122.598 34.4169 122.758 34.0057C122.919 33.5946 123.163 33.2213 123.476 32.9098C124.176 32.3221 125.062 32 125.976 32C126.89 32 127.776 32.3221 128.476 32.9098C128.785 33.1968 129.028 33.5471 129.189 33.9367C129.35 34.3263 129.425 34.7461 129.409 35.1673C129.414 35.7794 129.225 36.3773 128.868 36.8745C128.326 37.5871 127.681 38.2157 126.955 38.7402" fill="white"/>
<path d="M145.884 44.636H146.872C147.705 44.6587 148.536 44.5517 149.335 44.3188C150.349 43.9791 151.226 43.3203 151.835 42.4409C152.444 41.5615 152.751 40.5087 152.712 39.4399C152.739 38.7185 152.609 37.9999 152.332 37.3334C152.055 36.6668 151.638 36.0679 151.108 35.5778C149.905 34.6126 148.382 34.1392 146.844 34.2531H145.856L145.884 44.636ZM143.71 46.7256V32.1821H146.76C147.932 32.1463 149.103 32.291 150.231 32.6112C151.156 32.9013 152.004 33.3955 152.712 34.0572C153.457 34.7362 154.045 35.5696 154.435 36.4993C154.825 37.4289 155.008 38.4325 154.97 39.4399C155.001 40.9462 154.552 42.4233 153.686 43.6565C152.82 44.8896 151.584 45.8144 150.156 46.2965C149.043 46.6093 147.888 46.7478 146.732 46.7069L143.71 46.7256Z" fill="white"/>
<path d="M158.45 37.5553H160.568V38.3296C160.863 37.9956 161.213 37.7147 161.603 37.4993C161.94 37.3235 162.315 37.2368 162.695 37.2475C163.315 37.2693 163.918 37.4596 164.439 37.7979L163.506 39.7382C163.171 39.4713 162.759 39.3178 162.331 39.2998C161.184 39.2998 160.605 40.1767 160.605 41.9212V46.7255H158.488L158.45 37.5553Z" fill="white"/>
<path d="M169.607 37.5557V42.7984C169.607 44.3097 170.204 45.0653 171.407 45.0653C172.611 45.0653 173.217 44.3097 173.217 42.7984V37.5557H175.335V42.8544C175.343 43.4867 175.252 44.1163 175.064 44.7201C174.865 45.2199 174.544 45.6623 174.131 46.0075C173.349 46.6127 172.387 46.941 171.398 46.941C170.409 46.941 169.447 46.6127 168.665 46.0075C168.251 45.6634 167.93 45.2207 167.732 44.7201C167.527 44.1203 167.435 43.4877 167.461 42.8544V37.5557H169.607Z" fill="white"/>
<path d="M185.849 42.1365C185.887 41.3623 185.63 40.6024 185.131 40.0096C184.9 39.7435 184.613 39.532 184.29 39.39C183.967 39.2481 183.617 39.1793 183.265 39.1886C182.902 39.1849 182.544 39.2676 182.22 39.4298C181.895 39.592 181.614 39.8291 181.399 40.1215C180.996 40.7318 180.781 41.4471 180.781 42.1785C180.781 42.9099 180.996 43.6252 181.399 44.2355C181.621 44.5159 181.905 44.7404 182.229 44.8911C182.553 45.0418 182.908 45.1144 183.265 45.1031C183.632 45.1192 183.997 45.0481 184.331 44.8957C184.665 44.7432 184.959 44.5138 185.187 44.2262C185.641 43.641 185.872 42.9137 185.84 42.1738M187.864 46.5304C187.864 46.9688 187.864 47.342 187.818 47.6778C187.771 48.0136 187.752 48.2935 187.706 48.5454C187.553 49.2067 187.231 49.8173 186.773 50.3178C186.348 50.7981 185.82 51.1767 185.229 51.4254C184.638 51.6741 183.999 51.7866 183.358 51.7544C182.265 51.7972 181.193 51.4464 180.336 50.7656C179.926 50.4162 179.59 49.9889 179.346 49.5085C179.103 49.0281 178.957 48.5041 178.918 47.967H181.045C181.1 48.3421 181.24 48.6996 181.455 49.0118C181.683 49.299 181.976 49.5269 182.311 49.6764C182.646 49.8258 183.011 49.8922 183.377 49.87C184.926 49.87 185.7 48.9185 185.7 47.0154V45.6814C185.33 46.0859 184.881 46.4092 184.38 46.6308C183.879 46.8524 183.337 46.9675 182.789 46.9688C182.217 46.9783 181.65 46.8621 181.128 46.6284C180.605 46.3946 180.141 46.0491 179.767 45.6161C178.95 44.6626 178.521 43.4377 178.563 42.1832C178.529 40.9525 178.925 39.7483 179.683 38.7782C180.058 38.2967 180.542 37.9106 181.095 37.6512C181.648 37.3918 182.254 37.2666 182.864 37.2856C183.411 37.2787 183.952 37.3922 184.451 37.6179C184.949 37.8436 185.391 38.176 185.747 38.5916V37.5561H187.864V46.5304Z" fill="white"/>
<path d="M207.108 41.1285L204.953 36.175L202.696 41.1285H207.108ZM208.041 43.1995H201.782L200.168 46.7258H197.808L204.953 31.2681L211.922 46.7258H209.525L208.041 43.1995Z" fill="white"/>
<path d="M216.578 37.5557V42.7984C216.578 44.3097 217.184 45.0653 218.387 45.0653C219.591 45.0653 220.197 44.3097 220.197 42.7984V37.5557H222.315V42.8544C222.325 43.4875 222.23 44.1179 222.035 44.7201C221.839 45.2217 221.517 45.6648 221.102 46.0075C220.319 46.6127 219.358 46.941 218.369 46.941C217.379 46.941 216.418 46.6127 215.635 46.0075C215.224 45.6608 214.904 45.2188 214.702 44.7201C214.506 44.1185 214.418 43.4868 214.441 42.8544V37.5557H216.578Z" fill="white"/>
<path d="M228.816 39.5241V46.7072H226.699V39.5241H225.794V37.5557H226.699V34.1787H228.816V37.5557H230.468V39.5241H228.816Z" fill="white"/>
<path d="M233.314 30.8105H235.432V38.2735C236.107 37.6367 236.995 37.2741 237.923 37.2567C238.39 37.2442 238.853 37.3338 239.282 37.5191C239.711 37.7043 240.094 37.9809 240.404 38.3295C241.002 39.1339 241.284 40.1297 241.197 41.1281V46.7254H239.08V41.2774C239.125 40.7173 238.987 40.1577 238.688 39.6822C238.53 39.5082 238.335 39.373 238.116 39.2872C237.898 39.2014 237.662 39.1674 237.428 39.1878C237.13 39.1593 236.829 39.2078 236.555 39.3286C236.28 39.4495 236.042 39.6387 235.861 39.8781C235.507 40.6215 235.356 41.4454 235.423 42.2662V46.7254H233.314V30.8105Z" fill="white"/>
<path d="M246.635 42.0617C246.593 42.8523 246.853 43.6291 247.362 44.2353C247.618 44.5019 247.927 44.7113 248.27 44.8496C248.612 44.9879 248.98 45.052 249.349 45.0376C249.719 45.0556 250.088 44.9933 250.431 44.8547C250.774 44.7162 251.083 44.5049 251.336 44.2353C251.814 43.6273 252.073 42.8767 252.073 42.1037C252.073 41.3307 251.814 40.5801 251.336 39.9721C251.083 39.7023 250.774 39.4903 250.431 39.3502C250.088 39.2102 249.719 39.1455 249.349 39.1605C248.984 39.1458 248.619 39.2108 248.281 39.351C247.942 39.4911 247.639 39.703 247.39 39.9721C246.875 40.5429 246.603 41.2931 246.635 42.0617ZM244.47 42.0617C244.458 41.4311 244.578 40.8049 244.822 40.2233C245.067 39.6418 245.43 39.1177 245.888 38.6847C246.819 37.7842 248.064 37.2808 249.359 37.2808C250.654 37.2808 251.898 37.7842 252.829 38.6847C253.74 39.6007 254.251 40.8399 254.251 42.1317C254.251 43.4235 253.74 44.6627 252.829 45.5787C252.367 46.0321 251.818 46.3879 251.215 46.6251C250.613 46.8623 249.969 46.9759 249.321 46.9593C248.68 46.9745 248.043 46.8572 247.449 46.6148C246.855 46.3725 246.317 46.0102 245.87 45.5507C245.411 45.0953 245.05 44.5509 244.809 43.9509C244.569 43.3509 244.453 42.708 244.47 42.0617Z" fill="white"/>
<path d="M257.765 37.5556H259.882V38.3299C260.181 38.0001 260.531 37.7199 260.918 37.4996C261.255 37.3249 261.63 37.2383 262.009 37.2478C262.63 37.2682 263.234 37.4586 263.754 37.7982L262.821 39.7385C262.485 39.4716 262.074 39.3181 261.645 39.3001C260.489 39.3001 259.91 40.177 259.91 41.9215V46.7258H257.793L257.765 37.5556Z" fill="white"/>
<path d="M268.661 46.7262H266.525V37.556H268.642L268.661 46.7262ZM266.235 33.7592C266.238 33.3987 266.382 33.0537 266.637 32.7988C266.892 32.5439 267.237 32.3997 267.597 32.3972C267.779 32.3937 267.96 32.4275 268.129 32.4965C268.297 32.5655 268.45 32.6682 268.577 32.7984C268.703 32.9189 268.804 33.0636 268.873 33.2239C268.941 33.3842 268.977 33.5567 268.978 33.7312C268.973 34.0829 268.828 34.4182 268.577 34.6641C268.456 34.7903 268.312 34.8909 268.151 34.9598C267.991 35.0287 267.818 35.0646 267.644 35.0652C267.47 35.0641 267.297 35.0279 267.137 34.9591C266.977 34.8902 266.832 34.7899 266.711 34.6641C266.58 34.5358 266.476 34.3817 266.407 34.2115C266.338 34.0414 266.305 33.8588 266.31 33.6753" fill="white"/>
<path d="M274.687 39.5241V46.7072H272.569V39.5241H271.664V37.5557H272.569V34.1787H274.687V37.5557H276.338V39.5241H274.687Z" fill="white"/>
<path d="M282.336 45.0093L278.213 37.5557H280.666L283.474 42.8171L286.086 37.5557H288.475L281.179 51.6887H278.763L282.336 45.0093Z" fill="white"/>
<path d="M287.671 27.1821H0.700195V27.8538H287.671V27.1821Z" fill="white"/>
</svg>
