<?xml version="1.0" standalone="no"?>
<!DOCTYPE svg PUBLIC "-//W3C//DTD SVG 20010904//EN"
 "http://www.w3.org/TR/2001/REC-SVG-20010904/DTD/svg10.dtd">
<svg version="1.0" xmlns="http://www.w3.org/2000/svg"
 width="382.000000pt" height="382.000000pt" viewBox="0 0 382.000000 382.000000"
 preserveAspectRatio="xMidYMid meet">
<metadata>
Created by potrace 1.14, written by Peter Selinger 2001-2017
</metadata>
<g transform="translate(0.000000,382.000000) scale(0.100000,-0.100000)"
fill="#000000" stroke="none">
<path d="M1885 3553 c-74 -22 -104 -31 -130 -36 -5 -2 -14 -5 -20 -8 -8 -5
-45 -14 -95 -23 -3 -1 -9 -4 -15 -7 -5 -4 -26 -10 -45 -15 -19 -4 -39 -9 -45
-10 -5 -2 -18 -5 -27 -7 -10 -2 -20 -6 -24 -9 -3 -4 -12 -4 -20 -1 -8 3 -14
-1 -14 -8 0 -7 -3 -10 -6 -6 -3 3 -24 -1 -47 -9 -22 -8 -54 -17 -71 -20 -17
-3 -35 -10 -41 -15 -13 -13 -15 -100 -3 -116 5 -6 32 -16 61 -23 29 -6 61 -15
72 -19 11 -5 40 -14 65 -22 l45 -14 3 -72 c2 -40 6 -73 10 -73 298 -12 322
-13 322 -20 0 -3 19 -6 42 -7 24 -2 44 -7 46 -13 2 -6 9 -7 15 -3 6 3 22 7 36
9 14 1 42 5 61 8 70 12 117 16 240 20 l125 4 1 34 c0 19 4 40 8 46 4 7 3 12
-2 12 -5 0 -7 13 -4 28 3 26 -1 30 -55 54 -66 29 -94 40 -108 43 -95 24 -152
35 -176 35 -16 0 -29 5 -29 11 0 10 62 5 81 -7 5 -3 9 0 9 7 0 8 4 8 13 2 6
-6 31 -13 54 -17 47 -7 128 -31 155 -46 10 -6 25 -10 33 -10 8 0 15 -4 15 -8
0 -5 6 -10 13 -11 52 -7 74 -7 85 2 6 5 12 7 12 3 0 -3 11 -1 25 4 14 5 36 12
48 14 35 8 200 55 217 63 8 3 19 5 24 4 14 -3 46 10 46 18 0 5 -15 12 -32 16
-41 9 -40 9 -113 30 -97 27 -129 36 -145 40 -8 2 -16 4 -17 5 -3 3 -6 3 -48
14 -50 13 -237 66 -290 82 -28 8 -64 17 -80 20 -15 3 -35 9 -44 13 -9 5 -18 9
-21 9 -3 0 -25 6 -50 12 -68 19 -79 19 -165 -7z m145 -251 c0 -5 -13 -7 -30
-4 -16 2 -30 6 -30 8 0 2 14 4 30 4 17 0 30 -4 30 -8z"/>
<path d="M1181 3355 c-24 -8 -47 -13 -50 -13 -13 3 -61 -15 -61 -21 0 -6 74
-29 116 -37 45 -8 52 -15 50 -52 -1 -20 -7 -47 -14 -59 -14 -26 -16 -63 -3
-63 6 0 7 -10 4 -22 -15 -63 -18 -133 -16 -348 1 -129 3 -240 4 -245 1 -6 20
-9 41 -7 l38 4 0 72 c2 227 -1 444 -5 466 -3 14 -7 36 -10 49 -2 13 0 31 5 41
6 11 3 26 -9 46 -15 24 -18 48 -16 117 2 98 4 96 -74 72z"/>
<path d="M1571 3008 c-18 -5 -30 -12 -27 -15 3 -4 0 -13 -8 -22 -26 -31 -50
-115 -51 -178 0 -35 -3 -63 -7 -63 -3 0 0 -21 8 -47 8 -27 15 -50 16 -53 6
-34 35 -88 61 -117 11 -13 17 -23 14 -23 -15 0 77 -78 129 -110 106 -64 237
-87 374 -66 39 6 106 28 116 39 4 4 14 7 21 7 17 0 119 77 150 114 22 25 76
106 78 116 1 3 8 28 17 55 18 59 17 182 -2 239 -7 22 -22 58 -34 80 l-21 41
-138 0 c-75 0 -137 -3 -137 -6 0 -3 -15 -6 -33 -7 -19 -1 -45 -5 -58 -10 -33
-12 -98 -8 -203 14 -11 2 -66 7 -121 10 -55 3 -102 7 -105 8 -3 2 -20 -1 -39
-6z"/>
<path d="M1456 2420 c-32 -17 -78 -44 -102 -61 -24 -16 -44 -27 -44 -24 0 3
-13 -8 -30 -25 -16 -17 -30 -28 -30 -25 0 10 -173 -166 -211 -215 -46 -58
-119 -172 -118 -184 0 -5 -5 -12 -13 -17 -7 -5 -13 -12 -14 -16 0 -4 -18 -44
-38 -88 -21 -44 -40 -87 -41 -95 -2 -8 -4 -17 -5 -20 -1 -3 -2 -8 -1 -12 0 -5
-4 -8 -11 -8 -6 0 -9 -3 -6 -6 4 -3 0 -21 -8 -40 -8 -19 -12 -34 -9 -34 3 0 1
-8 -4 -19 -6 -10 -13 -33 -16 -52 -3 -19 -11 -54 -17 -79 -6 -25 -11 -54 -12
-65 -1 -11 -5 -26 -9 -32 -5 -8 -3 -13 3 -13 6 0 9 -4 6 -9 -15 -24 -23 -280
-12 -366 3 -16 7 -52 11 -80 14 -117 20 -129 48 -111 12 8 34 13 50 12 15 -1
27 2 27 7 0 4 3 6 8 4 12 -7 54 12 48 22 -8 12 -8 131 -1 216 9 97 10 109 17
120 3 6 5 22 4 38 -1 15 1 27 5 27 3 0 6 6 6 13 0 23 44 169 62 211 11 22 20
44 20 48 2 17 77 147 124 218 46 67 172 203 237 255 70 55 242 149 254 138 3
-4 6 -1 6 6 0 7 5 9 10 6 6 -3 10 -1 10 6 0 7 3 10 6 6 3 -3 24 1 47 9 70 25
149 36 252 37 73 1 139 -5 206 -18 96 -18 276 -96 339 -147 19 -15 41 -28 48
-28 7 0 10 -4 7 -10 -3 -5 0 -10 7 -10 16 0 122 -102 175 -168 21 -26 40 -49
43 -52 3 -3 21 -30 40 -60 19 -30 38 -58 43 -61 5 -3 9 -10 9 -15 1 -13 11
-38 18 -44 7 -6 60 -131 64 -150 1 -3 5 -11 9 -17 5 -7 5 -13 1 -13 -3 0 -2
-6 3 -12 8 -10 25 -64 24 -75 0 -2 5 -17 11 -35 5 -18 12 -49 14 -68 8 -61 12
-85 14 -85 3 0 11 -136 13 -229 2 -77 3 -80 27 -82 14 -1 47 -7 74 -13 27 -7
50 -10 53 -8 5 5 12 40 19 92 10 69 12 84 18 94 4 5 2 12 -4 16 -6 4 -7 13 -1
23 5 9 7 32 6 50 -2 19 2 32 9 32 7 0 6 4 -2 9 -17 11 -17 21 0 32 7 5 8 9 3
9 -6 0 -10 23 -8 57 1 31 -2 65 -8 74 -6 12 -5 20 1 24 6 4 8 10 5 15 -2 4 -7
25 -11 46 -3 22 -7 50 -10 64 -3 14 -7 36 -9 50 -7 42 -13 64 -23 91 -6 15 -8
29 -6 32 3 3 -2 19 -10 36 -9 17 -16 32 -15 33 3 5 -11 50 -26 83 -56 129 -70
160 -77 163 -4 2 -8 8 -8 14 0 6 -18 37 -40 70 -22 33 -40 64 -40 69 0 5 -4 9
-10 9 -5 0 -10 5 -10 11 0 6 -6 16 -12 23 -7 7 -26 30 -42 50 -38 49 -133 143
-181 181 -21 17 -43 35 -49 40 -22 20 -121 80 -128 78 -5 -2 -8 1 -8 5 0 5
-23 19 -50 32 -50 23 -50 23 -69 4 -49 -52 -178 -141 -188 -130 -3 3 -15 0
-27 -6 -11 -7 -23 -13 -26 -14 -3 0 -12 -3 -20 -6 -45 -18 -99 -25 -109 -15
-8 8 -11 8 -11 0 0 -12 -149 -11 -167 0 -6 4 -25 9 -44 12 -67 11 -197 83
-251 138 -21 20 -41 37 -45 37 -5 0 -35 -14 -67 -30z"/>
<path d="M1689 1812 c-6 -15 -6 -29 0 -36 9 -11 11 -17 11 -37 0 -6 14 -9 33
-7 17 2 30 5 28 8 -2 3 1 15 7 27 8 15 9 30 2 47 -13 35 -67 34 -81 -2z"/>
<path d="M1819 1824 c-16 -20 -20 -42 -8 -50 5 -3 9 -18 9 -33 0 -27 0 -27
-65 -26 l-65 2 -1 -36 c-1 -20 -2 -59 -3 -88 -1 -28 -4 -54 -6 -57 -3 -2 -4
-36 -4 -75 1 -49 -2 -69 -10 -64 -8 5 -8 3 0 -8 5 -8 9 -25 7 -39 -2 -14 -4
-50 -6 -80 -1 -30 -6 -60 -10 -67 -4 -6 -3 -14 2 -17 5 -4 6 -19 3 -34 -4 -15
-7 -66 -7 -114 0 -49 -2 -88 -5 -88 -3 0 -5 -26 -5 -58 1 -31 -3 -63 -8 -69
-6 -8 -5 -13 2 -13 13 0 10 -22 -4 -32 -6 -5 -5 -8 4 -8 11 0 11 -3 1 -15 -10
-12 -10 -18 0 -30 7 -8 16 -12 21 -9 5 3 9 0 9 -5 0 -6 6 -11 14 -11 8 0 44
-16 80 -35 l66 -35 1 33 c3 157 7 312 9 312 1 0 3 12 4 27 2 23 66 124 66 104
0 -4 10 3 23 16 34 36 58 33 105 -12 59 -57 72 -88 76 -179 2 -43 6 -83 10
-89 3 -6 2 -13 -4 -17 -7 -4 -7 -12 0 -26 8 -14 7 -19 -2 -19 -8 0 -9 -3 -3
-8 12 -8 14 -102 2 -102 -4 0 -3 -9 3 -20 11 -20 12 -20 38 -2 15 10 57 31 94
47 54 24 65 32 63 49 -2 12 -6 89 -10 171 -3 83 -8 182 -10 220 -5 67 -8 123
-21 385 -5 118 -10 185 -14 185 -7 0 -7 42 2 65 14 40 -4 70 -42 70 -17 0 -30
-4 -30 -9 0 -5 -7 -17 -16 -25 -8 -9 -11 -16 -6 -16 6 0 13 -13 17 -30 4 -16
13 -30 21 -30 8 0 14 -3 14 -8 0 -4 -88 -7 -195 -7 -107 -1 -195 3 -195 7 0 4
14 8 31 8 26 0 31 3 26 20 -3 11 -1 20 5 20 12 0 6 53 -7 62 -17 13 -52 9 -66
-8z m431 -98 c0 -3 -4 -8 -10 -11 -5 -3 -10 -1 -10 4 0 6 5 11 10 11 6 0 10
-2 10 -4z"/>
<path d="M1940 1823 c0 -7 -5 -13 -10 -13 -7 0 -7 -6 -2 -17 5 -10 7 -24 5
-30 -3 -7 0 -13 6 -13 6 0 10 -3 9 -7 -2 -5 0 -9 5 -10 4 -2 18 -3 32 -3 18 0
25 5 25 19 0 11 5 23 10 26 7 4 7 12 0 24 -5 10 -7 21 -3 24 6 7 -33 16 -59
15 -10 -1 -18 -7 -18 -15z"/>
<path d="M2059 1821 c-12 -13 -14 -23 -7 -36 9 -14 14 -33 17 -56 1 -3 14 -4
30 -1 22 3 31 11 39 39 7 22 8 43 2 52 -12 24 -62 25 -81 2z"/>
<path d="M1313 1436 c-20 -19 -21 -24 -8 -59 14 -40 25 -58 25 -40 0 6 9 9 20
6 15 -4 22 2 31 23 23 61 -26 111 -68 70z"/>
<path d="M1181 1428 c-16 -26 8 -101 29 -92 8 4 20 7 26 7 19 1 37 63 24 87
-14 25 -63 24 -79 -2z"/>
<path d="M1433 1438 c-16 -20 -23 -48 -13 -48 5 0 10 -12 12 -27 2 -19 8 -27
18 -24 8 2 21 4 29 5 14 3 37 36 24 36 -4 0 -2 4 6 9 12 8 12 13 -3 35 -18 28
-57 35 -73 14z"/>
<path d="M1547 1426 c-11 -15 -12 -27 -6 -33 9 -9 15 -27 18 -54 1 -8 46 -3
60 5 6 4 8 13 5 20 -3 8 0 17 6 21 12 8 3 46 -14 57 -22 15 -54 8 -69 -16z"/>
<path d="M2324 1430 c-12 -27 -14 -50 -5 -50 5 0 11 -10 13 -22 2 -19 9 -23
32 -21 31 3 52 23 34 34 -7 4 -7 9 1 13 17 11 13 44 -7 55 -26 14 -60 10 -68
-9z"/>
<path d="M2445 1423 c-12 -18 -14 -28 -7 -31 7 -2 12 -14 12 -27 0 -19 6 -24
35 -27 29 -3 35 -1 35 14 0 30 1 33 15 41 12 6 10 12 -7 32 -28 33 -61 32 -83
-2z"/>
<path d="M2571 1431 c-12 -22 -4 -81 11 -81 5 0 7 -4 4 -8 -3 -5 9 -8 27 -7
24 1 32 6 32 21 0 10 3 24 7 30 8 12 -1 54 -11 55 -3 0 -18 3 -33 5 -19 3 -30
-1 -37 -15z"/>
<path d="M2695 1430 c-3 -11 -12 -20 -18 -20 -9 0 -9 -2 0 -8 7 -4 14 -18 16
-30 4 -28 12 -35 42 -37 20 0 27 5 32 25 3 14 10 31 16 38 6 8 6 12 -2 12 -6
0 -11 6 -11 14 0 30 -66 36 -75 6z"/>
<path d="M1198 1312 c-14 -3 -18 -14 -19 -50 -1 -26 -3 -74 -4 -107 -2 -33 -6
-124 -8 -202 -3 -78 -8 -147 -12 -153 -7 -12 -10 -11 85 -15 91 -3 177 -12
250 -27 30 -6 60 -11 65 -12 6 -1 16 -5 23 -9 6 -5 12 -7 13 -5 0 2 3 14 5 27
2 14 6 27 9 29 2 2 0 15 -5 28 -5 13 -6 24 -1 24 5 0 8 18 7 40 -1 22 0 40 3
40 4 0 6 48 6 106 0 58 2 107 5 109 3 2 5 43 5 91 l0 88 -205 1 c-113 0 -213
-1 -222 -3z"/>
<path d="M2335 1305 c-11 -37 -12 -56 -4 -61 6 -3 5 -11 -2 -20 -6 -8 -8 -14
-3 -14 5 0 9 -26 8 -58 0 -31 2 -61 5 -67 9 -18 10 -35 0 -35 -5 0 -4 -11 1
-26 13 -32 13 -37 -1 -28 -8 4 -8 1 -1 -12 5 -11 9 -45 8 -77 0 -31 1 -57 4
-57 3 0 5 -25 5 -55 -1 -36 4 -56 12 -59 7 -3 13 0 13 6 0 6 2 9 5 6 4 -3 25
-1 48 4 68 16 78 17 123 20 24 2 44 5 44 8 0 3 44 5 98 5 l97 0 -1 45 c-8 246
-13 350 -18 359 -4 5 -2 12 4 16 6 4 7 11 4 17 -4 6 -8 27 -10 47 -1 20 -3 38
-3 41 -2 10 -434 5 -436 -5z"/>
<path d="M1128 745 c-3 -3 -39 -8 -79 -11 -115 -8 -181 -15 -248 -29 -32 -6
-91 -26 -91 -30 0 -10 -71 -233 -79 -246 -8 -14 -1 -16 50 -15 32 1 59 3 59 7
0 3 10 5 23 6 31 1 191 12 257 18 61 5 137 11 250 20 41 4 98 8 125 10 146 13
383 15 413 4 18 -6 31 -14 28 -17 -3 -3 1 -10 9 -16 23 -16 246 -12 260 6 24
30 54 36 176 36 68 0 146 -4 172 -8 26 -4 50 -3 53 2 3 4 13 4 22 -1 9 -5 60
-11 112 -15 218 -13 332 -22 338 -26 4 -4 98 -11 125 -10 29 2 83 -6 94 -13 6
-4 14 -3 18 3 4 6 11 8 16 4 6 -3 28 -7 50 -9 36 -3 39 -1 33 17 -3 11 -7 26
-8 32 -1 6 -7 20 -13 31 -5 11 -8 26 -6 33 3 6 1 12 -4 12 -5 0 -10 12 -11 27
-1 15 -5 29 -10 32 -4 3 -8 13 -8 21 -3 26 -9 44 -19 56 -24 26 -181 53 -335
58 -36 1 -70 5 -77 9 -6 4 -15 3 -18 -3 -4 -7 -12 -7 -18 -2 -19 14 -222 -1
-322 -23 -39 -8 -81 -18 -95 -21 -44 -8 -54 -14 -44 -24 7 -7 28 -5 60 4 78
23 159 37 233 40 25 1 52 5 59 9 6 5 12 5 12 0 0 -4 44 -8 98 -9 98 0 231 -9
287 -19 110 -20 136 -28 145 -46 6 -11 8 -24 5 -29 -3 -6 -2 -10 3 -10 5 0 9
-6 10 -12 1 -24 11 -57 21 -77 6 -11 10 -24 9 -28 -1 -4 3 -18 10 -31 l13 -23
-78 7 c-43 3 -105 8 -138 9 -33 2 -60 5 -60 6 0 2 -22 3 -155 13 -52 4 -117 9
-145 11 -27 3 -86 7 -130 11 -44 3 -100 7 -125 9 -51 5 -249 6 -295 2 -16 -1
-35 -6 -42 -12 -7 -5 -18 -15 -25 -21 -21 -17 -42 -22 -63 -14 -18 6 -18 8 6
31 44 43 75 66 125 95 27 15 51 31 54 34 3 3 10 6 15 7 10 2 77 26 84 30 1 1
0 7 -4 13 -5 8 -11 8 -21 -1 -8 -6 -14 -8 -14 -4 0 4 -11 0 -25 -9 -13 -9 -31
-16 -40 -16 -8 0 -15 -5 -15 -11 0 -5 -4 -7 -10 -4 -6 3 -10 2 -10 -4 0 -5
-10 -13 -22 -17 -12 -3 -28 -12 -35 -18 -35 -31 -48 -41 -54 -41 -3 0 -27 -22
-54 -50 -29 -31 -49 -45 -52 -37 -10 26 -82 92 -88 81 -4 -6 7 -23 24 -38 17
-15 31 -30 31 -34 0 -16 -40 -11 -76 9 -23 13 -54 26 -70 29 -59 11 -348 4
-362 -9 -2 -3 -13 -1 -23 5 -11 5 -19 6 -19 1 0 -4 -21 -9 -47 -10 -66 -4
-148 -10 -148 -11 0 -1 -36 -3 -80 -6 -44 -2 -109 -7 -145 -10 -36 -3 -94 -8
-130 -11 -113 -10 -125 -11 -144 -19 -16 -7 -17 -4 -13 27 2 19 10 44 16 56 7
12 9 26 6 31 -3 5 -1 11 5 13 5 1 11 15 12 31 1 15 7 27 12 27 5 0 6 3 3 6 -3
4 -2 15 3 25 9 16 66 33 147 44 16 2 28 4 28 5 0 3 80 8 172 12 46 2 83 7 83
13 0 7 3 7 8 0 4 -5 43 -10 87 -11 80 0 177 -9 225 -18 79 -17 128 -30 153
-43 15 -7 27 -11 27 -8 0 3 13 -1 29 -9 16 -9 31 -12 35 -9 3 4 6 2 6 -4 0 -6
19 -20 43 -31 23 -11 52 -29 63 -40 20 -19 34 -19 34 -1 0 8 -88 66 -130 85
-35 16 -94 39 -102 39 -3 0 -10 3 -14 8 -4 4 -18 7 -31 7 -13 0 -23 4 -23 8 0
4 -10 9 -22 10 -13 0 -34 3 -48 6 -46 9 -115 19 -132 18 -10 0 -20 4 -23 9 -4
5 -10 7 -15 4 -15 -9 -80 -12 -80 -4 0 8 -26 6 -36 -3 -3 -4 -17 -3 -30 2 -15
6 -26 6 -30 -1 -5 -8 -9 -8 -13 0 -4 6 -10 9 -13 6z"/>
<path d="M1700 466 c-9 -8 -69 -14 -325 -32 -44 -3 -108 -7 -142 -8 -33 -2
-66 -7 -72 -10 -6 -4 -11 -1 -11 6 0 8 -3 9 -8 3 -4 -5 -20 -10 -37 -9 -16 0
-40 -3 -52 -8 -14 -5 -23 -4 -23 3 0 6 -6 7 -12 2 -7 -4 -33 -8 -58 -9 -25 -1
-45 -2 -45 -3 0 -1 -36 -4 -80 -6 -141 -8 -205 -14 -216 -20 -5 -4 -9 -29 -8
-55 3 -51 18 -65 65 -56 11 2 54 7 95 11 41 3 92 8 114 10 22 3 67 7 100 10
33 3 83 8 110 11 28 3 61 6 75 7 14 1 30 6 37 10 6 4 14 3 18 -3 4 -6 12 -7
18 -3 12 8 22 9 122 17 33 2 76 7 95 10 19 3 62 8 95 11 33 2 84 7 114 10 30
4 57 2 60 -2 13 -19 71 -53 117 -69 90 -32 276 -16 328 28 66 54 46 53 311 23
22 -3 63 -7 90 -10 28 -3 68 -7 90 -10 66 -7 157 -17 200 -20 22 -2 40 -4 40
-5 0 -2 23 -4 50 -6 52 -4 123 -10 190 -18 117 -13 171 -16 181 -9 17 12 24
80 10 99 -12 16 -27 17 -236 27 -30 2 -61 6 -67 10 -6 4 -14 3 -18 -3 -4 -6
-12 -7 -18 -3 -7 4 -32 9 -57 11 -25 1 -63 3 -85 5 -22 1 -46 6 -52 10 -7 5
-13 4 -13 -1 0 -5 -10 -8 -22 -6 -13 1 -23 3 -23 4 0 1 -18 3 -40 5 -135 9
-245 17 -280 20 -22 2 -88 7 -147 10 -91 5 -107 4 -102 -8 6 -16 -48 -60 -93
-78 -57 -22 -233 -15 -233 9 0 4 -14 13 -31 21 -17 7 -35 25 -40 38 -8 21 -15
24 -39 21 -16 -3 -31 0 -32 4 -2 5 -6 7 -8 4z"/>
</g>
</svg>
