<svg width="194" height="250" viewBox="0 0 194 250" fill="none" xmlns="http://www.w3.org/2000/svg">
<g clip-path="url(#clip0_4168_1243)">
<path d="M190.813 57.8479L191.209 58.7913L192.152 59.1869C198.78 61.966 205.016 65.1708 210.771 68.7767C234.725 83.7853 247.5 103.804 247.5 125C247.5 146.196 234.725 166.215 210.771 181.223L210.771 181.223C205.016 184.83 198.78 188.034 192.152 190.813L191.209 191.209L190.813 192.152C188.034 198.78 184.829 205.016 181.223 210.771C166.215 234.725 146.196 247.5 125 247.5C103.804 247.5 83.7853 234.725 68.7767 210.771C65.1703 205.015 61.9655 198.78 59.1869 192.152L58.7914 191.209L57.8481 190.813C51.2202 188.034 44.9844 184.829 39.2292 181.223C15.2752 166.215 2.5 146.196 2.5 125C2.5 103.804 15.2752 83.7853 39.2292 68.7767L39.2293 68.7766C44.9845 65.1703 51.2201 61.9655 57.8479 59.1869L58.7913 58.7914L59.1869 57.8481C61.966 51.2202 65.1708 44.9844 68.7767 39.2292C83.7853 15.2752 103.804 2.5 125 2.5C146.196 2.5 166.215 15.2752 181.223 39.2292L183.342 37.9019L181.223 39.2293C184.83 44.985 188.035 51.2202 190.813 57.8479ZM76.9528 44.3524L76.9526 44.3526C76.0019 45.8703 75.0868 47.423 74.2014 49.0016L71.2886 54.1949L77.0357 52.6376C91.9956 48.5839 108.242 46.4453 125 46.4453C141.758 46.4453 158.004 48.5839 172.964 52.6376L178.712 54.1952L175.798 49.0013C174.913 47.4236 173.998 45.8705 173.047 44.3526L173.047 44.3524C160.246 23.9202 143.251 12.1484 125 12.1484C106.749 12.1484 89.7541 23.9202 76.9528 44.3524ZM182.689 184.173L183.774 183.774L184.173 182.689C190.529 165.388 193.906 145.617 193.906 125C193.906 104.383 190.529 84.6124 184.173 67.3112L183.774 66.2255L182.689 65.8267C165.388 59.4706 145.617 56.0938 125 56.0938C104.383 56.0938 84.6124 59.4706 67.3112 65.8267L66.2255 66.2255L65.8267 67.3112C59.4706 84.6124 56.0938 104.383 56.0938 125C56.0938 145.617 59.4706 165.388 65.8267 182.689L66.2255 183.774L67.3112 184.173C84.6124 190.529 104.383 193.906 125 193.906C145.617 193.906 165.388 190.529 182.689 184.173ZM44.3524 173.047L44.3526 173.047C45.8703 173.998 47.423 174.913 49.0016 175.799L54.1949 178.711L52.6376 172.964C48.5839 158.004 46.4453 141.758 46.4453 125C46.4453 108.242 48.5839 91.9956 52.6376 77.0357L54.1952 71.2875L49.0013 74.2016C47.4236 75.0868 45.8705 76.0018 44.3526 76.9526L44.3524 76.9528C23.9202 89.7541 12.1484 106.749 12.1484 125C12.1484 143.251 23.9202 160.246 44.3524 173.047ZM173.047 205.648L173.047 205.647C173.998 204.13 174.913 202.577 175.799 200.998L178.711 195.805L172.964 197.362C158.004 201.416 141.758 203.555 125 203.555C108.242 203.555 91.9956 201.416 77.0357 197.362L71.2875 195.805L74.2016 200.999C75.0868 202.576 76.0018 204.13 76.9526 205.647L76.9528 205.648C89.7541 226.08 106.749 237.852 125 237.852C143.251 237.852 160.246 226.08 173.047 205.648ZM205.647 173.047L205.648 173.047C226.08 160.246 237.852 143.251 237.852 125C237.852 106.749 226.08 89.7541 205.648 76.9528L205.647 76.9526C204.13 76.0018 202.576 75.0868 200.999 74.2016L195.805 71.2875L197.362 77.0357C201.416 91.9956 203.555 108.242 203.555 125C203.555 141.758 201.416 158.004 197.362 172.964L195.805 178.712L200.999 175.798C202.576 174.913 204.13 173.998 205.647 173.047Z" fill="#0B44AA" stroke="#002B87" stroke-width="5"/>
<path d="M123.426 93.2037L125 94.4792L126.574 93.2037C135.315 86.1203 145.323 85.9913 153.118 90.2996C160.942 94.6242 166.678 103.512 166.488 114.807C165.38 130.162 156.065 141.716 146.17 149.838C137.668 156.816 129.034 161.034 125.277 162.868C125.182 162.915 125.089 162.96 125 163.004C124.911 162.96 124.818 162.914 124.722 162.868C120.964 161.032 112.331 156.815 103.831 149.837C93.9355 141.715 84.6209 130.162 83.5124 114.806C83.3226 103.511 89.0586 94.6239 96.8828 90.2993C104.677 85.9912 114.685 86.1202 123.426 93.2037ZM123.787 151.64L125 152.314L126.214 151.64C130.268 149.389 137.58 144.915 144.027 138.734C150.426 132.598 156.319 124.448 156.829 114.838L156.834 114.744L156.832 114.649C156.751 111.062 155.985 105.629 152.329 101.718L152.315 101.703L152.302 101.689C148.788 98.0485 144.398 96.6085 140.076 97.2601C135.818 97.9021 131.905 100.526 129.078 104.475L129.072 104.483L127.63 106.515H122.371L120.929 104.483L120.923 104.475C118.096 100.526 114.183 97.9021 109.925 97.2601C105.603 96.6085 101.213 98.0485 97.6995 101.689L97.6857 101.703L97.6722 101.718C94.0157 105.628 93.2506 111.062 93.1689 114.649L93.1668 114.744L93.1718 114.838C93.6815 124.448 99.5743 132.598 105.974 138.734C112.421 144.915 119.732 149.389 123.787 151.64Z" fill="#0B44AA" stroke="#002B87" stroke-width="5"/>
</g>
<defs>
<clipPath id="clip0_4168_1243">
<rect width="250" height="250" fill="white"/>
</clipPath>
</defs>
</svg>
