<svg width="194" height="250" viewBox="0 0 194 250" fill="none" xmlns="http://www.w3.org/2000/svg">
<g clip-path="url(#clip0_4168_1730)">
<path d="M204.946 165.053L208.579 166.901V162.825V142.957C208.579 126.364 222.083 112.86 238.676 112.86H247.5V205.322L205.392 247.431H149.543L149.46 215.824C149.424 201.891 155.059 188.236 164.911 178.384L173.217 170.079L173.217 170.078C181.782 161.513 194.679 159.831 204.946 165.053ZM200.363 237.79H201.399L202.131 237.058L236.395 202.793H237.86V200.293V125.308V122.295L234.9 122.85C225.418 124.628 218.22 132.961 218.22 142.957V180.319L193.316 205.103L186.503 198.274L204.688 180.088L206.514 178.263L204.631 176.497C197.706 170.002 186.796 170.135 180.034 176.895L180.034 176.895L171.728 185.201C171.728 185.201 171.728 185.201 171.728 185.201C163.67 193.259 159.071 204.403 159.101 215.798L159.152 235.296L159.158 237.79H161.652H200.363Z" fill="#0B44AA" stroke="#002B87" stroke-width="5"/>
<path d="M76.7834 170.079L76.7835 170.079L85.0893 178.384C85.0893 178.384 85.0893 178.384 85.0894 178.384C94.9413 188.236 100.576 201.891 100.54 215.823L100.457 247.43H44.6083L2.5 205.322V112.86H11.3237C27.9168 112.86 41.4207 126.364 41.4207 142.957V162.825V166.901L45.0542 165.053C55.3219 159.83 68.2188 161.513 76.7834 170.079ZM88.3484 237.79H90.8419L90.8484 235.296L90.8997 215.797C90.9297 204.402 86.3307 193.258 78.2727 185.2L69.9669 176.894L69.9668 176.894C63.2062 170.134 52.2946 170.002 45.3704 176.496L43.4874 178.262L45.3128 180.087L63.4978 198.273L56.685 205.102L31.7805 180.318V142.956C31.7805 132.961 24.5828 124.627 15.1008 122.849L12.1402 122.294V125.307V200.293V201.329L12.8725 202.061L47.869 237.058L48.6012 237.79H49.6367H88.3484Z" fill="#0B44AA" stroke="#002B87" stroke-width="5"/>
<path d="M68.0215 21.8383H85.3239C98.5139 21.8383 110.961 15.4327 118.628 4.69933L118.631 4.6953L120.142 2.57031H129.857L131.377 4.70734L131.38 4.71158C139.038 15.4332 151.486 21.8383 164.675 21.8383H181.978V113.346C181.978 126.933 174.002 139.402 161.666 145.098L125 162.03L88.3338 145.098C75.9977 139.402 68.0215 126.933 68.0215 113.346V21.8383ZM123.952 150.927L125 151.411L126.048 150.927L157.625 136.346L156.577 134.076L157.625 136.346C166.566 132.217 172.338 123.194 172.338 113.346V33.9786V31.4786H169.838H164.676C150.18 31.4786 136.401 25.2116 126.867 14.4886L124.999 12.3874L123.131 14.4883C113.592 25.2141 99.8154 31.4786 85.3239 31.4786H80.1617H77.6617V33.9786V113.346C77.6617 123.194 83.4341 132.217 92.3752 136.346L123.952 150.927Z" fill="#0B44AA" stroke="#002B87" stroke-width="5"/>
<path d="M117.112 70.5433L118.88 72.3111L120.648 70.5433L138.592 52.5985L145.409 59.4151L118.88 85.9438L104.591 71.6553L111.408 64.8387L117.112 70.5433Z" fill="#0B44AA" stroke="#002B87" stroke-width="5"/>
<path d="M107.492 108.956H142.509V118.596H107.492V108.956Z" fill="#0B44AA" stroke="#002B87" stroke-width="5"/>
</g>
<defs>
<clipPath id="clip0_4168_1730">
<rect width="250" height="250" fill="white"/>
</clipPath>
</defs>
</svg>
