<svg width="194" height="250" viewBox="0 0 194 250" fill="none" xmlns="http://www.w3.org/2000/svg">
<g clip-path="url(#clip0_4168_1376)">
<path d="M6.95807 133.281L6.95233 133.286L6.94656 133.292L3.53506 136.704L88.5843 221.743H155.924H156.959L157.692 222.475L181.681 246.465L227.156 200.984L159.652 133.479L57.4438 133.557L56.4728 133.558L55.7558 132.903C41.9939 120.333 20.5072 119.552 6.95807 133.281ZM93.6157 212.094H92.5803L91.848 211.362L19.8075 139.33L17.3572 136.88L20.4549 135.327C29.7633 130.661 41.7818 132.606 49.0936 140.128L87.7291 178.774H143.626V169.125H104.412C90.726 169.331 78.0196 159.463 74.6653 146.304L73.8712 143.189L77.0861 143.187L154.621 143.132L155.657 143.131L156.39 143.864L211.744 199.217L213.512 200.985L211.744 202.753L183.449 231.052L181.681 232.819L179.913 231.052L160.956 212.094H93.6157Z" fill="#0B44AA" stroke="#002B87" stroke-width="5" stroke-miterlimit="16"/>
<path d="M99.431 74.2443L103.427 85.1568L95.2972 76.853L69.0174 50.0122L64.8572 45.7632H70.8037H87.2539H89.0007L89.6014 47.4035L99.431 74.2443ZM81.6596 13.096L82.4103 12.1484H83.6191H98.5425H102.778L100.731 15.8566L90.2619 34.8229L89.5488 36.1147H88.0732H68.5928H63.4226L66.6332 32.0623L81.6596 13.096ZM115.417 12.1484H116.893L117.606 13.4403L128.074 32.4066L130.121 36.1147H125.886H104.805H100.57L102.616 32.4066L113.085 13.4403L113.798 12.1484H115.274H115.417ZM159.887 45.7632H165.812L161.678 50.0075L135.536 76.8483L127.464 85.1351L131.393 74.2549L141.086 47.4141L141.682 45.7632H143.437H159.887ZM142.618 36.1147H141.143L140.429 34.8229L129.96 15.8566L127.913 12.1484H132.149H147.072H148.281L149.032 13.096L164.058 32.0623L167.269 36.1147H162.099H142.618ZM100.477 49.1123L99.2674 45.7632H102.828H127.862H131.423L130.214 49.1123L117.697 83.7763L115.345 90.2881L112.994 83.7763L100.477 49.1123ZM152.947 2.5H77.7445L47.0312 41.2674L115.346 111.407L183.66 41.2674L152.947 2.5Z" fill="#0B44AA" stroke="#002B87" stroke-width="5" stroke-miterlimit="16"/>
<path d="M33.3471 74.3111L29.9802 65.2715L13.6752 71.3445L17.0421 80.3841L33.3471 74.3111Z" fill="#0B44AA" stroke="#002B87" stroke-width="5"/>
<path d="M27.75 46.5947V36.9485H10.3507V46.5947H27.75Z" fill="#0B44AA" stroke="#002B87" stroke-width="5"/>
<path d="M33.436 9.68941L17.131 3.61636L13.7641 12.656L30.0691 18.729L33.436 9.68941Z" fill="#0B44AA" stroke="#002B87" stroke-width="5"/>
</g>
<defs>
<clipPath id="clip0_4168_1376">
<rect width="230.692" height="250" fill="white" transform="matrix(-1 0 0 1 230.691 0)"/>
</clipPath>
</defs>
</svg>
