<svg width="194" height="250" viewBox="0 0 194 250" fill="none" xmlns="http://www.w3.org/2000/svg">
<g clip-path="url(#clip0_4168_2011)">
<path d="M232.852 222.641V225.141H235.352H247.5V234.79H164.341C159.99 234.79 156.455 238.325 156.455 242.676V247.5H93.5454V242.676C93.5454 238.325 90.0103 234.79 85.6592 234.79H2.5V225.141H14.6484H17.1484V222.641V195.859H102.729C110.123 195.859 117.409 197.916 123.706 201.724L125 202.507L126.294 201.724C132.591 197.916 139.877 195.859 147.271 195.859H232.852V222.641ZM145.692 237.852H147.394L148.018 236.268C150.586 229.754 156.941 225.141 164.341 225.141H220.703H223.203V222.641V208.008V205.508H220.703H147.271C140.296 205.508 133.461 207.906 128.014 212.263L125 214.674L121.986 212.263C116.539 207.906 109.704 205.508 102.729 205.508H29.2969H26.7969V208.008V222.641V225.141H29.2969H85.6592C93.0586 225.141 99.4139 229.754 101.982 236.268L102.606 237.852H104.308H145.692Z" fill="#0B44AA" stroke="#002B87" stroke-width="5"/>
<path d="M93.8086 139.326V137.799L92.4509 137.102C68.8049 124.956 53.7695 100.572 53.7695 73.7305C53.7695 34.4559 85.7254 2.5 125 2.5C164.275 2.5 196.23 34.4559 196.23 73.7305C196.23 100.572 181.195 124.956 157.549 137.102L156.191 137.799V139.326V171.328H93.8086V139.326ZM103.457 159.18V161.68H105.957H144.043H146.543V159.18V142.016V139.516H144.043H105.957H103.457V142.016V159.18ZM149.782 129.867H150.332L150.831 129.636C172.595 119.57 186.582 97.7966 186.582 73.7305C186.582 39.7716 158.959 12.1484 125 12.1484C91.0412 12.1484 63.418 39.7716 63.418 73.7305C63.418 97.7966 77.4047 119.57 99.1688 129.636L99.6681 129.867H100.218H149.782Z" fill="#0B44AA" stroke="#002B87" stroke-width="5"/>
<path d="M120.176 98.4526V97.4171L119.444 96.6849L109.568 86.8094L109.568 86.8093C99.4525 76.6939 99.4525 60.229 109.568 50.1135L109.568 50.1135L125 34.6815L140.432 50.1135L140.432 50.1135C150.548 60.229 150.548 76.6939 140.432 86.8093L140.432 86.8094L130.557 96.6849L129.825 97.4171V98.4526V109.171H120.176V98.4526ZM116.391 56.9358L116.391 56.9359C110.035 63.2926 110.035 73.6298 116.391 79.9868L120.659 84.2555V78.2192L120.659 64H129.342L129.342 78.2188L129.342 84.2543L133.61 79.9865C139.967 73.6298 139.967 63.2925 133.61 56.9354L133.61 56.9353L126.768 50.094L125 48.3263L123.233 50.094L116.391 56.9358Z" fill="#0B44AA" stroke="#002B87" stroke-width="5"/>
</g>
<defs>
<clipPath id="clip0_4168_2011">
<rect width="250" height="250" fill="white"/>
</clipPath>
</defs>
</svg>
