<svg width="194" height="250" viewBox="0 0 194 250" fill="none" xmlns="http://www.w3.org/2000/svg">
<g clip-path="url(#clip0_4168_1683)">
<path d="M117.674 150.943H120.048L120.17 148.572C120.908 134.252 109.478 121.97 95.0357 122.012H90.9983H88.6236L88.5016 124.383C87.7647 138.702 99.1938 150.985 113.636 150.943H117.674ZM122.992 126.469L125 129.176L127.007 126.47C129.978 122.465 133.789 119.12 138.174 116.692L139.514 115.95L139.462 114.42C139.241 107.912 136.59 101.648 131.883 96.9418L131.883 96.9417L126.768 91.8267L125 90.0591L123.232 91.8268L118.117 96.9422C118.117 96.9422 118.117 96.9423 118.117 96.9423C113.423 101.636 110.767 107.912 110.541 114.42L110.488 115.951L111.829 116.693C116.212 119.121 120.022 122.465 122.992 126.469ZM161.498 124.383L161.376 122.012H159.001H154.963C140.522 121.97 129.092 134.252 129.829 148.572L129.951 150.943H132.326H136.363C150.806 150.985 162.234 138.703 161.498 124.383ZM129.826 189.542V192.34L132.606 192.026C166.235 188.234 192.457 159.629 192.457 125.001V124.949L192.454 124.898C188.768 35.5554 61.2454 35.5233 57.5447 124.897L57.5426 124.948V125C57.5426 159.629 83.7642 188.234 117.393 192.026L120.174 192.339V189.541V163.095V160.391L117.478 160.603C96.7545 162.231 78.875 146.679 78.8463 125.808C78.8463 125.807 78.8463 125.806 78.8463 125.805L78.8463 112.37C79.8194 112.368 80.9813 112.364 82.2454 112.359C83.9474 112.352 85.8346 112.345 87.695 112.343C90.1833 112.34 92.646 112.346 94.6225 112.375C96.7027 112.405 98.0015 112.46 98.3479 112.514L100.859 112.908L101.211 110.39C102.271 102.805 105.755 95.6544 111.291 90.1175L125 76.4098L138.708 90.1174C144.265 95.6745 147.742 102.812 148.796 110.388L149.144 112.894L151.646 112.516C152.022 112.459 153.336 112.404 155.405 112.374C157.377 112.346 159.827 112.34 162.303 112.343C164.137 112.345 165.996 112.352 167.68 112.359C168.971 112.364 170.159 112.369 171.153 112.371V125.805C171.126 146.676 153.247 162.232 132.521 160.603L129.826 160.392V163.096V189.542ZM47.8906 124.948C47.9186 82.4565 82.5007 47.8911 125 47.8911C167.498 47.8911 202.081 82.4566 202.109 124.948C197.838 227.268 52.1771 227.294 47.8906 124.948Z" fill="#0B44AA" stroke="#002B87" stroke-width="5"/>
<path d="M233.17 105.269L231.68 106.129L231.951 107.828C232.854 113.493 233.31 119.249 233.31 125C233.31 130.75 232.854 136.507 231.951 142.173L231.681 143.871L233.17 144.731L246.585 152.477L209.588 216.558L196.163 208.807L194.669 207.944L193.333 209.034C184.355 216.355 174.394 222.114 163.608 226.22L161.998 226.833V228.557V244.034H88.0025V228.557V226.833L86.392 226.22C75.6065 222.114 65.6451 216.355 56.6673 209.034L55.3309 207.944L53.8374 208.807L40.4123 216.558L3.41505 152.477L16.8299 144.731L18.32 143.871L18.0486 142.172C16.2383 130.837 16.2383 119.162 18.0486 107.828L18.32 106.129L16.8299 105.269L3.41505 97.5238L40.4123 33.4425L53.8374 41.1936L55.3309 42.0559L56.6674 40.966C65.6446 33.6454 75.606 27.8864 86.3919 23.7802L88.0025 23.1671V21.4438V5.96631H161.998V21.4438V23.167L163.608 23.7802C174.393 27.8864 184.355 33.6454 193.333 40.9661L194.669 42.0559L196.163 41.1936L209.588 33.4425L246.584 97.5238L233.17 105.269ZM232.15 158.175L233.4 156.01L231.235 154.76L220.879 148.78C224.126 134.404 224.71 119.203 221.554 104.656C221.554 104.653 221.553 104.65 221.552 104.646L220.839 101.243L231.235 95.2413L233.401 93.9914L232.151 91.8262L207.305 48.7929L206.055 46.6279L203.89 47.8779L193.509 53.8718C181.146 42.4286 168.4 35.0515 152.346 30.0789V18.1183V15.6183H149.846H100.154H97.6544V18.1183V30.0785C81.6039 35.0501 68.8577 42.4256 56.4916 53.8713L46.1099 47.8774L43.9448 46.6274L42.6948 48.7924L17.8495 91.8257L16.5996 93.9907L18.7645 95.2407L29.1262 101.224C25.4306 117.735 25.4294 132.26 29.1262 148.777L18.7646 154.76L16.5995 156.01L17.8495 158.175L42.6948 201.208L43.9448 203.373L46.1099 202.123L56.4915 196.129C68.8542 207.572 81.6 214.949 97.6544 219.922V231.883V234.383H100.154H149.845H152.345V231.883V219.922C168.396 214.95 181.142 207.575 193.508 196.129L203.89 202.123L206.055 203.373L207.305 201.208L232.15 158.175Z" fill="#0B44AA" stroke="#002B87" stroke-width="5"/>
</g>
<defs>
<clipPath id="clip0_4168_1683">
<rect width="250" height="250" fill="white"/>
</clipPath>
</defs>
</svg>
