<svg width="194" height="250" viewBox="0 0 194 250" fill="none" xmlns="http://www.w3.org/2000/svg">
<g clip-path="url(#clip0_4168_223)">
<path d="M57.1696 133.546L56.1601 133.546L55.4332 132.846C41.9018 119.807 20.2877 119.95 6.94647 133.291L3.53516 136.703L88.5843 221.742H155.924H156.959L157.692 222.474L181.681 246.464L227.156 200.983L159.652 133.479L57.1696 133.546ZM93.6157 212.094H92.5803L91.848 211.361L19.8153 139.337L17.3333 136.855L20.4901 135.321C29.794 130.798 41.354 132.388 49.0802 140.114L49.0805 140.114L87.7291 178.773H143.626V169.125H104.412C90.7265 169.331 78.0202 159.462 74.6654 146.304L73.8711 143.189L77.0861 143.186L154.621 143.131L155.658 143.13L156.391 143.863L211.744 199.216L213.512 200.984L211.744 202.752L183.449 231.051L181.681 232.819L179.913 231.051L160.956 212.094H93.6157Z" fill="#0B44AA" stroke="#002B87" stroke-width="5" stroke-miterlimit="16"/>
<path d="M34.1721 52.1626L35.2608 55.0198L32.2443 55.5192C22.3715 57.1537 14.8185 65.7534 14.8193 76.0755V100.039H215.874V76.0757C215.874 65.7535 208.321 57.1542 198.448 55.5196L195.432 55.0202L196.52 52.163C197.35 49.9868 197.808 47.6308 197.808 45.1665V34.4243C197.808 23.5545 188.961 14.7075 178.091 14.7075C167.221 14.7075 158.374 23.5545 158.374 34.4243V45.1665C158.374 47.6545 158.841 50.032 159.686 52.2255L160.771 55.0417L157.802 55.5834C155.93 55.9248 154.134 56.5131 152.45 57.3375L150.906 58.0938L149.647 56.9221C146.433 53.93 142.287 51.9425 137.702 51.4506L134.241 51.0792L135.698 47.918C137.011 45.071 137.749 41.9092 137.749 38.5742V24.9023C137.749 12.5521 127.697 2.5 115.346 2.5C102.995 2.5 92.9439 12.5521 92.9439 24.9023V38.5742C92.9439 41.9097 93.6811 45.0709 94.9939 47.918L96.4516 51.0792L92.9904 51.4506C88.4016 51.943 84.2526 53.9331 81.0379 56.929L79.7801 58.1013L78.2354 57.346C76.5442 56.5192 74.7489 55.9252 72.8874 55.5834L69.9227 55.039L71.0059 52.2261C71.8509 50.0317 72.3184 47.6542 72.3184 45.166V34.4238C72.3184 23.5541 63.4714 14.707 52.6016 14.707C41.7318 14.707 32.8848 23.5541 32.8848 34.4238V45.166C32.8848 47.6303 33.3428 49.9863 34.1721 52.1626ZM206.225 87.8906V90.3906H203.725H158.803H156.303V87.8906V72.1694C156.303 70.9007 156.182 69.6549 155.961 68.4356L155.593 66.4134L157.506 65.6619C158.789 65.158 160.171 64.8828 161.604 64.8828H195.032C201.206 64.8828 206.225 69.9021 206.225 76.0757V87.8906ZM86.5371 90.3906H84.0371V87.8906V72.1694C84.0371 65.9953 89.0558 60.9766 95.23 60.9766H135.461C141.636 60.9766 146.654 65.9958 146.654 72.1694V87.8906V90.3906H144.154H86.5371ZM26.9668 90.3906H24.4668V87.8906V76.0757C24.4668 69.9015 29.4855 64.8828 35.6597 64.8828H69.0874C70.5109 64.8828 71.8965 65.1527 73.1861 65.6596L75.0989 66.4115L74.7311 68.4337C74.5093 69.6535 74.3887 70.9002 74.3887 72.1694V87.8906V90.3906H71.8887H26.9668ZM52.6016 24.3555C58.1556 24.3555 62.6699 28.8698 62.6699 34.4238V45.166C62.6699 50.7201 58.1556 55.2344 52.6016 55.2344C47.0475 55.2344 42.5332 50.7201 42.5332 45.166V34.4238C42.5332 28.8698 47.0475 24.3555 52.6016 24.3555ZM115.346 12.1484C122.381 12.1484 128.1 17.8679 128.1 24.9023V38.5742C128.1 45.6087 122.381 51.3281 115.346 51.3281C108.311 51.3281 102.592 45.6087 102.592 38.5742V24.9023C102.592 17.8679 108.311 12.1484 115.346 12.1484ZM178.09 24.3555C183.644 24.3555 188.158 28.8698 188.158 34.4238V45.166C188.158 50.7201 183.644 55.2344 178.09 55.2344C172.536 55.2344 168.021 50.7201 168.021 45.166V34.4238C168.021 28.8698 172.536 24.3555 178.09 24.3555Z" fill="#0B44AA" stroke="#002B87" stroke-width="5"/>
</g>
<defs>
<clipPath id="clip0_4168_223">
<rect width="230.692" height="250" fill="white" transform="matrix(-1 0 0 1 230.691 0)"/>
</clipPath>
</defs>
</svg>
