<svg width="10" height="20" viewBox="0 0 10 20" fill="none" xmlns="http://www.w3.org/2000/svg">
<path d="M0.312551 10.321H2.43677V19.066C2.43677 19.2387 2.57666 19.3786 2.74932 19.3786H6.35097C6.52364 19.3786 6.66354 19.2387 6.66354 19.066V10.3622H9.10549C9.26427 10.3622 9.39787 10.2431 9.41598 10.0854L9.78686 6.86589C9.79706 6.77731 9.76898 6.68861 9.70974 6.62216C9.6504 6.55565 9.56551 6.51758 9.47643 6.51758H6.66367V4.49945C6.66367 3.89109 6.99122 3.5826 7.63735 3.5826C7.72942 3.5826 9.47643 3.5826 9.47643 3.5826C9.64909 3.5826 9.78899 3.44263 9.78899 3.27004V0.314871C9.78899 0.142214 9.64909 0.00231294 9.47643 0.00231294H6.94189C6.92402 0.00143777 6.88433 0 6.82582 0C6.38605 0 4.85745 0.0863284 3.64997 1.19716C2.31211 2.42813 2.49809 3.90203 2.54253 4.15758V6.51751H0.312551C0.139893 6.51751 0 6.65741 0 6.83007V10.0084C0 10.1811 0.139893 10.321 0.312551 10.321Z" fill="#60A1E2"/>
</svg>
