<svg width="21" height="20" viewBox="0 0 21 20" fill="none" xmlns="http://www.w3.org/2000/svg">
<path d="M10.4477 4.70382C7.70746 4.70382 5.4972 6.91409 5.4972 9.65431C5.4972 12.3945 7.70746 14.6048 10.4477 14.6048C13.1879 14.6048 15.3982 12.3945 15.3982 9.65431C15.3982 6.91409 13.1879 4.70382 10.4477 4.70382ZM10.4477 12.8728C8.67688 12.8728 7.22922 11.4294 7.22922 9.65431C7.22922 7.8792 8.67257 6.43584 10.4477 6.43584C12.2228 6.43584 13.6661 7.8792 13.6661 9.65431C13.6661 11.4294 12.2185 12.8728 10.4477 12.8728ZM16.7554 4.50132C16.7554 5.14329 16.2383 5.656 15.6007 5.656C14.9587 5.656 14.446 5.13898 14.446 4.50132C14.446 3.86366 14.963 3.34664 15.6007 3.34664C16.2383 3.34664 16.7554 3.86366 16.7554 4.50132ZM20.0341 5.67324C19.9609 4.12648 19.6076 2.75637 18.4745 1.62754C17.3456 0.498711 15.9755 0.145412 14.4288 0.0678589C12.8346 -0.0226196 8.05645 -0.0226196 6.4623 0.0678589C4.91985 0.141104 3.54975 0.494403 2.41661 1.62323C1.28347 2.75206 0.934475 4.12217 0.856922 5.66893C0.766443 7.26308 0.766443 12.0412 0.856922 13.6354C0.930166 15.1821 1.28346 16.5522 2.41661 17.6811C3.54975 18.8099 4.91555 19.1632 6.4623 19.2408C8.05645 19.3312 12.8346 19.3312 14.4288 19.2408C15.9755 19.1675 17.3456 18.8142 18.4745 17.6811C19.6033 16.5522 19.9566 15.1821 20.0341 13.6354C20.1246 12.0412 20.1246 7.26739 20.0341 5.67324ZM17.9747 15.3459C17.6386 16.1903 16.988 16.8409 16.1392 17.1813C14.8682 17.6854 11.8523 17.5691 10.4477 17.5691C9.04311 17.5691 6.02283 17.6811 4.75613 17.1813C3.91166 16.8452 3.26107 16.1946 2.9207 15.3459C2.4166 14.0748 2.53294 11.0589 2.53294 9.65431C2.53294 8.24973 2.42091 5.22946 2.9207 3.96276C3.25677 3.11829 3.90735 2.4677 4.75613 2.12733C6.02714 1.62323 9.04311 1.73956 10.4477 1.73956C11.8523 1.73956 14.8725 1.62754 16.1392 2.12733C16.9837 2.46339 17.6343 3.11398 17.9747 3.96276C18.4788 5.23377 18.3624 8.24973 18.3624 9.65431C18.3624 11.0589 18.4788 14.0792 17.9747 15.3459Z" fill="#60A1E2"/>
</svg>
