<svg width="21" height="20" viewBox="0 0 21 20" fill="none" xmlns="http://www.w3.org/2000/svg">
<g clip-path="url(#clip0_4107_798)">
<path d="M20.1021 19.5574V12.1624C20.1021 8.1999 17.9871 6.35615 15.1671 6.35615C12.8914 6.35615 11.8714 7.60802 11.3033 8.48677V6.65927H7.0158C7.07268 7.8699 7.0158 19.5574 7.0158 19.5574H11.3033V12.3543C11.3033 11.9699 11.3308 11.5843 11.4446 11.3093C11.7539 10.5386 12.4596 9.74115 13.6433 9.74115C15.1952 9.74115 15.8152 10.9236 15.8152 12.6574V19.558L20.1021 19.5574ZM2.49893 4.89865C3.9933 4.89865 4.92518 3.9074 4.92518 2.66927C4.89768 1.40427 3.99393 0.441772 2.52768 0.441772C1.06143 0.441772 0.102051 1.40365 0.102051 2.66927C0.102051 3.9074 1.03268 4.89865 2.47205 4.89865H2.49893ZM4.64268 19.5574V6.65927H0.355801V19.5574H4.64268Z" fill="#60A1E2"/>
</g>
<defs>
<clipPath id="clip0_4107_798">
<rect width="20" height="20" fill="white" transform="translate(0.102051)"/>
</clipPath>
</defs>
</svg>
