<svg width="321" height="121" viewBox="0 0 321 121" fill="none" xmlns="http://www.w3.org/2000/svg">
<path d="M304.954 151.972C313.621 151.972 320.647 144.944 320.645 136.276L320.63 82.1553L213.392 82.602C202.937 82.6115 192.966 78.9615 185.97 72.536L104.995 8.59189C99.1298 3.1739 90.6892 0.122709 81.8493 0.17974L-112.191 0.17974L-112.191 136.281C-112.191 144.947 -105.166 151.972 -96.4999 151.972H-81.4864C-81.482 151.972 -81.484 151.972 -81.4796 151.972C-81.3351 151.972 8.23541 152.048 18.7302 151.972L304.954 151.972Z" fill="white"/>
<path d="M304.954 151.972C313.621 151.972 320.647 144.944 320.645 136.276L320.63 82.1553L213.392 82.602C202.937 82.6115 192.966 78.9615 185.97 72.536L104.995 8.59189C99.1298 3.1739 90.6892 0.122709 81.8493 0.17974L-112.191 0.17974L-112.191 136.281C-112.191 144.947 -105.166 151.972 -96.4999 151.972H-81.4864C-81.482 151.972 -81.484 151.972 -81.4796 151.972C-81.3351 151.972 8.23541 152.048 18.7302 151.972L304.954 151.972Z" fill="#94D4FF" fill-opacity="0.3"/>
</svg>
