<svg width="30" height="20" viewBox="0 0 30 20" fill="none" xmlns="http://www.w3.org/2000/svg">
<g clip-path="url(#clip0_3815_54788)">
<path d="M0 0H38V20H0V0Z" fill="#B22234"/>
<path d="M0 2.30762H38H0ZM38 5.38454H0H38ZM0 8.46146H38H0ZM38 11.5384H0H38ZM0 14.6153H38H0ZM38 17.6922H0H38Z" fill="black"/>
<path d="M0 2.30762H38M38 5.38454H0M0 8.46146H38M38 11.5384H0M0 14.6153H38M38 17.6922H0" stroke="white" stroke-width="1.53846"/>
<path d="M0 0H15.2V10.7692H0V0Z" fill="#3C3B6E"/>
<path d="M1.26641 0.462891L1.62813 1.57613L0.681152 0.888111H1.85168L0.904701 1.57613L1.26641 0.462891Z" fill="white"/>
<path d="M1.26641 2.61719L1.62813 3.73043L0.681152 3.04241H1.85168L0.904701 3.73043L1.26641 2.61719Z" fill="white"/>
<path d="M1.26641 4.77051L1.62813 5.88375L0.681152 5.19573H1.85168L0.904701 5.88375L1.26641 4.77051Z" fill="white"/>
<path d="M1.26641 6.9248L1.62813 8.03805L0.681152 7.35003H1.85168L0.904701 8.03805L1.26641 6.9248Z" fill="white"/>
<path d="M1.26641 9.07812L1.62813 10.1914L0.681152 9.50335H1.85168L0.904701 10.1914L1.26641 9.07812Z" fill="white"/>
<path d="M2.53326 1.53906L2.89497 2.6523L1.948 1.96428H3.11853L2.17155 2.6523L2.53326 1.53906Z" fill="white"/>
<path d="M2.53326 3.69336L2.89497 4.8066L1.948 4.11858H3.11853L2.17155 4.8066L2.53326 3.69336Z" fill="white"/>
<path d="M2.53326 5.84668L2.89497 6.95992L1.948 6.2719H3.11853L2.17155 6.95992L2.53326 5.84668Z" fill="white"/>
<path d="M2.53326 8.00098L2.89497 9.11422L1.948 8.4262H3.11853L2.17155 9.11422L2.53326 8.00098Z" fill="white"/>
<path d="M3.79986 0.462891L4.16157 1.57613L3.2146 0.888111H4.38513L3.43815 1.57613L3.79986 0.462891Z" fill="white"/>
<path d="M3.79986 2.61719L4.16157 3.73043L3.2146 3.04241H4.38513L3.43815 3.73043L3.79986 2.61719Z" fill="white"/>
<path d="M3.79986 4.77051L4.16157 5.88375L3.2146 5.19573H4.38513L3.43815 5.88375L3.79986 4.77051Z" fill="white"/>
<path d="M3.79986 6.9248L4.16157 8.03805L3.2146 7.35003H4.38513L3.43815 8.03805L3.79986 6.9248Z" fill="white"/>
<path d="M3.80011 9.07812L4.16182 10.1914L3.21484 9.50335H4.38537L3.43839 10.1914L3.80011 9.07812Z" fill="white"/>
<path d="M5.06671 1.53906L5.42842 2.6523L4.48145 1.96428H5.65197L4.70499 2.6523L5.06671 1.53906Z" fill="white"/>
<path d="M5.06671 3.69336L5.42842 4.8066L4.48145 4.11858H5.65197L4.70499 4.8066L5.06671 3.69336Z" fill="white"/>
<path d="M5.06671 5.84668L5.42842 6.95992L4.48145 6.2719H5.65197L4.70499 6.95992L5.06671 5.84668Z" fill="white"/>
<path d="M5.06671 8.00098L5.42842 9.11422L4.48145 8.4262H5.65197L4.70499 9.11422L5.06671 8.00098Z" fill="white"/>
<path d="M6.33355 0.462891L6.69527 1.57613L5.74829 0.888111H6.91882L5.97184 1.57613L6.33355 0.462891Z" fill="white"/>
<path d="M6.33355 2.61719L6.69527 3.73043L5.74829 3.04241H6.91882L5.97184 3.73043L6.33355 2.61719Z" fill="white"/>
<path d="M6.33355 4.77051L6.69527 5.88375L5.74829 5.19573H6.91882L5.97184 5.88375L6.33355 4.77051Z" fill="white"/>
<path d="M6.33355 6.9248L6.69527 8.03805L5.74829 7.35003H6.91882L5.97184 8.03805L6.33355 6.9248Z" fill="white"/>
<path d="M6.33355 9.07812L6.69527 10.1914L5.74829 9.50335H6.91882L5.97184 10.1914L6.33355 9.07812Z" fill="white"/>
<path d="M7.6004 1.53906L7.96211 2.6523L7.01514 1.96428H8.18567L7.23869 2.6523L7.6004 1.53906Z" fill="white"/>
<path d="M7.6004 3.69336L7.96211 4.8066L7.01514 4.11858H8.18567L7.23869 4.8066L7.6004 3.69336Z" fill="white"/>
<path d="M7.6004 5.84668L7.96211 6.95992L7.01514 6.2719H8.18567L7.23869 6.95992L7.6004 5.84668Z" fill="white"/>
<path d="M7.6004 8.00098L7.96211 9.11422L7.01514 8.4262H8.18567L7.23869 9.11422L7.6004 8.00098Z" fill="white"/>
<path d="M8.86676 0.462891L9.22847 1.57613L8.28149 0.888111H9.45202L8.50504 1.57613L8.86676 0.462891Z" fill="white"/>
<path d="M8.86676 2.61719L9.22847 3.73043L8.28149 3.04241H9.45202L8.50504 3.73043L8.86676 2.61719Z" fill="white"/>
<path d="M8.86676 4.77051L9.22847 5.88375L8.28149 5.19573H9.45202L8.50504 5.88375L8.86676 4.77051Z" fill="white"/>
<path d="M8.86676 6.9248L9.22847 8.03805L8.28149 7.35003H9.45202L8.50504 8.03805L8.86676 6.9248Z" fill="white"/>
<path d="M8.86676 9.07812L9.22847 10.1914L8.28149 9.50335H9.45202L8.50504 10.1914L8.86676 9.07812Z" fill="white"/>
<path d="M10.1336 1.53906L10.4953 2.6523L9.54834 1.96428H10.7189L9.77189 2.6523L10.1336 1.53906Z" fill="white"/>
<path d="M10.1336 3.69336L10.4953 4.8066L9.54834 4.11858H10.7189L9.77189 4.8066L10.1336 3.69336Z" fill="white"/>
<path d="M10.1336 5.84668L10.4953 6.95992L9.54834 6.2719H10.7189L9.77189 6.95992L10.1336 5.84668Z" fill="white"/>
<path d="M10.1336 8.00098L10.4953 9.11422L9.54834 8.4262H10.7189L9.77189 9.11422L10.1336 8.00098Z" fill="white"/>
<path d="M11.4 0.458984L11.7617 1.57223L10.8147 0.884205H11.9852L11.0382 1.57223L11.4 0.458984Z" fill="white"/>
<path d="M11.4 2.6123L11.7617 3.72555L10.8147 3.03753H11.9852L11.0382 3.72555L11.4 2.6123Z" fill="white"/>
<path d="M11.4 4.7666L11.7617 5.87984L10.8147 5.19182H11.9852L11.0382 5.87984L11.4 4.7666Z" fill="white"/>
<path d="M11.4 6.9209L11.7617 8.03414L10.8147 7.34612H11.9852L11.0382 8.03414L11.4 6.9209Z" fill="white"/>
<path d="M11.4 9.0752L11.7617 10.1884L10.8147 9.50042H11.9852L11.0382 10.1884L11.4 9.0752Z" fill="white"/>
<path d="M12.6668 1.53711L13.0285 2.65035L12.0815 1.96233H13.2521L12.3051 2.65035L12.6668 1.53711Z" fill="white"/>
<path d="M12.6668 3.69043L13.0285 4.80367L12.0815 4.11565H13.2521L12.3051 4.80367L12.6668 3.69043Z" fill="white"/>
<path d="M12.6668 5.84473L13.0285 6.95797L12.0815 6.26995H13.2521L12.3051 6.95797L12.6668 5.84473Z" fill="white"/>
<path d="M12.6668 7.99902L13.0285 9.11226L12.0815 8.42424H13.2521L12.3051 9.11226L12.6668 7.99902Z" fill="white"/>
<path d="M13.9334 0.460938L14.2951 1.57418L13.3481 0.886158H14.5187L13.5717 1.57418L13.9334 0.460938Z" fill="white"/>
<path d="M13.9334 2.61523L14.2951 3.72848L13.3481 3.04045H14.5187L13.5717 3.72848L13.9334 2.61523Z" fill="white"/>
<path d="M13.9334 4.76758L14.2951 5.88082L13.3481 5.1928H14.5187L13.5717 5.88082L13.9334 4.76758Z" fill="white"/>
<path d="M13.9334 6.92188L14.2951 8.03512L13.3481 7.3471H14.5187L13.5717 8.03512L13.9334 6.92188Z" fill="white"/>
<path d="M13.9334 9.07617L14.2951 10.1894L13.3481 9.50139H14.5187L13.5717 10.1894L13.9334 9.07617Z" fill="white"/>
</g>
<defs>
<clipPath id="clip0_3815_54788">
<rect width="30" height="20" fill="white"/>
</clipPath>
</defs>
</svg>
