<svg width="30" height="20" viewBox="0 0 30 20" fill="none" xmlns="http://www.w3.org/2000/svg">
<g clip-path="url(#clip0_3815_54699)">
<path d="M0 20H30V0H0V20Z" fill="#005430"/>
<path d="M22.4999 7.94456C22.4978 7.59322 22.3615 6.64686 22.3269 6.32939C22.2923 6.01189 22.2575 5.72389 22.2659 5.65642C22.2742 5.59136 22.3743 5.74692 22.4273 5.75949C22.4547 5.75402 22.4424 5.65576 22.3927 5.57182C22.359 5.51486 22.2441 5.30182 22.1745 5.17696C22.1417 5.11786 22.1344 5.08362 22.1186 5.07632C22.1029 5.06909 21.9761 5.32492 21.9899 5.35332C22.0245 5.40532 22.0483 5.43012 22.0537 5.52196C22.0591 5.61379 22.1066 6.26952 22.1672 6.76656C22.2127 7.14152 22.3127 7.94936 22.3163 8.45162C22.3173 8.61546 22.2991 8.77162 22.2773 8.83689C22.2213 8.93936 22.1338 9.03179 21.8081 9.22239C21.4419 9.43672 20.9533 9.61509 20.7433 9.73446C20.6127 9.80892 20.656 9.81886 20.7697 9.78629C20.8831 9.75369 21.4694 9.64929 21.7543 9.52892C22.0217 9.41562 22.1953 9.22612 22.327 8.94966C22.4897 8.60786 22.5021 8.31782 22.4999 7.94456ZM21.3661 5.27579C21.3944 5.26482 21.6288 5.25276 21.6919 5.26576C21.6504 5.32502 21.3694 5.45619 21.3682 5.48026C21.3759 5.49646 21.5623 5.45026 21.6211 5.42459C21.6596 5.40149 21.6852 5.36569 21.7137 5.33599C21.7809 5.25866 21.8606 5.11526 21.8405 5.09726C21.8079 5.06822 21.4885 5.08629 21.4464 5.09226C21.4182 5.09632 21.3466 5.22466 21.3334 5.25759C21.3206 5.29049 21.3378 5.28676 21.3661 5.27579Z" fill="white"/>
<path d="M21.8451 7.35737C21.9009 7.16863 21.899 6.96749 21.8395 6.77987C21.7712 6.56233 21.6016 6.42973 21.4793 6.36177L21.4574 6.5712C21.4574 6.5712 21.629 6.65647 21.7463 6.87113C21.8206 7.0073 21.8516 7.19983 21.7929 7.41447C21.7831 7.46777 21.8212 7.4384 21.8451 7.35733M20.0301 8.4076C20.0803 8.23765 20.0786 8.05656 20.0252 7.8876C19.9636 7.6917 19.8109 7.57227 19.7007 7.51127L19.681 7.6998C19.681 7.6998 19.8354 7.7766 19.9411 7.96973C20.0081 8.09223 20.0359 8.26587 19.9832 8.45907C19.9744 8.50687 20.0086 8.48053 20.0301 8.4076ZM13.7288 5.55597C13.7995 5.6852 13.8288 5.86823 13.7732 6.07207C13.7639 6.12263 13.7999 6.09487 13.8228 6.0179C13.8757 5.83856 13.8738 5.64751 13.8173 5.46927C13.7524 5.26257 13.5913 5.1367 13.475 5.07227L13.4545 5.27117C13.4545 5.27117 13.6175 5.3521 13.7288 5.55597ZM9.47509 5.62283C9.53443 5.76197 9.53843 5.9498 9.44259 6.14767C9.42396 6.19737 9.46933 6.17383 9.50743 6.09947C9.58519 5.94743 9.62886 5.75713 9.58943 5.54697C9.54896 5.33087 9.38663 5.18357 9.2651 5.1038L9.20996 5.30123C9.20996 5.30123 9.38149 5.40357 9.47509 5.62283Z" fill="white"/>
<path d="M10.6509 8.73277C10.7263 8.59277 10.7577 8.49861 10.7912 8.33277C10.8206 8.18694 10.8225 8.01844 10.8119 7.84691C11.0376 7.75491 11.3066 7.60221 11.3969 7.59097C11.3351 7.80321 11.4827 8.03221 11.7807 8.00231C11.8035 8.24231 11.823 8.45311 11.8349 8.57811C11.8592 8.83441 11.8556 9.15737 11.8548 9.21351C11.8538 9.26987 11.8946 9.25924 11.9365 9.13364C11.9924 8.96547 12.0097 8.52637 11.9894 8.23597C11.9846 8.16337 11.9763 8.06537 11.9664 7.95371C12.1596 7.86431 12.1917 7.69177 12.2639 7.61824C12.3291 7.84657 12.6879 7.87757 12.7987 7.82867C12.936 7.76801 12.981 7.65884 13.0164 7.40551C13.0518 7.15227 12.9486 7.05031 12.9117 7.02271C12.9081 7.05337 12.8182 7.35097 12.8182 7.35097C12.8182 7.35097 12.9034 7.44097 12.9077 7.48521C12.8383 7.54801 12.692 7.55187 12.5691 7.51187C12.4461 7.47187 12.4084 7.39827 12.4157 7.34887C12.4228 7.29934 12.4691 7.25424 12.4707 7.19387C12.472 7.13354 12.4431 7.15101 12.3939 7.20444C12.3447 7.25797 12.3129 7.30611 12.2448 7.42097C12.1891 7.51491 12.0987 7.62954 11.9393 7.66231C11.913 7.38644 11.8829 7.09294 11.8629 6.90857C11.8524 6.81124 11.7475 5.97014 11.74 5.87604C11.7335 5.79404 11.7213 5.69741 11.7233 5.65201C11.7253 5.61587 11.748 5.63021 11.7831 5.66801C11.8182 5.70577 11.8797 5.77161 11.8902 5.76647C11.926 5.74891 11.8894 5.63957 11.8426 5.54167C11.7958 5.44351 11.6362 5.05621 11.6027 5.04024C11.5855 5.03214 11.4777 5.27054 11.4714 5.31747C11.488 5.34681 11.5317 5.39301 11.5333 5.52437C11.5338 5.56101 11.5574 5.90641 11.59 6.23304C11.6186 6.52144 11.6565 6.79514 11.6602 6.82694C11.6862 7.04711 11.7178 7.35741 11.7478 7.66247C11.5748 7.62954 11.5288 7.51544 11.5326 7.45034C11.537 7.37691 11.5701 7.29401 11.5543 7.27527C11.5209 7.25527 11.3226 7.36611 11.0461 7.48521C10.961 7.52193 10.875 7.55639 10.7881 7.58854C10.764 7.38061 10.7323 7.18291 10.7195 7.03174L10.7179 7.01494C10.8998 7.00321 11.0487 6.91137 11.1165 6.82394C11.2011 6.71461 11.2603 6.48961 11.266 6.31727C11.2718 6.14471 11.1325 5.82927 11.0994 5.72897C11.066 5.62864 11.0487 5.55904 11.0458 5.52437C11.0428 5.48967 11.121 5.56454 11.1702 5.57924C11.2036 5.58591 11.1921 5.51371 11.1513 5.46417C11.1109 5.41477 10.8921 5.08281 10.8768 5.10607C10.8674 5.11974 10.7797 5.36397 10.774 5.40137C10.8085 5.42417 10.8489 5.48697 10.8517 5.54714C10.8546 5.60734 10.9028 5.87197 10.9562 6.01904C11.0098 6.16607 11.1239 6.44817 11.1312 6.52577C11.0496 6.58324 10.864 6.68057 10.6804 6.67477C10.649 6.41744 10.6092 6.11864 10.5879 5.90701C10.5797 5.82521 10.5791 5.73794 10.5804 5.69234C10.5814 5.65621 10.6074 5.66121 10.6432 5.69834C10.6792 5.73547 10.7344 5.78951 10.7457 5.78561C10.7703 5.77744 10.749 5.69547 10.7001 5.59814C10.6513 5.50081 10.4571 5.08914 10.4231 5.07377C10.4059 5.06591 10.3189 5.29711 10.3135 5.34431C10.3308 5.37351 10.3753 5.41867 10.3796 5.55001C10.3831 5.65461 10.4341 6.16717 10.4777 6.61861C10.296 6.52467 10.234 6.39037 10.2116 6.16491C10.1959 6.00771 10.1943 5.71817 10.1382 5.47597C10.1067 5.33907 10.0401 5.19997 9.96123 5.12611C9.9424 5.17161 9.8584 5.45091 9.8584 5.45091C9.8858 5.53111 9.97096 5.80114 9.96806 6.03514C9.96523 6.26914 9.9468 6.49791 9.68457 6.65547C9.42253 6.81317 9.02947 6.75047 8.9324 6.50447C8.83537 6.25834 9.0511 5.64117 9.04826 5.49547C9.04536 5.34981 9.01933 5.32971 8.95843 5.35377C8.89763 5.37781 8.77317 5.51827 8.666 5.74677C8.5588 5.97544 8.51113 6.25867 8.45023 6.45121C8.38953 6.64377 8.2923 6.83887 8.14183 6.82804C7.99136 6.81741 7.91037 6.67971 7.86407 6.48061C7.8177 6.28127 7.84606 6.01884 7.8587 5.95161C7.8901 5.78307 7.81737 5.81761 7.77277 6.08217C7.7452 6.24534 7.7178 6.50591 7.81487 6.77867C7.91173 7.05141 8.0769 7.15311 8.22163 7.11827C8.36643 7.08357 8.4937 6.74394 8.53863 6.59144C8.58346 6.43914 8.78403 5.76277 8.89763 5.72947C8.9135 5.80571 8.80933 6.05144 8.776 6.33887C8.74276 6.62631 8.8203 7.01241 9.18513 7.07921C9.54997 7.14604 9.7975 6.90941 9.88727 6.74514C9.9771 6.58064 10.019 6.40814 10.0291 6.32131C10.0408 6.54181 10.1913 6.88611 10.4836 6.98431L10.5137 6.99297C10.5317 7.17347 10.561 7.40907 10.5879 7.65647C10.5313 7.67401 10.4741 7.68972 10.4164 7.70357C10.4091 7.67987 10.4011 7.65664 10.3913 7.63531C10.3021 7.44341 10.1545 7.26657 9.9499 7.27881C9.7409 7.29121 9.513 7.57014 9.52296 7.77381C9.52953 7.91081 9.60497 8.02327 9.87923 8.05204C10.0045 8.06531 10.1375 8.05137 10.2749 8.02137C10.2943 8.07804 10.3065 8.13437 10.3079 8.18567C10.221 8.28731 9.50177 8.82974 8.96327 8.88191C8.42477 8.93401 8.26053 8.65171 8.25513 8.36834C8.25113 8.15274 8.38077 7.93757 8.47186 7.78867C8.60227 7.69327 8.70926 7.57401 8.77683 7.48201C8.79516 7.49334 8.81263 7.50377 8.82923 7.51347C8.8936 7.55087 8.91926 7.60677 8.91926 7.60677C8.93113 7.58854 8.98647 7.48891 8.96483 7.44021C8.95487 7.42821 8.9062 7.39827 8.8477 7.36271C8.90913 7.20961 8.9083 7.05671 8.8287 7.02271C8.7397 6.98481 8.62343 7.09014 8.57333 7.15437C8.55029 7.18387 8.53758 7.22012 8.53717 7.25754C8.5368 7.29847 8.55606 7.33544 8.60373 7.36837C8.6512 7.40081 8.6953 7.43017 8.73673 7.45667C8.61907 7.58024 8.34096 7.76134 8.17076 7.86767C8.16446 7.85207 8.13953 7.86854 8.10603 7.90801L8.05993 7.93647C7.92416 8.01954 7.5986 8.20197 7.5346 8.24661C7.47047 8.29137 7.51067 8.28327 7.5346 8.27327C7.57977 8.24891 7.6391 8.21934 7.70576 8.18677C7.80016 8.14061 7.91 8.08834 8.01737 8.03591C7.98209 8.09565 7.95077 8.15764 7.9236 8.22147C7.7955 8.52391 7.58843 9.15077 8.03636 9.52794C8.46493 9.88897 9.20156 9.75161 9.81246 9.37641C10.4235 9.00111 10.5554 8.86917 10.6509 8.73274M8.65906 7.24167C8.63786 7.22604 8.63493 7.20521 8.6522 7.19067C8.6742 7.17194 8.70233 7.15421 8.7343 7.14824C8.80203 7.13564 8.82906 7.21347 8.80186 7.33471C8.75036 7.30321 8.6974 7.27011 8.65906 7.24167ZM10.0604 7.75297C9.7493 7.75441 9.73497 7.69794 9.7408 7.66181C9.74656 7.62584 9.84343 7.52714 9.96633 7.59224C10.0183 7.61984 10.0768 7.67757 10.1309 7.75011C10.107 7.75187 10.0835 7.75277 10.0604 7.75297ZM9.10763 9.38881C8.5199 9.54921 7.94663 9.30071 7.91193 8.80864C7.88536 8.43291 8.0224 8.14981 8.11077 7.99024C8.19507 7.94857 8.27467 7.90804 8.3405 7.87174C8.18667 8.11951 8.09663 8.45131 8.1568 8.73241C8.2249 9.05084 8.50193 9.24387 8.97093 9.18157C9.4353 9.12004 10.0632 8.67841 10.2412 8.51184C10.2955 8.45174 10.3312 8.39754 10.38 8.28714C10.4001 8.24181 10.4283 8.18197 10.4388 8.11434C10.4457 8.07027 10.4493 8.02317 10.4501 7.97524C10.5054 7.95859 10.5602 7.94054 10.6146 7.92111C10.6333 8.12271 10.6471 8.32144 10.6479 8.49327C10.3586 8.83261 9.69533 9.22834 9.10763 9.38881ZM19.3875 8.09851C19.3676 7.76931 19.3196 7.17341 19.2928 6.87114C19.269 6.60211 19.2224 6.23337 19.1882 5.90881C19.1813 5.84055 19.1784 5.77194 19.1796 5.70334C19.1806 5.66741 19.2166 5.68124 19.2526 5.71821C19.2886 5.75517 19.3448 5.80161 19.3554 5.79594C19.3905 5.77771 19.3485 5.68757 19.2991 5.59057C19.2497 5.49341 19.0538 5.09151 19.0198 5.07624C19.0024 5.06847 18.9107 5.30924 18.9054 5.35641C18.9229 5.38544 18.9677 5.43044 18.9726 5.56177C18.9775 5.69321 19.0439 6.29744 19.0918 6.78611C19.125 7.12581 19.168 7.68007 19.1992 8.09801C19.1976 8.09867 19.2287 8.49534 19.232 8.53991C19.2512 8.79654 19.2413 9.11941 19.2394 9.17547C19.2372 9.23177 19.2784 9.22197 19.3226 9.09704C19.3676 8.96947 19.3933 8.68471 19.3968 8.42754L19.3875 8.09851ZM17.7188 6.94601C17.6585 6.96441 17.5639 6.90067 17.5711 6.76704C17.5777 6.64634 17.6294 6.53331 17.6493 6.46197C17.6767 6.36354 17.6769 6.26864 17.6537 6.32244C17.6015 6.44264 17.5042 6.67504 17.4841 6.83274C17.464 6.99041 17.5151 7.09207 17.5846 7.12674C17.6711 7.17021 17.7335 7.10124 17.7757 6.99961C17.8162 6.90227 17.8085 6.78867 17.7804 6.81541C17.7569 6.84337 17.7481 6.93697 17.7188 6.94601ZM16.8525 7.43174C16.8845 7.34684 16.892 7.26361 16.8674 7.30927C16.812 7.41161 16.7082 7.60927 16.6778 7.74661C16.6475 7.88394 16.6843 7.97691 16.7427 8.01211C16.8156 8.05617 16.8755 7.99971 16.9209 7.91317C16.9643 7.83037 16.9665 7.72984 16.9398 7.75161C16.9168 7.77457 16.9016 7.85617 16.8753 7.86217C16.8206 7.87424 16.7426 7.81177 16.7595 7.69461C16.7748 7.58911 16.8293 7.49314 16.8525 7.43174ZM14.33 9.22324C14.3834 9.13657 14.41 9.04667 14.3729 9.09207C14.2902 9.19354 14.1336 9.39047 14.0705 9.53491C14.0075 9.67934 14.0275 9.78781 14.0837 9.83721C14.1537 9.89881 14.2318 9.84817 14.3 9.76214C14.3655 9.67967 14.3899 9.57027 14.3557 9.58894C14.3257 9.60994 14.2913 9.69631 14.2611 9.69794C14.1989 9.70094 14.1272 9.61814 14.1712 9.49337C14.211 9.38077 14.2914 9.28604 14.33 9.22327M18.7525 6.69327C18.6913 6.70861 18.6007 6.64001 18.6159 6.50687C18.6296 6.38674 18.6882 6.27661 18.7122 6.20654C18.7456 6.10954 18.7513 6.01491 18.725 6.06724C18.6658 6.18474 18.5548 6.41164 18.5251 6.56814C18.4954 6.72457 18.5403 6.82864 18.6076 6.86691C18.6916 6.91451 18.7577 6.84901 18.8061 6.74957C18.8524 6.65451 18.8517 6.54071 18.8218 6.56604C18.7967 6.59287 18.7824 6.68584 18.7525 6.69327ZM18.7338 8.32637C18.8176 8.37401 18.8841 8.30847 18.9323 8.20904C18.9785 8.11401 18.9778 8.00021 18.9482 8.02554C18.9229 8.05221 18.9085 8.14531 18.8787 8.15274C18.8174 8.16801 18.7267 8.09947 18.742 7.96637C18.7558 7.84624 18.8142 7.73601 18.8383 7.66604C18.8717 7.56904 18.8774 7.47424 18.8511 7.52671C18.7918 7.64424 18.6809 7.87114 18.6512 8.02747C18.6216 8.18407 18.6664 8.28814 18.7338 8.32637ZM19.805 6.24027C19.8454 6.12294 19.8523 6.00837 19.8204 6.07177C19.7486 6.21391 19.6144 6.48844 19.5784 6.67794C19.5426 6.86727 19.597 6.99314 19.6785 7.03947C19.7799 7.09704 19.8602 7.01781 19.9187 6.89757C19.9745 6.78254 19.9737 6.64467 19.9377 6.67551C19.9073 6.70784 19.8899 6.82027 19.8537 6.82931C19.7797 6.84787 19.6699 6.76487 19.6884 6.60384C19.7051 6.45847 19.7759 6.32517 19.805 6.24027Z" fill="white"/>
<path d="M11.2441 8.26979C11.3101 8.12679 11.334 7.98362 11.2854 8.05982C11.1767 8.23042 10.9719 8.56076 10.902 8.79476C10.8319 9.02882 10.8838 9.19326 10.9801 9.26069C11.1003 9.34446 11.2116 9.25362 11.3008 9.10919C11.3861 8.97066 11.4031 8.79719 11.3539 8.83186C11.3114 8.86902 11.2747 9.00866 11.2282 9.01599C11.1325 9.03099 11.0054 8.91436 11.0498 8.71389C11.0899 8.53299 11.1964 8.37326 11.2441 8.26979ZM20.4876 9.68752C20.5381 9.64609 20.978 9.40912 21.059 9.36102C21.059 9.36102 21.1418 9.22596 21.117 9.21159C21.0921 9.19726 20.9315 9.34326 20.8316 9.34732C20.7316 9.35139 20.5948 9.27796 20.5904 9.21776C20.6034 9.17236 20.7236 9.10412 20.767 9.10136C20.8105 9.09882 20.8035 9.19776 20.818 9.20982C20.8325 9.22172 20.8903 9.14152 20.8976 9.10812C20.9047 9.07479 20.8988 8.93512 20.8193 8.95512C20.6934 8.98699 20.5035 9.22046 20.4818 9.29389C20.46 9.36752 20.5773 9.43156 20.663 9.46646C20.6556 9.46912 20.5917 9.49986 20.5513 9.53989C20.5513 9.53989 20.5078 9.58859 20.4876 9.68752ZM18.9876 9.98102C19.0381 9.93959 19.478 9.70279 19.559 9.65452C19.559 9.65452 19.642 9.51946 19.617 9.50509C19.5921 9.49076 19.4315 9.63676 19.3316 9.64082C19.2316 9.64489 19.0948 9.57146 19.0904 9.51126C19.1034 9.46586 19.2236 9.39762 19.267 9.39502C19.3105 9.39232 19.3035 9.49116 19.318 9.50316C19.3325 9.51522 19.3903 9.43502 19.3976 9.40162C19.4047 9.36829 19.3986 9.22862 19.3193 9.24862C19.1934 9.28062 19.0035 9.51396 18.9818 9.58756C18.96 9.66102 19.0773 9.72509 19.1628 9.75996C19.1557 9.76262 19.0917 9.79329 19.0513 9.83339C19.0513 9.83339 19.0078 9.88209 18.9876 9.98102ZM15.6088 5.73402C15.6483 5.77986 15.9066 6.10816 16.1091 6.31452C16.3114 6.52109 16.6582 6.85539 16.9131 7.08449C16.9652 7.13146 17.0168 7.17898 17.0679 7.22706C17.1322 7.72052 17.2065 8.34849 17.2377 8.60816C17.2685 8.86382 17.2731 9.18672 17.2737 9.24292C17.2743 9.29926 17.3148 9.28776 17.3533 9.16139C17.405 8.99179 17.4109 8.55269 17.3836 8.26262C17.3666 8.08352 17.3265 7.74796 17.2877 7.43859C17.4382 7.58726 17.5803 7.73472 17.6761 7.84512C17.8522 8.04779 18.0004 8.20069 18.0907 8.41856C18.1546 8.57269 18.1481 8.69536 18.1743 8.71956C18.197 8.74049 18.222 8.55606 18.194 8.37719C18.1488 8.08672 18.0867 7.96356 17.7138 7.54886C17.5715 7.39029 17.4041 7.22459 17.2404 7.06969C17.2341 7.02192 17.2283 6.97769 17.2231 6.93842C17.2102 6.84142 17.0838 6.00289 17.0739 5.90892C17.0654 5.82712 17.0505 5.73082 17.0517 5.68532C17.0526 5.64909 17.0756 5.66319 17.1117 5.70019C17.1477 5.73706 17.2107 5.80162 17.2214 5.79599C17.2566 5.77776 17.2174 5.66946 17.168 5.57229C17.1188 5.47529 16.9492 5.09156 16.9152 5.07636C16.8979 5.06859 16.7963 5.30926 16.7911 5.35636C16.8087 5.38539 16.8534 5.43066 16.8583 5.56182C16.8596 5.59846 16.8922 5.94336 16.933 6.26902C16.9691 6.55679 17.0139 6.82969 17.0185 6.86129L17.0187 6.86372C16.8499 6.70976 16.7012 6.57899 16.611 6.49686C16.4 6.30519 15.9342 5.85026 15.9155 5.78212C15.9113 5.76062 15.9475 5.77386 16.0139 5.78449C16.0807 5.79522 16.14 5.81792 16.1293 5.78516C16.1245 5.76972 16.0989 5.73159 16.0353 5.69222C15.9716 5.65282 15.8083 5.55069 15.6869 5.47842C15.5652 5.40626 15.5049 5.34572 15.4798 5.36302C15.4674 5.37156 15.4785 5.61879 15.4857 5.64962C15.5161 5.65222 15.5696 5.68802 15.6088 5.73402" fill="white"/>
<path d="M15.9411 5.28902C15.9911 5.27806 16.2277 5.28403 16.3136 5.30213C16.2776 5.32713 16.0355 5.44943 15.9877 5.47856C15.9401 5.50776 15.9281 5.52462 15.952 5.52176C16.0214 5.50252 16.1778 5.47856 16.2527 5.43946C16.3234 5.40636 16.4438 5.24496 16.4907 5.18479C16.5372 5.12459 16.5372 5.09456 16.5253 5.07843C16.4775 5.05243 16.1691 5.02632 16.0204 5.06322C15.9792 5.09116 15.8987 5.23999 15.8868 5.27096C15.8749 5.30213 15.8912 5.29999 15.9411 5.28902M17.2574 5.26966C17.2977 5.26079 17.4885 5.26559 17.5576 5.28012C17.5286 5.30029 17.3336 5.39889 17.2951 5.42253C17.2565 5.44593 17.2469 5.45959 17.2661 5.45723C17.3221 5.44189 17.4482 5.42256 17.5085 5.39089C17.5654 5.36422 17.6625 5.23412 17.7002 5.18576C17.7377 5.13712 17.7377 5.11299 17.7281 5.10009C17.6898 5.07889 17.4411 5.05796 17.3213 5.08776C17.288 5.11019 17.2233 5.23016 17.2137 5.25512C17.204 5.28012 17.2172 5.27853 17.2574 5.26966ZM18.3274 5.25593C18.3675 5.24706 18.5583 5.25186 18.6274 5.26639C18.5986 5.28656 18.4035 5.38516 18.3649 5.40862C18.3265 5.43216 18.3169 5.44583 18.3361 5.44349C18.3921 5.42813 18.528 5.40863 18.5883 5.37713C18.6453 5.35046 18.7128 5.22036 18.7505 5.17182C18.7882 5.12339 18.7882 5.09906 18.7784 5.08633C18.7401 5.06513 18.511 5.04419 18.3913 5.07383C18.358 5.09646 18.2931 5.21639 18.2835 5.24139C18.2739 5.26639 18.287 5.26476 18.3274 5.25589M17.6599 5.77702C17.5965 5.87682 17.6759 5.95736 17.7049 6.03796C17.6658 6.07366 17.6057 6.04109 17.5856 6.00976C17.5429 5.94552 17.5572 5.81459 17.5069 5.79443C17.4941 5.82979 17.4857 5.86906 17.4857 5.86906C17.4857 5.86906 17.5239 5.95859 17.5143 6.01786C17.5082 6.05366 17.4766 6.09546 17.4349 6.09629C17.3237 6.09896 17.3785 5.93439 17.3356 5.84109C17.3268 5.86389 17.3205 5.88839 17.3103 5.90976C17.3181 5.93406 17.3224 5.96816 17.3237 5.98783C17.3262 6.02689 17.3231 6.06902 17.3298 6.10236C17.339 6.14956 17.3652 6.18086 17.4052 6.18389C17.4883 6.19049 17.5262 6.12323 17.5387 6.06799C17.553 6.12433 17.6629 6.18632 17.7169 6.11722C17.7885 6.02606 17.7313 5.94796 17.6946 5.86222C17.6681 5.79882 17.6758 5.75722 17.6599 5.77702ZM14.5386 5.51239C14.5444 5.55343 14.5655 5.58146 14.5999 5.58569C14.6709 5.59469 14.7069 5.53822 14.7203 5.49129C14.7297 5.54036 14.8216 5.59809 14.8715 5.54086C14.9375 5.46512 14.8918 5.39559 14.8642 5.32019C14.8445 5.26432 14.853 5.22886 14.8384 5.24532C14.779 5.32856 14.8437 5.40139 14.8648 5.47206C14.8294 5.50109 14.7793 5.47062 14.7634 5.44302C14.7296 5.38586 14.7481 5.27369 14.7059 5.25419C14.6931 5.28423 14.6841 5.31759 14.6841 5.31759C14.6841 5.31759 14.7126 5.39632 14.7015 5.44692C14.6947 5.47756 14.6655 5.51226 14.6294 5.51133C14.5336 5.50919 14.5886 5.36959 14.5559 5.28763C14.5474 5.30679 14.5407 5.32779 14.5308 5.34553C14.5365 5.36696 14.5386 5.39632 14.5386 5.41349C14.5393 5.44722 14.5346 5.48319 14.5386 5.51239ZM16.8049 9.37839C16.8155 9.36142 16.8391 9.31486 16.8332 9.28303C16.8273 9.25119 16.7882 9.11843 16.7125 9.08516C16.6373 9.05189 16.5804 9.12162 16.5443 9.21863L16.5193 9.21802C16.5133 9.23236 16.5059 9.25382 16.4999 9.29256C16.4915 9.34852 16.4756 9.38456 16.3797 9.47169C16.299 9.54463 16.0375 9.71979 15.868 9.80209C15.6984 9.88456 15.5763 9.95572 15.5313 9.97732C15.4865 9.99859 15.4995 10.0065 15.5443 9.99312C15.5891 9.97979 15.8142 9.90726 15.904 9.87029C15.9936 9.83306 16.1031 9.77186 16.2351 9.68619C16.382 9.59096 16.4697 9.49576 16.4992 9.41133C16.5202 9.35116 16.5256 9.32709 16.5256 9.32709C16.5256 9.32709 16.5807 9.35966 16.6743 9.38103C16.7675 9.40246 16.794 9.39556 16.8049 9.37843M16.6783 9.18976C16.7199 9.20553 16.7452 9.25076 16.7527 9.27822C16.705 9.27929 16.6172 9.25509 16.5799 9.23823C16.6024 9.19473 16.6414 9.17589 16.6783 9.18976Z" fill="white"/>
<path d="M15.8113 9.47226C15.6811 9.45419 15.353 9.40429 15.2727 9.21386C15.3401 9.11559 15.6505 8.99119 16.0392 8.87476C16.428 8.75863 16.8342 8.60786 16.9434 8.53509C16.9673 8.52699 17.0136 8.52943 17.0136 8.52943C17.0332 8.47313 17.1308 8.27543 17.1369 8.23409C17.0282 8.24023 16.3585 8.28943 16.0611 8.30543C15.7634 8.32143 15.1902 8.31756 14.9992 8.31543C15.1163 8.23119 15.3944 8.06676 15.7917 7.92646C15.8432 7.90823 15.8909 7.89179 15.9353 7.87693C15.9684 7.93583 15.9929 7.99409 15.9981 8.04483C16.0233 8.01883 16.0423 7.93263 16.0359 7.84416C16.2676 7.77023 16.3869 7.74573 16.4384 7.73183C16.4709 7.68969 16.5285 7.51933 16.5371 7.39549C16.5025 7.33246 16.3941 7.25393 16.2977 7.18649C16.1649 7.09373 16.0216 7.01283 15.8786 7.04823C15.6832 7.09616 15.644 7.45526 15.6895 7.53143C15.7041 7.55546 15.7385 7.59809 15.7791 7.65069C15.6363 7.70683 15.4869 7.77283 15.3553 7.84223C15.062 7.99669 14.7346 8.16569 14.6391 8.32819L14.6117 8.34153C14.6041 8.35689 14.5436 8.60836 14.5348 8.63546C14.5958 8.63336 15.0512 8.63419 15.3684 8.62433C15.6854 8.61419 15.9626 8.60413 16.0712 8.60413C15.9104 8.64223 15.489 8.79879 15.3679 8.89089C15.2467 8.98323 15.1706 9.12362 15.1686 9.36429C15.0556 9.32006 14.8457 9.21903 14.6669 8.97709C14.4675 8.70746 14.5087 8.43016 14.4289 8.06626C14.313 7.53816 14.0654 7.09226 13.9112 6.95589C13.8592 7.14226 13.8525 7.28273 13.8525 7.28273C13.8525 7.28273 14.0457 7.70986 14.1435 7.98253C14.2413 8.25526 14.3249 8.52396 14.3207 8.58413C14.2402 8.76073 13.7635 9.13063 13.3663 9.34713C12.9895 9.55246 12.6577 9.57456 12.5401 9.42836C12.517 9.39983 12.5013 9.36606 12.4924 9.32783C12.5435 9.30393 12.5948 9.27986 12.6474 9.25583C12.9862 9.10149 13.5878 8.77669 13.7287 8.60626C13.8808 8.39969 13.8787 8.10889 13.7895 7.94243C13.7007 7.77603 13.5614 7.58343 13.5505 7.51529C13.542 7.48313 13.641 7.52836 13.6994 7.53143C13.7277 7.52929 13.7136 7.49123 13.6529 7.43103C13.6043 7.38309 13.4165 7.22753 13.3447 7.16683C13.3267 7.15139 13.3133 7.15763 13.3097 7.17393C13.2957 7.23606 13.2671 7.36909 13.2561 7.43476L13.2637 7.46786C13.2844 7.48009 13.3081 7.49386 13.3196 7.52819C13.3359 7.57689 13.3927 7.71283 13.4859 7.88436C13.5794 8.05579 13.7143 8.24503 13.7275 8.34059C13.6178 8.48056 13.0644 8.77859 12.5254 9.02426C12.5587 8.92093 12.6113 8.80413 12.681 8.67436C12.7008 8.65243 12.7189 8.62536 12.7357 8.59476C12.7895 8.49653 12.7947 8.37639 12.7621 8.40179C12.7342 8.42873 12.7141 8.52623 12.6821 8.53279C12.6167 8.54623 12.5248 8.46983 12.5479 8.33013C12.5688 8.20413 12.6362 8.09033 12.6653 8.01746C12.7057 7.91666 12.7167 7.81706 12.6861 7.87126C12.6174 7.99229 12.4884 8.22683 12.4488 8.39066C12.4093 8.55426 12.4512 8.66609 12.5203 8.70939C12.5462 8.72586 12.5709 8.73102 12.5945 8.72779C12.5472 8.81779 12.4888 8.92819 12.4461 9.05989C12.2294 9.15689 12.0185 9.24356 11.8439 9.30603C11.2164 9.53069 10.7692 9.66302 10.4564 9.76129L10.4441 9.76676C10.4671 9.69243 10.464 9.62893 10.4394 9.64799C10.4114 9.67509 10.3914 9.77259 10.3595 9.77899C10.294 9.79243 10.2022 9.71613 10.2252 9.57633C10.2462 9.45033 10.3136 9.33666 10.3427 9.26376C10.3829 9.16306 10.394 9.06326 10.3635 9.11756C10.2947 9.23859 10.1657 9.47309 10.1261 9.63686C10.0866 9.80053 10.1285 9.91239 10.1975 9.95576C10.2835 10.0098 10.3568 9.94353 10.4131 9.84106L10.4328 9.79892C10.4523 9.79892 10.4853 9.79436 10.5345 9.78339C10.6778 9.75116 11.0362 9.69916 11.529 9.63493C11.8938 9.58746 12.1457 9.48726 12.3892 9.37576C12.388 9.4033 12.388 9.43088 12.389 9.45843C12.4023 9.79276 12.6214 9.88716 12.9211 9.82459C13.2101 9.76393 13.6132 9.49883 13.8548 9.32006C14.1067 9.13366 14.2521 8.96713 14.2892 8.90906C14.3563 8.76663 14.3748 8.60929 14.3794 8.53506C14.4014 8.73953 14.4192 9.02249 14.6125 9.26519C14.7906 9.48853 15.1554 9.80019 15.8417 9.80873C15.8439 9.72709 15.8112 9.47226 15.8112 9.47226M15.7659 7.40039C15.8641 7.29016 16.0737 7.36226 16.2311 7.50206C16.1504 7.52096 16.041 7.55463 15.9202 7.59776C15.8484 7.51123 15.7683 7.42783 15.7659 7.40043M11.9079 5.88889C11.9524 5.86856 12.0887 5.80723 12.2357 5.72166C12.3823 5.63666 12.5201 5.53366 12.5874 5.46519C12.6133 5.43896 12.6363 5.41843 12.651 5.39403C12.695 5.41226 12.7253 5.43119 12.7442 5.43863C12.7726 5.44959 12.8105 5.46536 12.8351 5.38449C12.8597 5.30373 12.8271 5.25156 12.7791 5.18926C12.7384 5.13699 12.674 5.05849 12.6217 5.03899C12.5773 5.02236 12.5562 5.12146 12.563 5.11899H12.5927L12.5984 5.12179C12.5373 5.15263 12.49 5.24853 12.4853 5.28219C12.4804 5.31886 12.4874 5.34586 12.575 5.36839L12.6103 5.37876C12.5371 5.46536 12.4008 5.55493 12.3079 5.61843C12.1762 5.70876 11.9892 5.82159 11.936 5.85419C11.8828 5.88659 11.8872 5.89686 11.9079 5.88889ZM12.6997 5.25256L12.7044 5.20926C12.766 5.27949 12.8118 5.36306 12.8072 5.37489C12.7789 5.37716 12.7437 5.35099 12.682 5.32466C12.6896 5.30107 12.6955 5.27698 12.6997 5.25256ZM12.5227 5.25266C12.5224 5.23949 12.5461 5.20286 12.5963 5.18283C12.6464 5.16266 12.6686 5.21896 12.673 5.28749L12.6581 5.31496L12.6129 5.29933C12.5651 5.28533 12.5327 5.27739 12.5227 5.25266Z" fill="white"/>
<path d="M15.1938 7.21061C15.2661 7.16285 15.4649 7.01935 15.5777 6.92528C15.6561 6.85995 15.7482 6.76375 15.8107 6.68235C15.8466 6.70564 15.883 6.72815 15.9199 6.74988C15.9842 6.78745 16.0101 6.84318 16.0101 6.84318C16.0219 6.82495 16.0773 6.72518 16.0556 6.67661C16.0426 6.66075 15.9636 6.61458 15.8828 6.56511C15.9238 6.47311 15.9802 6.31398 15.8994 6.25828C15.8303 6.21098 15.7137 6.28925 15.6597 6.39078C15.6152 6.47488 15.6094 6.54621 15.6944 6.60461C15.7183 6.62108 15.7413 6.63661 15.7637 6.65138C15.678 6.74518 15.5201 6.88395 15.4076 6.97838C15.268 7.09521 15.136 7.20978 15.113 7.23711L15.1063 7.24778C15.0759 7.16285 15.0842 7.11045 15.0615 7.13861C14.9637 7.29198 15.0863 7.41628 15.1308 7.54035C15.0706 7.59501 14.9783 7.54481 14.9473 7.49695C14.8814 7.39785 14.9034 7.19661 14.8262 7.16545C14.8063 7.21981 14.7934 7.28035 14.7934 7.28035C14.7934 7.28035 14.8521 7.41818 14.8372 7.50918C14.828 7.56425 14.7792 7.62865 14.7152 7.62975C14.5439 7.63411 14.6284 7.38075 14.5623 7.23721C14.5489 7.27241 14.5393 7.31005 14.5232 7.34265C14.5353 7.38038 14.542 7.43271 14.5437 7.46301C14.5481 7.52321 14.5432 7.58778 14.5533 7.63945C14.5675 7.71205 14.6078 7.76031 14.6695 7.76478C14.7972 7.77518 14.8555 7.67135 14.8749 7.58668C14.8969 7.67328 15.0661 7.76851 15.1492 7.66235C15.2595 7.52195 15.1712 7.40175 15.1149 7.26968L15.1083 7.25258C15.1161 7.25535 15.1456 7.24245 15.1938 7.21061ZM15.6934 6.42018C15.7358 6.34158 15.825 6.33491 15.8518 6.37611C15.873 6.40885 15.8748 6.47278 15.8428 6.54021C15.7641 6.49081 15.6939 6.44245 15.6934 6.42018Z" fill="white"/>
<path d="M12.4053 6.71117C12.2549 6.7005 12.1739 6.56267 12.1276 6.36353C12.0812 6.1644 12.1096 5.9018 12.1222 5.83453C12.1348 5.76733 12.0639 5.80203 12.0363 5.9652C12.0089 6.1282 11.9813 6.38887 12.0784 6.66177C12.1753 6.93433 12.3404 7.03607 12.4851 7.0012C12.6299 6.96653 12.7572 6.6269 12.8021 6.47453C12.847 6.3221 13.0476 5.7004 13.1611 5.66697C13.177 5.7432 13.0729 5.93437 13.0395 6.2218C13.0064 6.50923 13.0641 6.88623 13.4289 6.9531C13.7938 7.02003 14.0413 6.78333 14.1311 6.6188C14.2209 6.45453 14.2628 6.2818 14.2729 6.19507C14.2846 6.41563 14.4351 6.76003 14.7273 6.8582C15.0097 6.9531 15.2255 6.8662 15.3208 6.74323C15.4055 6.634 15.4744 6.40903 15.4803 6.2365C15.4861 6.06413 15.3371 5.74867 15.3037 5.64823C15.2703 5.54803 15.2531 5.47847 15.2501 5.44377C15.2473 5.4091 15.3256 5.48397 15.3748 5.49863C15.4081 5.5053 15.3964 5.43313 15.3559 5.38357C15.3154 5.3342 15.0965 5.00223 15.0811 5.02533C15.0717 5.03917 14.9841 5.2834 14.9783 5.32077C15.013 5.34357 15.0532 5.40637 15.0562 5.46657C15.059 5.52673 15.1169 5.7914 15.1705 5.93843C15.2241 6.08547 15.3283 6.3676 15.3356 6.44517C15.2314 6.5186 14.9968 6.61207 14.7739 6.51733C14.551 6.4223 14.4799 6.2846 14.4554 6.03863C14.4397 5.88147 14.4381 5.5919 14.382 5.34983C14.3505 5.21297 14.2839 5.07387 14.2048 5C14.1862 5.04533 14.1022 5.32483 14.1022 5.32483C14.1296 5.40503 14.2148 5.67507 14.212 5.90907C14.209 6.1429 14.1906 6.37173 13.9284 6.5294C13.6663 6.6871 13.293 6.6243 13.1959 6.37823C13.0989 6.13223 13.3146 5.57883 13.3118 5.43313C13.3089 5.28747 13.2827 5.26727 13.222 5.2914C13.1611 5.31547 13.0365 5.45593 12.9295 5.68443C12.8223 5.9131 12.7748 6.14163 12.7138 6.33417C12.653 6.5267 12.5558 6.7218 12.4053 6.71117ZM8.03648 5.8583C8.22165 5.84487 8.37815 5.70447 8.41858 5.66717C8.45911 5.6296 8.48091 5.57363 8.45191 5.5949C8.23771 5.7861 7.95111 5.7915 7.93505 5.75937C7.94235 5.72727 8.01775 5.6751 8.12778 5.60167C8.19461 5.557 8.25415 5.51513 8.29871 5.4558L8.31085 5.4579C8.39238 5.4758 8.48651 5.51143 8.51528 5.4829C8.56211 5.43673 8.56831 5.3611 8.51755 5.27957C8.47465 5.21033 8.37455 5.1459 8.28765 5.0994C8.20091 5.05313 8.18411 5.127 8.17298 5.15333C8.16231 5.1779 8.16665 5.19883 8.18501 5.19933C8.15708 5.23743 8.13718 5.28647 8.12988 5.327C8.12515 5.35317 8.12898 5.3746 8.13965 5.39223C8.14275 5.39723 8.15881 5.4169 8.18921 5.42853L8.22695 5.44027C8.16201 5.5002 8.08725 5.54713 8.04798 5.57087C7.97715 5.61367 7.89315 5.68853 7.86711 5.76593C7.84101 5.8436 7.85111 5.8717 8.03648 5.85827M8.36381 5.31213L8.37091 5.27263V5.2473C8.42961 5.29 8.52348 5.37087 8.51775 5.41933C8.48058 5.4109 8.40975 5.39593 8.34241 5.37867C8.35101 5.35847 8.35805 5.33633 8.36381 5.31213ZM8.18978 5.32447C8.14658 5.29 8.18868 5.25567 8.22695 5.23353C8.27635 5.205 8.30528 5.22853 8.33058 5.30343C8.32113 5.32555 8.30907 5.34646 8.29468 5.36573C8.25625 5.35383 8.20211 5.33473 8.18978 5.32447ZM8.59198 7.9494C8.53875 7.99557 8.51811 8.14583 8.52898 8.15487C8.53975 8.1639 8.70611 8.22003 8.73211 8.2322L8.74401 8.18693C8.82325 8.2581 8.91108 8.61317 8.93061 8.61417C8.95015 8.6151 8.97848 8.574 8.99701 8.4797C9.01408 8.39223 9.03115 8.2614 9.04895 8.15487C9.06558 8.05737 9.09141 8.00157 9.15001 7.99043C9.20871 7.97943 9.25218 8.05467 9.26735 8.10583C9.26735 8.10583 9.30851 8.0075 9.31728 7.94637C9.30751 7.9142 9.21621 7.793 9.14135 7.8331C9.06638 7.87327 9.01945 8.04337 9.00431 8.14973C8.98905 8.2559 8.97738 8.3876 8.95891 8.40873C8.93958 8.31807 8.87758 8.1558 8.80271 8.06463C8.71851 7.9625 8.62011 7.925 8.59198 7.9494ZM7.88235 7.7679C7.95185 7.74883 8.10825 7.72487 8.18311 7.68577C8.25368 7.6527 8.37411 7.4913 8.42085 7.4311C8.46751 7.3709 8.46761 7.3407 8.45575 7.32477C8.40798 7.29857 8.09948 7.27267 7.95065 7.30953C7.90955 7.3373 7.82911 7.48613 7.81725 7.5173C7.80521 7.54827 7.82165 7.5463 7.87148 7.53533C7.92145 7.5242 8.15818 7.5302 8.24381 7.54827C8.20815 7.57343 7.96598 7.69573 7.91815 7.72487C7.87048 7.75387 7.85845 7.77093 7.88235 7.7679ZM22.2262 8.62953C22.2191 8.44913 22.1307 8.1722 21.7947 7.74723C21.6788 7.60053 21.5156 7.40957 21.3435 7.214C21.3388 7.14733 21.334 7.08637 21.3297 7.034C21.3072 6.76483 21.2307 6.21567 21.1979 5.891C21.1899 5.8091 21.1892 5.722 21.1904 5.6765C21.1916 5.64037 21.2176 5.64517 21.2534 5.6823C21.2892 5.71937 21.3443 5.77347 21.3558 5.76977C21.3803 5.76133 21.359 5.67937 21.3102 5.5822C21.2614 5.48487 21.0771 5.09123 21.0432 5.07597C21.0258 5.0682 20.9389 5.2993 20.9335 5.3466C20.9507 5.37563 20.9953 5.4208 20.9996 5.55223C21.0041 5.68357 21.0834 6.45933 21.1289 6.94817L21.1314 6.97543C20.8741 6.6882 20.6318 6.42627 20.5321 6.32007C20.5148 6.30167 20.4959 6.28073 20.4754 6.25827C20.4591 6.1275 20.4442 6.00293 20.4339 5.9C20.427 5.82873 20.4245 5.75711 20.4264 5.68553C20.4272 5.64947 20.4534 5.65437 20.4892 5.69153C20.5252 5.72857 20.5801 5.78267 20.5916 5.7788C20.6161 5.77053 20.5948 5.68857 20.5459 5.59123C20.4972 5.4939 20.305 5.09123 20.271 5.07597C20.2537 5.0682 20.1628 5.31773 20.1574 5.36463C20.1748 5.39387 20.2193 5.43903 20.2237 5.57047C20.2254 5.62627 20.2399 5.79543 20.2593 6.0089C20.0887 5.80623 19.9217 5.594 19.9099 5.5509C19.9057 5.5296 19.9417 5.5427 20.0085 5.5535C20.0749 5.56413 20.1373 5.58417 20.1266 5.55123C20.1216 5.53593 20.0962 5.49777 20.0326 5.45827C19.9689 5.41887 19.8056 5.3167 19.6842 5.2446C19.5625 5.17247 19.5022 5.11177 19.4771 5.12907C19.4647 5.1376 19.4757 5.385 19.4829 5.41563C19.5134 5.41843 19.57 5.44113 19.6059 5.48927C19.6423 5.53737 19.8749 5.86353 20.0589 6.08413C20.136 6.1764 20.2137 6.26823 20.2918 6.35963C20.3108 6.56283 20.3307 6.77277 20.3471 6.94817C20.3845 7.3483 20.5187 8.40357 20.52 8.7465C20.4209 8.8395 20.2183 8.96913 20.0098 8.97183C19.8014 8.97443 19.6871 8.91957 19.6031 8.7646C19.5772 8.71657 19.5531 8.66827 19.5291 8.62457C19.4724 8.52063 19.3456 8.4623 19.2235 8.4909L19.2048 8.4959L19.1716 8.51187C19.0889 8.55517 19.0033 8.62777 18.9197 8.74037C18.7751 8.9357 18.6827 9.14757 18.5757 9.3311C18.4642 9.5222 18.3786 9.65043 18.1831 9.61977C18.0454 9.59817 17.9408 9.4801 17.8764 9.3348C18.0574 9.20953 18.1889 9.04613 18.2851 8.81963C18.4102 8.5253 18.4549 8.19347 18.4437 7.82033C18.4331 7.46917 18.273 6.643 18.2307 6.3264C18.1885 6.0096 18.1279 5.7496 18.135 5.68197C18.1415 5.61673 18.2454 5.77037 18.2986 5.78183C18.3259 5.77577 18.3113 5.67777 18.2596 5.59493C18.2245 5.53863 18.1135 5.28253 18.0408 5.15903C18.0067 5.1006 17.9985 5.06677 17.9826 5.05983C17.9669 5.05267 17.8459 5.31107 17.8605 5.33917C17.8963 5.39033 17.9208 5.41473 17.9282 5.5064C17.9359 5.59807 18.0188 6.271 18.0913 6.7666C18.1459 7.14057 18.2665 7.81983 18.282 8.32193C18.2872 8.48577 18.2638 8.60337 18.2435 8.66903C18.1915 8.76967 18.1066 8.88143 17.8086 9.09357C17.7626 8.7938 17.8126 8.55027 17.769 8.52773C17.7198 8.53307 17.7119 8.67273 17.7064 8.84513C17.7036 8.92473 17.7071 9.03497 17.7221 9.1534C17.3561 9.39807 16.8725 9.6208 16.6454 9.73973C16.5122 9.80963 16.5603 9.82593 16.673 9.79107C16.7858 9.75603 17.4054 9.59353 17.7362 9.41957L17.7718 9.3998C17.7886 9.45813 17.809 9.5146 17.834 9.5667C17.9453 9.798 18.1044 9.93533 18.2767 9.9219C18.4216 9.91077 18.5267 9.7557 18.6183 9.57073C18.711 9.38353 18.8676 9.02797 19.0211 8.8957C19.0801 8.8447 19.1411 8.80437 19.2005 8.78013C19.2005 8.78013 19.3054 8.7451 19.4019 8.80813C19.4365 8.83093 19.4623 8.86337 19.4787 8.89967C19.5167 8.983 19.5617 9.089 19.6538 9.1778C19.8159 9.33397 20.0767 9.30173 20.2723 9.2109C20.4675 9.11997 20.5673 8.97817 20.6107 8.80967C20.6848 8.5214 20.673 8.22603 20.6588 7.96367C20.6425 7.66427 20.5946 7.35827 20.5674 7.034C20.5587 6.92977 20.5416 6.78477 20.522 6.6275C20.7124 6.8473 20.9102 7.0704 21.0302 7.1924C21.0715 7.2345 21.1152 7.28127 21.16 7.33067C21.1958 7.82143 21.2302 8.43557 21.2484 8.69327C21.2664 8.95007 21.2548 9.27287 21.2527 9.329C21.2505 9.38513 21.2817 9.3755 21.3265 9.2509C21.3866 9.08367 21.4243 8.64513 21.4112 8.35433C21.4033 8.18153 21.3861 7.86653 21.3674 7.56853C21.4975 7.72323 21.624 7.88085 21.7469 8.04127C21.9092 8.2538 22.0583 8.50653 22.1104 8.66423C22.1625 8.82207 22.1682 8.86883 22.1784 8.89697C22.1885 8.9251 22.2334 8.80993 22.2262 8.62953M19.485 14.6338C19.4703 14.5918 19.4254 14.5611 19.3717 14.5611C19.318 14.5611 19.2732 14.5918 19.2584 14.6338H18.75C18.7447 14.5772 18.7501 14.5201 18.7658 14.4655L19.8156 14.4648L19.8448 14.5141C19.8715 14.5586 19.9047 14.599 19.9432 14.6338L19.485 14.6338ZM20.1799 14.146H18.9184C19.0154 14.076 19.0662 13.9739 19.0526 13.8706C19.0439 13.8055 18.9794 13.7569 18.9007 13.7503H18.8612C18.7656 13.7596 18.6962 13.8286 18.7063 13.9043L18.7101 13.9334L18.7148 13.9782C18.7201 14.0346 18.7148 14.0915 18.6991 14.146H9.37451C9.51298 14.3474 9.76545 14.471 10.038 14.4708L18.5469 14.4655C18.4496 14.5356 18.3986 14.6379 18.4123 14.7414C18.4224 14.8171 18.508 14.871 18.6036 14.8617C18.6992 14.8524 18.7686 14.7834 18.7586 14.7076L18.7547 14.6786H19.2548C19.2636 14.7274 19.3123 14.7648 19.3717 14.7648C19.4311 14.7648 19.4798 14.7274 19.4887 14.6785H19.9974V14.6774C20.1036 14.7527 20.2386 14.796 20.3814 14.796C20.5157 14.796 20.6245 14.7027 20.6245 14.5875V14.5273C20.6245 14.3167 20.4255 14.1459 20.1799 14.1459" fill="white"/>
</g>
<defs>
<clipPath id="clip0_3815_54699">
<rect width="30" height="20" fill="white"/>
</clipPath>
</defs>
</svg>
