<svg width="17" height="20" viewBox="0 0 17 20" fill="none" xmlns="http://www.w3.org/2000/svg">
<path d="M16.6511 8.3364C16.6532 6.78195 16.22 5.25798 15.4006 3.93702C14.5812 2.61605 13.4084 1.55087 12.0149 0.862047C10.6214 0.173226 9.06285 -0.111716 7.51577 0.0394816C5.96869 0.190679 4.49483 0.771976 3.26106 1.71756C2.02729 2.66315 1.08289 3.93525 0.534765 5.38986C-0.0133578 6.84447 -0.143303 8.42348 0.159639 9.94813C0.462582 11.4728 1.18631 12.8822 2.2489 14.0167C3.31148 15.1513 4.67047 15.9657 6.17202 16.3678L7.83714 19.698C7.88372 19.789 7.95448 19.8653 8.04164 19.9185C8.1288 19.9718 8.22897 20 8.33112 20C8.43327 20 8.53345 19.9718 8.6206 19.9185C8.70776 19.8653 8.77853 19.789 8.82511 19.698L10.4902 16.3678C12.2617 15.9006 13.8279 14.8584 14.9429 13.4048C16.058 11.9512 16.6589 10.1684 16.6511 8.3364ZM9.99069 15.3632C9.95336 15.3722 9.91775 15.3872 9.88523 15.4076C9.85448 15.4221 9.8248 15.4388 9.79642 15.4575L9.72982 15.5297C9.70313 15.559 9.679 15.5906 9.65766 15.6241L8.32557 18.1939L7.05453 15.6518C7.0332 15.6184 7.00906 15.5868 6.98238 15.5575L6.91577 15.4853C6.88739 15.4666 6.85772 15.4499 6.82697 15.4353C6.79445 15.4149 6.75883 15.3999 6.72151 15.3909C4.99674 14.9891 3.47999 13.9669 2.46008 12.5191C1.44017 11.0713 0.988326 9.29899 1.19059 7.5396C1.39285 5.78021 2.23509 4.15666 3.55693 2.97807C4.87877 1.79948 6.5879 1.14817 8.35887 1.14817C10.1298 1.14817 11.839 1.79948 13.1608 2.97807C14.4827 4.15666 15.3249 5.78021 15.5272 7.5396C15.7294 9.29899 15.2776 11.0713 14.2577 12.5191C13.2378 13.9669 11.721 14.9891 9.99624 15.3909L9.99069 15.3632Z" fill="#002B87"/>
</svg>
