<svg width="359" height="116" viewBox="0 0 359 116" fill="none" xmlns="http://www.w3.org/2000/svg">
<path d="M69.5237 13.2855L69.4971 0.0325279H68.8701L68.8987 13.0143C68.9007 14.0978 68.5191 15.133 67.8527 15.8586L59.6069 24.2403L59.5981 19.7192V19.6926C59.6296 18.9916 59.8938 18.3331 60.3345 17.8746L66.644 11.5296C67.1912 10.9588 67.5057 10.1199 67.4968 9.2385L67.4514 4.39792L67.4416 -7.62939e-06L66.8274 0.00196838L66.8372 4.18399C66.8392 5.03085 66.5415 5.83728 66.0219 6.40415L59.4729 13.0893C59.3703 13.2007 59.2796 13.3239 59.1978 13.457C59.115 13.3239 59.0233 13.2007 58.9198 13.0912L52.2899 6.43077C51.7693 5.86784 51.4677 5.06141 51.4677 4.21357L51.4588 0.0325279L50.8446 0.0345039L50.8545 4.43243L50.8278 9.273C50.8219 10.1534 51.1384 10.9894 51.6895 11.5572L58.0237 17.8776C58.4663 18.337 58.7315 18.9916 58.768 19.6945V19.7212L58.7778 24.2423L50.4956 15.8891C49.8272 15.1684 49.4447 14.1363 49.4427 13.0548L49.4161 0.0729485H48.7911L48.8177 13.3269L48.7832 19.4106C48.7773 20.5 49.1657 21.5292 49.8459 22.2321L57.8018 30.1723C58.3667 30.752 58.7147 31.5988 58.7581 32.5028L58.7867 53.6919L59.1958 54.1523L59.6572 53.6919L59.6178 32.5364V32.4969C59.6612 31.5988 60.0062 30.746 60.5672 30.1644L68.529 22.1937C69.2073 21.4888 69.5917 20.4566 69.5809 19.3692L69.5237 13.2855ZM56.6898 34.3651L48.3987 26.0001C47.7303 25.2765 47.3458 24.2443 47.3438 23.1598L47.2955 0.0759087H46.6685V29.5186C46.6636 30.608 47.0648 31.6363 47.747 32.3392L55.701 40.2783C56.3142 40.9093 56.6671 41.8301 56.6691 42.8031L56.6858 51.6078L57.5652 52.4793L57.5721 36.7618C57.5741 35.8449 57.2537 34.9714 56.6898 34.3651ZM71.7232 0.0266113L70.9917 0.0285873L71.038 23.1125C71.039 24.197 70.6604 25.2311 69.994 25.9567L61.7344 34.3553C61.1725 34.9635 60.856 35.839 60.8619 36.7558V52.4872L61.8064 51.5999V51.5812L61.7896 42.7923C61.7877 41.8202 62.1367 40.8974 62.7469 40.2645L70.6703 32.2938C71.3485 31.587 71.7311 30.5587 71.7232 29.4693V0.0266113Z" fill="#3D82D4"/>
<path d="M30.7841 21.9885L20.4099 13.7407L20.0185 14.2307L30.1827 22.3079C31.0306 22.9832 31.6014 23.9257 31.7522 24.8997L33.159 36.5723L29.6198 33.7596L29.5991 33.7429C29.0717 33.2805 28.7207 32.6634 28.6379 32.0324L27.6145 23.1439C27.511 22.3601 27.0506 21.5902 26.3566 21.048L22.5453 18.0638L19.1026 15.327L18.7211 15.8081L21.9951 18.4098C22.6576 18.9362 23.1033 19.6727 23.2216 20.4318L24.3602 29.7206C24.3839 29.8704 24.4233 30.0183 24.4766 30.1652C24.3208 30.1474 24.167 30.1415 24.0162 30.1544L14.6751 31.1806C13.9111 31.2368 13.0918 30.9687 12.4303 30.4403L9.15628 27.8386L8.77475 28.3197L12.2174 31.0554L15.9843 34.0958C16.6685 34.6509 17.5193 34.9239 18.307 34.848L27.1985 33.8415C27.8334 33.7813 28.5107 33.9824 29.0835 34.3936L29.1042 34.4093L32.6424 37.222L20.9472 38.4829C19.9672 38.5568 18.9222 38.2118 18.0754 37.5375L7.91311 29.4593L7.52271 29.9483L17.8989 38.197L22.632 42.0192C23.4798 42.7034 24.5258 43.0415 25.4999 42.9479L36.6687 41.685C37.4741 41.6051 38.3525 41.8614 39.087 42.3909L55.6643 55.5886L56.2794 55.556L56.2075 54.9083L39.649 41.7412L39.6184 41.7155C38.9431 41.1211 38.4925 40.3205 38.388 39.519L37.1261 28.3236C36.998 27.3535 36.4311 26.4091 35.5744 25.7397L30.7841 21.9885ZM39.2517 45.17L27.5416 46.4309C26.5587 46.5019 25.5117 46.1578 24.6639 45.4835L6.59304 31.1185L6.20264 31.6085L29.2116 49.9771C30.0595 50.6612 31.1144 50.9895 32.0894 50.8949L43.2552 49.632C44.1317 49.5453 45.0712 49.845 45.8333 50.4503L52.7244 55.9297L53.9538 55.7867L41.6749 45.9745C40.9592 45.4017 40.0778 45.1069 39.2517 45.17ZM21.795 11.9977L21.3395 12.5705L39.4084 26.9365C40.2572 27.6108 40.829 28.5523 40.9799 29.5264L42.3916 41.2206C42.5158 42.0399 43.0028 42.8335 43.7225 43.4014L56.0162 53.2146L55.9137 51.9231L55.8989 51.9113L49.0196 46.4418C48.2585 45.8364 47.7547 44.9886 47.6413 44.1171L46.3548 32.9522C46.2256 31.9812 45.6607 31.0397 44.804 30.3663L21.795 11.9977Z" fill="#2663BF"/>
<path d="M13.4166 57.6948L0.498846 60.6563L0.637852 61.2686L13.2904 58.3642C14.3472 58.1227 15.4406 58.2646 16.2953 58.7546L26.2959 64.9379L21.8901 65.9484L21.8634 65.9544C21.1733 66.0786 20.4714 65.9672 19.9272 65.6389L12.342 60.892C11.6647 60.4848 10.7764 60.3635 9.91973 60.5686L5.20929 61.6846L0.922766 62.6685L1.06079 63.2669L5.13634 62.3313C5.9615 62.141 6.81427 62.2524 7.4817 62.634L15.4514 67.5396C15.5835 67.6145 15.7235 67.6757 15.8714 67.7259C15.76 67.8364 15.6604 67.9527 15.5766 68.0789L10.5507 76.019C10.1169 76.6509 9.39624 77.1242 8.57108 77.3115L4.49553 78.2471L4.63355 78.8455L8.91908 77.8616L13.6453 76.8156C14.506 76.6253 15.2503 76.1324 15.6831 75.4689L20.4428 67.8916C20.7918 67.3582 21.3725 66.954 22.0498 66.7628L22.0754 66.7578L26.4812 65.7463L20.1707 75.673C19.6167 76.4843 18.6949 77.0867 17.64 77.3282L4.98649 80.2296L5.12549 80.8399L18.0442 77.8774L23.985 76.5622C25.0478 76.3266 25.9656 75.7203 26.4999 74.901L32.4802 65.3845C32.9209 64.7053 33.6691 64.1778 34.5406 63.9353L55.1974 59.213L55.5562 58.7112L55.0051 58.3642L34.3839 63.0894L34.3454 63.0983C33.4601 63.2551 32.5521 63.1072 31.8601 62.6892L22.3238 56.6912C21.4868 56.1855 20.3945 56.0395 19.3367 56.2919L13.4166 57.6948ZM36.815 65.5403L30.4956 75.4778C29.9376 76.2901 29.0159 76.8944 27.96 77.136L5.4597 82.297L5.5987 82.9082L34.3099 76.3848C35.3727 76.1491 36.2876 75.53 36.8219 74.7088L42.8012 65.1943C43.2803 64.4558 44.0995 63.9087 45.0489 63.6908L53.6308 61.723L54.2854 60.6731L38.9573 64.1483C38.0621 64.3494 37.2813 64.8551 36.815 65.5403ZM0 58.4874L0.163653 59.2002L22.664 54.0412C23.7208 53.7997 24.8131 53.9397 25.6689 54.4296L35.6882 60.6218C36.4059 61.0359 37.3296 61.1503 38.2228 60.9422L53.5628 57.4562L52.4892 56.7316L52.4705 56.7356L43.9033 58.6994C42.9559 58.9163 41.9789 58.7812 41.2267 58.3258L31.6984 52.3662C30.8594 51.8605 29.771 51.7156 28.7112 51.964L0 58.4874Z" fill="#0A45AB"/>
<path d="M30.4872 93.5421L24.7426 105.486L25.3075 105.758L30.9318 94.0577C31.402 93.0817 32.1957 92.3156 33.1115 91.9529L44.1827 87.9956L42.2238 92.0692L42.212 92.0928C41.8788 92.71 41.3543 93.1891 40.7569 93.41L32.3159 96.3764C31.5746 96.6515 30.9259 97.2706 30.5512 98.0681L28.4849 102.445L26.5792 106.41L27.1333 106.675L28.9443 102.906C29.311 102.143 29.9302 101.545 30.6449 101.261L39.4506 98.0928C39.5916 98.0376 39.7267 97.9656 39.8578 97.8818C39.8755 98.0376 39.9041 98.1884 39.9495 98.3324L43.0194 107.214C43.2432 107.947 43.1634 108.805 42.7947 109.567L40.9836 113.336L41.5367 113.601L43.4424 109.638L45.5728 105.292C45.9612 104.501 46.0401 103.612 45.7917 102.859L42.84 94.4126C42.6409 93.8073 42.6872 93.1014 42.9603 92.4527L42.9721 92.429L44.931 88.3545L48.7512 99.4799C49.0401 100.419 48.9346 101.516 48.4663 102.49L42.84 114.189L43.4029 114.461L49.1475 102.516L51.8261 97.0537C52.3053 96.0757 52.4038 94.9804 52.0972 94.0517L48.3904 83.4399C48.1341 82.6729 48.1893 81.7581 48.5432 80.926L57.7403 61.8368L57.5717 61.2433L56.9566 61.4572L47.7841 80.5208L47.7673 80.5573C47.3375 81.347 46.6553 81.9641 45.8972 82.2441L35.2597 85.9549C34.3429 86.294 33.5473 87.0561 33.0839 88.04L30.4872 93.5421ZM51.2159 80.1491L55.04 91.2894C55.3269 92.2318 55.2244 93.3291 54.7541 94.3051L44.7496 115.109L45.3145 115.382L58.1287 88.874C58.6079 87.896 58.6946 86.7948 58.386 85.8652L54.6802 75.2563C54.4022 74.4213 54.486 73.4384 54.9079 72.561L58.7242 64.6268L58.3121 63.4595L51.4643 77.6076C51.0641 78.4318 50.9724 79.3575 51.2159 80.1491ZM22.7363 104.522L23.3959 104.838L33.4014 84.0354C33.8716 83.0594 34.6633 82.2924 35.5791 81.9296L46.6701 77.9625C47.441 77.6598 48.1075 77.0092 48.5008 76.181L55.3476 62.0182L54.1104 62.4046L54.1025 62.4224L50.2921 70.3428C49.8712 71.2182 49.1554 71.8975 48.3312 72.2011L37.7283 75.9297C36.8105 76.2708 36.0178 77.0299 35.5505 78.0138L22.7363 104.522Z" fill="#002B87"/>
<path d="M69.1525 102.569L74.903 114.509L75.4679 114.238L69.8338 102.543C69.3635 101.566 69.26 100.469 69.5479 99.5263L73.3621 88.4048L75.324 92.4774L75.3349 92.5011C75.6089 93.1478 75.6562 93.8556 75.4561 94.46L72.5084 102.908C72.2609 103.659 72.3398 104.552 72.7292 105.342L74.8616 109.689L76.7703 113.65L77.3233 113.383L75.5084 109.616C75.1406 108.854 75.0598 107.997 75.2836 107.261L78.3013 98.4024C78.3457 98.2575 78.3743 98.1077 78.39 97.9529C78.5231 98.0367 78.6582 98.1077 78.7992 98.1619L87.6561 101.304C88.3689 101.587 88.989 102.184 89.3558 102.948L91.1707 106.715L91.7238 106.448L89.8142 102.486L87.7468 98.1096C87.3712 97.3121 86.7255 96.6959 85.9822 96.4209L77.5392 93.4574C76.9418 93.2355 76.4193 92.7594 76.0831 92.1412L76.0713 92.1166L74.1094 88.044L85.1875 91.9993C86.1014 92.3601 86.8931 93.1251 87.3624 94.1001L92.9956 105.796L93.5595 105.526L87.808 93.5845L85.2102 88.0834C84.7449 87.0986 83.9503 86.3385 83.0325 85.9983L72.4276 82.2747C71.6675 81.9957 70.9872 81.3825 70.5574 80.5869L61.3761 61.4898L60.8082 61.2513L60.5913 61.8654L69.7677 80.9271L69.7854 80.9626C70.1335 81.7917 70.1916 82.7095 69.9373 83.4765L66.1999 94.1051C65.8933 95.0337 65.9928 96.131 66.473 97.107L69.1525 102.569ZM71.6182 78.0129L82.7101 81.974C83.6259 82.3378 84.4186 83.1029 84.8888 84.0798L94.9052 104.877L95.4711 104.606L82.7495 78.0543C82.2842 77.0694 81.4768 76.3152 80.5579 75.9761L69.955 72.2535C69.1289 71.9498 68.4131 71.2715 67.9912 70.3941L64.172 62.4609L63.0017 62.0547L69.7864 76.2334C70.1808 77.0605 70.8472 77.7102 71.6182 78.0129ZM72.8978 115.477L73.5564 115.158L63.541 94.3604C63.0707 93.3834 62.9653 92.2871 63.2541 91.3447L67.0724 80.2015C67.3168 79.4098 67.2242 78.4841 66.8229 77.6589L60.0254 63.4724L59.5562 64.6811L59.565 64.6978L63.3773 72.6172C63.7993 73.4927 63.8841 74.4756 63.6071 75.3096L59.9051 85.9214C59.5985 86.8521 59.6981 87.9444 60.1763 88.9244L72.8978 115.477Z" fill="#94D4FF"/>
<path d="M100.329 77.98L113.247 80.9356L113.389 80.3244L100.733 77.4318C99.6771 77.1893 98.7543 76.586 98.1983 75.7726L91.8858 65.8539L96.2926 66.8614L96.3183 66.8674C96.9936 67.0566 97.5772 67.4608 97.9242 67.9942L102.688 75.5686C103.121 76.2311 103.867 76.726 104.728 76.9152L109.455 77.9593L113.741 78.9392L113.878 78.3408L109.802 77.4101C108.976 77.2209 108.256 76.7496 107.821 76.1167L102.781 68.2308C102.695 68.1056 102.595 67.9893 102.485 67.8808C102.633 67.8286 102.773 67.7684 102.904 67.6915L110.884 62.7307C111.55 62.3492 112.405 62.2368 113.23 62.428L117.305 63.3587L117.442 62.7603L113.155 61.7803L108.444 60.6663C107.588 60.4622 106.702 60.5825 106.024 60.9916L98.4408 65.7415C97.8947 66.0698 97.1957 66.1812 96.5036 66.058L96.477 66.052L92.0702 65.0445L102.073 58.8543C102.925 58.3643 104.017 58.2243 105.072 58.4658L117.726 61.3603L117.867 60.7511L104.947 57.7955L99.0264 56.3936C97.9656 56.1432 96.8763 56.2901 96.0383 56.7948L86.5119 62.7593C85.8198 63.1792 84.9158 63.3291 84.0256 63.1674L63.3728 58.4284L62.8325 58.7241L63.1776 59.2772L83.7998 63.9975L83.8383 64.0064C84.7038 64.2509 85.4561 64.7783 85.8967 65.4556L91.872 75.0066C92.4064 75.8259 93.3262 76.4332 94.388 76.6668L100.329 77.98ZM82.6769 60.7333L92.6923 54.5362C93.548 54.0472 94.6403 53.9053 95.6962 54.1468L118.199 59.294L118.34 58.6827L89.6529 52.0597C88.5931 51.8083 87.4997 51.969 86.6618 52.4748L77.1374 58.4392C76.3851 58.8957 75.4082 59.0317 74.4588 58.8139L65.8769 56.85L64.8299 57.5105L80.1423 61.0537C81.0355 61.2617 81.9592 61.1464 82.6769 60.7333ZM112.753 83.1055L112.915 82.3927L90.413 77.2445C89.3561 77.002 88.4334 76.4006 87.8763 75.5873L81.5511 65.6508C81.0847 64.9656 80.303 64.4609 79.4088 64.2598L64.0806 60.7215L64.7323 61.8424L64.75 61.8464L73.3181 63.8072C74.2655 64.0231 75.0858 64.5713 75.5649 65.3077L81.5491 74.8203C82.0854 75.6405 83.0022 76.2449 84.065 76.4825L112.753 83.1055Z" fill="#66B5F5"/>
<path d="M100.562 38.274L110.933 30.0213L110.542 29.5294L100.387 37.6154C99.538 38.2907 98.491 38.6348 97.5081 38.5628L85.8177 37.3068L89.354 34.4912L89.3757 34.4755C89.9446 34.0653 90.6248 33.8622 91.2587 33.9234L100.15 34.926C100.937 35.0009 101.79 34.7259 102.475 34.1718L106.24 31.1294L109.681 28.3907L109.298 27.9106L106.027 30.5153C105.364 31.0427 104.547 31.3108 103.78 31.2556L94.4726 30.2757C94.3218 30.2648 94.169 30.2698 94.0142 30.2885C94.0664 30.1406 94.1069 29.9927 94.1276 29.8429L95.2298 20.5107C95.3471 19.7526 95.7927 19.0152 96.4562 18.4887L99.7273 15.8841L99.3447 15.405L95.9041 18.1437L92.0937 21.1299C91.4007 21.6721 90.9423 22.4391 90.8387 23.2238L89.8194 32.1143C89.7356 32.7463 89.3866 33.3614 88.8581 33.8258L88.8374 33.8425L85.3012 36.6582L86.7031 24.9787C86.8519 24.0076 87.4237 23.0661 88.2706 22.3927L98.4279 14.3087L98.0395 13.8187L87.6682 22.0723L82.8789 25.8245C82.0222 26.4969 81.4573 27.4403 81.3281 28.4095L80.0475 39.5763C79.944 40.3798 79.4964 41.1783 78.8152 41.7738L62.2271 54.9577L62.1206 55.565L62.7673 55.6399L79.3219 42.4688L79.3535 42.4442C80.084 41.9197 80.9663 41.6604 81.7708 41.7393L92.9633 43.0278C93.9363 43.1215 94.9853 42.7813 95.8302 42.0971L100.562 38.274ZM76.0705 41.3094L77.4764 29.6161C77.6282 28.6421 78.198 27.6996 79.0469 27.0253L97.1078 12.6495L96.7184 12.1575L73.6443 30.4462C72.7866 31.1186 72.2306 32.0719 72.1034 33.043L70.8218 44.2069C70.7094 45.0804 70.2066 45.9282 69.4446 46.5345L62.5554 52.0169L62.4183 53.2472L74.7406 43.4902C75.4603 42.9223 75.9463 42.1287 76.0705 41.3094ZM112.32 31.7624L111.863 31.1906L93.8013 45.5644C92.9524 46.2387 91.9064 46.5848 90.9235 46.5128L79.2125 45.2578C78.3853 45.1947 77.503 45.4905 76.7882 46.0643L64.4601 55.8351L65.7417 56.0254L65.7565 56.0136L72.6348 50.541C73.3949 49.9357 74.3344 49.636 75.2089 49.7208L86.3777 50.9798C87.3527 51.0724 88.3968 50.7333 89.2456 50.0501L112.32 31.7624Z" fill="#61A1E3"/>
<path d="M149.115 34.6162C149.946 34.6162 150.5 33.9695 150.5 33.2005C150.5 32.399 149.915 31.7838 149.115 31.7838C148.345 31.7838 147.759 32.4306 147.759 33.2005C147.759 33.9695 148.314 34.6162 149.115 34.6162Z" fill="white"/>
<path d="M152.932 34.6162C153.794 34.6162 154.318 33.9695 154.318 33.2005C154.318 32.399 153.763 31.7838 152.963 31.7838C152.162 31.7838 151.547 32.4306 151.547 33.2005C151.547 33.9695 152.131 34.6162 152.932 34.6162Z" fill="white"/>
<path d="M197.021 53.9828C196.19 53.9828 195.604 54.6295 195.604 55.3994C195.604 56.2 196.19 56.8467 196.96 56.8467H196.991C197.852 56.8467 198.377 56.2 198.377 55.3994C198.377 54.5989 197.822 53.9828 197.021 53.9828Z" fill="white"/>
<path d="M193.173 53.9828C192.403 53.9828 191.788 54.6295 191.788 55.3994C191.788 56.2 192.372 56.8467 193.142 56.8467H193.173C194.004 56.8467 194.527 56.2 194.527 55.3994C194.527 54.5989 193.973 53.9828 193.173 53.9828Z" fill="white"/>
<path d="M201.578 33.7539H201.608C202.44 33.7539 202.963 33.1072 202.963 32.3067C202.963 31.5061 202.409 30.89 201.608 30.89C200.838 30.89 200.223 31.5367 200.223 32.3067C200.223 33.1072 200.808 33.7539 201.578 33.7539Z" fill="white"/>
<path d="M205.396 33.7539H205.427C206.289 33.7539 206.813 33.1072 206.813 32.3067C206.813 31.5061 206.258 30.89 205.457 30.89C204.657 30.89 204.042 31.5367 204.042 32.3067C204.042 33.1072 204.626 33.7539 205.396 33.7539Z" fill="white"/>
<path d="M242.467 54.0453C241.697 54.0453 241.081 54.692 241.081 55.461C241.081 56.2625 241.666 56.9082 242.436 56.9082H242.467C243.298 56.9082 243.821 56.2625 243.821 55.461C243.821 54.6614 243.267 54.0453 242.467 54.0453Z" fill="white"/>
<path d="M250.902 46.9622C250.902 40.9889 246.839 36.9863 240.957 36.9863C238.587 36.9863 237.079 37.4793 236.432 37.7868L237.047 39.8197C237.94 39.3879 239.264 39.0497 240.865 39.0497C245.329 39.0497 248.285 41.8821 248.285 46.8706C248.285 47.609 248.224 48.3168 248.101 48.933H235.477C233.568 48.9024 232.274 47.2393 232.305 45.4844V36.9863L229.811 37.8489V44.7145C229.811 47.3625 228.826 48.933 226.856 48.933C224.977 48.933 223.776 47.1466 223.776 45.4539V38.3724L221.283 39.2646V45.2074C221.283 47.3625 220.39 48.933 218.512 48.933C216.572 48.933 215.34 47.1782 215.34 45.4539V39.5111L212.846 40.4043V45.2074C212.846 47.3625 211.892 48.933 210.014 48.933C208.136 48.9024 206.813 47.2087 206.843 45.4539V36.9863L204.349 37.8489V45.2074C204.349 47.3487 203.406 48.9103 201.552 48.931C199.657 48.8847 198.377 47.2008 198.407 45.4539V36.9863L195.913 37.8489V45.2074C195.913 47.3625 194.959 48.933 193.081 48.933H158.136C156.166 48.933 155.366 47.3625 155.366 44.7145V37.2328C154.565 37.1096 153.272 37.0179 151.578 37.0179C147.421 37.0179 143.48 38.6495 143.48 43.2682C143.48 47.4246 146.959 49.2406 150.624 49.2406C151.362 49.2406 152.348 49.1794 153.826 48.933C154.749 50.4719 156.288 50.9648 157.428 50.9648H194.004C195.852 50.9648 197.237 49.8262 197.852 48.2251C198.838 49.8873 200.255 50.9648 202.44 50.9648C204.288 50.9648 205.704 49.8262 206.288 48.2251C207.274 49.8873 208.691 50.9648 210.876 50.9648C210.898 50.9648 210.916 50.9629 210.936 50.9619L210.938 50.9648C212.785 50.9648 214.17 49.8262 214.786 48.2251C215.71 49.8873 217.218 50.9648 219.343 50.9648C221.19 50.9648 222.607 49.8262 223.192 48.2251C224.146 50.0105 225.624 50.9648 227.779 50.9648C229.103 50.9648 230.889 50.3487 231.751 48.163C232.644 49.8873 234.153 50.9343 236.339 50.9648H251.333L252.196 48.933H250.749C250.841 48.3168 250.902 47.6701 250.902 46.9622ZM152.902 47.1466C152.286 47.2087 151.578 47.2698 150.931 47.2698C148.438 47.2698 146.036 46.1312 146.036 43.2061C146.036 40.3116 148.191 38.9265 150.963 38.9265C151.762 38.9265 152.348 38.9571 152.902 39.0803V47.1466Z" fill="white"/>
<path d="M281.723 44.7147C281.723 47.3459 280.749 48.9115 278.804 48.9312C276.909 48.8848 275.627 47.2 275.658 45.454V30.8899L273.164 31.7831V45.2066C273.164 47.3627 272.209 48.9322 270.331 48.9322H270.301H268.207V43.4212C268.207 39.8189 267.068 36.9865 262.603 36.9865C258.601 36.9865 256.167 40.2191 256.167 44.345C256.167 48.4402 258.909 50.965 262.788 50.965H265.621C265.466 53.8901 264.481 54.5358 262.019 54.9676L262.326 56.9383C265.589 56.9995 268.207 54.5358 268.176 50.965H271.194C271.215 50.965 271.233 50.963 271.253 50.9621L271.255 50.965C273.103 50.965 274.488 49.8254 275.104 48.2243C276.089 49.8875 277.504 50.965 279.691 50.965H279.692C281.54 50.964 284.217 49.7632 284.217 45.0222V30.8899L281.723 31.7831V44.7147ZM265.713 48.9322H263.404C260.94 48.9322 258.57 47.9473 258.539 44.1291C258.447 40.4656 260.294 38.7413 262.387 38.7413C264.974 38.7413 265.713 40.8964 265.713 42.4974V48.9322Z" fill="white"/>
<path d="M286.68 50.9648H289.174V30.8898L286.68 31.7829V50.9648Z" fill="white"/>
<path d="M307.863 53.9828C307.032 53.9828 306.446 54.6295 306.446 55.3994C306.446 56.2 307.001 56.8467 307.801 56.8467H307.832C308.663 56.8467 309.218 56.2 309.218 55.3994C309.218 54.5989 308.632 53.9828 307.863 53.9828Z" fill="white"/>
<path d="M315.19 44.7145C315.19 47.3625 314.204 48.932 312.234 48.932H303.643C300.842 48.932 299.025 46.4388 299.025 43.6981C299.025 40.7425 300.965 38.8949 302.381 37.9712L301.458 36.5861C299.579 37.356 296.747 39.7576 296.747 43.7286C296.747 48.6244 300.442 50.9648 303.643 50.9648H313.158C315.005 50.9648 317.684 49.7641 317.684 45.0221V36.9863L315.19 37.8489V44.7145Z" fill="white"/>
<path d="M328.09 36.9866C324.088 36.9866 321.656 40.2193 321.656 44.3451C321.656 48.4404 324.181 51.2422 328.368 51.2422C329.445 51.2422 330.338 51.1495 331.107 50.9651C330.954 53.8902 329.907 54.6286 327.505 54.9677L327.813 56.9385C332.032 56.8458 333.694 54.1978 333.694 49.7644V43.4213C333.694 39.819 332.554 36.9866 328.09 36.9866ZM331.2 49.0565C330.523 49.2103 329.722 49.302 328.707 49.302C326.212 49.302 324.056 47.9474 324.026 44.1302C323.934 41.2051 325.258 38.7415 327.875 38.7415C330.461 38.7415 331.2 40.8965 331.2 42.4976V49.0565Z" fill="white"/>
<path d="M337.944 49.0565C338.097 54.1672 336.589 54.7528 334.249 54.9677L334.557 56.9385C338.683 56.8152 340.407 54.4137 340.407 49.9803V39.7884L337.944 40.6816V49.0565Z" fill="white"/>
<path d="M356.849 42.7437C356.079 39.4184 354.108 36.9863 350.568 36.9863C348.967 36.9863 347.428 37.6636 346.472 38.3103L346.903 40.219C347.735 39.6343 349.028 39.0182 350.229 39.0182C352.662 39.0182 353.985 40.6813 354.447 43.0513L355.74 48.932H344.102L343.24 50.9648H358.696L356.849 42.7437Z" fill="white"/>
<path d="M156.819 75.7643C156.819 80.6867 153.676 84.293 148.388 84.293H143.49V67.2356H148.388C153.676 67.2356 156.819 70.8419 156.819 75.7643ZM154.626 75.7643C154.626 72.1334 152.433 69.1847 148.266 69.1847H145.537V82.3439H148.266C152.433 82.3439 154.626 79.3952 154.626 75.7643Z" fill="white"/>
<path d="M170.124 67.2358H172.171V78.0063C172.171 81.8807 169.856 84.5859 165.958 84.5859C162.059 84.5859 159.744 81.8807 159.744 78.0063V67.2358H161.791V77.7874C161.791 80.54 163.009 82.6359 165.958 82.6359C168.906 82.6359 170.124 80.54 170.124 77.7874V67.2358Z" fill="white"/>
<path d="M176.168 67.2356H180.602C183.99 67.2356 186.305 69.2339 186.305 72.2793C186.305 76.3243 182.625 77.0804 182.138 77.1534L186.866 84.293H184.404L179.799 77.3239H178.215V84.293H176.168V67.2356ZM184.258 72.2793C184.258 70.4032 183.015 69.1847 180.725 69.1847H178.215V75.3739H180.725C183.015 75.3739 184.258 74.1563 184.258 72.2793Z" fill="white"/>
<path d="M205.433 75.7635C205.433 80.6859 201.925 84.585 197.002 84.585C192.08 84.585 188.571 80.6859 188.571 75.7635C188.571 70.8411 192.08 66.943 197.002 66.943C201.925 66.943 205.433 70.8411 205.433 75.7635ZM203.241 75.7635C203.241 72.1326 200.73 68.892 197.002 68.892C193.274 68.892 190.765 72.1326 190.765 75.7635C190.765 79.3944 193.274 82.6349 197.002 82.6349C200.73 82.6349 203.241 79.3944 203.241 75.7635Z" fill="white"/>
<path d="M218.74 67.2358H220.786V78.0063C220.786 81.8807 218.471 84.5859 214.573 84.5859C210.674 84.5859 208.359 81.8807 208.359 78.0063V67.2358H210.406V77.7874C210.406 80.54 211.625 82.6359 214.573 82.6359C217.521 82.6359 218.74 80.54 218.74 77.7874V67.2358Z" fill="white"/>
<path d="M224.783 67.2356H229.267C232.776 67.2356 234.749 69.0387 234.749 71.8899C234.749 74.2047 233.068 75.1797 232.825 75.228C233.068 75.2773 235.675 76.0324 235.675 79.4189C235.675 82.3922 233.482 84.293 230.12 84.293H224.783V67.2356ZM229.608 74.5951C231.533 74.5951 232.703 73.5471 232.703 71.8899C232.703 70.2326 231.533 69.1847 229.608 69.1847H226.83V74.5951H229.608ZM233.628 79.4189C233.628 77.8109 232.557 76.4948 230.12 76.4948H226.83V82.3429H230.12C232.557 82.3429 233.628 81.0278 233.628 79.4189Z" fill="white"/>
<path d="M245.325 67.2356H247.371V82.3429H255.023V84.293H245.325V67.2356Z" fill="white"/>
<path d="M273.006 75.7635C273.006 80.6859 269.498 84.585 264.575 84.585C259.653 84.585 256.144 80.6859 256.144 75.7635C256.144 70.8411 259.653 66.943 264.575 66.943C269.498 66.943 273.006 70.8411 273.006 75.7635ZM270.814 75.7635C270.814 72.1326 268.304 68.892 264.575 68.892C260.848 68.892 258.338 72.1326 258.338 75.7635C258.338 79.3944 260.848 82.6349 264.575 82.6349C268.304 82.6349 270.814 79.3944 270.814 75.7635Z" fill="white"/>
<path d="M283.754 74.9354H290.041V82.3431C290.041 82.3431 287.774 84.585 283.34 84.585C278.417 84.585 274.86 80.6859 274.86 75.7635C274.86 70.8421 278.417 66.943 283.34 66.943C287.75 66.943 289.577 69.3554 289.577 69.3554L288.115 70.7928C288.115 70.7928 286.483 68.892 283.34 68.892C279.636 68.892 277.053 72.1335 277.053 75.7635C277.053 79.3944 279.636 82.6359 283.34 82.6359C286.459 82.6359 288.018 81.3927 288.018 81.3927V76.8844H283.754V74.9354Z" fill="white"/>
<path d="M293.745 67.2356H295.791V84.293H293.745V67.2356Z" fill="white"/>
<path d="M304.661 76.6172C302.176 75.4717 299.983 74.3271 299.983 71.4267C299.983 69.4293 301.64 66.943 304.905 66.943C308.122 66.943 309.754 69.4293 309.754 69.4293L308.219 70.6715C308.219 70.6715 307.025 68.893 304.905 68.893C303.029 68.893 302.029 70.2081 302.029 71.4267C302.029 73.1569 303.492 73.8391 305.831 74.9117C308.438 76.1056 310.071 77.2018 310.071 79.9554C310.071 82.7335 307.781 84.585 304.783 84.585C300.738 84.585 299.35 81.027 299.35 81.027L301.055 80.0037C301.055 80.0037 302.078 82.6359 304.783 82.6359C306.415 82.6359 307.975 81.7102 307.975 79.9554C307.975 78.1769 306.562 77.4946 304.661 76.6172Z" fill="white"/>
<path d="M316.577 69.1856H311.68V67.2366H323.522V69.1856H318.624V84.293H316.577V69.1856Z" fill="white"/>
<path d="M326.203 67.2356H328.25V84.293H326.203V67.2356Z" fill="white"/>
<path d="M344.65 70.8904C344.65 70.8904 343.066 68.892 339.947 68.892C336.243 68.892 333.709 72.1335 333.709 75.7635C333.709 79.3944 336.243 82.6359 339.947 82.6359C343.042 82.6359 344.869 80.3694 344.869 80.3694L346.258 81.7822C346.258 81.7822 343.943 84.585 339.947 84.585C335.025 84.585 331.516 80.6859 331.516 75.7635C331.516 70.8421 335.025 66.943 339.947 66.943C343.943 66.943 346.063 69.5506 346.063 69.5506L344.65 70.8904Z" fill="white"/>
<path d="M353.275 76.6172C350.79 75.4717 348.596 74.3271 348.596 71.4267C348.596 69.4293 350.254 66.943 353.519 66.943C356.736 66.943 358.368 69.4293 358.368 69.4293L356.833 70.6715C356.833 70.6715 355.639 68.893 353.519 68.893C351.643 68.893 350.644 70.2081 350.644 71.4267C350.644 73.1569 352.106 73.8391 354.445 74.9117C357.052 76.1056 358.685 77.2018 358.685 79.9554C358.685 82.7335 356.394 84.585 353.397 84.585C349.352 84.585 347.963 81.027 347.963 81.027L349.669 80.0037C349.669 80.0037 350.692 82.6359 353.397 82.6359C355.03 82.6359 356.59 81.7102 356.59 79.9554C356.59 78.1769 355.176 77.4946 353.275 76.6172Z" fill="white"/>
</svg>
