<svg width="359" height="116" viewBox="0 0 359 116" fill="none" xmlns="http://www.w3.org/2000/svg">
<path d="M69.5232 13.2855L69.4966 0.0325279H68.8696L68.8982 13.0143C68.9002 14.0978 68.5186 15.133 67.8522 15.8586L59.6065 24.2403L59.5976 19.7192V19.6926C59.6291 18.9916 59.8933 18.3331 60.334 17.8746L66.6435 11.5296C67.1907 10.9588 67.5052 10.1199 67.4963 9.2385L67.451 4.39792L67.4411 -7.62939e-06L66.8269 0.00196838L66.8368 4.18399C66.8387 5.03085 66.541 5.83728 66.0215 6.40415L59.4724 13.0893C59.3698 13.2007 59.2791 13.3239 59.1973 13.457C59.1145 13.3239 59.0228 13.2007 58.9193 13.0912L52.2894 6.43077C51.7689 5.86784 51.4672 5.06141 51.4672 4.21357L51.4583 0.0325279L50.8441 0.0345039L50.854 4.43243L50.8274 9.273C50.8214 10.1534 51.1379 10.9894 51.689 11.5572L58.0232 17.8776C58.4658 18.337 58.731 18.9916 58.7675 19.6945V19.7212L58.7773 24.2423L50.4951 15.8891C49.8267 15.1684 49.4442 14.1363 49.4422 13.0548L49.4156 0.0729485H48.7906L48.8172 13.3269L48.7827 19.4106C48.7768 20.5 49.1652 21.5292 49.8454 22.2321L57.8013 30.1723C58.3662 30.752 58.7142 31.5988 58.7576 32.5028L58.7862 53.6919L59.1954 54.1523L59.6567 53.6919L59.6173 32.5364V32.4969C59.6607 31.5988 60.0057 30.746 60.5667 30.1644L68.5285 22.1937C69.2068 21.4888 69.5913 20.4566 69.5804 19.3692L69.5232 13.2855ZM56.6893 34.3651L48.3982 26.0001C47.7298 25.2765 47.3453 24.2443 47.3433 23.1598L47.295 0.0759087H46.668V29.5186C46.6631 30.608 47.0643 31.6363 47.7465 32.3392L55.7005 40.2783C56.3137 40.9093 56.6666 41.8301 56.6686 42.8031L56.6853 51.6078L57.5647 52.4793L57.5716 36.7618C57.5736 35.8449 57.2532 34.9714 56.6893 34.3651ZM71.7227 0.0266113L70.9912 0.0285873L71.0375 23.1125C71.0385 24.197 70.6599 25.2311 69.9935 25.9567L61.7339 34.3553C61.172 34.9635 60.8555 35.839 60.8615 36.7558V52.4872L61.8059 51.5999V51.5812L61.7892 42.7923C61.7872 41.8202 62.1362 40.8974 62.7464 40.2645L70.6698 32.2938C71.3481 31.587 71.7306 30.5587 71.7227 29.4693V0.0266113Z" fill="#3D82D4"/>
<path d="M30.7846 21.9885L20.4104 13.7407L20.019 14.2307L30.1832 22.3079C31.031 22.9832 31.6019 23.9257 31.7527 24.8997L33.1595 36.5723L29.6203 33.7596L29.5996 33.7429C29.0721 33.2805 28.7212 32.6634 28.6384 32.0324L27.615 23.1439C27.5115 22.3601 27.0511 21.5902 26.3571 21.048L22.5457 18.0638L19.1031 15.327L18.7216 15.8081L21.9956 18.4098C22.6581 18.9362 23.1037 19.6727 23.222 20.4318L24.3607 29.7206C24.3844 29.8704 24.4238 30.0183 24.477 30.1652C24.3213 30.1474 24.1675 30.1415 24.0166 30.1544L14.6756 31.1806C13.9116 31.2368 13.0923 30.9687 12.4308 30.4403L9.15676 27.8386L8.77524 28.3197L12.2179 31.0554L15.9848 34.0958C16.669 34.6509 17.5198 34.9239 18.3075 34.848L27.199 33.8415C27.8339 33.7813 28.5112 33.9824 29.084 34.3936L29.1047 34.4093L32.6429 37.222L20.9477 38.4829C19.9677 38.5568 18.9227 38.2118 18.0758 37.5375L7.91359 29.4593L7.52319 29.9483L17.8994 38.197L22.6325 42.0192C23.4803 42.7034 24.5263 43.0415 25.5004 42.9479L36.6692 41.685C37.4746 41.6051 38.353 41.8614 39.0875 42.3909L55.6647 55.5886L56.2799 55.556L56.208 54.9083L39.6494 41.7412L39.6189 41.7155C38.9436 41.1211 38.493 40.3205 38.3885 39.519L37.1266 28.3236C36.9985 27.3535 36.4316 26.4091 35.5749 25.7397L30.7846 21.9885ZM39.2521 45.17L27.5421 46.4309C26.5592 46.5019 25.5122 46.1578 24.6644 45.4835L6.59353 31.1185L6.20312 31.6085L29.2121 49.9771C30.06 50.6612 31.1148 50.9895 32.0899 50.8949L43.2557 49.632C44.1321 49.5453 45.0717 49.845 45.8337 50.4503L52.7249 55.9297L53.9543 55.7867L41.6754 45.9745C40.9596 45.4017 40.0783 45.1069 39.2521 45.17ZM21.7955 11.9977L21.34 12.5705L39.4089 26.9365C40.2577 27.6108 40.8295 28.5523 40.9804 29.5264L42.3921 41.2206C42.5163 42.0399 43.0033 42.8335 43.723 43.4014L56.0167 53.2146L55.9142 51.9231L55.8994 51.9113L49.0201 46.4418C48.259 45.8364 47.7552 44.9886 47.6418 44.1171L46.3553 32.9522C46.2261 31.9812 45.6612 31.0397 44.8045 30.3663L21.7955 11.9977Z" fill="#2663BF"/>
<path d="M13.4166 57.6948L0.498846 60.6563L0.637852 61.2686L13.2904 58.3642C14.3472 58.1227 15.4406 58.2646 16.2953 58.7546L26.2959 64.9379L21.8901 65.9484L21.8634 65.9544C21.1733 66.0786 20.4714 65.9672 19.9272 65.6389L12.342 60.892C11.6647 60.4848 10.7764 60.3635 9.91973 60.5686L5.20929 61.6846L0.922766 62.6685L1.06079 63.2669L5.13634 62.3313C5.9615 62.141 6.81427 62.2524 7.4817 62.634L15.4514 67.5396C15.5835 67.6145 15.7235 67.6757 15.8714 67.7259C15.76 67.8364 15.6604 67.9527 15.5766 68.0789L10.5507 76.019C10.1169 76.6509 9.39624 77.1242 8.57108 77.3115L4.49553 78.2471L4.63355 78.8455L8.91908 77.8616L13.6453 76.8156C14.506 76.6253 15.2503 76.1324 15.6831 75.4689L20.4428 67.8916C20.7918 67.3582 21.3725 66.954 22.0498 66.7628L22.0754 66.7578L26.4812 65.7463L20.1707 75.673C19.6167 76.4843 18.6949 77.0867 17.64 77.3282L4.98649 80.2296L5.12549 80.8399L18.0442 77.8774L23.985 76.5622C25.0478 76.3266 25.9656 75.7203 26.4999 74.901L32.4802 65.3845C32.9209 64.7053 33.6691 64.1778 34.5406 63.9353L55.1974 59.213L55.5562 58.7112L55.0051 58.3642L34.3839 63.0894L34.3454 63.0983C33.4601 63.2551 32.5521 63.1072 31.8601 62.6892L22.3238 56.6912C21.4868 56.1855 20.3945 56.0395 19.3367 56.2919L13.4166 57.6948ZM36.815 65.5403L30.4956 75.4778C29.9376 76.2901 29.0159 76.8944 27.96 77.136L5.4597 82.297L5.5987 82.9082L34.3099 76.3848C35.3727 76.1491 36.2876 75.53 36.8219 74.7088L42.8012 65.1943C43.2803 64.4558 44.0995 63.9087 45.0489 63.6908L53.6308 61.723L54.2854 60.6731L38.9573 64.1483C38.0621 64.3494 37.2813 64.8551 36.815 65.5403ZM0 58.4874L0.163653 59.2002L22.664 54.0412C23.7208 53.7997 24.8131 53.9397 25.6689 54.4296L35.6882 60.6218C36.4059 61.0359 37.3296 61.1503 38.2228 60.9422L53.5628 57.4562L52.4892 56.7316L52.4705 56.7356L43.9033 58.6994C42.9559 58.9163 41.9789 58.7812 41.2267 58.3258L31.6984 52.3662C30.8594 51.8605 29.771 51.7156 28.7112 51.964L0 58.4874Z" fill="#0A45AB"/>
<path d="M30.4872 93.5421L24.7426 105.486L25.3075 105.758L30.9318 94.0577C31.402 93.0817 32.1957 92.3156 33.1115 91.9529L44.1827 87.9956L42.2238 92.0692L42.212 92.0928C41.8788 92.71 41.3543 93.1891 40.7569 93.41L32.3159 96.3764C31.5746 96.6515 30.9259 97.2706 30.5512 98.0681L28.4849 102.445L26.5792 106.41L27.1333 106.675L28.9443 102.906C29.311 102.143 29.9302 101.545 30.6449 101.261L39.4506 98.0928C39.5916 98.0376 39.7267 97.9656 39.8578 97.8818C39.8755 98.0376 39.9041 98.1884 39.9495 98.3324L43.0194 107.214C43.2432 107.947 43.1634 108.805 42.7947 109.567L40.9836 113.336L41.5367 113.601L43.4424 109.638L45.5728 105.292C45.9612 104.501 46.0401 103.612 45.7917 102.859L42.84 94.4126C42.6409 93.8073 42.6872 93.1014 42.9603 92.4527L42.9721 92.429L44.931 88.3545L48.7512 99.4799C49.0401 100.419 48.9346 101.516 48.4663 102.49L42.84 114.189L43.4029 114.461L49.1475 102.516L51.8261 97.0537C52.3053 96.0757 52.4038 94.9804 52.0972 94.0517L48.3904 83.4399C48.1341 82.6729 48.1893 81.7581 48.5432 80.926L57.7403 61.8368L57.5717 61.2433L56.9566 61.4572L47.7841 80.5208L47.7673 80.5573C47.3375 81.347 46.6553 81.9641 45.8972 82.2441L35.2597 85.9549C34.3429 86.294 33.5473 87.0561 33.0839 88.04L30.4872 93.5421ZM51.2159 80.1491L55.04 91.2894C55.3269 92.2318 55.2244 93.3291 54.7541 94.3051L44.7496 115.109L45.3145 115.382L58.1287 88.874C58.6079 87.896 58.6946 86.7948 58.386 85.8652L54.6802 75.2563C54.4022 74.4213 54.486 73.4384 54.9079 72.561L58.7242 64.6268L58.3121 63.4595L51.4643 77.6076C51.0641 78.4318 50.9724 79.3575 51.2159 80.1491ZM22.7363 104.522L23.3959 104.838L33.4014 84.0354C33.8716 83.0594 34.6633 82.2924 35.5791 81.9296L46.6701 77.9625C47.441 77.6598 48.1075 77.0092 48.5008 76.181L55.3476 62.0182L54.1104 62.4046L54.1025 62.4224L50.2921 70.3428C49.8712 71.2182 49.1554 71.8975 48.3312 72.2011L37.7283 75.9297C36.8105 76.2708 36.0178 77.0299 35.5505 78.0138L22.7363 104.522Z" fill="#002B87"/>
<path d="M69.153 102.569L74.9035 114.509L75.4684 114.238L69.8342 102.543C69.364 101.566 69.2605 100.469 69.5483 99.5263L73.3626 88.4048L75.3245 92.4774L75.3353 92.5011C75.6094 93.1478 75.6567 93.8556 75.4566 94.46L72.5089 102.908C72.2614 103.659 72.3403 104.552 72.7297 105.342L74.8621 109.689L76.7708 113.65L77.3238 113.383L75.5089 109.616C75.1411 108.854 75.0603 107.997 75.2841 107.261L78.3018 98.4024C78.3462 98.2575 78.3748 98.1077 78.3905 97.9529C78.5236 98.0367 78.6587 98.1077 78.7997 98.1619L87.6566 101.304C88.3694 101.587 88.9895 102.184 89.3563 102.948L91.1712 106.715L91.7243 106.448L89.8147 102.486L87.7473 98.1096C87.3717 97.3121 86.726 96.6959 85.9826 96.4209L77.5397 93.4574C76.9423 93.2355 76.4198 92.7594 76.0836 92.1412L76.0718 92.1166L74.1099 88.044L85.188 91.9993C86.1019 92.3601 86.8936 93.1251 87.3628 94.1001L92.9961 105.796L93.56 105.526L87.8085 93.5845L85.2107 88.0834C84.7454 87.0986 83.9508 86.3385 83.0329 85.9983L72.428 82.2747C71.6679 81.9957 70.9877 81.3825 70.5579 80.5869L61.3765 61.4898L60.8087 61.2513L60.5918 61.8654L69.7682 80.9271L69.7859 80.9626C70.1339 81.7917 70.1921 82.7095 69.9378 83.4765L66.2004 94.1051C65.8938 95.0337 65.9933 96.131 66.4734 97.107L69.153 102.569ZM71.6186 78.0129L82.7106 81.974C83.6264 82.3378 84.4191 83.1029 84.8893 84.0798L94.9057 104.877L95.4716 104.606L82.75 78.0543C82.2847 77.0694 81.4773 76.3152 80.5584 75.9761L69.9555 72.2535C69.1293 71.9498 68.4136 71.2715 67.9917 70.3941L64.1724 62.4609L63.0022 62.0547L69.7869 76.2334C70.1813 77.0605 70.8477 77.7102 71.6186 78.0129ZM72.8983 115.477L73.5569 115.158L63.5415 94.3604C63.0712 93.3834 62.9657 92.2871 63.2546 91.3447L67.0728 80.2015C67.3173 79.4098 67.2247 78.4841 66.8234 77.6589L60.0259 63.4724L59.5566 64.6811L59.5655 64.6978L63.3778 72.6172C63.7998 73.4927 63.8846 74.4756 63.6075 75.3096L59.9056 85.9214C59.599 86.8521 59.6986 87.9444 60.1767 88.9244L72.8983 115.477Z" fill="#94D4FF"/>
<path d="M100.328 77.98L113.247 80.9356L113.389 80.3244L100.732 77.4318C99.6766 77.1893 98.7538 76.586 98.1978 75.7726L91.8854 65.8539L96.2922 66.8614L96.3178 66.8674C96.9931 67.0566 97.5767 67.4608 97.9238 67.9942L102.687 75.5686C103.12 76.2311 103.867 76.726 104.727 76.9152L109.454 77.9593L113.741 78.9392L113.878 78.3408L109.801 77.4101C108.975 77.2209 108.256 76.7496 107.821 76.1167L102.78 68.2308C102.694 68.1056 102.595 67.9893 102.484 67.8808C102.632 67.8286 102.772 67.7684 102.903 67.6915L110.884 62.7307C111.549 62.3492 112.404 62.2368 113.229 62.428L117.305 63.3587L117.442 62.7603L113.154 61.7803L108.444 60.6663C107.587 60.4622 106.702 60.5825 106.024 60.9916L98.4403 65.7415C97.8942 66.0698 97.1952 66.1812 96.5031 66.058L96.4765 66.052L92.0697 65.0445L102.072 58.8543C102.924 58.3643 104.016 58.2243 105.071 58.4658L117.726 61.3603L117.867 60.7511L104.946 57.7955L99.0259 56.3936C97.9652 56.1432 96.8758 56.2901 96.0378 56.7948L86.5114 62.7593C85.8194 63.1792 84.9153 63.3291 84.0251 63.1674L63.3723 58.4284L62.832 58.7241L63.1771 59.2772L83.7993 63.9975L83.8378 64.0064C84.7034 64.2509 85.4556 64.7783 85.8962 65.4556L91.8716 75.0066C92.4059 75.8259 93.3257 76.4332 94.3875 76.6668L100.328 77.98ZM82.6764 60.7333L92.6918 54.5362C93.5475 54.0472 94.6398 53.9053 95.6957 54.1468L118.199 59.294L118.34 58.6827L89.6524 52.0597C88.5926 51.8083 87.4993 51.969 86.6613 52.4748L77.1369 58.4392C76.3847 58.8957 75.4077 59.0317 74.4583 58.8139L65.8764 56.85L64.8294 57.5105L80.1418 61.0537C81.035 61.2617 81.9587 61.1464 82.6764 60.7333ZM112.752 83.1055L112.915 82.3927L90.4125 77.2445C89.3556 77.002 88.4329 76.4006 87.8759 75.5873L81.5506 65.6508C81.0843 64.9656 80.3025 64.4609 79.4083 64.2598L64.0801 60.7215L64.7318 61.8424L64.7495 61.8464L73.3176 63.8072C74.2651 64.0231 75.0853 64.5713 75.5644 65.3077L81.5486 74.8203C82.0849 75.6405 83.0018 76.2449 84.0645 76.4825L112.752 83.1055Z" fill="#66B5F5"/>
<path d="M100.563 38.274L110.933 30.0213L110.543 29.5294L100.387 37.6154C99.5385 38.2907 98.4915 38.6348 97.5086 38.5628L85.8182 37.3068L89.3545 34.4912L89.3762 34.4755C89.945 34.0653 90.6253 33.8622 91.2592 33.9234L100.151 34.926C100.937 35.0009 101.79 34.7259 102.475 34.1718L106.24 31.1294L109.681 28.3907L109.298 27.9106L106.027 30.5153C105.365 31.0427 104.548 31.3108 103.781 31.2556L94.4731 30.2757C94.3223 30.2648 94.1695 30.2698 94.0147 30.2885C94.0669 30.1406 94.1074 29.9927 94.1281 29.8429L95.2302 20.5107C95.3476 19.7526 95.7932 19.0152 96.4567 18.4887L99.7277 15.8841L99.3452 15.405L95.9046 18.1437L92.0942 21.1299C91.4012 21.6721 90.9427 22.4391 90.8392 23.2238L89.8198 32.1143C89.736 32.7463 89.3871 33.3614 88.8586 33.8258L88.8379 33.8425L85.3016 36.6582L86.7035 24.9787C86.8524 24.0076 87.4242 23.0661 88.2711 22.3927L98.4284 14.3087L98.04 13.8187L87.6687 22.0723L82.8794 25.8245C82.0227 26.4969 81.4578 27.4403 81.3286 28.4095L80.048 39.5763C79.9445 40.3798 79.4969 41.1783 78.8157 41.7738L62.2276 54.9577L62.1211 55.565L62.7678 55.6399L79.3224 42.4688L79.3539 42.4442C80.0845 41.9197 80.9668 41.6604 81.7713 41.7393L92.9638 43.0278C93.9368 43.1215 94.9858 42.7813 95.8306 42.0971L100.563 38.274ZM76.071 41.3094L77.4769 29.6161C77.6287 28.6421 78.1985 27.6996 79.0473 27.0253L97.1083 12.6495L96.7189 12.1575L73.6448 30.4462C72.7871 31.1186 72.2311 32.0719 72.1039 33.043L70.8223 44.2069C70.7099 45.0804 70.2071 45.9282 69.4451 46.5345L62.5559 52.0169L62.4188 53.2472L74.7411 43.4902C75.4608 42.9223 75.9468 42.1287 76.071 41.3094ZM112.32 31.7624L111.864 31.1906L93.8017 45.5644C92.9529 46.2387 91.9069 46.5848 90.924 46.5128L79.213 45.2578C78.3858 45.1947 77.5035 45.4905 76.7887 46.0643L64.4605 55.8351L65.7422 56.0254L65.7569 56.0136L72.6353 50.541C73.3954 49.9357 74.3349 49.636 75.2094 49.7208L86.3782 50.9798C87.3532 51.0724 88.3972 50.7333 89.2461 50.0501L112.32 31.7624Z" fill="#61A1E3"/>
<path d="M149.115 34.6162C149.946 34.6162 150.5 33.9695 150.5 33.2005C150.5 32.399 149.916 31.7838 149.115 31.7838C148.345 31.7838 147.76 32.4306 147.76 33.2005C147.76 33.9695 148.315 34.6162 149.115 34.6162Z" fill="#0F0D0F"/>
<path d="M152.932 34.6162C153.794 34.6162 154.318 33.9695 154.318 33.2005C154.318 32.399 153.763 31.7838 152.963 31.7838C152.162 31.7838 151.547 32.4306 151.547 33.2005C151.547 33.9695 152.131 34.6162 152.932 34.6162Z" fill="#0F0D0F"/>
<path d="M197.022 53.9828C196.191 53.9828 195.605 54.6295 195.605 55.3994C195.605 56.2 196.191 56.8467 196.961 56.8467H196.992C197.853 56.8467 198.378 56.2 198.378 55.3994C198.378 54.5989 197.823 53.9828 197.022 53.9828Z" fill="#0F0D0F"/>
<path d="M193.174 53.9828C192.404 53.9828 191.789 54.6295 191.789 55.3994C191.789 56.2 192.374 56.8467 193.144 56.8467H193.174C194.005 56.8467 194.529 56.2 194.529 55.3994C194.529 54.5989 193.975 53.9828 193.174 53.9828Z" fill="#0F0D0F"/>
<path d="M201.577 33.7539H201.608C202.44 33.7539 202.962 33.1072 202.962 32.3067C202.962 31.5061 202.408 30.89 201.608 30.89C200.838 30.89 200.223 31.5367 200.223 32.3067C200.223 33.1072 200.807 33.7539 201.577 33.7539Z" fill="#0F0D0F"/>
<path d="M205.396 33.7539H205.426C206.289 33.7539 206.812 33.1072 206.812 32.3067C206.812 31.5061 206.257 30.89 205.457 30.89C204.656 30.89 204.041 31.5367 204.041 32.3067C204.041 33.1072 204.626 33.7539 205.396 33.7539Z" fill="#0F0D0F"/>
<path d="M242.466 54.0453C241.696 54.0453 241.08 54.692 241.08 55.461C241.08 56.2625 241.666 56.9082 242.436 56.9082H242.466C243.297 56.9082 243.821 56.2625 243.821 55.461C243.821 54.6614 243.267 54.0453 242.466 54.0453Z" fill="#0F0D0F"/>
<path d="M250.903 46.9622C250.903 40.9889 246.839 36.9863 240.957 36.9863C238.587 36.9863 237.079 37.4793 236.432 37.7868L237.048 39.8197C237.941 39.3879 239.265 39.0497 240.866 39.0497C245.33 39.0497 248.285 41.8821 248.285 46.8706C248.285 47.609 248.224 48.3168 248.101 48.933H235.477C233.568 48.9024 232.275 47.2393 232.306 45.4844V36.9863L229.811 37.8489V44.7145C229.811 47.3625 228.826 48.933 226.857 48.933C224.978 48.933 223.777 47.1466 223.777 45.4539V38.3724L221.284 39.2646V45.2074C221.284 47.3625 220.39 48.933 218.512 48.933C216.572 48.933 215.341 47.1782 215.341 45.4539V39.5111L212.847 40.4043V45.2074C212.847 47.3625 211.892 48.933 210.014 48.933C208.136 48.9024 206.813 47.2087 206.844 45.4539V36.9863L204.349 37.8489V45.2074C204.349 47.3487 203.406 48.9103 201.553 48.931C199.658 48.8847 198.377 47.2008 198.408 45.4539V36.9863L195.913 37.8489V45.2074C195.913 47.3625 194.959 48.933 193.081 48.933H158.136C156.167 48.933 155.366 47.3625 155.366 44.7145V37.2328C154.565 37.1096 153.272 37.0179 151.578 37.0179C147.422 37.0179 143.48 38.6495 143.48 43.2682C143.48 47.4246 146.96 49.2406 150.624 49.2406C151.362 49.2406 152.348 49.1794 153.826 48.933C154.75 50.4719 156.289 50.9648 157.428 50.9648H194.005C195.852 50.9648 197.237 49.8262 197.853 48.2251C198.839 49.8873 200.255 50.9648 202.441 50.9648C204.288 50.9648 205.704 49.8262 206.289 48.2251C207.275 49.8873 208.691 50.9648 210.877 50.9648C210.899 50.9648 210.916 50.9629 210.936 50.9619L210.938 50.9648C212.786 50.9648 214.171 49.8262 214.787 48.2251C215.711 49.8873 217.219 50.9648 219.343 50.9648C221.191 50.9648 222.608 49.8262 223.192 48.2251C224.147 50.0105 225.624 50.9648 227.779 50.9648C229.103 50.9648 230.89 50.3487 231.751 48.163C232.645 49.8873 234.153 50.9343 236.34 50.9648H251.334L252.196 48.933H250.749C250.842 48.3168 250.903 47.6701 250.903 46.9622ZM152.902 47.1466C152.286 47.2087 151.578 47.2698 150.932 47.2698C148.438 47.2698 146.037 46.1312 146.037 43.2061C146.037 40.3116 148.192 38.9265 150.963 38.9265C151.763 38.9265 152.348 38.9571 152.902 39.0803V47.1466Z" fill="#0F0D0F"/>
<path d="M281.723 44.7147C281.723 47.3459 280.749 48.9115 278.804 48.9312C276.909 48.8848 275.628 47.2 275.658 45.454V30.8899L273.164 31.7831V45.2066C273.164 47.3627 272.21 48.9322 270.332 48.9322H270.301H268.207V43.4212C268.207 39.8189 267.069 36.9865 262.604 36.9865C258.601 36.9865 256.168 40.2191 256.168 44.345C256.168 48.4402 258.91 50.965 262.788 50.965H265.621C265.467 53.8901 264.482 54.5358 262.019 54.9676L262.327 56.9383C265.59 56.9995 268.207 54.5358 268.177 50.965H271.194C271.215 50.965 271.234 50.963 271.254 50.9621L271.256 50.965C273.103 50.965 274.488 49.8254 275.104 48.2243C276.089 49.8875 277.505 50.965 279.692 50.965H279.693C281.54 50.964 284.218 49.7632 284.218 45.0222V30.8899L281.723 31.7831V44.7147ZM265.713 48.9322H263.404C260.941 48.9322 258.571 47.9473 258.54 44.1291C258.447 40.4656 260.295 38.7413 262.388 38.7413C264.975 38.7413 265.713 40.8964 265.713 42.4974V48.9322Z" fill="#0F0D0F"/>
<path d="M286.68 50.9648H289.174V30.8898L286.68 31.7829V50.9648Z" fill="#0F0D0F"/>
<path d="M307.864 53.9828C307.033 53.9828 306.447 54.6295 306.447 55.3994C306.447 56.2 307.002 56.8467 307.802 56.8467H307.833C308.664 56.8467 309.219 56.2 309.219 55.3994C309.219 54.5989 308.633 53.9828 307.864 53.9828Z" fill="#0F0D0F"/>
<path d="M315.191 44.7145C315.191 47.3625 314.205 48.932 312.235 48.932H303.644C300.843 48.932 299.026 46.4388 299.026 43.6981C299.026 40.7425 300.966 38.8949 302.382 37.9712L301.458 36.5861C299.58 37.356 296.748 39.7576 296.748 43.7286C296.748 48.6244 300.443 50.9648 303.644 50.9648H313.159C315.006 50.9648 317.685 49.7641 317.685 45.0221V36.9863L315.191 37.8489V44.7145Z" fill="#0F0D0F"/>
<path d="M328.091 36.9866C324.088 36.9866 321.656 40.2193 321.656 44.3451C321.656 48.4404 324.181 51.2422 328.368 51.2422C329.446 51.2422 330.339 51.1495 331.108 50.9651C330.955 53.8902 329.908 54.6286 327.505 54.9677L327.814 56.9385C332.032 56.8458 333.695 54.1978 333.695 49.7644V43.4213C333.695 39.819 332.555 36.9866 328.091 36.9866ZM331.2 49.0565C330.523 49.2103 329.723 49.302 328.707 49.302C326.213 49.302 324.057 47.9474 324.026 44.1302C323.935 41.2051 325.259 38.7415 327.875 38.7415C330.462 38.7415 331.2 40.8965 331.2 42.4976V49.0565Z" fill="#0F0D0F"/>
<path d="M337.945 49.0565C338.099 54.1672 336.59 54.7528 334.25 54.9677L334.559 56.9385C338.684 56.8152 340.409 54.4137 340.409 49.9803V39.7884L337.945 40.6816V49.0565Z" fill="#0F0D0F"/>
<path d="M356.849 42.7437C356.079 39.4184 354.108 36.9863 350.568 36.9863C348.967 36.9863 347.428 37.6636 346.473 38.3103L346.904 40.219C347.736 39.6343 349.028 39.0182 350.229 39.0182C352.662 39.0182 353.985 40.6813 354.448 43.0513L355.741 48.932H344.103L343.24 50.9648H358.697L356.849 42.7437Z" fill="#0F0D0F"/>
<path d="M156.819 75.7643C156.819 80.6867 153.676 84.293 148.388 84.293H143.49V67.2356H148.388C153.676 67.2356 156.819 70.8419 156.819 75.7643ZM154.626 75.7643C154.626 72.1334 152.433 69.1847 148.266 69.1847H145.537V82.3439H148.266C152.433 82.3439 154.626 79.3952 154.626 75.7643Z" fill="#0F0D0F"/>
<path d="M170.124 67.2358H172.171V78.0063C172.171 81.8807 169.856 84.5859 165.958 84.5859C162.059 84.5859 159.744 81.8807 159.744 78.0063V67.2358H161.791V77.7874C161.791 80.54 163.009 82.6359 165.958 82.6359C168.906 82.6359 170.124 80.54 170.124 77.7874V67.2358Z" fill="#0F0D0F"/>
<path d="M176.168 67.2356H180.602C183.99 67.2356 186.305 69.2339 186.305 72.2793C186.305 76.3243 182.625 77.0804 182.138 77.1534L186.866 84.293H184.404L179.799 77.3239H178.215V84.293H176.168V67.2356ZM184.258 72.2793C184.258 70.4032 183.015 69.1847 180.725 69.1847H178.215V75.3739H180.725C183.015 75.3739 184.258 74.1563 184.258 72.2793Z" fill="#0F0D0F"/>
<path d="M205.434 75.7635C205.434 80.6859 201.926 84.585 197.003 84.585C192.081 84.585 188.572 80.6859 188.572 75.7635C188.572 70.8411 192.081 66.943 197.003 66.943C201.926 66.943 205.434 70.8411 205.434 75.7635ZM203.242 75.7635C203.242 72.1326 200.731 68.892 197.003 68.892C193.275 68.892 190.766 72.1326 190.766 75.7635C190.766 79.3944 193.275 82.6349 197.003 82.6349C200.731 82.6349 203.242 79.3944 203.242 75.7635Z" fill="#0F0D0F"/>
<path d="M218.74 67.2358H220.786V78.0063C220.786 81.8807 218.471 84.5859 214.573 84.5859C210.674 84.5859 208.359 81.8807 208.359 78.0063V67.2358H210.406V77.7874C210.406 80.54 211.625 82.6359 214.573 82.6359C217.521 82.6359 218.74 80.54 218.74 77.7874V67.2358Z" fill="#0F0D0F"/>
<path d="M224.783 67.2356H229.267C232.776 67.2356 234.749 69.0387 234.749 71.8899C234.749 74.2047 233.068 75.1797 232.825 75.228C233.068 75.2773 235.675 76.0324 235.675 79.4189C235.675 82.3922 233.482 84.293 230.12 84.293H224.783V67.2356ZM229.608 74.5951C231.533 74.5951 232.703 73.5471 232.703 71.8899C232.703 70.2326 231.533 69.1847 229.608 69.1847H226.83V74.5951H229.608ZM233.628 79.4189C233.628 77.8109 232.557 76.4948 230.12 76.4948H226.83V82.3429H230.12C232.557 82.3429 233.628 81.0278 233.628 79.4189Z" fill="#0F0D0F"/>
<path d="M245.324 67.2356H247.371V82.3429H255.022V84.293H245.324V67.2356Z" fill="#0F0D0F"/>
<path d="M273.007 75.7635C273.007 80.6859 269.498 84.585 264.576 84.585C259.653 84.585 256.145 80.6859 256.145 75.7635C256.145 70.8411 259.653 66.943 264.576 66.943C269.498 66.943 273.007 70.8411 273.007 75.7635ZM270.814 75.7635C270.814 72.1326 268.304 68.892 264.576 68.892C260.848 68.892 258.338 72.1326 258.338 75.7635C258.338 79.3944 260.848 82.6349 264.576 82.6349C268.304 82.6349 270.814 79.3944 270.814 75.7635Z" fill="#0F0D0F"/>
<path d="M283.755 74.9354H290.042V82.3431C290.042 82.3431 287.775 84.585 283.341 84.585C278.418 84.585 274.861 80.6859 274.861 75.7635C274.861 70.8421 278.418 66.943 283.341 66.943C287.751 66.943 289.578 69.3554 289.578 69.3554L288.116 70.7928C288.116 70.7928 286.484 68.892 283.341 68.892C279.637 68.892 277.054 72.1335 277.054 75.7635C277.054 79.3944 279.637 82.6359 283.341 82.6359C286.46 82.6359 288.019 81.3927 288.019 81.3927V76.8844H283.755V74.9354Z" fill="#0F0D0F"/>
<path d="M293.746 67.2356H295.793V84.293H293.746V67.2356Z" fill="#0F0D0F"/>
<path d="M304.661 76.6172C302.176 75.4717 299.983 74.3271 299.983 71.4267C299.983 69.4293 301.64 66.943 304.905 66.943C308.122 66.943 309.754 69.4293 309.754 69.4293L308.219 70.6715C308.219 70.6715 307.025 68.893 304.905 68.893C303.029 68.893 302.029 70.2081 302.029 71.4267C302.029 73.1569 303.492 73.8391 305.831 74.9117C308.438 76.1056 310.071 77.2018 310.071 79.9554C310.071 82.7335 307.781 84.585 304.783 84.585C300.738 84.585 299.35 81.027 299.35 81.027L301.055 80.0037C301.055 80.0037 302.078 82.6359 304.783 82.6359C306.415 82.6359 307.975 81.7102 307.975 79.9554C307.975 78.1769 306.562 77.4946 304.661 76.6172Z" fill="#0F0D0F"/>
<path d="M316.577 69.1856H311.68V67.2366H323.522V69.1856H318.624V84.293H316.577V69.1856Z" fill="#0F0D0F"/>
<path d="M326.203 67.2356H328.25V84.293H326.203V67.2356Z" fill="#0F0D0F"/>
<path d="M344.651 70.8904C344.651 70.8904 343.068 68.892 339.949 68.892C336.245 68.892 333.71 72.1335 333.71 75.7635C333.71 79.3944 336.245 82.6359 339.949 82.6359C343.043 82.6359 344.87 80.3694 344.87 80.3694L346.259 81.7822C346.259 81.7822 343.944 84.585 339.949 84.585C335.026 84.585 331.518 80.6859 331.518 75.7635C331.518 70.8421 335.026 66.943 339.949 66.943C343.944 66.943 346.065 69.5506 346.065 69.5506L344.651 70.8904Z" fill="#0F0D0F"/>
<path d="M353.277 76.6172C350.791 75.4717 348.598 74.3271 348.598 71.4267C348.598 69.4293 350.255 66.943 353.52 66.943C356.737 66.943 358.37 69.4293 358.37 69.4293L356.835 70.6715C356.835 70.6715 355.641 68.893 353.52 68.893C351.644 68.893 350.645 70.2081 350.645 71.4267C350.645 73.1569 352.107 73.8391 354.447 74.9117C357.053 76.1056 358.686 77.2018 358.686 79.9554C358.686 82.7335 356.396 84.585 353.399 84.585C349.354 84.585 347.965 81.027 347.965 81.027L349.67 80.0037C349.67 80.0037 350.694 82.6359 353.399 82.6359C355.031 82.6359 356.591 81.7102 356.591 79.9554C356.591 78.1769 355.177 77.4946 353.277 76.6172Z" fill="#0F0D0F"/>
</svg>
