<svg width="19" height="20" viewBox="0 0 19 20" fill="none" xmlns="http://www.w3.org/2000/svg">
<path d="M17.7393 6.78587L9.86867 1.11898C9.76143 1.04163 9.63256 1 9.50033 1C9.36809 1 9.23922 1.04163 9.13198 1.11898L1.26131 6.78587C1.18051 6.84415 1.11469 6.92076 1.06927 7.00943C1.02384 7.09809 1.0001 7.19626 1 7.29589V17.3703C1 17.5373 1.06634 17.6975 1.18442 17.8156C1.3025 17.9337 1.46266 18 1.62965 18H17.371C17.538 18 17.6981 17.9337 17.8162 17.8156C17.9343 17.6975 18.0007 17.5373 18.0007 17.3703V7.29589C18.0005 7.19626 17.9768 7.09809 17.9314 7.00943C17.886 6.92076 17.8201 6.84415 17.7393 6.78587ZM11.0745 16.7407H7.92619V11.0738H11.0745V16.7407ZM16.7413 16.7407H12.3338V10.4442C12.3338 10.2772 12.2674 10.117 12.1493 9.99892C12.0313 9.88084 11.8711 9.8145 11.7041 9.8145H7.29654C7.12954 9.8145 6.96939 9.88084 6.8513 9.99892C6.73322 10.117 6.66688 10.2772 6.66688 10.4442V16.7407H2.25931V7.61071L9.50033 2.40348L16.7413 7.61071V16.7407Z" fill="#E7E7E7"/>
</svg>
