<svg width="40" height="40" viewBox="0 0 40 40" fill="none" xmlns="http://www.w3.org/2000/svg">
<path fill-rule="evenodd" clip-rule="evenodd" d="M27.7355 32.873C27.4785 32.3818 26.8756 32.1905 26.3883 32.4467L26.3871 32.4473C23.6129 33.8871 20.4794 34.3361 17.3247 33.7513C11.6419 32.6935 7.05953 27.9668 6.17328 22.2505C5.49833 17.9023 6.81623 13.5896 9.7914 10.421C12.7662 7.2527 16.9906 5.66622 21.3182 6.06316C27.7541 6.65061 33.1617 11.924 33.902 18.3368C34.2039 20.9553 33.7834 23.5788 32.6833 25.9234C32.2758 26.7909 31.3459 27.3354 30.3303 27.3354H30.3247C30.2726 27.3353 30.2208 27.3336 30.1694 27.3305C28.7754 27.2466 27.6653 26.0863 27.6653 24.6704V13.3354C27.6653 12.7835 27.2172 12.3354 26.6653 12.3354C26.1134 12.3354 25.6653 12.7835 25.6653 13.3354V14.2588V14.8384L25.2437 14.4406C23.8686 13.1431 22.0306 12.3354 19.9986 12.3354C15.7717 12.3354 12.332 15.7752 12.332 20.0021C12.332 24.229 15.7717 27.6688 19.9986 27.6688C22.0766 27.6688 23.9582 26.8318 25.3407 25.4832L25.6681 25.1639L25.7602 25.6118C26.1335 27.4269 27.5642 28.8602 29.3778 29.2377C29.6854 29.3017 30.004 29.3354 30.3303 29.3354C32.1338 29.3354 33.7658 28.323 34.4907 26.7725C35.7489 24.0936 36.2317 21.0971 35.887 18.1091L35.8637 17.9074L35.8674 17.9062C34.9229 10.5509 28.9126 4.74602 21.5029 4.06944C16.5134 3.6279 11.7342 5.4317 8.33588 9.04993C4.9376 12.6698 3.42901 17.5906 4.19903 22.5555C5.21279 29.0924 10.4622 34.5058 16.9594 35.7163C17.9847 35.9069 19.0061 36.0021 20.017 36.0021C22.5637 36.0021 25.0408 35.4017 27.3099 34.2204C27.7474 33.9945 27.947 33.4877 27.8025 33.0335C27.7852 32.9791 27.7629 32.9254 27.7355 32.873ZM20.0003 25.6671C16.8756 25.6671 14.3336 23.1252 14.3336 20.0004C14.3336 16.8757 16.8756 14.3338 20.0003 14.3338C23.1251 14.3338 25.667 16.8757 25.667 20.0004C25.667 23.1252 23.1251 25.6671 20.0003 25.6671Z" fill="#0B44AA" stroke="white" stroke-width="0.5"/>
</svg>
