<svg width="14" height="16" viewBox="0 0 14 16" fill="none" xmlns="http://www.w3.org/2000/svg">
<path d="M9.26179 7.44628C9.98626 6.96074 10.5355 6.2552 10.8284 5.43374C11.1214 4.61229 11.1426 3.71842 10.8888 2.88403C10.6351 2.04963 10.1198 1.31888 9.41916 0.799602C8.71848 0.280319 7.86945 0 6.99732 0C6.12519 0 5.27615 0.280319 4.57547 0.799602C3.87479 1.31888 3.35957 2.04963 3.10583 2.88403C2.85208 3.71842 2.87324 4.61229 3.1662 5.43374C3.45915 6.2552 4.00838 6.96074 4.73285 7.44628C3.35368 7.91967 2.15652 8.81147 1.30817 9.99744C0.459814 11.1834 0.00252076 12.6045 0 14.0626H1.07321C1.07321 13.2843 1.22651 12.5136 1.52436 11.7945C1.82221 11.0754 2.25877 10.4221 2.80913 9.87173C3.35948 9.32137 4.01284 8.88481 4.73191 8.58696C5.45099 8.28911 6.22168 8.13581 7 8.13581C7.77832 8.13581 8.54901 8.28911 9.26808 8.58696C9.98716 8.88481 10.6405 9.32137 11.1909 9.87173C11.7412 10.4221 12.1778 11.0754 12.4756 11.7945C12.7735 12.5136 12.9268 13.2843 12.9268 14.0626H14C13.9979 12.6036 13.5401 11.1817 12.6906 9.99551C11.8412 8.80931 10.6424 7.91807 9.26179 7.44628ZM4.00307 4.06567C4.00203 3.47104 4.17774 2.88951 4.5079 2.39495C4.83806 1.9004 5.30776 1.51513 5.85734 1.28808C6.40692 1.06103 7.01158 1.00245 7.59452 1.11977C8.17747 1.2371 8.71239 1.52504 9.13134 1.94702C9.5503 2.369 9.83438 2.90598 9.94751 3.48975C10.0606 4.07352 9.99771 4.67775 9.76671 5.22568C9.53572 5.77361 9.14707 6.24053 8.65016 6.56712C8.15324 6.89371 7.57046 7.06524 6.97585 7.05992C6.18589 7.05286 5.43061 6.73444 4.87401 6.17383C4.31742 5.61321 4.00445 4.85566 4.00307 4.06567Z" fill="#3D81D3"/>
<path d="M1.07321 14.0626H0V15.4301H14V14.0626H12.9268H1.07321Z" fill="#3D81D3"/>
<path d="M6.14819 11.3149H3.28809V12.3881H6.14819V11.3149Z" fill="#3D81D3"/>
</svg>
