<svg width="72" height="55" viewBox="0 0 72 55" fill="none" xmlns="http://www.w3.org/2000/svg">
<g clip-path="url(#clip0_3760_30514)">
<path d="M58.0197 22.0707C57.2941 10.8348 49.4806 0 35.1503 0C22.0436 0 11.936 9.74215 11.4008 22.7436C4.22967 24.9748 0.314453 32.6489 0.314453 38.2345C0.314453 46.8347 7.46176 54.378 15.6083 54.378H26.6538C26.8791 54.378 27.0952 54.2885 27.2546 54.1291C27.4139 53.9698 27.5034 53.7537 27.5034 53.5283C27.5034 53.303 27.4139 53.0869 27.2546 52.9275C27.0952 52.7682 26.8791 52.6787 26.6538 52.6787H15.6083C8.36579 52.6787 2.01376 45.929 2.01376 38.2345C2.01376 33.0499 6.55772 23.7904 15.6083 23.7904H18.1572C18.3826 23.7904 18.5987 23.7008 18.758 23.5415C18.9174 23.3822 19.0069 23.1661 19.0069 22.9407C19.0069 22.7154 18.9174 22.4993 18.758 22.3399C18.5987 22.1806 18.3826 22.0911 18.1572 22.0911H15.6083C14.7433 22.0911 13.9259 22.1879 13.129 22.3273C13.7951 12.1484 21.5321 1.69931 35.1503 1.69931C49.744 1.69931 56.3917 13.151 56.3917 23.7904V26.3393C56.3917 26.5647 56.4813 26.7808 56.6406 26.9401C56.7999 27.0995 57.0161 27.189 57.2414 27.189C57.4667 27.189 57.6829 27.0995 57.8422 26.9401C58.0015 26.7808 58.0911 26.5647 58.0911 26.3393V23.7751C63.2213 24.3375 69.9862 29.8433 69.9862 38.2345C69.9862 44.7361 63.7141 52.6787 56.3917 52.6787H43.6469C38.1445 52.6787 36 50.5341 36 45.0318V21.7223L42.9298 28.6385C43.0081 28.7198 43.1017 28.7846 43.2053 28.8293C43.3089 28.8739 43.4204 28.8975 43.5332 28.8987C43.646 28.8998 43.7579 28.8785 43.8624 28.8359C43.9669 28.7933 44.0618 28.7304 44.1417 28.6507C44.2216 28.5711 44.2848 28.4763 44.3277 28.3719C44.3705 28.2676 44.3922 28.1557 44.3914 28.0429C44.3906 27.9301 44.3673 27.8186 44.3229 27.7148C44.2785 27.6111 44.2139 27.5173 44.1329 27.4388L36.5523 19.8734C35.5429 18.8675 34.7595 18.8675 33.7518 19.8734L26.1712 27.4388C26.0164 27.599 25.9308 27.8137 25.9327 28.0364C25.9346 28.2592 26.024 28.4723 26.1815 28.6299C26.3391 28.7874 26.5522 28.8767 26.7749 28.8787C26.9977 28.8806 27.2123 28.795 27.3726 28.6402L34.3007 21.7223V45.0318C34.3007 51.4959 37.1827 54.378 43.6469 54.378H56.3917C64.6283 54.378 71.6855 45.5008 71.6855 38.2345C71.6855 29.4542 64.5094 22.5873 58.0197 22.0707Z" fill="#94D4FF"/>
</g>
<defs>
<clipPath id="clip0_3760_30514">
<rect width="71.3711" height="54.378" fill="white" transform="translate(0.314453)"/>
</clipPath>
</defs>
</svg>
