<svg width="40" height="40" viewBox="0 0 40 40" fill="none" xmlns="http://www.w3.org/2000/svg">
<path d="M20 39.9219C19.8133 39.9219 19.6266 39.8552 19.478 39.722C19.4386 39.6866 15.4879 36.1274 11.5927 31.5552C6.285 25.3246 3.59375 20.2541 3.59375 16.4844C3.59375 7.43797 10.9536 0.078125 20 0.078125C29.0464 0.078125 36.4062 7.43797 36.4062 16.4844C36.4062 20.2541 33.715 25.3246 28.4072 31.5552C24.5121 36.1274 20.5613 39.6866 20.5219 39.722C20.3734 39.8552 20.1867 39.9219 20 39.9219ZM20 1.64062C11.8151 1.64062 5.15625 8.29953 5.15625 16.4844C5.15625 19.8246 7.79328 24.6856 12.7822 30.5419C15.7841 34.0656 18.8134 36.9716 19.9999 38.0786C21.1884 36.9696 24.2258 34.0557 27.2288 30.5289C32.2105 24.6785 34.8438 19.822 34.8438 16.4844C34.8438 8.29953 28.1849 1.64062 20 1.64062Z" fill="#0B44AA"/>
<path d="M20 27.4219C13.9691 27.4219 9.0625 22.5153 9.0625 16.4844C9.0625 10.4534 13.9691 5.54688 20 5.54688C26.0309 5.54688 30.9375 10.4534 30.9375 16.4844C30.9375 22.5153 26.0309 27.4219 20 27.4219ZM20 7.10938C14.8306 7.10938 10.625 11.3149 10.625 16.4844C10.625 21.6537 14.8306 25.8594 20 25.8594C25.1694 25.8594 29.375 21.6537 29.375 16.4844C29.375 11.3149 25.1694 7.10938 20 7.10938Z" fill="#0B44AA"/>
<path d="M22.7344 23.5156H20.3906C16.5136 23.5156 13.3594 20.3614 13.3594 16.4844C13.3594 12.6073 16.5136 9.45312 20.3906 9.45312C23.8369 9.45312 26.6406 12.2569 26.6406 15.7031C26.6406 16.5647 25.9397 17.2656 25.0781 17.2656H23.125C22.6936 17.2656 22.3438 16.9159 22.3438 16.4844C22.3438 16.0529 22.6936 15.7031 23.125 15.7031H25.0781C25.0781 13.1184 22.9753 11.0156 20.3906 11.0156C17.3752 11.0156 14.9219 13.4689 14.9219 16.4844C14.9219 19.4998 17.3752 21.9531 20.3906 21.9531H22.7344C23.1658 21.9531 23.5156 22.303 23.5156 22.7344C23.5156 23.1658 23.1658 23.5156 22.7344 23.5156Z" fill="#0B44AA"/>
</svg>
