<svg width="40" height="40" viewBox="0 0 40 40" fill="none" xmlns="http://www.w3.org/2000/svg">
<path d="M27.3099 34.2199L27.3106 34.2195C27.8006 33.9665 27.9914 33.3616 27.7355 32.8725C27.4785 32.3814 26.8756 32.19 26.3883 32.4462L26.3871 32.4469C23.6129 33.8866 20.4794 34.3356 17.3247 33.7508L17.3246 33.7507C11.6418 32.693 7.05953 27.9664 6.17328 22.25L27.3099 34.2199ZM27.3099 34.2199C25.0408 35.4012 22.5637 36.0016 20.017 36.0016C19.0061 36.0016 17.9847 35.9064 16.9594 35.7159C10.4622 34.5053 5.21279 29.0919 4.19903 22.555C3.42901 17.5901 4.9376 12.6693 8.33588 9.04944C11.7342 5.43122 16.5134 3.62741 21.5029 4.06895C28.9126 4.74553 34.9229 10.5504 35.8674 17.9057L35.8637 17.9069L35.887 18.1086C36.2317 21.0966 35.7489 24.0931 34.4907 26.772L34.4905 26.7724C33.7656 28.3229 32.1338 29.335 30.3303 29.335C28.0799 29.335 26.1968 27.7342 25.7602 25.6113L25.6681 25.1634L25.3407 25.4827C23.9582 26.8313 22.0766 27.6683 19.9986 27.6683C15.7717 27.6683 12.332 24.2286 12.332 20.0016C12.332 15.7747 15.7717 12.335 19.9986 12.335C22.0306 12.335 23.8686 13.1426 25.2437 14.4401L25.6653 14.8379V14.2583V13.335C25.6653 12.783 26.1134 12.335 26.6653 12.335C27.2172 12.335 27.6653 12.783 27.6653 13.335V24.67C27.6653 26.138 28.8588 27.3313 30.3247 27.335H30.3253H30.3303C31.3459 27.335 32.2758 26.7904 32.6833 25.9229L32.6833 25.9228C33.7834 23.5783 34.2039 20.9548 33.902 18.3363L33.902 18.3363M27.3099 34.2199L33.902 18.3363M33.902 18.3363C33.1617 11.9235 27.7541 6.65013 21.3182 6.06267L33.902 18.3363ZM9.7914 10.4205C6.81623 13.5891 5.49832 17.9017 6.17327 22.2499L21.318 6.06266C16.9904 5.66572 12.7662 7.25221 9.7914 10.4205ZM14.3336 20C14.3336 23.1247 16.8756 25.6666 20.0003 25.6666C23.1251 25.6666 25.667 23.1247 25.667 20C25.667 16.8752 23.1251 14.3333 20.0003 14.3333C16.8756 14.3333 14.3336 16.8752 14.3336 20Z" fill="#0B44AA" stroke="white" stroke-width="0.5"/>
</svg>
