<svg width="40" height="40" viewBox="0 0 40 40" fill="none" xmlns="http://www.w3.org/2000/svg">
<path d="M24.1818 35.4878C23.131 35.488 21.7671 35.1552 20.0006 34.2448C17.5471 32.9805 14.7287 30.8168 12.0645 28.1527C9.40025 25.4885 7.23674 22.6702 5.97236 20.2167C4.00721 16.4034 4.73393 14.4635 5.68979 13.5077L9.34635 9.85125C9.54783 9.63508 9.84174 9.54094 10.1622 9.59172C10.816 9.69555 12.1154 10.6593 13.0903 11.4495C14.0653 12.2396 15.2771 13.3113 15.5141 13.9295C15.6382 14.2533 15.5938 14.5815 15.3924 14.83C15.3753 14.8511 15.3572 14.8713 15.338 14.8905L12.4197 17.8088C12.5877 18.4694 14.011 20.546 16.8412 23.3762C19.6713 26.2063 21.7481 27.6296 22.4086 27.7977L25.3268 24.8794C25.346 24.8602 25.3662 24.842 25.3874 24.8249C25.5091 24.7262 25.8447 24.5167 26.3301 24.7028C27.0352 24.9732 28.1925 26.3116 28.8196 27.0852C29.4467 27.8589 30.5164 29.2682 30.6348 30.0141C30.7061 30.4633 30.5049 30.7377 30.3719 30.8652L26.7096 34.5277C26.1967 35.0407 25.3997 35.4878 24.1818 35.4878ZM10.1548 11.2525L6.79471 14.6125C5.67354 15.7337 6.66854 18.1565 7.36135 19.5009C8.55369 21.8145 10.6163 24.4947 13.1694 27.0477C15.7224 29.6008 18.4027 31.6634 20.7164 32.8559C22.0609 33.5488 24.4841 34.5438 25.6049 33.4227L28.991 30.0366C28.7946 29.665 28.3318 28.9646 27.6059 28.0689C26.934 27.2399 26.379 26.666 26.0442 26.3718L23.3765 29.0395C22.5494 29.8665 21.1499 29.0422 19.89 28.1266C18.6925 27.2564 17.2172 25.9616 15.736 24.4802C14.2549 22.9992 12.9603 21.5241 12.0903 20.3268C11.1751 19.0671 10.3509 17.6678 11.1778 16.8409L13.8185 14.2002C13.0719 13.3927 11.0206 11.7374 10.1548 11.2525Z" fill="#0B44AA"/>
<path d="M30.6348 30.014C30.5163 29.2682 29.4466 27.8589 28.8195 27.0851C28.1925 26.3115 27.0352 24.9732 26.3301 24.7028C25.8446 24.5166 25.509 24.7261 25.3873 24.8249C25.3662 24.842 25.346 24.8601 25.3268 24.8793L22.4086 27.7976C21.748 27.6297 19.6713 26.2063 16.8412 23.3762C14.011 20.546 12.5877 18.4693 12.4197 17.8088L15.338 14.8905C15.3572 14.8713 15.3753 14.8511 15.3924 14.83C15.5938 14.5814 15.6382 14.2532 15.5141 13.9294C15.277 13.3113 14.0651 12.2396 13.0903 11.4494C12.1154 10.6592 10.816 9.69551 10.1622 9.59168C9.84163 9.54098 9.54781 9.63512 9.34632 9.85122L5.68976 13.5077C4.73398 14.4635 4.00718 16.4033 5.97234 20.2167C7.23671 22.6701 9.40023 25.4885 12.0644 28.1526C14.7287 30.8168 17.5471 32.9805 20.0005 34.2448C21.7669 35.1551 23.1309 35.4879 24.1818 35.4878C25.3997 35.4878 26.1967 35.0407 26.7098 34.5275L30.372 30.8651C30.5048 30.7375 30.7061 30.4632 30.6348 30.014ZM25.6047 33.4227C24.4837 34.5438 22.0606 33.5489 20.7162 32.856C18.4025 31.6635 15.7222 29.6008 13.1691 27.0477C10.6161 24.4947 8.55343 21.8146 7.36109 19.5009C6.66827 18.1565 5.67327 15.7336 6.79445 14.6125L10.1545 11.2525C11.0204 11.7375 13.0716 13.3928 13.8183 14.2004L11.1776 16.8411C10.3506 17.668 11.1748 19.0673 12.0901 20.327C12.96 21.5243 14.2547 22.9994 15.7358 24.4804C17.2169 25.9618 18.6923 27.2566 19.8898 28.1268C21.1497 29.0424 22.5491 29.8667 23.3762 29.0397L26.0439 26.372C26.3787 26.6662 26.9338 27.24 27.6056 28.0691C28.3316 28.9648 28.7944 29.6652 28.9908 30.0368L25.6047 33.4227ZM29.156 21.2458C28.7246 21.2458 28.3748 20.8961 28.3748 20.4646C28.3748 15.4707 24.3118 11.4077 19.3178 11.4077C18.8864 11.4077 18.5366 11.0579 18.5366 10.6264C18.5366 10.195 18.8864 9.8452 19.3178 9.8452C25.1734 9.8452 29.9373 14.609 29.9373 20.4646C29.9373 20.8961 29.5875 21.2458 29.156 21.2458Z" fill="#0B44AA"/>
<path d="M24.2372 22.1763C23.8058 22.1763 23.456 21.8264 23.456 21.3951C23.456 18.6004 21.1823 16.3268 18.3877 16.3268C17.9563 16.3268 17.6064 15.9771 17.6064 15.5456C17.6064 15.1141 17.9563 14.7643 18.3877 14.7643C22.0439 14.7643 25.0185 17.7388 25.0185 21.3951C25.0185 21.8265 24.6687 22.1763 24.2372 22.1763ZM34.4894 21.3231C34.058 21.3231 33.7082 20.9734 33.7082 20.5419C33.7082 12.5647 27.2182 6.07471 19.2409 6.07471C18.8095 6.07471 18.4596 5.72494 18.4596 5.29346C18.4596 4.86197 18.8095 4.51221 19.2409 4.51221C28.0797 4.51221 35.2707 11.7031 35.2707 20.5419C35.2707 20.9734 34.9208 21.3231 34.4894 21.3231Z" fill="#0B44AA"/>
</svg>
